<svg xmlns="http://www.w3.org/2000/svg" viewBox="0 0 429.65 193.8"><defs><style>.cls-1{fill:#fff;}</style></defs><g id="Layer_2" data-name="Layer 2"><g id="Layer_1-2" data-name="Layer 1"><polygon class="cls-1" points="154.13 118.33 153.84 117.64 145.53 137.56 148.82 137.56 150.44 133.48 152.66 133.48 152.92 130.81 151.52 130.81 153.37 126.19 154.13 118.33 154.13 118.33"/><polygon class="cls-1" points="142.94 137.56 142.96 118.5 139.98 118.5 139.96 137.55 142.94 137.56 142.94 137.56"/><path class="cls-1" d="M136.84,127.67h-6.58v2.7h3.6v3.52h0a6,6,0,0,1-1.06.41.08.08,0,0,1-.05,0,.14.14,0,0,0-.1,0,.12.12,0,0,0-.08,0h-.07a.15.15,0,0,1-.11,0s0,0-.05,0c-.18,0-.38.07-.56.1h-.16s-.05,0-.05,0h-.38a.1.1,0,0,1-.08,0h-.18a6.57,6.57,0,0,1-6.29-4.78,7,7,0,0,1-.23-1.44,3,3,0,0,1,0-.69v-.29c0-.25.08-.51.13-.77,0,0,0,0,0,0a6.21,6.21,0,0,1,.79-2,.15.15,0,0,1,.06-.1l.15-.23,0,0a4.62,4.62,0,0,1,.34-.47,0,0,0,0,0,0,0,3.64,3.64,0,0,1,.34-.34,5.29,5.29,0,0,1,1.13-.92.74.74,0,0,0,.13-.08,6.4,6.4,0,0,1,3.36-.92h.41s.05,0,.08,0h.23s.08,0,.1,0h.05l.11,0h.05c.1,0,.23,0,.33,0s0,0,0,0,.08,0,.1,0h.08a.09.09,0,0,0,.08,0,7.41,7.41,0,0,1,1.18.44h0a5.7,5.7,0,0,1,1.28.82v-3.52h0l-.15-.08s0,0,0,0a9.25,9.25,0,0,0-3.21-.8h0a.61.61,0,0,0-.23,0h-.49a9.5,9.5,0,0,0-6.73,2.77,9.81,9.81,0,0,0-2.06,3,10.33,10.33,0,0,0-.74,3.23V128c0,.31,0,.64.05,1a9,9,0,0,0,.69,2.75,9.44,9.44,0,0,0,2,3,8.58,8.58,0,0,0,2.11,1.6,5.27,5.27,0,0,0,.92.46l.38.15c.11,0,.18.08.29.11h0a9.22,9.22,0,0,0,3,.49h.48a9.69,9.69,0,0,0,3.42-.82l0,0,.18-.07h0l.12-.08h.06l.05-.05a.25.25,0,0,0,.13-.05s0,0,.07-.06a.69.69,0,0,0,.13,0,.35.35,0,0,0,.08-.05s0,0,.08,0a.27.27,0,0,0,.1-.08.11.11,0,0,0,.1,0s0,0,.08-.05a.16.16,0,0,0,.1-.05s0,0,0,0h0l.67-.46v-5.16h0v-2.69Z"/><path class="cls-1" d="M109.22,137.53a9.7,9.7,0,0,0,3.73-.74,10.14,10.14,0,0,0,3-2,9.57,9.57,0,0,0,2.78-6.73,9.87,9.87,0,0,0-.74-3.72,9.38,9.38,0,0,0-5.06-5.07,9.68,9.68,0,0,0-3.72-.74,9.47,9.47,0,0,0-3.7.74,9.2,9.2,0,0,0-3,2,10.17,10.17,0,0,0-2.06,3A9.89,9.89,0,0,0,99.7,128a9.43,9.43,0,0,0,.75,3.69,9.72,9.72,0,0,0,5.08,5.09,9.43,9.43,0,0,0,3.69.75Zm0-16.08a6.55,6.55,0,1,1-4.63,11.17,6.48,6.48,0,0,1-1.93-4.62,6.59,6.59,0,0,1,6.56-6.55Z"/><polygon class="cls-1" points="99.34 134.82 91.38 134.82 91.39 118.46 88.41 118.46 88.4 137.51 91.35 137.52 91.35 137.52 99.34 137.52 99.34 134.82 99.34 134.82"/><path class="cls-1" d="M75.51,137.5a9.68,9.68,0,0,0,3.72-.74,10.14,10.14,0,0,0,3-2,9.25,9.25,0,0,0,2-3,9.67,9.67,0,0,0,0-7.42,9.89,9.89,0,0,0-2-3,9.52,9.52,0,0,0-6.75-2.78,9.55,9.55,0,0,0-6.73,2.77,10.14,10.14,0,0,0-2.05,3A9.69,9.69,0,0,0,66,128a9.51,9.51,0,0,0,.74,3.7,9.49,9.49,0,0,0,8.78,5.83Zm0-16.07a6.57,6.57,0,1,1-4.62,1.92,6.47,6.47,0,0,1,4.62-1.92Z"/><polygon class="cls-1" points="62.62 138.37 62.63 118.44 59.63 118.44 59.62 130.66 47.66 117.53 47.65 137.48 50.63 137.48 50.63 125.23 62.62 138.37 62.62 138.37"/><path class="cls-1" d="M44.26,131.86a8.54,8.54,0,0,1-.64.71,6.54,6.54,0,1,1-9.24-9.25,6.54,6.54,0,0,1,8.76-.45v-3.52l-.41-.18a9.61,9.61,0,0,0-7.42,0,8.93,8.93,0,0,0-3,2,9.43,9.43,0,0,0-2.81,6.75,9.52,9.52,0,0,0,.75,3.7,9.23,9.23,0,0,0,2.05,3,9.56,9.56,0,0,0,10.45,2.06,10.8,10.8,0,0,0,1.54-.82v-4Z"/><polygon class="cls-1" points="19.21 121.08 27.66 121.08 27.66 118.41 19.18 118.41 19.18 118.41 16.23 118.4 16.22 137.46 19.17 137.46 19.17 137.46 27.64 137.47 27.64 134.77 19.2 134.76 19.2 128.86 26.16 128.86 26.16 126.17 19.2 126.16 19.21 121.08 19.21 121.08"/><polygon class="cls-1" points="13.48 118.4 0 118.39 0 121.06 5.24 121.06 5.22 137.45 8.23 137.45 8.24 121.07 13.48 121.07 13.48 118.4 13.48 118.4"/><path class="cls-1" d="M151.88,106.4a9.85,9.85,0,0,0,3.48-.65l.35-3.58a6.49,6.49,0,0,1-8.45-.68,6.54,6.54,0,1,1,9.25-9.24l.15.16.35-3.58a10.39,10.39,0,0,0-1.4-.74,9.61,9.61,0,0,0-7.42,0,9.49,9.49,0,0,0-3,2,10.17,10.17,0,0,0-2.06,3,9.68,9.68,0,0,0-.74,3.72,9.61,9.61,0,0,0,5.82,8.79,9.45,9.45,0,0,0,3.7.75Z"/><path class="cls-1" d="M138.34,106.39h3.26l-8.25-19.94L125,106.38h3.29L130,102.3h6.78l1.61,4.09ZM131,99.63l2.32-5.8,2.3,5.8Z"/><path class="cls-1" d="M136.77,82.66h-1.39V83a.47.47,0,0,1-.23.44,1.14,1.14,0,0,1-.54.12,1.86,1.86,0,0,1-.87-.23,3.93,3.93,0,0,0-1.54-.38h0a2.5,2.5,0,0,0-1.41.38,1.75,1.75,0,0,0-.62.62,2,2,0,0,0-.25.92v.31h1.41v-.31a.37.37,0,0,1,.2-.36,1.33,1.33,0,0,1,.67-.15,1.92,1.92,0,0,1,1,.23,3.57,3.57,0,0,0,1.52.36,2.29,2.29,0,0,0,1.25-.33,1.81,1.81,0,0,0,.65-.67,2.05,2.05,0,0,0,.23-1v-.33Z"/><path class="cls-1" d="M122.37,101.47a6.53,6.53,0,1,1-9.23-9.25,6.39,6.39,0,0,1,4.62-1.93,6.49,6.49,0,0,1,4.13,1.47V88.24l-.41-.18a9.34,9.34,0,0,0-3.73-.74,8.84,8.84,0,0,0-3.7.74,9.1,9.1,0,0,0-3,2,9.48,9.48,0,0,0-2.8,6.76,9.43,9.43,0,0,0,.74,3.69,9.63,9.63,0,0,0,5.08,5.09,10.06,10.06,0,0,0,2.13.62l-1.51,2.1,1.33.24a2.09,2.09,0,0,1,1,.43.83.83,0,0,1,.33.49.6.6,0,0,1-.28.64,1.14,1.14,0,0,1-.57.13,2.36,2.36,0,0,1-.36,0,5.15,5.15,0,0,1-1.87-.93l-.21-.15-1,1.33.2.15a6.16,6.16,0,0,0,2.62,1.26,4.76,4.76,0,0,0,.64.06h0a2.65,2.65,0,0,0,1.46-.39A2.28,2.28,0,0,0,119,109.2a2.54,2.54,0,0,0-.9-1.47,2.9,2.9,0,0,0-.64-.44l.67-.92a9.84,9.84,0,0,0,3.31-.74,11.29,11.29,0,0,0,1.54-.82v-4.06a7.41,7.41,0,0,1-.65.72Z"/><path class="cls-1" d="M104.39,106.36h3.27L99.4,86.43l-8.31,19.92h3.29L96,102.27h6.78l1.61,4.08ZM97.08,99.6l2.32-5.8,2.3,5.8Z"/><path class="cls-1" d="M89.27,100.72a7.31,7.31,0,0,1-.64.72,6.53,6.53,0,1,1-9.23-9.25,6.53,6.53,0,0,1,8.75-.45V88.22L87.74,88a9.61,9.61,0,0,0-7.42,0,9,9,0,0,0-3,2,9.37,9.37,0,0,0-2.8,6.75,9.61,9.61,0,0,0,5.82,8.79,9.67,9.67,0,0,0,7.42,0,10.8,10.8,0,0,0,1.54-.82v-4.06Z"/><path class="cls-1" d="M64.41,106.33a7.75,7.75,0,0,0,4.73-1.51,6.37,6.37,0,0,0,1.7-2.06,6.77,6.77,0,0,0,.64-2.9V87.28h-3V99.86a3.07,3.07,0,0,1-1.15,2.59,4.86,4.86,0,0,1-2.91.9,4.81,4.81,0,0,1-2.9-.9,3.11,3.11,0,0,1-1.18-2.6V87.27h-3V99.85a6.36,6.36,0,0,0,.64,2.9,5.66,5.66,0,0,0,1.69,2.06,7.68,7.68,0,0,0,4.72,1.52Z"/><path class="cls-1" d="M52,90.11A7.84,7.84,0,0,0,48.89,88a10.6,10.6,0,0,0-4.16-.75H40.21v19.06h4.52a11.21,11.21,0,0,0,4.16-.74,7.84,7.84,0,0,0,3.06-2.1,10.83,10.83,0,0,0,0-13.36Zm-2.22,11.35a6.44,6.44,0,0,1-5,1.87H43.18V90.24h1.54a6.38,6.38,0,0,1,5,1.88,7.87,7.87,0,0,1,0,9.34Z"/><polygon class="cls-1" points="28.24 89.92 36.69 89.92 36.7 87.25 28.22 87.25 28.22 87.25 25.27 87.24 25.25 106.3 28.21 106.3 28.21 106.3 36.68 106.31 36.68 103.61 28.23 103.6 28.24 97.7 35.2 97.7 35.2 95.01 28.24 95 28.24 89.92 28.24 89.92"/><polygon class="cls-1" points="160.19 56.18 157.82 56.18 157.81 68.4 145.86 55.27 145.84 75.22 148.82 75.23 148.83 62.98 158.49 73.57 160.19 56.18 160.19 56.18"/><path class="cls-1" d="M142.71,65.34h-6.57V68h3.59v3.52h0a5.28,5.28,0,0,1-1.06.41.08.08,0,0,1-.05,0s-.08,0-.1,0a.12.12,0,0,0-.08,0h-.08s-.07,0-.1,0,0,0-.05,0c-.18,0-.39.07-.57.1h-.15s-.05,0-.05,0H137a.07.07,0,0,1-.07,0h-.18a6.57,6.57,0,0,1-6.29-4.78,6.87,6.87,0,0,1-.23-1.44,1.35,1.35,0,0,1,0-.33,1.42,1.42,0,0,1,0-.36V65c0-.25.08-.51.13-.77,0,0,0,0,0,0a6.21,6.21,0,0,1,.79-1.95.24.24,0,0,1,0-.1l.16-.23.05,0c.1-.16.21-.31.33-.47,0,0,0,0,0,0a3.42,3.42,0,0,1,.33-.33,5.89,5.89,0,0,1,1.13-.93.26.26,0,0,0,.13-.08,6.46,6.46,0,0,1,3.37-.92h.41s.05,0,.08,0h.23s.07,0,.1,0h0l.1,0h.05c.11,0,.24,0,.34.05a.06.06,0,0,0,0,0c.05,0,.08,0,.1,0h.08a.09.09,0,0,0,.08,0,7.41,7.41,0,0,1,1.18.44h0a6.07,6.07,0,0,1,1.28.82V57.09h0l-.16-.08a0,0,0,0,1,0,0,9.53,9.53,0,0,0-3.21-.8h0a.61.61,0,0,0-.23,0h-.49a9.62,9.62,0,0,0-6.73,2.77A9.81,9.81,0,0,0,128,62a10.05,10.05,0,0,0-.74,3.24v.48c0,.31,0,.65,0,.95a9,9,0,0,0,.69,2.75,9.28,9.28,0,0,0,2.05,3,8.12,8.12,0,0,0,2.1,1.6,5.37,5.37,0,0,0,.93.46l.38.15c.11,0,.18.08.28.11h0a9.2,9.2,0,0,0,3,.49h.49a9.69,9.69,0,0,0,3.42-.82l0,0,.18-.07h0l.13-.08h.05l.06,0a.19.19,0,0,0,.12,0s.06,0,.08-.05l.13-.06a.35.35,0,0,0,.08-.05s.05,0,.07,0a.52.52,0,0,0,.11-.07s.07,0,.1-.06a.15.15,0,0,0,.08,0,.19.19,0,0,0,.1,0s0,0,0,0h0l.67-.47V68h0V65.34Z"/><polygon class="cls-1" points="124.04 75.21 124.05 56.15 121.08 56.15 121.06 75.2 124.04 75.21 124.04 75.21"/><path class="cls-1" d="M117.93,68.71a5.72,5.72,0,0,0-1.66-2.5c-.42-.38-1-.92-1.44-1.38h0l-3.18-3.06c-.8-.77-.82-1.36-.72-1.72a1.75,1.75,0,0,1,1.39-1.11A2.53,2.53,0,0,1,114.83,60l2.34-1.88a6.46,6.46,0,0,0-2.59-1.93,5.08,5.08,0,0,0-2.83-.2,4.91,4.91,0,0,0-2.28,1.07,4.31,4.31,0,0,0-1.42,2.13,4.16,4.16,0,0,0,0,2.42,5.52,5.52,0,0,0,1.46,2.28l2.34,2.21c.1.11,1.49,1.47,2.33,2.27a2.24,2.24,0,0,1,.88,2.15,2.54,2.54,0,0,1-2,1.59,2.9,2.9,0,0,1-1.74-.15,4.25,4.25,0,0,1-1.88-1.49l-2.36,1.84a7.54,7.54,0,0,0,3.16,2.45,6.15,6.15,0,0,0,2.25.41,6.49,6.49,0,0,0,1.16-.1A5.52,5.52,0,0,0,118,71.38a4.5,4.5,0,0,0,0-2.67Z"/><polygon class="cls-1" points="95.93 58.8 104.38 58.81 104.38 56.14 95.91 56.13 95.91 56.13 92.96 56.13 92.94 75.18 95.89 75.19 95.89 75.19 104.37 75.19 104.37 72.5 95.92 72.49 95.93 66.58 102.89 66.59 102.89 63.89 95.93 63.89 95.93 58.8 95.93 58.8"/><path class="cls-1" d="M87.36,59a7.75,7.75,0,0,0-3.06-2.11,10.6,10.6,0,0,0-4.16-.75H75.62V75.17h4.52a11.17,11.17,0,0,0,4.16-.74,7.84,7.84,0,0,0,3.06-2.1,9.75,9.75,0,0,0,2.31-6.68A9.74,9.74,0,0,0,87.36,59ZM85.14,70.32a6.41,6.41,0,0,1-5,1.87H78.59V59.1h1.54a6.38,6.38,0,0,1,5,1.88,6.82,6.82,0,0,1,1.53,4.67,6.86,6.86,0,0,1-1.54,4.67Z"/><polygon class="cls-1" points="190.45 29.64 177.32 164.44 177.21 165.61 176.04 165.5 174.99 165.4 173.81 165.29 173.92 164.12 187.05 29.32 187.16 28.15 188.33 28.26 189.38 28.36 190.56 28.47 190.45 29.64 190.45 29.64"/><path class="cls-1" d="M217.79,0,350.38.1h.1q28,2.32,42.24,15a41.33,41.33,0,0,1,11.64,17.49,35.5,35.5,0,0,1,9.12,5.06c7.24,5.62,11.37,13.87,12.14,24.42a42.6,42.6,0,0,1-5.9,25.75c-4.13,6.8-10.3,12.7-18.33,17.67a37.54,37.54,0,0,1,3.21,7,53,53,0,0,1,2.61,16.31h8a14.28,14.28,0,0,1,5.89,1.22,14.95,14.95,0,0,1,7.92,8.75h0a14.51,14.51,0,0,1,.6,6l-.9,9a14.47,14.47,0,0,1-14.44,13H397.54a50.17,50.17,0,0,1-14.66,14.65q-19.19,12.64-53.35,12.27L199,193.8h-1.38l.13-1.38L216.54,1.14,216.65,0Zm96.42,76-33.28,24.56,30.73,0L314.21,76Zm-37.85,24.81L315,72.31l2.29-1.69L317,73.45l-3,28.56-.12,1.13H312.8l-35.69,0h-3.82l3.07-2.27Zm32.26,30.58-68.65,0-1.22,0q-7.59-.3-11.48-4.33h0q-3.9-4-3.9-11.58c0-.32,0-.73,0-1.2v-.09l0-.11a22.8,22.8,0,0,1,4.17-9.37,27.42,27.42,0,0,1,8.12-7l82.71-62.26A17.32,17.32,0,0,1,320,33.79a17.75,17.75,0,0,1,12-4.59l51.62,0a61.58,61.58,0,0,1,17.72,2.35A38.76,38.76,0,0,0,391,17q-13.6-12.14-40.71-14.4L218.92,2.52,200.39,191.28l129.15,0h0q33.4.36,51.94-11.85a48.07,48.07,0,0,0,13-12.56l-54.73,0h-11.4a20.57,20.57,0,0,1-15.66-7h0a20.47,20.47,0,0,1-5.32-16.3h0l1.24-12.09Zm38.72-99.69A10.81,10.81,0,0,1,349.06,33a10.48,10.48,0,0,1,3.4,8.21c0,.51,0,1.07-.1,1.68l-2.22,21.86h14.72a26.89,26.89,0,0,1,9.77,1.4c2.61,1.06,4.14,2.73,4.6,5.09.68,3.53-1.71,5.19-5.64,7.92h0c-1.37.95-2.95,2-4.67,3.44l-22.43,18.09L340,164.27l56.12,0a58.71,58.71,0,0,0,7.61-21.72h0a93.24,93.24,0,0,0,.94-11.21l-49.81,0h-4.83l4.22-2.35L397,105.18l.82-.46a32.4,32.4,0,0,0-10.05-9.22l-1.46-.87,1.27-1.14a48,48,0,0,0,12.43-17.86,71.3,71.3,0,0,0,4.84-24.55,55.93,55.93,0,0,0-2.53-16.49,57,57,0,0,0-18.81-2.83l-36.21,0Zm2.55,35.52-3,29.92,20.49-16.54c1.76-1.42,3.4-2.56,4.82-3.54h0c3.08-2.14,5-3.46,4.6-5.38a4.47,4.47,0,0,0-3.08-3.23,24.67,24.67,0,0,0-8.82-1.21ZM240,128.85l70,.05h1.39l0,.42a46,46,0,0,1,11.38-12.71l21.34-17.22,3.27-32.14-15.69,0a17.68,17.68,0,0,1-17.74-19.64l.24-2.35a18.09,18.09,0,0,1,1-4.26L237.2,99.65l0,0-.09,0a24.94,24.94,0,0,0-7.46,6.44,20.34,20.34,0,0,0-3.7,8.25c0,.29,0,.62,0,1q0,6.54,3.18,9.83h0q3.18,3.29,9.77,3.56l1.13,0Zm91.87,35.42h5.66l6.24-61.37-19.42,15.67c-4.89,4-8.71,8.12-11.16,12.69a25.46,25.46,0,0,0-3,14.88c.55,5.55,2.8,10.16,6.61,13.33h0c3.62,3,8.66,4.75,15,4.81Zm15.78-99.54,2.24-22.11a13.56,13.56,0,0,0,.07-1.43,8,8,0,0,0-2.55-6.33c-1.72-1.53-4.27-2.44-7.49-2.77C339,32,338.1,32,337.09,32a39.4,39.4,0,0,0-8.78.8,13.09,13.09,0,0,0-5.7,2.59l-.05,0-2.42,1.82a15.32,15.32,0,0,0-3.47,8.28l-.24,2.35a15.17,15.17,0,0,0,15.24,16.87l15.95,0Zm57.73-29a60.56,60.56,0,0,1,2,15.32v0a74,74,0,0,1-5,25.44,50.79,50.79,0,0,1-11.87,17.65,34.44,34.44,0,0,1,9.51,9.19c7.7-4.76,13.61-10.38,17.53-16.85a40.16,40.16,0,0,0,5.55-24.28c-.72-9.8-4.52-17.44-11.17-22.61a32.12,32.12,0,0,0-6.59-3.91Zm1.86,95.63a92.78,92.78,0,0,1-1,11.55v0a61.84,61.84,0,0,1-7.17,21.35h15.16a11.92,11.92,0,0,0,11.94-10.77l.9-9a11.79,11.79,0,0,0-.5-5h0a11.77,11.77,0,0,0-2.53-4.28,11.9,11.9,0,0,0-4-3,12,12,0,0,0-4.88-1Zm-8.95-24-38.53,21.47,45,0a50.91,50.91,0,0,0-2.48-15.5,34.86,34.86,0,0,0-3-6.54l-1,.54Z"/></g></g></svg>