<svg xmlns="http://www.w3.org/2000/svg" xmlns:xlink="http://www.w3.org/1999/xlink" viewBox="0 0 1920 1081.21"><defs><style>.cls-1{isolation:isolate;}.cls-10,.cls-11,.cls-12,.cls-13,.cls-14,.cls-15,.cls-16,.cls-17,.cls-18,.cls-19,.cls-2,.cls-5,.cls-6,.cls-7,.cls-8,.cls-9{fill:none;}.cls-3{opacity:0.42;}.cls-4{fill:#fff;mix-blend-mode:overlay;}.cls-13,.cls-14,.cls-15,.cls-19,.cls-5,.cls-6,.cls-7,.cls-8,.cls-9{stroke-miterlimit:10;}.cls-5{stroke-width:20px;stroke:url(#linear-gradient);}.cls-19,.cls-5,.cls-6,.cls-7,.cls-8{opacity:0.25;mix-blend-mode:screen;}.cls-6{stroke-width:7.2px;stroke:url(#linear-gradient-2);}.cls-7{stroke-width:4.95px;stroke:url(#linear-gradient-3);}.cls-8{stroke-width:2.64px;stroke:url(#linear-gradient-4);}.cls-11,.cls-9{stroke:#00ffe9;}.cls-18,.cls-9{stroke-width:2px;}.cls-10,.cls-16{stroke:#fd00ff;}.cls-10,.cls-11,.cls-12,.cls-16,.cls-17,.cls-18{stroke-linecap:round;stroke-linejoin:round;}.cls-10,.cls-12{stroke-width:1.5px;}.cls-11{stroke-width:1.71px;}.cls-12,.cls-18{stroke:#fde60a;}.cls-13,.cls-14,.cls-15{stroke-width:6.12px;}.cls-13{stroke:url(#linear-gradient-5);}.cls-14{stroke:url(#linear-gradient-6);}.cls-15{stroke:url(#linear-gradient-7);}.cls-16,.cls-17{stroke-width:3.3px;}.cls-17{stroke:#00f9ff;}.cls-19{stroke-width:5px;stroke:url(#linear-gradient-8);}</style><linearGradient id="linear-gradient" x1="-1957.57" y1="2464.62" x2="-1565.52" y2="2464.62" gradientTransform="translate(-1770.17 -43.27) rotate(-111.67)" gradientUnits="userSpaceOnUse"><stop offset="0" stop-color="#8b1cb5"/><stop offset="0.02" stop-color="#891cb5"/><stop offset="0.29" stop-color="#6e1cba"/><stop offset="0.53" stop-color="#5e1cbc"/><stop offset="0.71" stop-color="#581cbd"/></linearGradient><linearGradient id="linear-gradient-2" x1="-2768.65" y1="-532.84" x2="-2529.73" y2="-532.84" gradientTransform="matrix(-0.87, 0.49, -0.49, -0.87, -1396.56, 1527.31)" xlink:href="#linear-gradient"/><linearGradient id="linear-gradient-3" x1="-2539.82" y1="1946.9" x2="-2375.42" y2="1946.9" gradientTransform="matrix(-0.72, -0.7, 0.7, -0.72, -1948.54, 369.14)" xlink:href="#linear-gradient"/><linearGradient id="linear-gradient-4" x1="-429.11" y1="2376.3" x2="-99.1" y2="2376.3" gradientTransform="translate(-469.51 -586.91) rotate(-69.52)" xlink:href="#linear-gradient"/><linearGradient id="linear-gradient-5" x1="-972.44" y1="2948.77" x2="-793.94" y2="2948.77" gradientTransform="translate(-1284.58 -391.22) rotate(-90)" gradientUnits="userSpaceOnUse"><stop offset="0" stop-color="#fd0"/><stop offset="0.08" stop-color="#fbd11b"/><stop offset="0.33" stop-color="#efb06b"/><stop offset="0.56" stop-color="#e595ab"/><stop offset="0.75" stop-color="#de82d8"/><stop offset="0.89" stop-color="#da76f5"/><stop offset="0.97" stop-color="#d872ff"/></linearGradient><linearGradient id="linear-gradient-6" x1="-637.89" y1="3110.59" x2="-459.39" y2="3110.59" xlink:href="#linear-gradient-5"/><linearGradient id="linear-gradient-7" x1="246.37" y1="-1189.06" x2="402.21" y2="-1189.06" gradientTransform="matrix(0.73, 0.68, -0.68, 0.73, -510.95, 692.56)" xlink:href="#linear-gradient-5"/><linearGradient id="linear-gradient-8" x1="-2982.46" y1="-1065.52" x2="-2633.97" y2="-1065.52" gradientTransform="translate(-1393.98 1294.99) rotate(135)" xlink:href="#linear-gradient"/></defs><g class="cls-1"><g id="Layer_2" data-name="Layer 2"><g id="Layer_1-2" data-name="Layer 1"><rect class="cls-2" y="0.56" width="1920" height="1080"/><g class="cls-3"><path class="cls-4" d="M1826.91,942.66a4.25,4.25,0,1,1-4.25,4.24A4.25,4.25,0,0,1,1826.91,942.66Zm23.75,0a4.25,4.25,0,1,1-4.25,4.24A4.25,4.25,0,0,1,1850.66,942.66Zm23.75,0a4.25,4.25,0,1,1-4.25,4.24A4.25,4.25,0,0,1,1874.41,942.66Zm23.75,0a4.25,4.25,0,1,1-4.25,4.24A4.24,4.24,0,0,1,1898.16,942.66Zm-71.25,23.59a4.25,4.25,0,1,1-4.25,4.25A4.26,4.26,0,0,1,1826.91,966.25Zm23.75,0a4.25,4.25,0,1,1-4.25,4.25A4.26,4.26,0,0,1,1850.66,966.25Zm23.75,0a4.25,4.25,0,1,1-4.25,4.25A4.24,4.24,0,0,1,1874.41,966.25Zm23.75,0a4.25,4.25,0,1,1-4.25,4.25A4.25,4.25,0,0,1,1898.16,966.25Zm-71.25,23.6a4.25,4.25,0,1,1-4.25,4.25A4.25,4.25,0,0,1,1826.91,989.85Zm23.75,0a4.25,4.25,0,1,1-4.25,4.25A4.25,4.25,0,0,1,1850.66,989.85Zm23.75,0a4.25,4.25,0,1,1-4.25,4.25A4.25,4.25,0,0,1,1874.41,989.85Zm23.75,0a4.25,4.25,0,1,1-4.25,4.25A4.24,4.24,0,0,1,1898.16,989.85Zm-71.25,23.6a4.25,4.25,0,1,1-4.25,4.24A4.25,4.25,0,0,1,1826.91,1013.45Zm23.75,0a4.25,4.25,0,1,1-4.25,4.24A4.25,4.25,0,0,1,1850.66,1013.45Zm23.75,0a4.25,4.25,0,1,1-4.25,4.24A4.25,4.25,0,0,1,1874.41,1013.45Zm23.75,0a4.25,4.25,0,1,1-4.25,4.24A4.24,4.24,0,0,1,1898.16,1013.45ZM1826.91,1037a4.25,4.25,0,1,1-4.25,4.25A4.26,4.26,0,0,1,1826.91,1037Zm23.75,0a4.25,4.25,0,1,1-4.25,4.25A4.26,4.26,0,0,1,1850.66,1037Zm23.75,0a4.25,4.25,0,1,1-4.25,4.25A4.26,4.26,0,0,1,1874.41,1037Zm23.75,0a4.25,4.25,0,1,1-4.25,4.25A4.25,4.25,0,0,1,1898.16,1037Zm-118.75-94.38a4.25,4.25,0,1,1-4.24,4.24A4.24,4.24,0,0,1,1779.41,942.66Zm0,23.59a4.25,4.25,0,1,1-4.24,4.25A4.25,4.25,0,0,1,1779.41,966.25Zm0,23.6a4.25,4.25,0,1,1-4.24,4.25A4.25,4.25,0,0,1,1779.41,989.85Zm0,23.6a4.25,4.25,0,1,1-4.24,4.24A4.24,4.24,0,0,1,1779.41,1013.45Zm0,23.59a4.25,4.25,0,1,1-4.24,4.25A4.25,4.25,0,0,1,1779.41,1037Zm0,23.6a4.25,4.25,0,1,1-4.24,4.25A4.25,4.25,0,0,1,1779.41,1060.64Zm23.75-118a4.25,4.25,0,1,1-4.24,4.24A4.24,4.24,0,0,1,1803.16,942.66Zm0,23.59a4.25,4.25,0,1,1-4.24,4.25A4.25,4.25,0,0,1,1803.16,966.25Zm0,23.6a4.25,4.25,0,1,1-4.24,4.25A4.25,4.25,0,0,1,1803.16,989.85Zm0,23.6a4.25,4.25,0,1,1-4.24,4.24A4.24,4.24,0,0,1,1803.16,1013.45Zm0,23.59a4.25,4.25,0,1,1-4.24,4.25A4.25,4.25,0,0,1,1803.16,1037Zm0,23.6a4.25,4.25,0,1,1-4.24,4.25A4.25,4.25,0,0,1,1803.16,1060.64Zm-47.49-118a4.25,4.25,0,1,1-4.25,4.24A4.24,4.24,0,0,1,1755.67,942.66Zm0,23.59a4.25,4.25,0,1,1-4.25,4.25A4.25,4.25,0,0,1,1755.67,966.25Zm0,23.6a4.25,4.25,0,1,1-4.25,4.25A4.24,4.24,0,0,1,1755.67,989.85Zm0,23.6a4.25,4.25,0,1,1-4.25,4.24A4.24,4.24,0,0,1,1755.67,1013.45Zm0,23.59a4.25,4.25,0,1,1-4.25,4.25A4.25,4.25,0,0,1,1755.67,1037Zm0,23.6a4.25,4.25,0,1,1-4.25,4.25A4.24,4.24,0,0,1,1755.67,1060.64Zm-23.75-118a4.25,4.25,0,1,1-4.25,4.24A4.25,4.25,0,0,1,1731.92,942.66Zm0,23.59a4.25,4.25,0,1,1-4.25,4.25A4.26,4.26,0,0,1,1731.92,966.25Zm0,23.6a4.25,4.25,0,1,1-4.25,4.25A4.25,4.25,0,0,1,1731.92,989.85Zm0,23.6a4.25,4.25,0,1,1-4.25,4.24A4.25,4.25,0,0,1,1731.92,1013.45Zm0,23.59a4.25,4.25,0,1,1-4.25,4.25A4.26,4.26,0,0,1,1731.92,1037Zm0,23.6a4.25,4.25,0,1,1-4.25,4.25A4.25,4.25,0,0,1,1731.92,1060.64Zm-23.75-118a4.25,4.25,0,1,1-4.25,4.24A4.25,4.25,0,0,1,1708.17,942.66Zm0,23.59a4.25,4.25,0,1,1-4.25,4.25A4.26,4.26,0,0,1,1708.17,966.25Zm0,23.6a4.25,4.25,0,1,1-4.25,4.25A4.25,4.25,0,0,1,1708.17,989.85Zm0,23.6a4.25,4.25,0,1,1-4.25,4.24A4.25,4.25,0,0,1,1708.17,1013.45Zm0,23.59a4.25,4.25,0,1,1-4.25,4.25A4.26,4.26,0,0,1,1708.17,1037Zm0,23.6a4.25,4.25,0,1,1-4.25,4.25A4.25,4.25,0,0,1,1708.17,1060.64Zm-23.75-118a4.25,4.25,0,1,1-4.25,4.24A4.25,4.25,0,0,1,1684.42,942.66Zm0,23.59a4.25,4.25,0,1,1-4.25,4.25A4.26,4.26,0,0,1,1684.42,966.25Zm0,23.6a4.25,4.25,0,1,1-4.25,4.25A4.25,4.25,0,0,1,1684.42,989.85Zm0,23.6a4.25,4.25,0,1,1-4.25,4.24A4.25,4.25,0,0,1,1684.42,1013.45Zm0,23.59a4.25,4.25,0,1,1-4.25,4.25A4.26,4.26,0,0,1,1684.42,1037Zm0,23.6a4.25,4.25,0,1,1-4.25,4.25A4.25,4.25,0,0,1,1684.42,1060.64Zm-23.75-118a4.25,4.25,0,1,1-4.24,4.24A4.24,4.24,0,0,1,1660.67,942.66Zm0,23.59a4.25,4.25,0,1,1-4.24,4.25A4.25,4.25,0,0,1,1660.67,966.25Zm0,23.6a4.25,4.25,0,1,1-4.24,4.25A4.25,4.25,0,0,1,1660.67,989.85Zm0,23.6a4.25,4.25,0,1,1-4.24,4.24A4.24,4.24,0,0,1,1660.67,1013.45Zm0,23.59a4.25,4.25,0,1,1-4.24,4.25A4.25,4.25,0,0,1,1660.67,1037Zm0,23.6a4.25,4.25,0,1,1-4.24,4.25A4.25,4.25,0,0,1,1660.67,1060.64Zm-23.74-118a4.25,4.25,0,1,1-4.25,4.24A4.24,4.24,0,0,1,1636.93,942.66Zm0,23.59a4.25,4.25,0,1,1-4.25,4.25A4.25,4.25,0,0,1,1636.93,966.25Zm0,23.6a4.25,4.25,0,1,1-4.25,4.25A4.24,4.24,0,0,1,1636.93,989.85Zm0,23.6a4.25,4.25,0,1,1-4.25,4.24A4.24,4.24,0,0,1,1636.93,1013.45Zm0,23.59a4.25,4.25,0,1,1-4.25,4.25A4.25,4.25,0,0,1,1636.93,1037Zm0,23.6a4.25,4.25,0,1,1-4.25,4.25A4.24,4.24,0,0,1,1636.93,1060.64Zm-23.75-118a4.25,4.25,0,1,1-4.25,4.24A4.24,4.24,0,0,1,1613.18,942.66Zm0,23.59a4.25,4.25,0,1,1-4.25,4.25A4.25,4.25,0,0,1,1613.18,966.25Zm0,23.6a4.25,4.25,0,1,1-4.25,4.25A4.24,4.24,0,0,1,1613.18,989.85Zm0,23.6a4.25,4.25,0,1,1-4.25,4.24A4.24,4.24,0,0,1,1613.18,1013.45Zm0,23.59a4.25,4.25,0,1,1-4.25,4.25A4.25,4.25,0,0,1,1613.18,1037Zm0,23.6a4.25,4.25,0,1,1-4.25,4.25A4.24,4.24,0,0,1,1613.18,1060.64Zm213.73,0a4.25,4.25,0,1,1-4.25,4.25A4.25,4.25,0,0,1,1826.91,1060.64Zm23.75,0a4.25,4.25,0,1,1-4.25,4.25A4.25,4.25,0,0,1,1850.66,1060.64Zm23.75,0a4.25,4.25,0,1,1-4.25,4.25A4.25,4.25,0,0,1,1874.41,1060.64Zm23.75,0a4.25,4.25,0,1,1-4.25,4.25A4.24,4.24,0,0,1,1898.16,1060.64Z"/><path class="cls-5" d="M1239.49,856.87c-95.48,37.93-203.64-8.73-241.57-104.22s8.73-203.64,104.22-241.57,203.65,8.73,241.57,104.22"/><path class="cls-6" d="M1271.61,626.82a115.87,115.87,0,1,1-157.94-43.64"/><path class="cls-7" d="M1228,739.5a79.72,79.72,0,1,1-1.67-112.73"/><path class="cls-8" d="M1606.93,645.31a163.68,163.68,0,1,1,210.61-96.08"/><path class="cls-4" d="M960.89,108.71a4.25,4.25,0,1,1-4.25-4.25A4.26,4.26,0,0,1,960.89,108.71Zm-23.6,0a4.25,4.25,0,1,1-4.25-4.25A4.26,4.26,0,0,1,937.29,108.71Zm-23.6,0a4.25,4.25,0,1,1-4.24-4.25A4.25,4.25,0,0,1,913.69,108.71Zm-23.59,0a4.25,4.25,0,1,1-4.25-4.25A4.26,4.26,0,0,1,890.1,108.71Zm-23.6,0a4.25,4.25,0,1,1-4.25-4.25A4.25,4.25,0,0,1,866.5,108.71Zm-23.6,0a4.25,4.25,0,1,1-4.24-4.25A4.25,4.25,0,0,1,842.9,108.71Zm118,23.75a4.25,4.25,0,1,1-4.25-4.25A4.26,4.26,0,0,1,960.89,132.46Zm-23.6,0a4.25,4.25,0,1,1-4.25-4.25A4.26,4.26,0,0,1,937.29,132.46Zm-23.6,0a4.25,4.25,0,1,1-4.24-4.25A4.25,4.25,0,0,1,913.69,132.46Zm-23.59,0a4.25,4.25,0,1,1-4.25-4.25A4.26,4.26,0,0,1,890.1,132.46Zm-23.6,0a4.25,4.25,0,1,1-4.25-4.25A4.25,4.25,0,0,1,866.5,132.46Zm-23.59,0a4.25,4.25,0,1,1-4.25-4.25A4.26,4.26,0,0,1,842.91,132.46Zm118-47.5a4.25,4.25,0,1,1-4.25-4.24A4.26,4.26,0,0,1,960.89,85Zm-23.6,0A4.25,4.25,0,1,1,933,80.72,4.26,4.26,0,0,1,937.29,85Zm-23.6,0a4.25,4.25,0,1,1-4.24-4.24A4.25,4.25,0,0,1,913.69,85ZM890.1,85a4.25,4.25,0,1,1-4.25-4.24A4.26,4.26,0,0,1,890.1,85Zm-23.6,0a4.25,4.25,0,1,1-4.25-4.24A4.25,4.25,0,0,1,866.5,85Zm-23.59,0a4.25,4.25,0,1,1-4.25-4.24A4.26,4.26,0,0,1,842.91,85Zm118-23.75A4.25,4.25,0,1,1,956.64,57,4.25,4.25,0,0,1,960.89,61.21Zm-23.6,0A4.25,4.25,0,1,1,933,57,4.25,4.25,0,0,1,937.29,61.21Zm-23.6,0A4.25,4.25,0,1,1,909.45,57,4.24,4.24,0,0,1,913.69,61.21Zm-23.59,0A4.25,4.25,0,1,1,885.85,57,4.25,4.25,0,0,1,890.1,61.21Zm-23.6,0A4.25,4.25,0,1,1,862.25,57,4.25,4.25,0,0,1,866.5,61.21Zm-23.59,0A4.25,4.25,0,1,1,838.66,57,4.25,4.25,0,0,1,842.91,61.21Zm118-23.74a4.25,4.25,0,1,1-4.25-4.25A4.25,4.25,0,0,1,960.89,37.47Zm-23.6,0A4.25,4.25,0,1,1,933,33.22,4.25,4.25,0,0,1,937.29,37.47Zm-23.6,0a4.25,4.25,0,1,1-4.24-4.25A4.24,4.24,0,0,1,913.69,37.47Zm-23.59,0a4.25,4.25,0,1,1-4.25-4.25A4.25,4.25,0,0,1,890.1,37.47Zm-23.6,0a4.25,4.25,0,1,1-4.25-4.25A4.24,4.24,0,0,1,866.5,37.47Zm-23.59,0a4.25,4.25,0,1,1-4.25-4.25A4.25,4.25,0,0,1,842.91,37.47Zm118-23.75a4.25,4.25,0,1,1-4.25-4.25A4.25,4.25,0,0,1,960.89,13.72Zm-23.6,0A4.25,4.25,0,1,1,933,9.47,4.25,4.25,0,0,1,937.29,13.72Zm-23.6,0a4.25,4.25,0,1,1-4.24-4.25A4.24,4.24,0,0,1,913.69,13.72Zm-23.59,0a4.25,4.25,0,1,1-4.25-4.25A4.25,4.25,0,0,1,890.1,13.72Zm-23.6,0a4.25,4.25,0,1,1-4.25-4.25A4.24,4.24,0,0,1,866.5,13.72Zm-23.59,0a4.25,4.25,0,1,1-4.25-4.25A4.25,4.25,0,0,1,842.91,13.72Z"/><path class="cls-4" d="M694.44,1030.35a4.25,4.25,0,1,1-4.25-4.24A4.25,4.25,0,0,1,694.44,1030.35Zm-23.6,0a4.25,4.25,0,1,1-4.24-4.24A4.24,4.24,0,0,1,670.84,1030.35Zm-23.59,0a4.25,4.25,0,1,1-4.25-4.24A4.25,4.25,0,0,1,647.25,1030.35Zm-23.6,0a4.25,4.25,0,1,1-4.25-4.24A4.25,4.25,0,0,1,623.65,1030.35Zm-23.6,0a4.25,4.25,0,1,1-4.24-4.24A4.24,4.24,0,0,1,600.05,1030.35Zm-23.59,0a4.25,4.25,0,1,1-4.25-4.24A4.26,4.26,0,0,1,576.46,1030.35Zm118,23.75a4.25,4.25,0,1,1-4.25-4.25A4.26,4.26,0,0,1,694.44,1054.1Zm-23.6,0a4.25,4.25,0,1,1-4.24-4.25A4.25,4.25,0,0,1,670.84,1054.1Zm-23.59,0a4.25,4.25,0,1,1-4.25-4.25A4.26,4.26,0,0,1,647.25,1054.1Zm-23.6,0a4.25,4.25,0,1,1-4.25-4.25A4.25,4.25,0,0,1,623.65,1054.1Zm-23.6,0a4.25,4.25,0,1,1-4.24-4.25A4.25,4.25,0,0,1,600.05,1054.1Zm-23.59,0a4.25,4.25,0,1,1-4.25-4.25A4.26,4.26,0,0,1,576.46,1054.1Zm118-47.5a4.25,4.25,0,1,1-4.25-4.24A4.25,4.25,0,0,1,694.44,1006.6Zm-23.6,0a4.25,4.25,0,1,1-4.24-4.24A4.24,4.24,0,0,1,670.84,1006.6Zm-23.59,0a4.25,4.25,0,1,1-4.25-4.24A4.25,4.25,0,0,1,647.25,1006.6Zm-23.6,0a4.25,4.25,0,1,1-4.25-4.24A4.25,4.25,0,0,1,623.65,1006.6Zm-23.6,0a4.25,4.25,0,1,1-4.24-4.24A4.24,4.24,0,0,1,600.05,1006.6Zm-23.59,0a4.25,4.25,0,1,1-4.25-4.24A4.25,4.25,0,0,1,576.46,1006.6Zm118-23.74a4.25,4.25,0,1,1-4.25-4.25A4.25,4.25,0,0,1,694.44,982.86Zm-23.6,0a4.25,4.25,0,1,1-4.24-4.25A4.24,4.24,0,0,1,670.84,982.86Zm-23.59,0a4.25,4.25,0,1,1-4.25-4.25A4.25,4.25,0,0,1,647.25,982.86Zm-23.6,0a4.25,4.25,0,1,1-4.25-4.25A4.24,4.24,0,0,1,623.65,982.86Zm-23.6,0a4.25,4.25,0,1,1-4.24-4.25A4.24,4.24,0,0,1,600.05,982.86Zm-23.59,0a4.25,4.25,0,1,1-4.25-4.25A4.25,4.25,0,0,1,576.46,982.86Zm118-23.75a4.25,4.25,0,1,1-4.25-4.25A4.25,4.25,0,0,1,694.44,959.11Zm-23.6,0a4.25,4.25,0,1,1-4.24-4.25A4.24,4.24,0,0,1,670.84,959.11Zm-23.59,0a4.25,4.25,0,1,1-4.25-4.25A4.25,4.25,0,0,1,647.25,959.11Zm-23.6,0a4.25,4.25,0,1,1-4.25-4.25A4.24,4.24,0,0,1,623.65,959.11Zm-23.6,0a4.25,4.25,0,1,1-4.24-4.25A4.24,4.24,0,0,1,600.05,959.11Zm-23.59,0a4.25,4.25,0,1,1-4.25-4.25A4.25,4.25,0,0,1,576.46,959.11Zm118-23.75a4.25,4.25,0,1,1-4.25-4.25A4.26,4.26,0,0,1,694.44,935.36Zm-23.6,0a4.25,4.25,0,1,1-4.24-4.25A4.25,4.25,0,0,1,670.84,935.36Zm-23.59,0a4.25,4.25,0,1,1-4.25-4.25A4.26,4.26,0,0,1,647.25,935.36Zm-23.6,0a4.25,4.25,0,1,1-4.25-4.25A4.25,4.25,0,0,1,623.65,935.36Zm-23.6,0a4.25,4.25,0,1,1-4.24-4.25A4.25,4.25,0,0,1,600.05,935.36Zm-23.59,0a4.25,4.25,0,1,1-4.25-4.25A4.26,4.26,0,0,1,576.46,935.36Zm118-23.75a4.25,4.25,0,1,1-4.25-4.25A4.26,4.26,0,0,1,694.44,911.61Zm-23.6,0a4.25,4.25,0,1,1-4.24-4.25A4.25,4.25,0,0,1,670.84,911.61Zm-23.59,0a4.25,4.25,0,1,1-4.25-4.25A4.26,4.26,0,0,1,647.25,911.61Zm-23.6,0a4.25,4.25,0,1,1-4.25-4.25A4.25,4.25,0,0,1,623.65,911.61Zm-23.6,0a4.25,4.25,0,1,1-4.24-4.25A4.25,4.25,0,0,1,600.05,911.61Zm-23.59,0a4.25,4.25,0,1,1-4.25-4.25A4.26,4.26,0,0,1,576.46,911.61Zm118-23.75a4.25,4.25,0,1,1-4.25-4.24A4.25,4.25,0,0,1,694.44,887.86Zm-23.6,0a4.25,4.25,0,1,1-4.24-4.24A4.24,4.24,0,0,1,670.84,887.86Zm-23.59,0a4.25,4.25,0,1,1-4.25-4.24A4.25,4.25,0,0,1,647.25,887.86Zm-23.6,0a4.25,4.25,0,1,1-4.25-4.24A4.25,4.25,0,0,1,623.65,887.86Zm-23.6,0a4.25,4.25,0,1,1-4.24-4.24A4.24,4.24,0,0,1,600.05,887.86Zm-23.59,0a4.25,4.25,0,1,1-4.25-4.24A4.25,4.25,0,0,1,576.46,887.86Zm118-23.75a4.25,4.25,0,1,1-4.25-4.24A4.25,4.25,0,0,1,694.44,864.11Zm-23.6,0a4.25,4.25,0,1,1-4.24-4.24A4.24,4.24,0,0,1,670.84,864.11Zm-23.59,0a4.25,4.25,0,1,1-4.25-4.24A4.25,4.25,0,0,1,647.25,864.11Zm-23.6,0a4.25,4.25,0,1,1-4.25-4.24A4.25,4.25,0,0,1,623.65,864.11Zm-23.6,0a4.25,4.25,0,1,1-4.24-4.24A4.24,4.24,0,0,1,600.05,864.11Zm-23.59,0a4.25,4.25,0,1,1-4.25-4.24A4.25,4.25,0,0,1,576.46,864.11Z"/><path class="cls-9" d="M693.91,68a14.25,14.25,0,1,1-14.25-14.25A14.25,14.25,0,0,1,693.91,68Z"/><circle class="cls-10" cx="1549.8" cy="769.83" r="7.76"/><line class="cls-10" x1="1742" y1="40.73" x2="1730.28" y2="52.45"/><line class="cls-10" x1="1742" y1="52.45" x2="1730.28" y2="40.73"/><line class="cls-11" x1="1643.06" y1="894.69" x2="1643.06" y2="923.05"/><line class="cls-11" x1="1657.24" y1="908.87" x2="1628.88" y2="908.87"/><line class="cls-12" x1="1009.47" y1="497.91" x2="1021.19" y2="486.19"/><line class="cls-12" x1="1009.47" y1="486.19" x2="1021.19" y2="497.91"/><line class="cls-12" x1="1731.29" y1="780.74" x2="1743.01" y2="769.02"/><line class="cls-12" x1="1731.29" y1="769.02" x2="1743.01" y2="780.74"/><path class="cls-13" d="M1664.2,405.78A86.19,86.19,0,1,1,1578,492"/><path class="cls-14" d="M1826,71.23a86.19,86.19,0,1,1-86.19,86.19"/><path class="cls-15" d="M621.81,61.6A86.18,86.18,0,0,1,500,66,86,86,0,0,1,472.57,1.06"/><polyline class="cls-16" points="174.45 1038.21 201.45 1029.07 210.59 1056.07 237.58 1046.92 246.73 1073.92 273.72 1064.78 278.73 1079.55"/><polyline class="cls-16" points="925.27 261.39 952.27 252.25 961.41 279.24 988.41 270.1 997.55 297.1 1024.55 287.96 1033.69 314.95"/><polyline class="cls-17" points="1410.54 3.06 1411.67 25.64 1440.15 24.51 1441.28 52.99 1469.76 51.86 1470.89 80.34"/><circle class="cls-18" cx="1019.37" cy="991.95" r="14.25" transform="translate(-292.55 1541.45) rotate(-66.95)"/><path class="cls-19" d="M1526.38.56A185.9,185.9,0,0,1,1476.66,174c-72.65,72.66-190.45,72.66-263.1,0A185.93,185.93,0,0,1,1163.8.69"/></g></g></g></g></svg>