<svg xmlns="http://www.w3.org/2000/svg" viewBox="0 0 31.36 34.42"><defs><style>.cls-1{fill:#85be41;}.cls-2{fill:#84be41;}</style></defs><title>click-aqui</title><g id="Layer_2" data-name="Layer 2"><g id="Layer_1-2" data-name="Layer 1"><path class="cls-1" d="M24.86,9h-.05A3.06,3.06,0,0,0,23,10.19,3.23,3.23,0,0,0,19.6,8.72a3.11,3.11,0,0,0-2,1.35A3.23,3.23,0,0,0,14.5,8.92l-.05,0a2.9,2.9,0,0,0-1.66.94L11.25,2.61A3.26,3.26,0,0,0,7.45.06,3.21,3.21,0,0,0,5,3.89L8,18.31,7,17.5a4.42,4.42,0,0,0-3.33-.91A4.31,4.31,0,0,0,.76,18.3L.15,19a.62.62,0,0,0,0,.81l9.93,11.81a7.59,7.59,0,0,0,7.31,2.61l8-1.65h0a7.62,7.62,0,0,0,5.76-9.14c-.39-1.88-.7-3.28-.94-4.42-.63-3-.88-4.16-1.59-7.51A3.24,3.24,0,0,0,24.86,9Zm4.07,10.3c.24,1.13.54,2.54.93,4.42a6.34,6.34,0,0,1-4.75,7.62l-8,1.65a6.25,6.25,0,0,1-6-2.17l-9.6-11.4.28-.35,0,0a3,3,0,0,1,2-1.21,3.11,3.11,0,0,1,2.32.65l2.49,1.94a.66.66,0,0,0,.76,0,.63.63,0,0,0,.31-.68L6.3,3.62A1.9,1.9,0,0,1,7.72,1.33,1.93,1.93,0,0,1,10,2.87L12,12.63a.43.43,0,0,1,0,.11.06.06,0,0,1,0,0L12.93,17a.66.66,0,0,0,1.3-.27l-.91-4.29a1.82,1.82,0,0,1,1.39-2.19h.06A1.91,1.91,0,0,1,17,11.71l.81,3.82a.67.67,0,0,0,.79.5.64.64,0,0,0,.51-.77l-.63-3a1.83,1.83,0,1,1,3.58-.74l.6,2.83a.67.67,0,0,0,.79.5.66.66,0,0,0,.52-.77l-.33-1.53a1.9,1.9,0,0,1,1.43-2.27h.06a1.91,1.91,0,0,1,2.21,1.53C28.06,15.16,28.29,16.28,28.93,19.32Z"/><path class="cls-2" d="M11.48,27.53q-.09-.47-.18-1c-.06-.32-.09-.64-.12-.95a6.85,6.85,0,0,1,0-.91,2.84,2.84,0,0,1,.19-.8,1.76,1.76,0,0,1,.44-.61,1.66,1.66,0,0,1,.75-.38.57.57,0,0,1,.56.13,1.85,1.85,0,0,1,.42.58,4.38,4.38,0,0,1,.29.74c.08.27.14.48.18.65a.37.37,0,0,1-.29.08.56.56,0,0,1-.25-.17,3,3,0,0,1-.23-.32l-.2-.38c-.07-.13-.13-.25-.2-.36a1,1,0,0,0-.2-.26.37.37,0,0,0-.38.16,1.39,1.39,0,0,0-.23.52,3.74,3.74,0,0,0-.11.74,7.69,7.69,0,0,0,0,.83c0,.28,0,.54.06.8a3.7,3.7,0,0,0,.11.62,6.35,6.35,0,0,0,.27.71,3.39,3.39,0,0,0,.37.68,1.9,1.9,0,0,0,.49.49.88.88,0,0,0,.61.17,1.72,1.72,0,0,0,.69-.34,1.83,1.83,0,0,0,.4-.49,1.75,1.75,0,0,0,.17-.58,3,3,0,0,0,0-.6,4.68,4.68,0,0,0,0-.55,3.73,3.73,0,0,1,0-.42.66.66,0,0,1,.47-.12.27.27,0,0,1,.22.17,3.29,3.29,0,0,1,.1,1.09,3.17,3.17,0,0,1-.26,1.06,2.85,2.85,0,0,1-.63.88A2.4,2.4,0,0,1,14,30a1.16,1.16,0,0,1-.92-.1,2.29,2.29,0,0,1-.73-.63,4.08,4.08,0,0,1-.52-.88A5.37,5.37,0,0,1,11.48,27.53Z"/><path class="cls-2" d="M14.52,19.68l.11-.13a.36.36,0,0,1,.14-.11.21.21,0,0,1,.15,0,.47.47,0,0,1,.14.12l2.62,9.31a.28.28,0,0,1-.11.19.3.3,0,0,1-.17.08.58.58,0,0,1-.19,0,.28.28,0,0,1-.13-.11Z"/><path class="cls-2" d="M15.85,19.51a.21.21,0,0,1,0-.22.66.66,0,0,1,.22-.12.32.32,0,0,1,.35.08,1.15,1.15,0,0,1,.17.37.47.47,0,0,1-.13.24.32.32,0,0,1-.23.08.36.36,0,0,1-.24-.1A.65.65,0,0,1,15.85,19.51Zm.76,2.27a1,1,0,0,1,.15-.1l.16-.07a.55.55,0,0,1,.18,0,.29.29,0,0,1,.16.09q.19.73.45,1.59c.16.56.34,1.13.51,1.71s.36,1.15.53,1.71.32,1.08.47,1.56a.32.32,0,0,1,0,.29.33.33,0,0,1-.2.15.34.34,0,0,1-.24,0,.32.32,0,0,1-.17-.23Z"/><path class="cls-2" d="M19.1,25.45c-.07-.31-.12-.63-.18-1a8,8,0,0,1-.12-.95,6.85,6.85,0,0,1,0-.91,2.84,2.84,0,0,1,.19-.8,1.76,1.76,0,0,1,.44-.61,1.66,1.66,0,0,1,.75-.38.57.57,0,0,1,.56.13,2,2,0,0,1,.42.58,4.38,4.38,0,0,1,.29.74c.07.27.13.48.18.65a.33.33,0,0,1-.29.07.47.47,0,0,1-.25-.16,3,3,0,0,1-.23-.32l-.2-.38c-.07-.13-.13-.25-.2-.36a1,1,0,0,0-.2-.26.37.37,0,0,0-.38.16,1.39,1.39,0,0,0-.23.52,3.12,3.12,0,0,0-.11.74,7.69,7.69,0,0,0,0,.83c0,.28,0,.54.06.8a3.7,3.7,0,0,0,.11.62c.07.22.16.46.26.71a4,4,0,0,0,.38.68,1.9,1.9,0,0,0,.49.49.88.88,0,0,0,.61.17,1.72,1.72,0,0,0,.69-.34,1.83,1.83,0,0,0,.4-.49,1.75,1.75,0,0,0,.17-.58,3,3,0,0,0,0-.6,4.68,4.68,0,0,0,0-.55,3.73,3.73,0,0,1,0-.42.65.65,0,0,1,.46-.12.29.29,0,0,1,.23.17,3.29,3.29,0,0,1,.1,1.09,3.43,3.43,0,0,1-.26,1.06,2.85,2.85,0,0,1-.63.88,2.4,2.4,0,0,1-1,.54,1.16,1.16,0,0,1-.92-.1,2.29,2.29,0,0,1-.73-.63,4.08,4.08,0,0,1-.52-.88A5.37,5.37,0,0,1,19.1,25.45Z"/><path class="cls-2" d="M22,17.65c.12-.22.24-.33.35-.33s.22.08.32.24l1.74,6.29,1.85-4.75a.65.65,0,0,1,.33,0c.1,0,.17.1.21.26L25,24.26l3.78.74a.81.81,0,0,1,.12.13.44.44,0,0,1,.11.2.34.34,0,0,1,0,.22.39.39,0,0,1-.26.19l-3.91-.85.51,1.84a.61.61,0,0,1-.11.3.23.23,0,0,1-.17.08.33.33,0,0,1-.19,0L24.62,27Z"/></g></g></svg>