<?xml version="1.0" encoding="utf-8"?>
<!-- Generator: Adobe Illustrator 24.1.1, SVG Export Plug-In . SVG Version: 6.00 Build 0)  -->
<svg version="1.1" id="Layer_1" xmlns="http://www.w3.org/2000/svg" xmlns:xlink="http://www.w3.org/1999/xlink" x="0px" y="0px"
	 viewBox="0 0 494.2 497.4" style="enable-background:new 0 0 494.2 497.4;" xml:space="preserve">
<style type="text/css">
	.st0{fill:#2C007E;}
</style>
<g id="Layer_2_1_">
	<g id="Capa_1">
		<path class="st0" d="M258.5,423.3v62.2c0.5,6.6-4.4,12.4-11,12.9s-12.4-4.4-12.9-11c-0.1-0.7-0.1-1.3,0-2v-62.2
			c0.5-6.6,6.3-11.5,12.9-11C253.4,412.8,258.1,417.4,258.5,423.3z M246.6,0c-6.6,0-12,5.4-12,12v59c-0.5,6.6,4.4,12.4,11,12.9
			s12.4-4.4,12.9-11c0.1-0.7,0.1-1.3,0-2V12C258.5,5.4,253.2,0,246.6,0z M82.9,247.1c0-6.6-5.4-12-12-12H12
			c-6.6-0.5-12.4,4.4-12.9,11s4.4,12.4,11,12.9c0.7,0.1,1.3,0.1,2,0h59C77.6,259,82.9,253.7,82.9,247.1z M482.3,235.1h-59
			c-6.6-0.5-12.4,4.4-12.9,11s4.4,12.4,11,12.9c0.7,0.1,1.3,0.1,2,0h59c6.6-0.5,11.5-6.3,11-12.9
			C492.8,240.2,488.1,235.6,482.3,235.1z M115,364.4l-41.9,41.9c-4.3,5.1-3.6,12.6,1.4,16.9c4.5,3.8,11,3.8,15.5,0l41.9-41.9
			c4.3-5.1,3.7-12.6-1.4-16.9C126.1,360.6,119.5,360.6,115,364.4z M373.4,134.9c3.2,0,6.2-1.3,8.5-3.5l41.9-41.9
			c4.3-5.1,3.6-12.6-1.4-16.9c-4.5-3.8-11-3.8-15.5,0L365,114.5c-4.6,4.7-4.6,12.3,0.1,17C367.3,133.6,370.3,134.9,373.4,134.9z
			 M90.1,72.6C85,68.3,77.4,69,73.1,74c-3.8,4.5-3.8,11,0,15.5l41.9,41.9c4.3,5.1,11.8,5.7,16.9,1.4c5.1-4.3,5.7-11.8,1.4-16.9
			c-0.4-0.5-0.9-1-1.4-1.4L90.1,72.6z M381.8,364.4c-5.1-4.3-12.6-3.6-16.9,1.4c-3.8,4.5-3.8,11,0,15.5l41.9,41.9
			c4.3,5.1,11.8,5.7,16.9,1.4s5.7-11.8,1.4-16.9c-0.4-0.5-0.9-1-1.4-1.4L381.8,364.4z M390.8,247c0,78.5-63.9,142.3-142.3,142.3
			S106.1,325.5,106.1,247S170,104.7,248.4,104.7S390.8,168.5,390.8,247z M245.8,128.6c-63.8,0.8-117,53.5-117,118.4
			s53.2,117.6,117,118.4V128.6z"/>
	</g>
</g>
</svg>
