<svg xmlns="http://www.w3.org/2000/svg" viewBox="0 0 524 161.63"><defs><style>.cls-1,.cls-2{fill:none;stroke:#e03a80;stroke-miterlimit:10;}.cls-1{stroke-width:2px;opacity:0.8;}.cls-2{opacity:0.35;}.cls-3{fill:#ffc431;}.cls-4{fill:#fff;}.cls-5{fill:#ffb401;}.cls-6{fill:#ffce00;}</style></defs><g id="Layer_2" data-name="Layer 2"><g id="Layer_1-2" data-name="Layer 1"><polygon class="cls-1" points="522.97 98.62 85.23 126.88 60.52 49.7 519.97 4.62 522.97 98.62"/><polygon class="cls-2" points="509.78 111.12 71.14 114.78 50.8 36.33 512.06 17.1 509.78 111.12"/><path class="cls-3" d="M106.15,50A46.18,46.18,0,0,1,94.69,93.31l-.29,21.37L57.48,124,47.09,105.31A46.23,46.23,0,1,1,106.15,50Z"/><path class="cls-4" d="M57.48,124l36.92-9.3,6.65,26.37-36.92,9.31Z"/><path class="cls-4" d="M64.13,150.36l10.57,8.55,21.09-5.32,5.26-12.54Z"/><path class="cls-5" d="M94.69,93.31l-.29,21.37-18.46,4.65-3.32-13.18A46,46,0,0,0,94.69,93.31Z"/><path d="M45.23,107.55,54.93,125l6.56,26a2.69,2.69,0,0,0,.93,1.45h0L73,161a2.7,2.7,0,0,0,2.37.53l21.1-5.32a2.72,2.72,0,0,0,1.84-1.59l5.25-12.54h0a2.64,2.64,0,0,0,.13-1.71l-6.56-26,.28-20a48.66,48.66,0,0,0,12.4-39.8c0-.15,0-.29-.06-.44s-.07-.49-.11-.74l-.12-.7-.12-.62-.18-.88c0-.16-.07-.33-.1-.49q-.15-.69-.33-1.38a48.95,48.95,0,1,0-63.55,58.2Zm34.61,13.6L62.5,132.76,60.78,126ZM63.91,138.36,92.7,119.09l1.92,7.58L65.82,146ZM96,132.27l1.71,6.81-19,4.8Zm-2.22,19-18.46,4.65-5.28-4.28L96.44,145ZM50.68,19.12a43.57,43.57,0,0,1,52.83,31.56c.1.42.2.83.29,1.25l.09.43c.06.27.11.53.17.8s.06.36.1.54.07.44.11.66.07.43.1.64,0,.23,0,.35A43.57,43.57,0,0,1,72,103.51l1.33,5.27a48.52,48.52,0,0,0,18.61-9.24l-.18,13-22.08,5.57L49.86,70.8l3.82-6.4,7.57,4.53A2.73,2.73,0,0,0,65,68l4.52-7.57,7.57,4.52,2.79-4.67L70,54.35a2.72,2.72,0,0,0-3.73.94l-4.52,7.57-7.57-4.52a2.72,2.72,0,0,0-3.73.94l-5.92,9.9a2.75,2.75,0,0,0-.18,2.45l20,47.83-5.46,1.38L49.47,104a2.73,2.73,0,0,0-1.54-1.27,43.51,43.51,0,0,1,2.75-83.6Z"/><path class="cls-3" d="M43.39,1.33,48.67,0l2,7.91L45.39,9.24Z"/><path class="cls-3" d="M6.22,31.58,9,26.91l7,4.18-2.79,4.67Z"/><path class="cls-3" d="M0,74l7.91-2,1.33,5.28-7.91,2Z"/><path class="cls-3" d="M26.89,113.62l4.18-7,4.67,2.79-4.18,7Z"/><path class="cls-3" d="M106.59,91.55l2.79-4.67,7,4.19-2.78,4.67Z"/><path class="cls-3" d="M113.39,45.39l7.91-2,1.33,5.28-7.91,2Z"/><path class="cls-3" d="M86.86,13.24l4.19-7L95.72,9l-4.19,7Z"/><path class="cls-6" d="M174.47,69.89l-.67,14.48,9.7-.75.29,3.76-10.18.78-.57,13.1-3.69.28.57-13.1-14,1.08-.64,13.1-3.68.29.57-13.1-9.7.75-.29-3.76L152.36,86,153,71.54l-9.77.75L143,68.54l10.25-.79.57-13.1,3.75-.29-.64,13.1L171,66.38l.57-13.1,3.69-.28-.57,13.1,9.63-.74.29,3.75Zm-3.69.28-14,1.08L156,85.73l14.07-1.08Z"/><path class="cls-6" d="M196,54a7.17,7.17,0,0,0-1.22,5.18l.33,4.23,11.06-.85.32,4.1-10.93.84L198,99.33l-4.85.37-2.45-31.82-6.42.5-.31-4.1,6.42-.5-.34-4.43a10.62,10.62,0,0,1,2.23-8q2.61-3.09,7.8-3.48a13.43,13.43,0,0,1,4,.27,9.06,9.06,0,0,1,3.34,1.43L206.1,53.3a8.05,8.05,0,0,0-5.47-1.36A6.21,6.21,0,0,0,196,54Zm21.44-1.24a3.4,3.4,0,0,1-.37-4.85,3.46,3.46,0,0,1,2.44-1.22,3.56,3.56,0,0,1,2.61.8,3.19,3.19,0,0,1,1.2,2.28,3.58,3.58,0,0,1-5.88,3Zm.75,8.87,4.85-.37,2.77,35.92-4.85.37Z"/><path class="cls-6" d="M241.14,94a16.88,16.88,0,0,1-7.09-6,19.93,19.93,0,0,1-1.46-18.89,16.89,16.89,0,0,1,6.09-7A19.54,19.54,0,0,1,248,59.07a18.61,18.61,0,0,1,8.44,1.17,13.85,13.85,0,0,1,6.18,4.85l-3.43,2.74a11.41,11.41,0,0,0-4.82-3.65,13.29,13.29,0,0,0-6-.87,14.11,14.11,0,0,0-6.87,2.28A12.21,12.21,0,0,0,237,70.91a16.35,16.35,0,0,0,1.12,14.65,12.34,12.34,0,0,0,5.23,4.54,14.23,14.23,0,0,0,7.13,1.21,13.78,13.78,0,0,0,5.85-1.76,11.1,11.1,0,0,0,4.2-4.31l3.81,2.18a13.83,13.83,0,0,1-5.4,5.74,18.58,18.58,0,0,1-8.12,2.45A19.48,19.48,0,0,1,241.14,94Z"/><path class="cls-6" d="M291.8,59.24q4,3.23,4.56,10.12l1.71,22.27-4.64.35-.43-5.6a11.11,11.11,0,0,1-4.48,4.75,16.94,16.94,0,0,1-7.42,2.15q-6,.47-9.78-2.13a9.9,9.9,0,0,1-1.4-14.94q3.1-3.06,10.34-3.61l11.4-.88-.16-2.19q-.36-4.64-3.14-6.87t-7.77-1.84a19.27,19.27,0,0,0-6.47,1.64A16.54,16.54,0,0,0,269,66l-2.46-3.45a19.46,19.46,0,0,1,6.28-4.09,25.62,25.62,0,0,1,8-1.89Q287.77,56,291.8,59.24ZM288.44,87a11.27,11.27,0,0,0,3.95-5.77l-.45-5.87-11.27.87q-9.21.71-8.72,7.12a5.87,5.87,0,0,0,2.77,4.77,10.89,10.89,0,0,0,6.83,1.3A12.81,12.81,0,0,0,288.44,87Z"/><path class="cls-6" d="M343.15,55.28q4,3.24,4.56,10.13l1.72,22.26-4.65.36-.43-5.6a11.14,11.14,0,0,1-4.48,4.74,16.81,16.81,0,0,1-7.42,2.15q-6,.47-9.78-2.13a9.89,9.89,0,0,1-1.39-14.94q3.09-3,10.33-3.61L343,67.76l-.17-2.18q-.36-4.65-3.14-6.87c-1.86-1.48-4.45-2.1-7.77-1.84a19.32,19.32,0,0,0-6.47,1.63A16.66,16.66,0,0,0,320.32,62l-2.47-3.45a19.63,19.63,0,0,1,6.28-4.09,25.68,25.68,0,0,1,8-1.88Q339.13,52.06,343.15,55.28ZM339.8,83a11.26,11.26,0,0,0,3.95-5.76l-.45-5.88L332,72.25q-9.22.7-8.73,7.13a5.92,5.92,0,0,0,2.77,4.77,11,11,0,0,0,6.84,1.29A12.87,12.87,0,0,0,339.8,83Z"/><path class="cls-6" d="M402.55,32.61l3.9,50.67-4.65.36-.54-7.1a14.8,14.8,0,0,1-5.35,6A16.94,16.94,0,0,1,388,85.05a18.25,18.25,0,0,1-9.33-1.62,16.64,16.64,0,0,1-6.92-6,19.24,19.24,0,0,1-3.05-9.32,19.09,19.09,0,0,1,1.59-9.67,16.39,16.39,0,0,1,5.92-6.94,18.47,18.47,0,0,1,9-3,17,17,0,0,1,8,1.21,15,15,0,0,1,6.18,4.84L397.7,33Zm-7.84,45.84a12.49,12.49,0,0,0,4.4-5.32A16.21,16.21,0,0,0,398,58.52a12.45,12.45,0,0,0-5.16-4.59,13.56,13.56,0,0,0-6.93-1.22A13.71,13.71,0,0,0,379.16,55a12.42,12.42,0,0,0-4.4,5.32,16.23,16.23,0,0,0,1.13,14.62,12.3,12.3,0,0,0,5.16,4.58,14.33,14.33,0,0,0,13.66-1Z"/><path class="cls-6" d="M413,37.71a3.37,3.37,0,0,1-1.22-2.38,3.3,3.3,0,0,1,.84-2.47,3.68,3.68,0,0,1,5-.42,3.17,3.17,0,0,1,1.21,2.27,3.58,3.58,0,0,1-5.88,3Zm.75,8.87,4.85-.37,2.76,35.92-4.85.37Z"/><path class="cls-6" d="M436.72,79a16.77,16.77,0,0,1-7.09-6,19.91,19.91,0,0,1-1.46-18.88,16.89,16.89,0,0,1,6.09-7A19.32,19.32,0,0,1,443.61,44a18.47,18.47,0,0,1,8.44,1.17A13.88,13.88,0,0,1,458.22,50l-3.43,2.74A11.32,11.32,0,0,0,450,49.12a13.43,13.43,0,0,0-6-.88,14.11,14.11,0,0,0-6.87,2.28,12.38,12.38,0,0,0-4.47,5.33,15.08,15.08,0,0,0-1.17,7.44,15.07,15.07,0,0,0,2.3,7.21A12.28,12.28,0,0,0,439,75a14.12,14.12,0,0,0,7.13,1.2,13.69,13.69,0,0,0,5.84-1.75,11.12,11.12,0,0,0,4.21-4.31l3.8,2.18a13.8,13.8,0,0,1-5.39,5.74,18.62,18.62,0,0,1-8.13,2.45A19.46,19.46,0,0,1,436.72,79Z"/><path class="cls-6" d="M487.38,44.18q4,3.23,4.56,10.12l1.71,22.26-4.64.36-.43-5.6a11.14,11.14,0,0,1-4.48,4.74,17,17,0,0,1-7.42,2.16q-6,.45-9.79-2.14a9.9,9.9,0,0,1-1.39-14.93q3.11-3.06,10.34-3.62l11.4-.87-.17-2.19q-.35-4.63-3.14-6.87t-7.76-1.84a19.44,19.44,0,0,0-6.47,1.63,16.62,16.62,0,0,0-5.16,3.53l-2.46-3.45a19.35,19.35,0,0,1,6.28-4.09,25.62,25.62,0,0,1,8-1.89Q483.36,41,487.38,44.18ZM484,71.91a11.21,11.21,0,0,0,4-5.76l-.45-5.87-11.27.86q-9.21.72-8.72,7.13A5.87,5.87,0,0,0,470.3,73a10.94,10.94,0,0,0,6.83,1.29A12.76,12.76,0,0,0,484,71.91Z"/></g></g></svg>