<svg xmlns="http://www.w3.org/2000/svg" xmlns:xlink="http://www.w3.org/1999/xlink" viewBox="0 0 760 712.88"><defs><style>.cls-1{isolation:isolate;}.cls-2{fill:url(#linear-gradient);}.cls-3,.cls-30,.cls-43,.cls-9{fill:#4f4f4f;mix-blend-mode:screen;}.cls-3{opacity:0.3;}.cls-4{fill:#fd70a5;}.cls-5{fill:url(#linear-gradient-2);}.cls-15,.cls-18,.cls-6{fill:#fff;}.cls-6{opacity:0.38;}.cls-7{fill:#4c348c;}.cls-47,.cls-8{opacity:0.51;}.cls-8{fill:url(#linear-gradient-3);}.cls-9{opacity:0.48;}.cls-10,.cls-32,.cls-33,.cls-57,.cls-58{opacity:0.13;mix-blend-mode:multiply;}.cls-11{fill:url(#linear-gradient-4);}.cls-12{fill:url(#linear-gradient-5);}.cls-13{fill:url(#linear-gradient-6);}.cls-14{fill:url(#linear-gradient-7);}.cls-15{opacity:0.5;}.cls-16{fill:url(#linear-gradient-8);}.cls-17{fill:#e5e5e5;}.cls-19,.cls-41,.cls-42,.cls-51,.cls-61,.cls-62{opacity:0.25;}.cls-19{fill:url(#linear-gradient-9);}.cls-20,.cls-52{opacity:0.62;}.cls-20{fill:url(#linear-gradient-10);}.cls-21{fill:#47d4f2;}.cls-22,.cls-53{opacity:0.27;}.cls-22{fill:url(#linear-gradient-11);}.cls-23{fill:#c8aef5;}.cls-24,.cls-54{opacity:0.42;}.cls-24{fill:url(#linear-gradient-12);}.cls-25{fill:#d0b1ff;}.cls-26{fill:#4d338a;}.cls-27{fill:#b79aee;}.cls-28,.cls-55{opacity:0.26;}.cls-28{fill:url(#linear-gradient-13);}.cls-29{fill:url(#linear-gradient-14);}.cls-31{fill:#fbb7b7;}.cls-32{fill:url(#linear-gradient-15);}.cls-33{fill:url(#linear-gradient-16);}.cls-34{fill:url(#linear-gradient-17);}.cls-35{fill:url(#linear-gradient-18);}.cls-36{fill:url(#linear-gradient-19);}.cls-37{fill:url(#linear-gradient-20);}.cls-38{fill:url(#linear-gradient-21);}.cls-39{fill:url(#linear-gradient-22);}.cls-40{fill:url(#linear-gradient-23);}.cls-41{fill:url(#linear-gradient-24);}.cls-42{fill:url(#linear-gradient-25);}.cls-43{opacity:0.33;}.cls-44{fill:url(#linear-gradient-26);}.cls-45{fill:url(#linear-gradient-27);}.cls-46{fill:url(#linear-gradient-28);}.cls-47{fill:url(#linear-gradient-29);}.cls-48{fill:url(#linear-gradient-30);}.cls-49{fill:url(#linear-gradient-31);}.cls-50{fill:url(#linear-gradient-32);}.cls-51{fill:url(#linear-gradient-33);}.cls-52{fill:url(#linear-gradient-34);}.cls-53{fill:url(#linear-gradient-35);}.cls-54{fill:url(#linear-gradient-36);}.cls-55{fill:url(#linear-gradient-37);}.cls-56{fill:url(#linear-gradient-38);}.cls-57{fill:url(#linear-gradient-39);}.cls-58{fill:url(#linear-gradient-40);}.cls-59{fill:url(#linear-gradient-41);}.cls-60{fill:url(#linear-gradient-42);}.cls-61{fill:url(#linear-gradient-43);}.cls-62{fill:url(#linear-gradient-44);}</style><linearGradient id="linear-gradient" x1="403.16" y1="287.96" x2="241.07" y2="844.87" gradientUnits="userSpaceOnUse"><stop offset="0" stop-color="#c9b5ee"/><stop offset="0.59" stop-color="#a57cf0"/><stop offset="1" stop-color="#9868f2"/></linearGradient><linearGradient id="linear-gradient-2" x1="291.83" y1="760.29" x2="438.5" y2="760.29" gradientTransform="translate(-344.65 -179.85) rotate(-8.21)" gradientUnits="userSpaceOnUse"><stop offset="0" stop-color="#fd70a5"/><stop offset="1" stop-color="#fdaac9"/></linearGradient><linearGradient id="linear-gradient-3" x1="285.44" y1="423" x2="406.51" y2="423" gradientTransform="translate(-143.05 119.52) rotate(7.93)" gradientUnits="userSpaceOnUse"><stop offset="0" stop-color="#c974ee"/><stop offset="0" stop-color="#a179f2"/><stop offset="1" stop-color="#fdb6d0"/></linearGradient><linearGradient id="linear-gradient-4" x1="75.08" y1="207.1" x2="223.65" y2="207.1" gradientUnits="userSpaceOnUse"><stop offset="0" stop-color="#fff"/><stop offset="0.22" stop-color="#cecdcd"/><stop offset="1" stop-color="#231f20"/></linearGradient><linearGradient id="linear-gradient-5" x1="147.21" y1="181.71" x2="153.41" y2="291.02" xlink:href="#linear-gradient-4"/><linearGradient id="linear-gradient-6" x1="583.39" y1="756.68" x2="561.57" y2="426.28" gradientUnits="userSpaceOnUse"><stop offset="0" stop-color="#00b7e6"/><stop offset="0.39" stop-color="#46c5e6"/><stop offset="1" stop-color="#b3dce6"/></linearGradient><linearGradient id="linear-gradient-7" x1="623.76" y1="970.24" x2="614.89" y2="1235.34" gradientTransform="translate(-317.03 -335.95) rotate(-20.49)" gradientUnits="userSpaceOnUse"><stop offset="0" stop-color="#c9b5ee"/><stop offset="0.59" stop-color="#a57cf0"/><stop offset="0.66" stop-color="#a379f0"/><stop offset="1" stop-color="#9868f2"/></linearGradient><linearGradient id="linear-gradient-8" x1="788.34" y1="319.46" x2="535.87" y2="896.09" xlink:href="#linear-gradient"/><linearGradient id="linear-gradient-9" x1="285.4" y1="601.25" x2="285.4" y2="608.82" xlink:href="#linear-gradient"/><linearGradient id="linear-gradient-10" x1="442.32" y1="445.02" x2="607.52" y2="698.54" xlink:href="#linear-gradient"/><linearGradient id="linear-gradient-11" x1="426.29" y1="457.38" x2="426.29" y2="526.15" gradientUnits="userSpaceOnUse"><stop offset="0.2" stop-color="#c9b5ee"/><stop offset="0.42" stop-color="#a57cf0"/><stop offset="1" stop-color="#9868f2"/></linearGradient><linearGradient id="linear-gradient-12" x1="526.83" y1="364.39" x2="526.83" y2="383.09" xlink:href="#linear-gradient-11"/><linearGradient id="linear-gradient-13" x1="451.38" y1="143.61" x2="368.78" y2="338.43" gradientUnits="userSpaceOnUse"><stop offset="0" stop-color="#fff"/><stop offset="1" stop-color="#a57cf0"/><stop offset="1" stop-color="#9868f2"/></linearGradient><linearGradient id="linear-gradient-14" x1="311.85" y1="277.19" x2="453.68" y2="277.19" xlink:href="#linear-gradient-6"/><linearGradient id="linear-gradient-15" x1="281.1" y1="269.92" x2="405" y2="417.98" gradientUnits="userSpaceOnUse"><stop offset="0" stop-color="#fff"/><stop offset="0.8" stop-color="#4e4b4c"/><stop offset="1" stop-color="#231f20"/></linearGradient><linearGradient id="linear-gradient-16" x1="417.19" y1="174.52" x2="358.23" y2="115.04" xlink:href="#linear-gradient-4"/><linearGradient id="linear-gradient-17" x1="374.49" y1="633.45" x2="224.12" y2="784.69" xlink:href="#linear-gradient"/><linearGradient id="linear-gradient-18" x1="634.19" y1="176.43" x2="328.72" y2="733.34" xlink:href="#linear-gradient"/><linearGradient id="linear-gradient-19" x1="114.19" y1="134.43" x2="125.62" y2="335.99" xlink:href="#linear-gradient-13"/><linearGradient id="linear-gradient-20" x1="496.16" y1="689.27" x2="495.53" y2="679.7" xlink:href="#linear-gradient-6"/><linearGradient id="linear-gradient-21" x1="544.73" y1="667.97" x2="544.1" y2="658.4" xlink:href="#linear-gradient-6"/><linearGradient id="linear-gradient-22" x1="580.43" y1="686.41" x2="579.8" y2="676.84" xlink:href="#linear-gradient-6"/><linearGradient id="linear-gradient-23" x1="633.76" y1="644.01" x2="633.13" y2="634.44" xlink:href="#linear-gradient-6"/><linearGradient id="linear-gradient-24" x1="363.93" y1="101.05" x2="379.21" y2="101.05" xlink:href="#linear-gradient"/><linearGradient id="linear-gradient-25" x1="386.26" y1="101.05" x2="401.55" y2="101.05" xlink:href="#linear-gradient"/><linearGradient id="linear-gradient-26" x1="572.65" y1="7.27" x2="572.65" y2="235.08" xlink:href="#linear-gradient-13"/><linearGradient id="linear-gradient-27" x1="403.16" y1="288.65" x2="241.07" y2="845.56" xlink:href="#linear-gradient"/><linearGradient id="linear-gradient-28" x1="292.5" y1="758.51" x2="444.91" y2="758.51" xlink:href="#linear-gradient-2"/><linearGradient id="linear-gradient-29" x1="275.65" y1="425.05" x2="396.72" y2="425.05" xlink:href="#linear-gradient-3"/><linearGradient id="linear-gradient-30" x1="75.08" y1="207.78" x2="223.65" y2="207.78" xlink:href="#linear-gradient-4"/><linearGradient id="linear-gradient-31" x1="147.21" y1="182.39" x2="153.41" y2="291.71" xlink:href="#linear-gradient-4"/><linearGradient id="linear-gradient-32" x1="583.39" y1="757.36" x2="561.57" y2="426.96" xlink:href="#linear-gradient-6"/><linearGradient id="linear-gradient-33" x1="285.4" y1="601.93" x2="285.4" y2="609.5" xlink:href="#linear-gradient"/><linearGradient id="linear-gradient-34" x1="442.31" y1="445.71" x2="607.52" y2="699.22" xlink:href="#linear-gradient"/><linearGradient id="linear-gradient-35" x1="426.29" y1="458.06" x2="426.29" y2="526.83" xlink:href="#linear-gradient-11"/><linearGradient id="linear-gradient-36" x1="526.83" y1="365.07" x2="526.83" y2="383.77" xlink:href="#linear-gradient-11"/><linearGradient id="linear-gradient-37" x1="451.38" y1="144.3" x2="368.78" y2="339.11" xlink:href="#linear-gradient-13"/><linearGradient id="linear-gradient-38" x1="311.85" y1="277.88" x2="453.68" y2="277.88" xlink:href="#linear-gradient-6"/><linearGradient id="linear-gradient-39" x1="281.1" y1="270.61" x2="405" y2="418.66" xlink:href="#linear-gradient-15"/><linearGradient id="linear-gradient-40" x1="417.19" y1="175.2" x2="358.23" y2="115.72" xlink:href="#linear-gradient-4"/><linearGradient id="linear-gradient-41" x1="374.49" y1="634.14" x2="224.12" y2="785.38" xlink:href="#linear-gradient"/><linearGradient id="linear-gradient-42" x1="114.19" y1="135.11" x2="125.62" y2="336.68" xlink:href="#linear-gradient-13"/><linearGradient id="linear-gradient-43" x1="363.93" y1="101.74" x2="379.21" y2="101.74" xlink:href="#linear-gradient"/><linearGradient id="linear-gradient-44" x1="386.26" y1="101.74" x2="401.55" y2="101.74" xlink:href="#linear-gradient"/></defs><g class="cls-1"><g id="Layer_2" data-name="Layer 2"><g id="Layer_1-2" data-name="Layer 1"><path class="cls-2" d="M739.75,421.78c-.32,29.26-3.25,49.66-8,65.87a145.12,145.12,0,0,1-10.16,25.53c-1.65,3.21-3.37,6.32-5.18,9.43-11,19.12-24.54,37.87-37.87,73q-.59,1.51-1.17,3.09C650.2,672.45,539,736.58,423.69,674.92A262.39,262.39,0,0,1,377.9,643.6c-1.81-1.51-3.64-3.09-5.45-4.7-.09-.09-.23-.18-.32-.27-1.63-1.42-3.25-2.89-4.83-4.4-2.27-2.08-4.56-4.23-6.83-6.45,0,0-101.66-30.14-144.82-5.2a63.62,63.62,0,0,1-27.93,8.7c-.87.07-1.74.09-2.61.09-.62,0-1.26,0-1.9,0h-.05a59.8,59.8,0,0,1-8.1-.68c-1.21-.19-2.38-.39-3.57-.65a59.9,59.9,0,0,1-7-1.9.43.43,0,0,1-.16,0C147.06,622.39,131,609.48,117.66,592,101.17,570.31,89.89,540.45,85,509.65c-3.36-21.47-9.66-37.59-17.42-50.85-.07-.14-.16-.3-.25-.46-9-15.2-19.74-26.6-30.09-38C29,410.79,21.2,401.1,15,389.22c-1.58-3.07-3.07-6.27-4.42-9.64-.21-.57-.44-1.12-.64-1.69l-1.49-4.26c-.39-1.15-.73-2.27-1-3.3-.16-.48-.3-1-.44-1.47-3-10.69-3.68-22.8-2.15-35.48,6-49,45.29-106.91,115.42-128,30.89-9.32,48.38-23.35,60.44-38.79,22.6-29.05,26.06-63.05,63.18-80,24.29-11.1,44.94-10.92,63.46-6a16.74,16.74,0,0,1,.58-1.9c17.37,5.17,32.88,14.24,47.73,21.52,1.74.82,3.46,1.65,5.16,2.42,1.3.6,2.58,1.15,3.87,1.72a4.11,4.11,0,0,0,.61.25c3.12,1.33,6.23,2.48,9.32,3.48,7.4,2.34,14.77,3.6,22.28,3,2.59-.21,5.18-.44,7.81-.69,11.31-1.08,23-2.38,34.71-3.27,1,1,2.08,1.9,3.11,2.84,27.48-2.06,55.46-1.65,81.15,10.23a103,103,0,0,1,15.25,8.63,53,53,0,0,1,6,4.83s.09.07.12.12c11.65,12.66,17.21,30.43,21.95,48.63,5.54,21.48,9.92,43.55,21.66,58.71a35.51,35.51,0,0,0,2.61,3.06,45.14,45.14,0,0,0,16.56,11.7c43,17.84,116.52,57.36,129.8,138A161.89,161.89,0,0,1,739.75,421.78Z"/><path class="cls-3" d="M591.31,244.1C568.37,264.27,545,295.92,533,335.51c-.32,1-.62,2.06-.9,3.11s-.59,2.06-.84,3.11c-.58,2-1.1,4.08-1.56,6.14-1.9,8.29-7.17,19-15.27,31.28-.69,1-1.42,2.06-2.11,3.11s-1.44,2.06-2.2,3.11c-1.05,1.54-2.17,3.09-3.36,4.67s-2.32,3.09-3.53,4.67C477.38,428.26,435,469.65,383.62,506.15c-2.17,1.56-4.42,3.14-6.64,4.69s-4.58,3.14-6.87,4.68a1.82,1.82,0,0,1-.41.27c-2.34,1.58-4.67,3.16-7.05,4.67s-4.83,3.16-7.26,4.67c-41.46,26.29-87.35,48.38-134.24,60.63q-8.9,2.29-17.84,4.14c-5.17,1.08-10.32,2-15.5,2.8-8.9,1.35-17.86,2.33-26.76,2.88a251.46,251.46,0,0,1-40.53-.75C104,573.17,91.85,544.5,87,513.71c-3.71-23.52-10.8-40.78-19.41-54.91-.07-.14-.16-.3-.25-.46-9.14-14.88-20-26.33-30.09-38C29,410.79,21.2,401.1,15,389.22c-1.58-3.07-3.07-6.27-4.42-9.64-.21-.57-.44-1.12-.64-1.69l-1.49-4.26c-.39-1.15-.73-2.27-1-3.3-.16-.48-.3-1-.44-1.47-3-10.69-3.68-22.8-2.15-35.48,6-49,45.29-106.91,115.42-128,30.89-9.32,48.38-23.35,60.44-38.79,22.6-29.05,26.06-63.05,63.18-80,24.29-11.1,44.94-10.92,63.46-6,17.86,4.71,33.71,13.8,48.84,21.29,1.56.8,3.09,1.56,4.63,2.27a8.17,8.17,0,0,0,.94.45c1.55.74,3.11,1.45,4.67,2.11s3.2,1.37,4.8,2c9.51,3.71,18.92,6,28.56,5.17l4.6-.39c12.41-1.12,25.21-2.65,38.14-3.61,27.48-2.06,55.46-1.65,81.15,10.23a103,103,0,0,1,15.25,8.63,53,53,0,0,1,6,4.83s.09.07.12.12c11.65,12.66,17.21,30.43,21.95,48.63,5.54,21.48,9.92,43.55,21.66,58.71A35.51,35.51,0,0,0,591.31,244.1Z"/><path class="cls-4" d="M154.25,510.67A61.2,61.2,0,0,1,135,494.81c-.14-.14-.26-.3-.38-.42l0,0a62.73,62.73,0,0,1-3.72-5.08c-1-1.54-2-3.12-2.91-4.72s-1.88-3.43-2.7-5.18c-.55-1.09-1-2.16-1.5-3.28-.24-.5-.47-1-.68-1.54-.33-.81-.63-1.62-.94-2.42,0-.13-.11-.27-.16-.39A106.47,106.47,0,0,1,118.13,459h0c-.11-.5-.23-1-.35-1.45s-.22-1-.31-1.43c0-.19-.09-.39-.11-.57a113,113,0,0,1-2.09-14.12c-.07-1.14-.08-1.77-.08-1.83h-1.56c0,.07,0,.7.12,1.83A107.28,107.28,0,0,0,116,456.8c.09.39.17.8.27,1.23a113,113,0,0,0,4.37,14.49c0,.13.1.22.15.35.23.66.5,1.32.78,2,.14.34.27.72.45,1.08.72,1.73,1.51,3.46,2.4,5.2s1.74,3.44,2.73,5.12,1.88,3.13,3,4.64,2,2.93,3.19,4.38a10.12,10.12,0,0,1,.65.79,62,62,0,0,0,20.4,16.4Z"/><path class="cls-4" d="M115.05,443s-7.79-7.95-8.23-18.28S119.06,418.77,115.05,443Z"/><path class="cls-4" d="M117.28,458s-.56-11.12,6-19.14S136.31,442.51,117.28,458Z"/><path class="cls-4" d="M123.09,476.69s-.57-11.11,5.95-19.14S142.11,461.25,123.09,476.69Z"/><path class="cls-4" d="M134.62,495.11S134.06,484,140.57,476,153.65,479.66,134.62,495.11Z"/><path class="cls-4" d="M116.62,458.12s-10.87-2.42-16.86-10.85S106.82,435.66,116.62,458.12Z"/><path class="cls-4" d="M122.58,475.89s-11.09.95-19.34-5.29S106.48,457.41,122.58,475.89Z"/><path class="cls-4" d="M134.19,496s-10.92,2.18-19.81-3.1S116.14,479.45,134.19,496Z"/><path class="cls-5" d="M178.47,519.14c-9.27-14.77-24.24-34.92-37.59-37.61s-20.09,14.25-33.54,1.27-52.07-48.51-61.42-37.25.37,30.49,14.22,42.52,20.21,22.4,12.42,25.26-16.27,8.11-10.91,21.25,46.57,33.67,66.28,40.64,82.45,21,82.45,21S185.05,529.64,178.47,519.14Z"/><path class="cls-6" d="M195.7,592.91q-5.05-5.42-10.59-10.46c-8.34-10.62-8.73-34.65-8.75-34.88a.53.53,0,0,0-.66-.53.71.71,0,0,0-.67.67c0,.9.33,19.7,6.43,31.5A197.42,197.42,0,0,0,162.94,565c-14.93-10.06-29.36-30.35-42.07-48.27-6.92-9.77-13.45-19-19-24.88-15.4-16.32-26.72-17.49-27.17-17.52a.74.74,0,0,0-.81.55.53.53,0,0,0,.5.64c.14,0,11.32,1.18,26.41,17.17,5.52,5.83,12,15,18.94,24.76,3.83,5.39,7.82,11,11.9,16.47-12.85-8.58-33-6.93-33.29-6.87a.65.65,0,0,0-.67.64.57.57,0,0,0,.67.53c.24,0,26.22-2.13,37.35,11h0C144.11,550,153,559.88,162.06,566a192,192,0,0,1,22,17.27v0c3.21,2.92,6.29,5.93,9.31,9Z"/><path class="cls-7" d="M238.06,603.92s-59.81-22.22-73.28-41-31.72-24.1-40-15.08-22,6.18-45.65-2.82-42.91,1.11-36.22,13.72,57.24,21.37,50.88,28.16-36.45.42-38.88,11.25,32,29.4,62.72,24.76,42.6-9.54,36.72,4.67S212.32,656.33,238.06,603.92Z"/><path class="cls-8" d="M199,606.55C124.49,594.3,83.31,569.48,82.9,569.21a.64.64,0,0,1-.22-.93.7.7,0,0,1,1-.24c.38.26,37.95,22.88,106.31,35.52-17-9.68-28.18-25.43-28.29-25.62a.69.69,0,0,1,1.12-.82c.15.2,12.85,18.14,31.7,27.24,1.72.31,3.45.58,5.21.86Z"/><path class="cls-9" d="M523.68,120.12a371,371,0,0,0-67.83,5.42,384.74,384.74,0,0,0-57.69,14.74q-14.31,4.88-28.09,10.73c-.81.34-1.59.65-2.37,1a461.24,461.24,0,0,0-56.95,29.52q-15.42,9.36-30.07,19.7c-11.1,7.76-21.85,15.93-32.33,24.38a796.17,796.17,0,0,0-69.66,63.68c-64.53,66-129.86,62.71-173.84,44.1,4.52-37.18,28.3-79.57,70.23-107a172.88,172.88,0,0,1,45.19-21c15.74-4.74,28-10.73,37.84-17.49a99.76,99.76,0,0,0,22.6-21.29c22.6-29.05,26.06-63.06,63.18-80,24.29-11.1,44.95-10.91,63.47-6a17.31,17.31,0,0,1,.56-1.9c17.39,5.17,32.88,14.24,47.75,21.51q2.63,1.26,5.14,2.43c1.31.59,2.59,1.15,3.87,1.71a4,4,0,0,0,.62.25c3.12,1.34,6.24,2.5,9.32,3.49a57.49,57.49,0,0,0,22.29,3c2.59-.21,5.17-.43,7.79-.68,11.32-1.09,23-2.4,34.73-3.27,1,1,2.08,1.9,3.11,2.83C470,107.84,498,108.24,523.68,120.12Z"/><g class="cls-10"><path class="cls-11" d="M211.07,226.34h-136a172.88,172.88,0,0,1,45.19-21c15.74-4.74,28-10.73,37.84-17.49.69,1.59,1.38,3.24,2.12,5,10.13,23.37,33.82.12,53,8.26a38.85,38.85,0,0,1,4.52,2.27C228.5,209.73,223.54,226.34,211.07,226.34Z"/><path class="cls-12" d="M211.07,226.34h-136a172.88,172.88,0,0,1,45.19-21c15.74-4.74,28-10.73,37.84-17.49.69,1.59,1.38,3.24,2.12,5,10.13,23.37,33.82.12,53,8.26a38.85,38.85,0,0,1,4.52,2.27C228.5,209.73,223.54,226.34,211.07,226.34Z"/></g><path class="cls-7" d="M456.66,138.07c-2.06,12.59-8.57,19.82-14.8,24a41.15,41.15,0,0,1-13.25,5.58s-85.19,14.53-107.54,27A63.66,63.66,0,0,1,298.94,202a46.94,46.94,0,0,1-18.26-.81c-11.44-3-20.55-11.38-22.38-27.52-1.25-10.82,2.27-18.08,7.91-23.47,15.46-14.81,47.07-15.65,41.37-38.31-2.9-11.53-2.69-22.35-.22-31.36a17.31,17.31,0,0,1,.56-1.9c3.74-11.81,11.47-20.14,21-22.16,34.78-7.42,37.18-28.21,59-24.31a39.37,39.37,0,0,1,5.77,1.46c15.18,4.89,22.44,13.81,26.87,24.94,3.58,8.94,5.29,19.32,7.82,30.2,1.9,8.32,6.3,13.75,11.07,18.27,1,1,2.08,1.9,3.11,2.83,5.52,4.8,10.94,9,13.31,15.65A24.49,24.49,0,0,1,456.66,138.07Z"/><path class="cls-13" d="M721.61,513.17c-12,23.44-28.34,42.52-44.2,85.5C650.2,672.45,539,736.57,423.68,674.91c22.54-42.7,101.56-14,133.91-36,40.18-27.3,54-79.57,56.45-118.44s47.78-27.78,73.78-9.64C700,519.31,712.1,517.5,721.61,513.17Z"/><path class="cls-14" d="M705.69,379.63c0,.67.07,1.3.1,2a392.19,392.19,0,0,1-.62,50.21c0,.73-.06,1.46-.16,2.21a297.32,297.32,0,0,1-8.38,50.5,18.65,18.65,0,0,1-.52,2.05,225.66,225.66,0,0,1-21.3,53.2l0,0c-.44.84-.9,1.62-1.37,2.4-30.48,52.36-71.14,67.14-71.14,67.14,0-1.22.1-2.46.18-3.66,0-.81.1-1.67.14-2.47C605.13,564,617.06,526.57,632,493.84c.39-.9.84-1.83,1.25-2.74a456.9,456.9,0,0,1,24-44.74c.43-.77.89-1.47,1.33-2.2A481,481,0,0,1,703.65,382C705,380.43,705.69,379.63,705.69,379.63Z"/><path class="cls-15" d="M705.79,381.6,678.63,441l26.54-9.2c0,.73-.06,1.46-.16,2.21l-27.4,9.23-25,54.65,44-13.38a18.65,18.65,0,0,1-.52,2.05L651.66,500,627,554.1l47.8-14.31c-.44.84-.9,1.62-1.37,2.4l-47.41,14L603.26,606l-.82-.37-.82-.38,1-2.09,36.72-80.33-7.3-29c.39-.9.84-1.83,1.25-2.74l7.2,29.18,22.78-49.85-6-24.07c.43-.77.89-1.47,1.33-2.2l5.86,23.66L703.65,382l1.22-2.7,1.65.75Z"/><path class="cls-16" d="M759.44,482.16c-.19.56-.34,1.09-.53,1.65A342.78,342.78,0,0,1,743,525c-.25.59-.5,1.19-.81,1.78a262,262,0,0,1-22.44,39,17.4,17.4,0,0,1-1.06,1.53,198.76,198.76,0,0,1-33.92,37.25h0c-.62.56-1.24,1.06-1.87,1.56-41.2,33.72-79.23,33.38-79.23,33.38.4-1,.84-2,1.28-3,.28-.66.59-1.34.87-2,14.15-31.45,35.5-58.63,57.88-81,.59-.62,1.25-1.24,1.87-1.87A402.28,402.28,0,0,1,699,522.18c.59-.5,1.18-.94,1.78-1.4A423.71,423.71,0,0,1,757,483.43C758.6,482.59,759.44,482.16,759.44,482.16Z"/><path class="cls-15" d="M758.91,483.81l-40.65,40.55L743,525c-.25.59-.5,1.19-.81,1.78l-25.4-.84L679.36,563.2l40.34,2.52a17.4,17.4,0,0,1-1.06,1.53l-40.74-2.59-37,36.91,43.76,2.93c-.62.56-1.24,1.06-1.87,1.56l-43.36-3-34,34-.56-.56-.56-.56,1.43-1.44,55-54.82,2.93-26.16c.59-.62,1.25-1.24,1.87-1.87l-3,26.25,34.1-34L699,522.18c.59-.5,1.18-.94,1.78-1.4l-2.47,21.28L757,483.43l1.84-1.84,1.12,1.13Z"/><path class="cls-17" d="M654.13,579.69a59.29,59.29,0,0,1-59.22,59.23H145a59.23,59.23,0,0,0,0-118.45H594.91A59.22,59.22,0,0,1,654.13,579.69Z"/><path class="cls-7" d="M654.13,579.69a59.29,59.29,0,0,1-59.22,59.23H145a59.23,59.23,0,0,0,0-118.45H594.91A59.22,59.22,0,0,1,654.13,579.69Z"/><path class="cls-18" d="M425.81,579.69a59.29,59.29,0,0,1-59.22,59.23H145a59.23,59.23,0,0,0,0-118.45H366.59A59.22,59.22,0,0,1,425.81,579.69Z"/><path class="cls-19" d="M425.81,580.18a59.27,59.27,0,0,1-59.22,59.22H145A59.22,59.22,0,1,0,145,521H366.59A59.22,59.22,0,0,1,425.81,580.18Z"/><path class="cls-20" d="M624.43,579.69c0,6.57-3,12.76-8.63,17.42A32.39,32.39,0,0,1,595,604.34H447.68a44.76,44.76,0,0,0,0-49.3H595C611.26,555,624.43,566.11,624.43,579.69Z"/><path class="cls-7" d="M594.92,643.59H145a4.68,4.68,0,1,1,0-9.35H594.91a54.55,54.55,0,0,0,0-109.09H145a4.68,4.68,0,1,1,0-9.36H594.91a63.9,63.9,0,0,1,0,127.8Z"/><path class="cls-21" d="M500.31,450.44a60.36,60.36,0,0,0,57.29,60.31v.1H205.37a60.4,60.4,0,0,1,0-120.79H557.6v.1A60.36,60.36,0,0,0,500.31,450.44Z"/><path class="cls-18" d="M500.31,450.44a60.36,60.36,0,0,0,57.29,60.31v.1H355.4a60.4,60.4,0,1,1,0-120.79H557.6v.1A60.36,60.36,0,0,0,500.31,450.44Z"/><path class="cls-22" d="M500.31,450.44a60.36,60.36,0,0,0,57.29,60.31v.1H355.4a60.4,60.4,0,1,1,0-120.79H557.6v.1A60.36,60.36,0,0,0,500.31,450.44Z"/><path class="cls-18" d="M503.48,497.12H329.62a.78.78,0,1,1,0-1.56H503.48a.78.78,0,0,1,0,1.56Z"/><path class="cls-18" d="M494.13,481.53H320.27a.78.78,0,1,1,0-1.55H494.13a.78.78,0,1,1,0,1.55Z"/><path class="cls-18" d="M487.9,466H314a.78.78,0,0,1,0-1.56H487.9a.78.78,0,1,1,0,1.56Z"/><path class="cls-18" d="M484.78,450.36H310.92a.78.78,0,1,1,0-1.55H484.78a.78.78,0,1,1,0,1.55Z"/><path class="cls-18" d="M487.9,434.78H314a.78.78,0,0,1,0-1.56H487.9a.78.78,0,0,1,0,1.56Z"/><path class="cls-18" d="M494.13,419.19H320.27a.78.78,0,1,1,0-1.55H494.13a.78.78,0,1,1,0,1.55Z"/><path class="cls-18" d="M503.48,403.61H329.62a.78.78,0,0,1,0-1.56H503.48a.78.78,0,0,1,0,1.56Z"/><path class="cls-21" d="M557.6,515.52H205.37a65.07,65.07,0,0,1,0-130.13H557.6a4.67,4.67,0,0,1,4.67,4.67,4.8,4.8,0,0,1-5.35,4.68H205.37a55.72,55.72,0,0,0,0,111.43H556.94a4.74,4.74,0,0,1,5.33,4.58v.1A4.67,4.67,0,0,1,557.6,515.52Z"/><path class="cls-23" d="M202.53,479.68a29.23,29.23,0,0,1,0-58.45h63.23a91.64,91.64,0,0,0,0,58.45Z"/><path class="cls-4" d="M589.42,360.45A21.79,21.79,0,0,0,607.87,382v.28H226.79a21.82,21.82,0,0,1,0-43.64H607.87v.28A21.79,21.79,0,0,0,589.42,360.45Z"/><path class="cls-18" d="M589.42,360.45A21.79,21.79,0,0,0,607.87,382v.28H467.61a21.82,21.82,0,0,1,0-43.64H607.87v.28A21.79,21.79,0,0,0,589.42,360.45Z"/><path class="cls-24" d="M589.42,360.45A21.79,21.79,0,0,0,607.87,382v.28H467.61a21.82,21.82,0,0,1,0-43.64H607.87v.28A21.79,21.79,0,0,0,589.42,360.45Z"/><path class="cls-4" d="M607.87,385.39H226.79a24.94,24.94,0,1,1,0-49.87H607.87a3.12,3.12,0,1,1,0,6.23H226.79a18.7,18.7,0,0,0,0,37.4H607.87a3.12,3.12,0,1,1,0,6.24Z"/><path class="cls-25" d="M225,369.8a9.35,9.35,0,0,1,0-18.7H432.82a34.53,34.53,0,0,0,0,18.7Z"/><path class="cls-26" d="M321.12,289.27c-19.56,16.15-27.76,32.9-35.72,40.7-4.37,4.29-4.21,14.6,27.79,8.66s86.56,4.09,105.26,4.92,57.54-9.56,69.1-7.42c13.83,2.56-20.93-43.36-89.75-41.8S321.12,289.27,321.12,289.27Z"/><rect class="cls-27" x="310.29" y="320.44" width="129.65" height="7.01"/><path class="cls-18" d="M427.81,309.23l3.74-16.74s28-45.19,29.93-50.28-28.3-43.63-29.93-42.85-7.1,37-9,47.53-39.74,4.68-39.74,4.68S345,257.43,343,246.89c-.75-3.9-1.93-11.28-3.24-19.11-2.25-13.34-4.77-27.93-5.8-28.42-1.65-.78-31.89,37.81-29.92,42.85S334,292.49,334,292.49l3.74,16.74c-16.52-5.27-60.16-61.93-57.82-69.73s32.32-63.52,43.23-76.77,22.67-14.4,36.63-13.25c5.83.5,23,3.9,23,3.9s17.18-3.4,23-3.9c14-1.15,25.71,0,36.62,13.25.34.44.72.9,1.12,1.43,11.72,15.4,39.87,67.8,42.14,75.34C488,247.3,444.33,304,427.81,309.23Z"/><path class="cls-28" d="M427.81,309.23l3.74-16.74s28-45.19,29.93-50.28-28.3-43.63-29.93-42.85-7.1,37-9,47.53-39.74,4.68-39.74,4.68S345,257.43,343,246.89c-.75-3.9-1.93-11.28-3.24-19.11,20.45-18.61,59.72-50.15,103.7-63.62,11.72,15.4,39.87,67.8,42.14,75.34C488,247.3,444.33,304,427.81,309.23Z"/><rect class="cls-7" x="311.85" y="236.28" width="141.82" height="84.16" rx="6.23"/><rect class="cls-29" x="311.85" y="235.11" width="141.82" height="84.16" rx="4.58"/><rect class="cls-7" x="311.85" y="236.28" width="141.82" height="84.16" rx="6.23"/><circle class="cls-30" cx="382.76" cy="278.36" r="10.91"/><path class="cls-31" d="M439.33,437.34c-2.55,1.43-6.11-2.62-11-8.73,0,0-.06,0-.06-.06s0,0-.07-.07c-7-8.79-17-21.69-30.95-28.55-21.19-10.41-76.36-41-102.24-59.28,0,0,0,0,0-.07l0,0c-3.12-2.21-5.83-4.27-8-6.08-18.14-15.33-10.28-43.63,18.89-39.77a51.75,51.75,0,0,1,8.79,2c34.23,10.7,72.32,59.66,91.52,78.49,1.12,1.09,2.15,2.09,3.14,3,17.93,16,18.08,12.56,22.6,17.93C446.72,413.55,445.57,433.81,439.33,437.34Z"/><path class="cls-32" d="M439.33,437.34c-2.55,1.43-6.11-2.62-11-8.73,0,0-.06,0-.06-.06s0,0-.07-.07c-7-8.79-17-21.69-30.95-28.55-21.19-10.41-76.36-41-102.24-59.28,0,0,0,0,0-.07,1.5,1,46.48,30.52,111.19,34.57,1.12,1.09,2.15,2.09,3.14,3,17.93,16,18.08,12.56,22.6,17.93C446.72,413.55,445.57,433.81,439.33,437.34Z"/><path class="cls-26" d="M429.4,393.53c8.17,2.11,16.55,7,20.05,25.87s2.73,29.42-2.14,30.59-15.72-17.31-19-21.43c0,0,14.3,5.54,9.49-12.86S429.4,393.53,429.4,393.53Z"/><path class="cls-31" d="M398.16,126v22.78a15.39,15.39,0,0,1-29.52,6.11,14.83,14.83,0,0,1-1.28-6.11V126Z"/><path class="cls-33" d="M398.16,126v9.44C387.84,148,373,153.47,368.64,154.87a14.83,14.83,0,0,1-1.28-6.11V126Z"/><rect class="cls-31" x="355.62" y="94.55" width="54.29" height="10" rx="4.99"/><path class="cls-34" d="M344.23,662.7c-20.17-14.37-53-15.74-70.51,0s17.17,27.1,38.31,41.09S425.23,720.4,344.23,662.7Z"/><path class="cls-35" d="M593.33,186.91c-2.06,21.1,10.32,57.56,34.22,55.28s-1-37.62-9.35-55.28S594,179.63,593.33,186.91Z"/><path class="cls-3" d="M593.33,186.91c-2.06,21.1,10.32,57.56,34.22,55.28s-1-37.62-9.35-55.28S594,179.63,593.33,186.91Z"/><path class="cls-18" d="M6.29,217.2h217.8c12.47,0,17.42-16.6,6.71-23a38.09,38.09,0,0,0-4.52-2.28c-19.22-8.12-42.92,15.1-53-8.28s-12.92-36.45-35.58-37.85c-34.27-2.11-32.71,46.13-61.86,29.28-19.51-11.28-28.19,21-37.86,23.64-20.78,5.74-28.24,1.07-35.86,7.63C-2.22,210.06.6,217.2,6.29,217.2Z"/><path class="cls-36" d="M6.29,217.2h217.8c12.47,0,17.42-16.6,6.71-23a38.09,38.09,0,0,0-4.52-2.28c-19.22-8.12-42.92,15.1-53-8.28s-12.92-36.45-35.58-37.85c-34.27-2.11-32.71,46.13-61.86,29.28-19.51-11.28-28.19,21-37.86,23.64-20.78,5.74-28.24,1.07-35.86,7.63C-2.22,210.06.6,217.2,6.29,217.2Z"/><path class="cls-30" d="M612.16,303.68a4.29,4.29,0,1,1-4.29-4.29A4.29,4.29,0,0,1,612.16,303.68Z"/><path class="cls-30" d="M650.67,397.81a4.29,4.29,0,1,1-4.29-4.28A4.29,4.29,0,0,1,650.67,397.81Z"/><path class="cls-30" d="M530.93,454.74a4.29,4.29,0,1,1-4.29-4.28A4.29,4.29,0,0,1,530.93,454.74Z"/><path class="cls-30" d="M177.61,345a4.29,4.29,0,1,1-4.29-4.29A4.29,4.29,0,0,1,177.61,345Z"/><path class="cls-30" d="M186.18,236.28a4.29,4.29,0,1,1-4.29-4.29A4.29,4.29,0,0,1,186.18,236.28Z"/><path class="cls-30" d="M225.37,177.18a4.29,4.29,0,1,1-4.28-4.29A4.29,4.29,0,0,1,225.37,177.18Z"/><circle class="cls-30" cx="79.47" cy="365.97" r="4.29"/><path class="cls-30" d="M588.7,497.68a4.29,4.29,0,1,1-4.29-4.29A4.29,4.29,0,0,1,588.7,497.68Z"/><path class="cls-30" d="M597.39,450.46a4.29,4.29,0,1,1-4.28-4.29A4.28,4.28,0,0,1,597.39,450.46Z"/><path class="cls-31" d="M332.89,396c4.53-5.37,4.68-1.95,22.6-17.93s58.44-70.13,94.68-81.43,47.53,21,27.66,37.8-86.5,53.76-110.26,65.45-35.85,40.91-42.08,37.41S318.09,413.56,332.89,396Z"/><path class="cls-26" d="M335.41,393.53c-8.17,2.11-16.55,7-20.05,25.87s-2.73,29.42,2.14,30.59,15.72-17.31,19-21.43c0,0-14.3,5.54-9.49-12.86S335.41,393.53,335.41,393.53Z"/><path class="cls-18" d="M389.49,542.29H212.6a1.56,1.56,0,0,1,0-3.12H389.49a1.56,1.56,0,0,1,0,3.12Z"/><path class="cls-18" d="M394.05,557.87H217.16a1.56,1.56,0,1,1,0-3.11H394.05a1.56,1.56,0,1,1,0,3.11Z"/><path class="cls-18" d="M399.25,573.65H222.35a1.56,1.56,0,0,1,0-3.11h176.9a1.56,1.56,0,0,1,0,3.11Z"/><path class="cls-18" d="M399.25,589H222.35a1.56,1.56,0,0,1,0-3.11h176.9a1.56,1.56,0,0,1,0,3.11Z"/><path class="cls-18" d="M394.05,604.78H217.16a1.56,1.56,0,0,1,0-3.12H394.05a1.56,1.56,0,0,1,0,3.12Z"/><path class="cls-18" d="M389.49,620.21H212.6a1.56,1.56,0,1,1,0-3.11H389.49a1.56,1.56,0,1,1,0,3.11Z"/><circle class="cls-37" cx="495.85" cy="684.66" r="2.86"/><path class="cls-38" d="M547.28,663.36a2.86,2.86,0,1,1-2.85-2.86A2.85,2.85,0,0,1,547.28,663.36Z"/><path class="cls-39" d="M583,681.8a2.86,2.86,0,1,1-2.85-2.85A2.85,2.85,0,0,1,583,681.8Z"/><path class="cls-40" d="M636.32,639.4a2.86,2.86,0,1,1-2.86-2.85A2.86,2.86,0,0,1,636.32,639.4Z"/><path class="cls-18" d="M578.19,361.64H457.41a.78.78,0,1,1,0-1.56H578.19a.78.78,0,1,1,0,1.56Z"/><path class="cls-18" d="M578.19,354H457.41a.78.78,0,1,1,0-1.56H578.19a.78.78,0,1,1,0,1.56Z"/><path class="cls-18" d="M578.19,369.19H457.41a.78.78,0,1,1,0-1.56H578.19a.78.78,0,1,1,0,1.56Z"/><rect class="cls-31" x="355.62" y="94.55" width="54.29" height="10" rx="4.99"/><path class="cls-31" d="M403.35,72.62l1.35,38.49h-.06c-.75,13.71-10.26,24.56-21.88,24.56s-21.1-10.85-21.88-24.56h-.07l1-38.68Z"/><path class="cls-41" d="M379.21,101.05a7.64,7.64,0,1,1-7.64-7.64A7.65,7.65,0,0,1,379.21,101.05Z"/><path class="cls-7" d="M371.57,93.41a7.65,7.65,0,1,1-7.64,7.64,7.64,7.64,0,0,1,7.64-7.64m0-.78a8.42,8.42,0,1,0,8.42,8.42,8.43,8.43,0,0,0-8.42-8.42Z"/><path class="cls-42" d="M401.55,101.05a7.65,7.65,0,1,1-7.64-7.64A7.65,7.65,0,0,1,401.55,101.05Z"/><path class="cls-7" d="M393.91,93.41a7.65,7.65,0,1,1-7.65,7.64,7.64,7.64,0,0,1,7.65-7.64m0-.78a8.42,8.42,0,1,0,8.42,8.42,8.44,8.44,0,0,0-8.42-8.42Z"/><path class="cls-7" d="M385.4,101.38a4.81,4.81,0,0,0-5.39,0l-.47-.62a5.61,5.61,0,0,1,6.3,0Z"/><path class="cls-7" d="M404.7,70.21v23.1c-2-10-9.44-11.25-19.07-12.75a38.86,38.86,0,0,1-17-7.32s0,2.65-4.15,7.32c-2.37,2.65-3.27,6.7-3.65,9.76V70.21Z"/><path class="cls-43" d="M387.9,32.19c-9.72,5.45-19,12.56-27.43,18.42-19,13.24-47.25,17.08-36.25,48.93S317.14,141,295,154.87s-14.3,46.35-14.3,46.35c-11.44-3-20.55-11.38-22.38-27.52-1.25-10.82,2.27-18.08,7.91-23.47,15.46-14.81,47.07-15.65,41.37-38.31-2.9-11.53-2.69-22.35-.22-31.36a17.31,17.31,0,0,1,.56-1.9c3.74-11.81,11.47-20.14,21-22.16C363.71,49.08,366.11,28.29,387.9,32.19Z"/><path class="cls-18" d="M508,69H637.72c4.5,0,18.13-2,21.56-6,4.91-5.72.56-14.55-11-15.26-23.82-1.46-14.47-13.5-33.83-25.2-16.43-9.93-31,21.65-41.7-8.15C566.28-3.57,548.64-2,542.13,4.43c-13,12.77-12,38.41-34.1,33.71C489.66,34.24,464.72,69,508,69Z"/><path class="cls-44" d="M508,69H637.72c4.5,0,18.13-2,21.56-6,4.91-5.72.56-14.55-11-15.26-23.82-1.46-14.47-13.5-33.83-25.2-16.43-9.93-31,21.65-41.7-8.15C566.28-3.57,548.64-2,542.13,4.43c-13,12.77-12,38.41-34.1,33.71C489.66,34.24,464.72,69,508,69Z"/><path class="cls-4" d="M423.45,674.79a61.87,61.87,0,0,0-5.92-25.49c-.16-.31-.31-.63-.44-.94-.81-1.65-1.65-3.24-2.55-4.77s-1.91-3.18-2.9-4.67-2.25-3.18-3.43-4.68-2.4-3-3.65-4.42c-.25-.32-.53-.6-.78-.88-.47-.53-.93-1.06-1.43-1.56a3.33,3.33,0,0,1-.25-.28,113.82,113.82,0,0,0-11.16-10.22c-.34-.28-.69-.53-1-.78a105.84,105.84,0,0,0-12.84-8.73c-1-.59-1.53-.87-1.59-.9l-.69,1.4c.07,0,.63.31,1.63.87a111.79,111.79,0,0,1,11.81,8,4.22,4.22,0,0,1,.47.34c.37.28.74.59,1.15.9s.75.63,1.15.94v0a103.82,103.82,0,0,1,9.79,9l.28.31c.59.62,1.19,1.25,1.78,1.9.37.41.75.84,1.09,1.28.81.9,1.56,1.81,2.31,2.77,1.21,1.5,2.36,3.06,3.49,4.68s2.05,3.05,3,4.67a62.31,62.31,0,0,1,3,5.55h0c.06.16.16.34.22.53a61,61,0,0,1,5.92,24.25Z"/><path class="cls-4" d="M377.89,609.22s-3.78-10.47-12.9-15.35S354.37,602.33,377.89,609.22Z"/><path class="cls-4" d="M390.44,617.74s-9.77-5.34-19.82-3S368.27,628.18,390.44,617.74Z"/><path class="cls-4" d="M404.81,631.1s-9.78-5.34-19.83-3S382.63,641.53,404.81,631.1Z"/><path class="cls-4" d="M416.39,649.48s-9.77-5.33-19.83-2.94S394.22,659.92,416.39,649.48Z"/><path class="cls-4" d="M390.88,617.21s2.53-10.84-2.46-19.89S374.9,598.63,390.88,617.21Z"/><path class="cls-4" d="M404.3,630.29s5.67-9.58,3.63-19.71S394.64,607.77,404.3,630.29Z"/><path class="cls-4" d="M417.4,649.49s6.7-8.89,5.8-19.19S410.3,626,417.4,649.49Z"/><path class="cls-45" d="M739.75,422.46c-.32,29.26-3.25,49.66-8,65.87a145.12,145.12,0,0,1-10.16,25.53c-1.65,3.21-3.37,6.32-5.18,9.44-11,19.12-24.54,37.87-37.87,73q-.59,1.5-1.17,3.09C650.2,673.13,539,737.26,423.69,675.6a261.84,261.84,0,0,1-45.79-31.32c-1.81-1.51-3.64-3.09-5.45-4.69-.09-.09-.23-.19-.32-.28-1.63-1.42-3.25-2.88-4.83-4.39-2.27-2.09-4.56-4.24-6.83-6.46,0,0-101.66-30.13-144.82-5.2a63.49,63.49,0,0,1-27.93,8.7c-.87.07-1.74.09-2.61.09-.62,0-1.26,0-1.9,0h-.05a61.48,61.48,0,0,1-8.1-.69c-1.21-.18-2.38-.39-3.57-.64a59.9,59.9,0,0,1-7-1.9.36.36,0,0,1-.16-.05c-17.26-5.72-33.36-18.64-46.66-36.15C101.17,571,89.89,541.13,85,510.34c-3.36-21.48-9.66-37.6-17.42-50.85-.07-.14-.16-.3-.25-.46-9-15.21-19.74-26.61-30.09-38C29,411.47,21.2,401.79,15,389.9c-1.58-3.06-3.07-6.27-4.42-9.64-.21-.57-.44-1.12-.64-1.69-.51-1.44-1-2.88-1.49-4.26-.39-1.14-.73-2.27-1-3.3-.16-.48-.3-1-.44-1.46-3-10.69-3.68-22.81-2.15-35.49,6-48.95,45.29-106.9,115.42-128,30.89-9.31,48.38-23.35,60.44-38.78,22.6-29.06,26.06-63.06,63.18-80,24.29-11.11,44.94-10.92,63.46-6a18.09,18.09,0,0,1,.58-1.9c17.37,5.17,32.88,14.24,47.73,21.52,1.74.83,3.46,1.65,5.16,2.43,1.3.59,2.58,1.14,3.87,1.72a5.56,5.56,0,0,0,.61.25c3.12,1.33,6.23,2.47,9.32,3.48,7.4,2.33,14.77,3.59,22.28,3,2.59-.2,5.18-.43,7.81-.69,11.31-1.07,23-2.38,34.71-3.27,1,1,2.08,1.9,3.11,2.84,27.48-2.06,55.46-1.65,81.15,10.23a103.11,103.11,0,0,1,15.25,8.64,52,52,0,0,1,6,4.83,1.1,1.1,0,0,1,.12.11C556.74,147,562.3,164.81,567,183c5.54,21.48,9.92,43.55,21.66,58.71a37.22,37.22,0,0,0,2.61,3.07,45.25,45.25,0,0,0,16.56,11.7c43,17.83,116.52,57.35,129.8,138A161.77,161.77,0,0,1,739.75,422.46Z"/><path class="cls-3" d="M591.31,244.79C568.37,265,545,296.6,533,336.19c-.32,1-.62,2.06-.9,3.11s-.59,2.06-.84,3.12q-.87,3-1.56,6.13c-1.9,8.29-7.17,19-15.27,31.28-.69,1-1.42,2.06-2.11,3.11s-1.44,2.06-2.2,3.12q-1.58,2.29-3.36,4.67c-1.12,1.53-2.32,3.09-3.53,4.67C477.38,428.94,435,470.34,383.62,506.83c-2.17,1.56-4.42,3.14-6.64,4.7s-4.58,3.13-6.87,4.67a1.82,1.82,0,0,1-.41.27c-2.34,1.58-4.67,3.16-7.05,4.67s-4.83,3.16-7.26,4.68C313.93,552.1,268,574.2,221.15,586.44c-5.93,1.54-11.88,2.91-17.84,4.15-5.17,1.07-10.32,2-15.5,2.79-8.9,1.35-17.86,2.34-26.76,2.89a252.61,252.61,0,0,1-40.53-.76C104,573.85,91.85,545.19,87,514.39c-3.71-23.51-10.8-40.78-19.41-54.9-.07-.14-.16-.3-.25-.46-9.14-14.89-20-26.33-30.09-38C29,411.47,21.2,401.79,15,389.9c-1.58-3.06-3.07-6.27-4.42-9.64-.21-.57-.44-1.12-.64-1.69-.51-1.44-1-2.88-1.49-4.26-.39-1.14-.73-2.27-1-3.3-.16-.48-.3-1-.44-1.46-3-10.69-3.68-22.81-2.15-35.49,6-48.95,45.29-106.9,115.42-128,30.89-9.31,48.38-23.35,60.44-38.78,22.6-29.06,26.06-63.06,63.18-80,24.29-11.11,44.94-10.92,63.46-6,17.86,4.72,33.71,13.81,48.84,21.29,1.56.8,3.09,1.56,4.63,2.27a10.27,10.27,0,0,0,.94.46c1.55.73,3.11,1.44,4.67,2.1s3.2,1.38,4.8,2c9.51,3.71,18.92,6,28.56,5.18,1.51-.14,3.06-.26,4.6-.39,12.41-1.12,25.21-2.66,38.14-3.62,27.48-2.06,55.46-1.65,81.15,10.23a103.11,103.11,0,0,1,15.25,8.64,52,52,0,0,1,6,4.83,1.1,1.1,0,0,1,.12.11C556.74,147,562.3,164.81,567,183c5.54,21.48,9.92,43.55,21.66,58.71A37.22,37.22,0,0,0,591.31,244.79Z"/><path class="cls-4" d="M141,491.86a43.3,43.3,0,0,1-12.94-12.1c-.09-.1-.17-.23-.25-.32v0c-.88-1.23-1.67-2.49-2.4-3.76s-1.29-2.3-1.85-3.48-1.17-2.51-1.68-3.78c-.33-.8-.63-1.58-.91-2.4-.15-.36-.29-.74-.41-1.12-.2-.59-.38-1.17-.56-1.76,0-.09-.07-.19-.09-.28a75.69,75.69,0,0,1-2.17-9.19h0c-.05-.36-.11-.7-.18-1s-.11-.69-.15-1a2,2,0,0,1-.05-.41,78.94,78.94,0,0,1-.85-10.1c0-.81,0-1.25,0-1.3l-1.11-.07c0,.05,0,.5,0,1.3a73.86,73.86,0,0,0,.93,11c0,.28.08.58.13.89A81.11,81.11,0,0,0,119,463.33l.09.25c.13.48.3,1,.46,1.43.09.25.17.52.27.79.44,1.25.92,2.52,1.47,3.79s1.08,2.51,1.7,3.75,1.2,2.3,1.88,3.42,1.32,2.16,2.06,3.24c.15.18.29.39.43.59A43.88,43.88,0,0,0,141,493.13Z"/><path class="cls-4" d="M116.32,442.13s-5.16-6-5-13.32S120.25,425.19,116.32,442.13Z"/><path class="cls-4" d="M117.22,452.86s.11-7.9,5.08-13.29S131.4,442.78,117.22,452.86Z"/><path class="cls-4" d="M120.49,466.39s.1-7.9,5.08-13.29S134.66,456.31,120.49,466.39Z"/><path class="cls-4" d="M127.83,480s.1-7.9,5.08-13.29S142,469.87,127.83,480Z"/><path class="cls-4" d="M116.75,453s-7.59-2.21-11.45-8.45S110.82,436.6,116.75,453Z"/><path class="cls-4" d="M120.17,465.8s-7.9.17-13.46-4.62S109.6,452,120.17,465.8Z"/><path class="cls-4" d="M127.48,480.58s-7.83,1.05-13.88-3.09S115.45,468,127.48,480.58Z"/><path class="cls-46" d="M183.79,516.82c-9.62-15.36-25.18-36.29-39-39.09s-20.89,14.81-34.86,1.32-54.1-50.4-63.81-38.7.38,31.67,14.77,44.18,21,23.27,12.91,26.24-16.91,8.43-11.34,22.08,48.38,35,68.87,42.24S217,596.93,217,596.93,190.63,527.72,183.79,516.82Z"/><path class="cls-6" d="M201.7,593.46q-5.25-5.61-11-10.87c-8.66-11-9.07-36-9.09-36.24a.55.55,0,0,0-.69-.55.74.74,0,0,0-.69.7c0,.93.34,20.47,6.68,32.73a204,204,0,0,0-19.25-14.78c-15.51-10.45-30.5-31.53-43.71-50.15-7.19-10.15-14-19.73-19.75-25.86-16-16.95-27.76-18.17-28.23-18.2a.78.78,0,0,0-.85.57.55.55,0,0,0,.52.67c.15,0,11.77,1.22,27.45,17.84,5.74,6.06,12.48,15.61,19.68,25.73,4,5.59,8.12,11.43,12.36,17.11-13.35-8.91-34.34-7.2-34.59-7.14a.67.67,0,0,0-.69.66.58.58,0,0,0,.69.55c.25,0,27.24-2.2,38.81,11.48h0c8.71,11.21,17.92,21.44,27.36,27.79a200,200,0,0,1,22.84,18v0c3.34,3,6.54,6.17,9.67,9.38Z"/><path class="cls-7" d="M228.08,604.6s-59.81-22.21-73.29-41-31.72-24.11-40-15.08-22,6.17-45.65-2.83-42.92,1.11-36.22,13.73,57.24,21.36,50.88,28.15-36.45.43-38.88,11.25,32,29.41,62.72,24.77,42.6-9.55,36.72,4.66S202.34,657,228.08,604.6Z"/><path class="cls-47" d="M189,607.23C114.51,595,73.33,570.16,72.91,569.9a.65.65,0,0,1-.21-.93.71.71,0,0,1,1-.25c.38.26,38,22.88,106.31,35.52-17-9.67-28.18-25.43-28.29-25.62a.69.69,0,0,1,1.12-.81c.14.19,12.85,18.13,31.7,27.23,1.72.31,3.45.59,5.21.87Z"/><path class="cls-9" d="M523.68,120.8a371,371,0,0,0-67.83,5.42A383.56,383.56,0,0,0,398.16,141q-14.31,4.86-28.09,10.72c-.81.34-1.59.65-2.37,1a459.88,459.88,0,0,0-56.95,29.52q-15.42,9.34-30.07,19.7c-11.1,7.76-21.85,15.92-32.33,24.37A796.17,796.17,0,0,0,178.69,290c-64.53,66-129.86,62.72-173.84,44.11,4.52-37.19,28.3-79.58,70.23-107a172.58,172.58,0,0,1,45.19-21c15.74-4.74,28-10.72,37.84-17.49a99.54,99.54,0,0,0,22.6-21.29c22.6-29.05,26.06-63.05,63.18-80,24.29-11.1,44.95-10.91,63.47-6a17.48,17.48,0,0,1,.56-1.91c17.39,5.18,32.88,14.25,47.75,21.51q2.63,1.26,5.14,2.43c1.31.6,2.59,1.16,3.87,1.72.22.09.4.18.62.25,3.12,1.34,6.24,2.49,9.32,3.49a57.68,57.68,0,0,0,22.29,3c2.59-.22,5.17-.44,7.79-.69,11.32-1.09,23-2.4,34.73-3.27,1,1,2.08,1.9,3.11,2.84C470,108.52,498,108.92,523.68,120.8Z"/><g class="cls-10"><path class="cls-48" d="M211.07,227h-136a172.58,172.58,0,0,1,45.19-21c15.74-4.74,28-10.72,37.84-17.49.69,1.59,1.38,3.24,2.12,5,10.13,23.38,33.82.12,53,8.26a40.49,40.49,0,0,1,4.52,2.27C228.5,210.41,223.54,227,211.07,227Z"/><path class="cls-49" d="M211.07,227h-136a172.58,172.58,0,0,1,45.19-21c15.74-4.74,28-10.72,37.84-17.49.69,1.59,1.38,3.24,2.12,5,10.13,23.38,33.82.12,53,8.26a40.49,40.49,0,0,1,4.52,2.27C228.5,210.41,223.54,227,211.07,227Z"/></g><path class="cls-7" d="M456.66,138.75c-2.06,12.6-8.57,19.83-14.8,24a41.15,41.15,0,0,1-13.25,5.58s-85.19,14.52-107.54,27a63.47,63.47,0,0,1-22.13,7.36,47.13,47.13,0,0,1-18.26-.81c-11.44-3-20.55-11.38-22.38-27.53-1.25-10.81,2.27-18.08,7.91-23.47,15.46-14.81,47.07-15.65,41.37-38.31-2.9-11.53-2.69-22.35-.22-31.35a17.48,17.48,0,0,1,.56-1.91c3.74-11.81,11.47-20.13,21-22.16,34.78-7.42,37.18-28.21,59-24.31a40.69,40.69,0,0,1,5.77,1.46c15.18,4.9,22.44,13.81,26.87,24.94,3.58,8.95,5.29,19.33,7.82,30.2,1.9,8.33,6.3,13.75,11.07,18.27,1,1,2.08,1.9,3.11,2.84,5.52,4.8,10.94,9,13.31,15.64A24.49,24.49,0,0,1,456.66,138.75Z"/><path class="cls-50" d="M721.61,513.86c-12,23.44-28.34,42.51-44.2,85.5C650.2,673.14,539,737.25,423.68,675.6c22.54-42.7,101.56-14,133.91-36,40.18-27.31,54-79.58,56.45-118.45s47.78-27.77,73.78-9.63C700,520,712.1,518.19,721.61,513.86Z"/><path class="cls-17" d="M654.13,580.38a59.27,59.27,0,0,1-59.22,59.22H145a59.23,59.23,0,0,0,0-118.45H594.91A59.22,59.22,0,0,1,654.13,580.38Z"/><path class="cls-7" d="M654.13,580.38a59.27,59.27,0,0,1-59.22,59.22H145a59.23,59.23,0,0,0,0-118.45H594.91A59.22,59.22,0,0,1,654.13,580.38Z"/><path class="cls-18" d="M425.81,580.38a59.27,59.27,0,0,1-59.22,59.22H145a59.23,59.23,0,0,0,0-118.45H366.59A59.22,59.22,0,0,1,425.81,580.38Z"/><path class="cls-51" d="M425.81,580.86a59.29,59.29,0,0,1-59.22,59.23H145a59.23,59.23,0,0,0,0-118.45H366.59A59.22,59.22,0,0,1,425.81,580.86Z"/><path class="cls-52" d="M624.43,580.38c0,6.57-3,12.76-8.63,17.41A32.34,32.34,0,0,1,595,605H447.68a44.74,44.74,0,0,0,0-49.29H595C611.26,555.73,624.43,566.79,624.43,580.38Z"/><path class="cls-7" d="M594.92,644.28H145a4.68,4.68,0,1,1,0-9.35H594.91a54.55,54.55,0,0,0,0-109.1H145a4.68,4.68,0,1,1,0-9.35H594.91a63.9,63.9,0,0,1,0,127.8Z"/><path class="cls-21" d="M500.31,451.12a60.37,60.37,0,0,0,57.29,60.32v.09H205.37a60.39,60.39,0,0,1,0-120.78H557.6v.09A60.36,60.36,0,0,0,500.31,451.12Z"/><path class="cls-18" d="M500.31,451.12a60.37,60.37,0,0,0,57.29,60.32v.09H355.4a60.39,60.39,0,1,1,0-120.78H557.6v.09A60.36,60.36,0,0,0,500.31,451.12Z"/><path class="cls-53" d="M500.31,451.12a60.37,60.37,0,0,0,57.29,60.32v.09H355.4a60.39,60.39,0,1,1,0-120.78H557.6v.09A60.36,60.36,0,0,0,500.31,451.12Z"/><path class="cls-18" d="M503.48,497.8H329.62a.78.78,0,1,1,0-1.55H503.48a.78.78,0,1,1,0,1.55Z"/><path class="cls-18" d="M494.13,482.22H320.27a.78.78,0,0,1,0-1.56H494.13a.78.78,0,0,1,0,1.56Z"/><path class="cls-18" d="M487.9,466.63H314a.78.78,0,1,1,0-1.55H487.9a.78.78,0,1,1,0,1.55Z"/><path class="cls-18" d="M484.78,451.05H310.92a.78.78,0,1,1,0-1.56H484.78a.78.78,0,0,1,0,1.56Z"/><path class="cls-18" d="M487.9,435.46H314a.78.78,0,1,1,0-1.56H487.9a.78.78,0,1,1,0,1.56Z"/><path class="cls-18" d="M494.13,419.88H320.27a.78.78,0,1,1,0-1.56H494.13a.78.78,0,1,1,0,1.56Z"/><path class="cls-18" d="M503.48,404.29H329.62a.78.78,0,0,1,0-1.56H503.48a.78.78,0,0,1,0,1.56Z"/><path class="cls-21" d="M557.6,516.21H205.37a65.07,65.07,0,0,1,0-130.14H557.6a4.68,4.68,0,0,1,4.67,4.68,4.8,4.8,0,0,1-5.35,4.67H205.37a55.72,55.72,0,0,0,0,111.44H556.94a4.73,4.73,0,0,1,5.33,4.58v.09A4.68,4.68,0,0,1,557.6,516.21Z"/><path class="cls-23" d="M202.53,480.36a29.22,29.22,0,0,1,0-58.44h63.23a91.61,91.61,0,0,0,0,58.44Z"/><path class="cls-4" d="M589.42,361.14a21.78,21.78,0,0,0,18.45,21.53V383H226.79a21.82,21.82,0,1,1,0-43.63H607.87v.28A21.79,21.79,0,0,0,589.42,361.14Z"/><path class="cls-18" d="M589.42,361.14a21.78,21.78,0,0,0,18.45,21.53V383H467.61a21.82,21.82,0,1,1,0-43.63H607.87v.28A21.79,21.79,0,0,0,589.42,361.14Z"/><path class="cls-54" d="M589.42,361.14a21.78,21.78,0,0,0,18.45,21.53V383H467.61a21.82,21.82,0,1,1,0-43.63H607.87v.28A21.79,21.79,0,0,0,589.42,361.14Z"/><path class="cls-4" d="M607.87,386.07H226.79a24.94,24.94,0,1,1,0-49.87H607.87a3.12,3.12,0,1,1,0,6.23H226.79a18.71,18.71,0,0,0,0,37.41H607.87a3.12,3.12,0,1,1,0,6.23Z"/><path class="cls-25" d="M225,370.49a9.36,9.36,0,0,1,0-18.71H432.82a34.57,34.57,0,0,0,0,18.71Z"/><path class="cls-26" d="M321.12,290c-19.56,16.16-27.76,32.91-35.72,40.7-4.37,4.29-4.21,14.6,27.79,8.67s86.56,4.08,105.26,4.91,57.54-9.55,69.1-7.42c13.83,2.56-20.93-43.36-89.75-41.8S321.12,290,321.12,290Z"/><rect class="cls-27" x="310.29" y="321.12" width="129.65" height="7.01"/><path class="cls-18" d="M427.81,309.91l3.74-16.73s28-45.2,29.93-50.28-28.3-43.64-29.93-42.86-7.1,37-9,47.53-39.74,4.68-39.74,4.68S345,258.11,343,247.57c-.75-3.89-1.93-11.28-3.24-19.1C337.54,215.13,335,200.54,334,200c-1.65-.78-31.89,37.81-29.92,42.86S334,293.18,334,293.18l3.74,16.73c-16.52-5.26-60.16-61.93-57.82-69.72s32.32-63.53,43.23-76.78,22.67-14.4,36.63-13.24c5.83.5,23,3.89,23,3.89s17.18-3.39,23-3.89c14-1.16,25.71,0,36.62,13.24.34.44.72.91,1.12,1.44,11.72,15.4,39.87,67.79,42.14,75.34C488,248,444.33,304.65,427.81,309.91Z"/><path class="cls-55" d="M427.81,309.91l3.74-16.73s28-45.2,29.93-50.28-28.3-43.64-29.93-42.86-7.1,37-9,47.53-39.74,4.68-39.74,4.68S345,258.11,343,247.57c-.75-3.89-1.93-11.28-3.24-19.1,20.45-18.61,59.72-50.16,103.7-63.62,11.72,15.4,39.87,67.79,42.14,75.34C488,248,444.33,304.65,427.81,309.91Z"/><rect class="cls-7" x="311.85" y="236.96" width="141.82" height="84.16" rx="6.23"/><rect class="cls-56" x="311.85" y="235.8" width="141.82" height="84.16" rx="4.58"/><rect class="cls-7" x="311.85" y="236.96" width="141.82" height="84.16" rx="6.23"/><circle class="cls-30" cx="382.76" cy="279.04" r="10.91" transform="translate(-77.65 167.72) rotate(-22.5)"/><path class="cls-31" d="M439.33,438c-2.55,1.43-6.11-2.62-11-8.73,0,0-.06,0-.06-.06s0,0-.07-.06c-7-8.79-17-21.7-30.95-28.55-21.19-10.42-76.36-41-102.24-59.29,0,0,0,0,0-.06l0,0c-3.12-2.22-5.83-4.27-8-6.08-18.14-15.34-10.28-43.64,18.89-39.78a51.83,51.83,0,0,1,8.79,2C348.88,308,387,357,406.17,375.83c1.12,1.1,2.15,2.09,3.14,3,17.93,16,18.08,12.56,22.6,17.92C446.72,414.24,445.57,434.5,439.33,438Z"/><path class="cls-57" d="M439.33,438c-2.55,1.43-6.11-2.62-11-8.73,0,0-.06,0-.06-.06s0,0-.07-.06c-7-8.79-17-21.7-30.95-28.55-21.19-10.42-76.36-41-102.24-59.29,0,0,0,0,0-.06,1.5,1,46.48,30.51,111.19,34.56,1.12,1.1,2.15,2.09,3.14,3,17.93,16,18.08,12.56,22.6,17.92C446.72,414.24,445.57,434.5,439.33,438Z"/><path class="cls-26" d="M429.4,394.21c8.17,2.11,16.55,7,20.05,25.88s2.73,29.42-2.14,30.58-15.72-17.31-19-21.43c0,0,14.3,5.55,9.49-12.85S429.4,394.21,429.4,394.21Z"/><path class="cls-31" d="M398.16,126.66v22.79a15.39,15.39,0,0,1-29.52,6.11,14.83,14.83,0,0,1-1.28-6.11V126.66Z"/><path class="cls-58" d="M398.16,126.66v9.44c-10.32,12.57-25.13,18.05-29.52,19.46a14.83,14.83,0,0,1-1.28-6.11V126.66Z"/><rect class="cls-31" x="355.62" y="95.24" width="54.29" height="10" rx="4.99"/><path class="cls-59" d="M344.23,663.38c-20.17-14.36-53-15.73-70.51,0s17.17,27.11,38.31,41.09S425.23,721.08,344.23,663.38Z"/><path class="cls-18" d="M6.29,217.88h217.8c12.47,0,17.42-16.6,6.71-23a36.64,36.64,0,0,0-4.52-2.28c-19.22-8.13-42.92,15.1-53-8.28s-12.92-36.45-35.58-37.85c-34.27-2.12-32.71,46.13-61.86,29.28-19.51-11.29-28.19,21-37.86,23.63C17.18,205.14,9.72,200.47,2.1,207-2.22,210.75.6,217.88,6.29,217.88Z"/><path class="cls-60" d="M6.29,217.88h217.8c12.47,0,17.42-16.6,6.71-23a36.64,36.64,0,0,0-4.52-2.28c-19.22-8.13-42.92,15.1-53-8.28s-12.92-36.45-35.58-37.85c-34.27-2.12-32.71,46.13-61.86,29.28-19.51-11.29-28.19,21-37.86,23.63C17.18,205.14,9.72,200.47,2.1,207-2.22,210.75.6,217.88,6.29,217.88Z"/><path class="cls-30" d="M177.61,345.68a4.29,4.29,0,1,1-4.29-4.29A4.29,4.29,0,0,1,177.61,345.68Z"/><path class="cls-30" d="M186.18,237a4.29,4.29,0,1,1-4.29-4.28A4.29,4.29,0,0,1,186.18,237Z"/><path class="cls-30" d="M225.37,177.86a4.29,4.29,0,1,1-4.28-4.28A4.29,4.29,0,0,1,225.37,177.86Z"/><path class="cls-30" d="M83.76,366.66a4.29,4.29,0,1,1-4.29-4.29A4.29,4.29,0,0,1,83.76,366.66Z"/><path class="cls-31" d="M332.89,396.71c4.53-5.37,4.68-1.95,22.6-17.92s58.44-70.13,94.68-81.43,47.53,21,27.66,37.79-86.5,53.77-110.26,65.46-35.85,40.91-42.08,37.4S318.09,414.24,332.89,396.71Z"/><path class="cls-26" d="M335.41,394.21c-8.17,2.11-16.55,7-20.05,25.88s-2.73,29.42,2.14,30.58,15.72-17.31,19-21.43c0,0-14.3,5.55-9.49-12.85S335.41,394.21,335.41,394.21Z"/><path class="cls-18" d="M389.49,543H212.6a1.56,1.56,0,1,1,0-3.11H389.49a1.56,1.56,0,1,1,0,3.11Z"/><path class="cls-18" d="M394.05,558.56H217.16a1.56,1.56,0,0,1,0-3.12H394.05a1.56,1.56,0,1,1,0,3.12Z"/><path class="cls-18" d="M399.25,574.34H222.35a1.56,1.56,0,0,1,0-3.12h176.9a1.56,1.56,0,0,1,0,3.12Z"/><path class="cls-18" d="M399.25,589.73H222.35a1.56,1.56,0,0,1,0-3.12h176.9a1.56,1.56,0,0,1,0,3.12Z"/><path class="cls-18" d="M394.05,605.47H217.16a1.56,1.56,0,1,1,0-3.12H394.05a1.56,1.56,0,1,1,0,3.12Z"/><path class="cls-18" d="M389.49,620.9H212.6a1.56,1.56,0,0,1,0-3.12H389.49a1.56,1.56,0,0,1,0,3.12Z"/><rect class="cls-31" x="355.62" y="95.24" width="54.29" height="10" rx="4.99"/><path class="cls-31" d="M403.35,73.3l1.35,38.49h-.06c-.75,13.72-10.26,24.56-21.88,24.56s-21.1-10.84-21.88-24.56h-.07l1-38.68Z"/><path class="cls-61" d="M379.21,101.74a7.64,7.64,0,1,1-7.64-7.65A7.64,7.64,0,0,1,379.21,101.74Z"/><path class="cls-7" d="M371.57,94.09a7.65,7.65,0,1,1-7.64,7.65,7.64,7.64,0,0,1,7.64-7.65m0-.78a8.43,8.43,0,1,0,8.42,8.43,8.43,8.43,0,0,0-8.42-8.43Z"/><circle class="cls-62" cx="393.91" cy="101.74" r="7.64"/><path class="cls-7" d="M393.91,94.09a7.65,7.65,0,1,1-7.65,7.65,7.64,7.64,0,0,1,7.65-7.65m0-.78a8.43,8.43,0,1,0,8.42,8.43,8.44,8.44,0,0,0-8.42-8.43Z"/><path class="cls-7" d="M385.4,102.06a4.8,4.8,0,0,0-5.39,0l-.47-.62a5.6,5.6,0,0,1,6.3,0Z"/><path class="cls-7" d="M404.7,70.9V94c-2-10-9.44-11.25-19.07-12.74a38.81,38.81,0,0,1-17-7.33s0,2.65-4.15,7.33c-2.37,2.64-3.27,6.7-3.65,9.75V70.9Z"/><path class="cls-43" d="M387.9,32.87c-9.72,5.45-19,12.56-27.43,18.42-19,13.25-47.25,17.08-36.25,48.94s-7.08,41.45-29.24,55.33-14.3,46.35-14.3,46.35c-11.44-3-20.55-11.38-22.38-27.53-1.25-10.81,2.27-18.08,7.91-23.47,15.46-14.81,47.07-15.65,41.37-38.31-2.9-11.53-2.69-22.35-.22-31.35a17.48,17.48,0,0,1,.56-1.91c3.74-11.81,11.47-20.13,21-22.16C363.71,49.76,366.11,29,387.9,32.87Z"/><path class="cls-4" d="M423.45,675.48a62,62,0,0,0-5.92-25.5c-.16-.31-.31-.62-.44-.93-.81-1.66-1.65-3.25-2.55-4.77s-1.91-3.18-2.9-4.68-2.25-3.18-3.43-4.67-2.4-3-3.65-4.43c-.25-.31-.53-.59-.78-.87-.47-.53-.93-1.06-1.43-1.56-.1-.09-.16-.19-.25-.28a112.75,112.75,0,0,0-11.16-10.23c-.34-.28-.69-.53-1-.78a106.64,106.64,0,0,0-12.84-8.72c-1-.59-1.53-.88-1.59-.91l-.69,1.41c.07,0,.63.31,1.63.87a112.87,112.87,0,0,1,11.81,8c.15.09.31.22.47.34.37.28.74.59,1.15.91s.75.62,1.15.93v0a105.18,105.18,0,0,1,9.79,9l.28.31c.59.63,1.19,1.25,1.78,1.9.37.41.75.85,1.09,1.28.81.91,1.56,1.81,2.31,2.78,1.21,1.49,2.36,3.05,3.49,4.67s2.05,3.06,3,4.68a59.66,59.66,0,0,1,3,5.55h0c.06.15.16.34.22.53a61,61,0,0,1,5.92,24.25Z"/><path class="cls-4" d="M377.89,609.9s-3.78-10.47-12.9-15.35S354.37,603,377.89,609.9Z"/><path class="cls-4" d="M390.44,618.42s-9.77-5.33-19.82-2.94S368.27,628.86,390.44,618.42Z"/><path class="cls-4" d="M404.81,631.78S395,626.45,385,628.84,382.63,642.22,404.81,631.78Z"/><path class="cls-4" d="M416.39,650.17s-9.77-5.34-19.83-2.95S394.22,660.6,416.39,650.17Z"/><path class="cls-4" d="M390.88,617.9s2.53-10.85-2.46-19.9S374.9,599.32,390.88,617.9Z"/><path class="cls-4" d="M404.3,631s5.67-9.58,3.63-19.72S394.64,608.46,404.3,631Z"/><path class="cls-4" d="M417.4,650.17s6.7-8.89,5.8-19.19S410.3,626.72,417.4,650.17Z"/></g></g></g></svg>