<svg xmlns="http://www.w3.org/2000/svg" viewBox="0 0 203.97 204.09"><defs><style>.cls-1,.cls-2,.cls-3,.cls-4,.cls-5,.cls-6,.cls-7{fill-rule:evenodd;}.cls-1{opacity:0.2;}.cls-2,.cls-7{fill:#0087ca;}.cls-3,.cls-6{fill:#fff;}.cls-4{fill:#a6edf8;}.cls-5{fill:#00cef0;}.cls-6,.cls-7{opacity:0.72;}</style></defs><g id="Layer_2" data-name="Layer 2"><g id="Layer_1-2" data-name="Layer 1"><path class="cls-1" d="M109.5,204.09a55.77,55.77,0,0,1-12.85-1.47,41.07,41.07,0,0,1-10.91-4.22h0A23.19,23.19,0,0,1,78.37,192a12.5,12.5,0,0,1,0-15.34,23.19,23.19,0,0,1,7.37-6.37h0a40.63,40.63,0,0,1,10.88-4.2,55.77,55.77,0,0,1,12.85-1.48h0a55.77,55.77,0,0,1,12.85,1.47,41,41,0,0,1,10.9,4.21,23.35,23.35,0,0,1,7.38,6.37,13.12,13.12,0,0,1,2.63,7.67h0a13.08,13.08,0,0,1-2.62,7.67,23.24,23.24,0,0,1-7.38,6.37l0,0a41.24,41.24,0,0,1-10.87,4.2A55.83,55.83,0,0,1,109.5,204.09Z"/><path class="cls-2" d="M99.13,150a1,1,0,0,1-2.06,0,141,141,0,0,0-2.31-22.46c-1.68-9.8-4.07-20-6.45-28.57A1,1,0,0,1,89,97.7a1,1,0,0,1,1.27.72c2.41,8.67,4.81,18.91,6.5,28.76A142.33,142.33,0,0,1,99.13,150Zm8.73,5a1,1,0,0,1-2.07,0A116,116,0,0,1,108,133.11a111.66,111.66,0,0,1,6.14-20.85,1,1,0,0,1,1.35-.56,1,1,0,0,1,.56,1.35,109,109,0,0,0-6,20.45A113.48,113.48,0,0,0,107.86,155Z"/><path class="cls-3" d="M110,110.17a7.57,7.57,0,0,0,3.18,5c1.43.76,2.33-.26,2-2.27l-.76-4.66a7.61,7.61,0,0,0-3.19-5c-1.43-.75-2.32.26-2,2.26Z"/><path class="cls-2" d="M111,110a7,7,0,0,0,1,2.58,4.79,4.79,0,0,0,1.61,1.67.83.83,0,0,0,.41.13l0,0a2.16,2.16,0,0,0,.06-1.27l-.76-4.66a7.07,7.07,0,0,0-1-2.59,4.73,4.73,0,0,0-1.62-1.67.8.8,0,0,0-.4-.13l0,0a2.24,2.24,0,0,0-.06,1.27L111,110Zm-.71,3.69a9.31,9.31,0,0,1-1.33-3.36l-.76-4.67a4.07,4.07,0,0,1,.27-2.56,2.33,2.33,0,0,1,.61-.74A2,2,0,0,1,110,102a2.67,2.67,0,0,1,1.7.34,6.84,6.84,0,0,1,2.4,2.39,9.29,9.29,0,0,1,1.32,3.36l.77,4.66a4.14,4.14,0,0,1-.27,2.56,2.25,2.25,0,0,1-.62.74,2,2,0,0,1-.9.39,2.76,2.76,0,0,1-1.71-.34A6.9,6.9,0,0,1,110.28,113.7Z"/><path class="cls-3" d="M104.94,108.39a7.63,7.63,0,0,0,3.19,5c1.43.75,2.32-.27,2-2.28l-1.23-7.51a7.6,7.6,0,0,0-3.19-5c-1.43-.75-2.33.27-2,2.28Z"/><path class="cls-2" d="M106,108.23a7.13,7.13,0,0,0,1,2.58,4.81,4.81,0,0,0,1.62,1.67.8.8,0,0,0,.4.13l0,0a2.15,2.15,0,0,0,.06-1.27l-1.23-7.52a7.25,7.25,0,0,0-1-2.59,4.77,4.77,0,0,0-1.62-1.66l0,0a.75.75,0,0,0-.37-.1s0,0,0,0a2.16,2.16,0,0,0-.06,1.27l1.23,7.52Zm-.71,3.69a9.29,9.29,0,0,1-1.32-3.36L102.7,101a4.07,4.07,0,0,1,.27-2.56,2.11,2.11,0,0,1,.61-.74,2.07,2.07,0,0,1,.91-.39,2.72,2.72,0,0,1,1.64.31l.06,0a6.73,6.73,0,0,1,2.39,2.39,9.14,9.14,0,0,1,1.33,3.36l1.23,7.52a4.07,4.07,0,0,1-.27,2.56,2.22,2.22,0,0,1-.61.74,2.12,2.12,0,0,1-.91.39,2.72,2.72,0,0,1-1.7-.34A6.84,6.84,0,0,1,105.25,111.92Z"/><path class="cls-3" d="M99.93,106.7a7.63,7.63,0,0,0,3.19,5c1.42.75,2.32-.27,2-2.28l-1.7-10.36a7.58,7.58,0,0,0-3.18-5c-1.43-.75-2.33.26-2,2.27Z"/><path class="cls-2" d="M101,106.54a7,7,0,0,0,1,2.58,4.73,4.73,0,0,0,1.62,1.67.77.77,0,0,0,.4.13l0,0a2.23,2.23,0,0,0,.07-1.27l-1.7-10.37a7.2,7.2,0,0,0-1-2.58A4.9,4.9,0,0,0,99.75,95a.8.8,0,0,0-.41-.13.11.11,0,0,0,0,.05,2.12,2.12,0,0,0-.06,1.26l1.7,10.38Zm-.71,3.69a9.31,9.31,0,0,1-1.33-3.36l-1.7-10.38a4.09,4.09,0,0,1,.28-2.55,2.11,2.11,0,0,1,.61-.74,2.08,2.08,0,0,1,.9-.39,2.76,2.76,0,0,1,1.71.34,6.9,6.9,0,0,1,2.39,2.39,9.14,9.14,0,0,1,1.33,3.36l1.7,10.37a4.14,4.14,0,0,1-.27,2.56,2.25,2.25,0,0,1-.62.74,2,2,0,0,1-.9.39,2.72,2.72,0,0,1-1.7-.34A6.84,6.84,0,0,1,100.24,110.23Z"/><path class="cls-3" d="M94.41,101.89a7.51,7.51,0,0,0,3.18,5c1.43.76,2.33-.26,2-2.26L98.36,97.1a7.58,7.58,0,0,0-3.19-5c-1.43-.75-2.32.26-2,2.26Z"/><path class="cls-2" d="M95.42,101.72a7.32,7.32,0,0,0,1,2.58h0A4.71,4.71,0,0,0,98.07,106a.84.84,0,0,0,.41.14l0-.06a2.14,2.14,0,0,0,.06-1.27l-1.23-7.51a7.07,7.07,0,0,0-1-2.59A4.73,4.73,0,0,0,94.69,93a.77.77,0,0,0-.4-.13l0,.05a2.33,2.33,0,0,0-.06,1.27l1.23,7.52Zm-.7,3.69a9.31,9.31,0,0,1-1.33-3.36l-1.23-7.52A4.14,4.14,0,0,1,92.43,92a2.22,2.22,0,0,1,.61-.74,2,2,0,0,1,.91-.38,2.65,2.65,0,0,1,1.7.34,6.84,6.84,0,0,1,2.4,2.39,9.31,9.31,0,0,1,1.33,3.36l1.23,7.51a4.16,4.16,0,0,1-.27,2.57,2.32,2.32,0,0,1-.62.73,2.08,2.08,0,0,1-.9.39,2.75,2.75,0,0,1-1.71-.34,6.84,6.84,0,0,1-2.4-2.39Z"/><path class="cls-3" d="M89,97.75a7.59,7.59,0,0,0,3.19,5c1.43.75,2.32-.27,2-2.27l-.77-4.66a7.58,7.58,0,0,0-3.18-5c-1.44-.76-2.33.26-2,2.28Z"/><path class="cls-2" d="M90,97.58a7,7,0,0,0,1,2.58,4.85,4.85,0,0,0,1.62,1.68,1,1,0,0,0,.4.13l0-.06a2.23,2.23,0,0,0,.07-1.27L92.4,96a7.39,7.39,0,0,0-1-2.58,4.9,4.9,0,0,0-1.62-1.67.87.87,0,0,0-.41-.14l0,0a2.18,2.18,0,0,0-.06,1.28L90,97.58Zm-.71,3.69A9.29,9.29,0,0,1,88,97.91l-.77-4.66a4.16,4.16,0,0,1,.27-2.57,2.2,2.2,0,0,1,.61-.73,1.9,1.9,0,0,1,.91-.39,2.69,2.69,0,0,1,1.71.34,6.9,6.9,0,0,1,2.39,2.39,9.31,9.31,0,0,1,1.33,3.36l.76,4.66a4.13,4.13,0,0,1-.27,2.56,2.25,2.25,0,0,1-.62.74,2.07,2.07,0,0,1-.91.39,2.69,2.69,0,0,1-1.69-.34A6.84,6.84,0,0,1,89.3,101.27Z"/><path class="cls-2" d="M103,34.51a1,1,0,1,1-2.06,0V1A1,1,0,0,1,103,1Z"/><path class="cls-2" d="M152.74,51.86a1,1,0,1,1-1.45-1.46L174.78,27a1,1,0,0,1,1.46,1.46Z"/><path class="cls-2" d="M170.07,102a1,1,0,0,1,0-2.07h32.87a1,1,0,0,1,0,2.07Z"/><path class="cls-2" d="M52.69,50.4a1,1,0,0,1-1.46,1.46L27.74,28.41A1,1,0,1,1,29.19,27Z"/><path class="cls-2" d="M33.9,99.91a1,1,0,0,1,0,2.07H1a1,1,0,0,1,0-2.07Z"/><path class="cls-2" d="M79.44,193.93c-8.71-5-11.43-12.2-8.16-18.57l6.22-12.12h49.77l6.22,12.12c3.27,6.37.55,13.55-8.17,18.57C112.66,201.25,92.11,201.25,79.44,193.93Z"/><path class="cls-2" d="M78.93,194.83c-4.48-2.59-7.46-5.75-8.93-9.1a12.24,12.24,0,0,1,.36-10.84l6.22-12.11a1,1,0,0,1,.92-.57h49.77a1,1,0,0,1,1,.65l6.18,12a12.24,12.24,0,0,1,.36,10.84c-1.47,3.35-4.45,6.51-8.93,9.1l-.06,0c-6.49,3.73-15,5.59-23.4,5.59s-16.95-1.87-23.45-5.62h0Zm-7.05-9.93c1.31,3,4,5.79,8.08,8.14h0c6.17,3.57,14.29,5.35,22.42,5.35s16.21-1.77,22.38-5.32l0,0c4.08-2.35,6.77-5.18,8.07-8.14a10.26,10.26,0,0,0-.31-9.08l-5.93-11.54H78.12l-5.93,11.54A10.32,10.32,0,0,0,71.88,184.9Z"/><path class="cls-4" d="M84.45,150.1c-9.9,5.72-9.9,15,0,20.7s26,5.72,35.86,0,9.91-15,0-20.7S94.36,144.38,84.45,150.1Z"/><path class="cls-2" d="M85,151a15.3,15.3,0,0,0-5.75,5.33,7.91,7.91,0,0,0,0,8.25l0,.06A15.33,15.33,0,0,0,85,169.91h0c4.79,2.76,11.09,4.15,17.41,4.15s12.63-1.39,17.42-4.15l0,0a15.21,15.21,0,0,0,5.7-5.3h0a7.93,7.93,0,0,0,0-8.26A15.3,15.3,0,0,0,119.8,151l0,0c-4.78-2.74-11.07-4.12-17.37-4.12S89.76,148.23,85,151Zm-7.53,4.31a17.13,17.13,0,0,1,6.5-6.09c5.11-3,11.79-4.43,18.44-4.43s13.28,1.46,18.39,4.39l.06,0a17.13,17.13,0,0,1,6.5,6.09,9.95,9.95,0,0,1,0,10.31h0a17.3,17.3,0,0,1-6.44,6l-.06,0c-5.11,3-11.79,4.43-18.45,4.43s-13.33-1.47-18.44-4.43h0a17.43,17.43,0,0,1-6.47-6l0-.06a9.89,9.89,0,0,1,0-10.31Z"/><path class="cls-5" d="M77.06,161.15V170a10.05,10.05,0,0,0,1.82,4.81c3.46,4.93,10.58,7.55,16.28,8.52,8.34,1.43,18.82.4,26.05-4.23,3-1.91,5.81-4.77,6.42-8.4l.08-.7v-8.82a9.75,9.75,0,0,1-.69,2.79c-2.23,5.26-8.76,8.4-14,9.79-9.15,2.46-21.41,1.71-29.5-3.47-3-1.91-5.82-4.78-6.42-8.41Z"/><path class="cls-2" d="M78.09,166.61V170a7.29,7.29,0,0,0,.48,2,10.05,10.05,0,0,0,1.16,2.18,16.65,16.65,0,0,0,6,5,33.47,33.47,0,0,0,9.58,3.13,43,43,0,0,0,13.83,0,30.53,30.53,0,0,0,11.49-4.13,16,16,0,0,0,4.12-3.67,9.09,9.09,0,0,0,1.82-4h0l.08-.63v-3.28a17,17,0,0,1-4.05,3.92,30.15,30.15,0,0,1-9.3,4.18,44.44,44.44,0,0,1-16.23,1.08A33.7,33.7,0,0,1,83,171.12,18,18,0,0,1,78.35,167c-.09-.11-.18-.23-.26-.35ZM76,170v-8.82a1,1,0,0,1,2.06-.12l.09.7h0a9,9,0,0,0,1.82,4,15.89,15.89,0,0,0,4.12,3.68,31.68,31.68,0,0,0,13.23,4.37,42.18,42.18,0,0,0,15.45-1,28.34,28.34,0,0,0,8.65-3.88,12.94,12.94,0,0,0,4.63-5.32,8.51,8.51,0,0,0,.4-1.21,11.19,11.19,0,0,0,.21-1.27,1,1,0,0,1,2.07.09V170a.49.49,0,0,0,0,.12l-.09.7h0v.05a11.16,11.16,0,0,1-2.22,4.94,18.2,18.2,0,0,1-4.65,4.16,32.6,32.6,0,0,1-12.27,4.42,44.94,44.94,0,0,1-14.51,0A35.25,35.25,0,0,1,84.8,181,18.71,18.71,0,0,1,78,175.37a12.48,12.48,0,0,1-1.4-2.64,9.77,9.77,0,0,1-.61-2.62C76,170.06,76,170,76,170Z"/><polygon class="cls-2" points="93.43 150.37 93.43 158.02 93.43 158.08 93.45 158.14 93.47 158.19 93.5 158.25 93.55 158.3 93.6 158.35 93.66 158.4 93.73 158.45 106.64 165.9 106.72 165.94 106.8 165.98 106.89 166.01 106.98 166.03 107.08 166.05 107.17 166.06 107.27 166.07 107.37 166.08 107.47 166.07 107.57 166.06 107.67 166.05 107.76 166.03 107.86 166.01 107.94 165.98 108.03 165.94 108.11 165.9 108.19 165.85 109.13 165.31 111.52 163.93 111.59 163.89 111.65 163.84 111.7 163.79 111.75 163.73 111.78 163.68 111.8 163.62 111.82 163.56 111.82 163.51 111.82 155.85 111.82 155.91 111.8 155.96 111.78 156.02 111.75 156.07 111.7 156.13 111.65 156.18 111.59 156.23 111.52 156.27 109.13 157.65 108.19 158.19 108.11 158.24 108.03 158.28 107.94 158.32 107.86 158.35 107.76 158.37 107.67 158.39 107.57 158.41 107.47 158.41 107.37 158.42 107.27 158.41 107.17 158.41 107.08 158.39 106.98 158.37 106.89 158.35 106.8 158.32 106.72 158.28 106.64 158.24 93.73 150.79 93.66 150.74 93.6 150.69 93.55 150.64 93.5 150.59 93.47 150.54 93.45 150.48 93.43 150.42 93.43 150.37"/><path class="cls-2" d="M94.46,152.4v5.28L107.12,165h0l.06,0h0a.57.57,0,0,0,.13,0h.12l.08,0c.34-.18.69-.4,1-.59l.06,0,2.12-1.23v-5.28l-2.08,1.2-.08,0,0,0h0l-.08,0-.07,0-.08,0-.08,0-.08,0-.16.05-.12,0-.2,0h-.62l-.12,0h0l-.12,0-.19,0-.08,0h0l-.08,0-.13-.06-.1,0h0l-.08,0-.11-.07L94.46,152.4ZM92.39,158v-7.65a1,1,0,0,1,2-.39l12.7,7.33.09,0a.53.53,0,0,0,.19,0h0l.14,0a.28.28,0,0,0,.13,0c1.07-.63,2.16-1.25,3.23-1.87a1,1,0,0,1,1-.65,1,1,0,0,1,1,1v7.8l0,.17h0a.66.66,0,0,1-.06.2l0,.06h0a.83.83,0,0,1-.07.13,1,1,0,0,1-.11.17l0,.05-.09.09h0l-.12.12-.06,0h0l-.08.05c-.77.5-1.64,1-2.44,1.42l-.06,0c-.36.21-.73.44-1.1.64l-.12,0,0,0-.11,0-.09,0h0l-.07,0-.09,0h0l-.09,0-.12,0h-.72l-.15,0h0l-.1,0-.12,0h0l-.13,0-.06,0-.09,0-.08,0h0a.2.2,0,0,1-.08,0l-.08,0h0l-12.88-7.44-.11-.05-.07,0h0l-.07-.06,0,0-.12-.1,0-.05-.08-.09h0a1.77,1.77,0,0,1-.12-.17l0-.05-.06-.12h0a1.19,1.19,0,0,1-.08-.2h0a1.55,1.55,0,0,1,0-.21v0S92.39,158.07,92.39,158Z"/><path class="cls-5" d="M97.14,148l-3.41,2a.45.45,0,0,0,0,.85l12.91,7.45a1.62,1.62,0,0,0,1.47,0l.08-.05.94-.54,2.39-1.38a.45.45,0,0,0,0-.85L98.61,148A1.65,1.65,0,0,0,97.14,148Z"/><path class="cls-2" d="M97.66,148.86l-2.6,1.51,12.09,7a.82.82,0,0,0,.44,0l1-.59.06,0,1.52-.88-12.11-7a.53.53,0,0,0-.2,0,.57.57,0,0,0-.22,0Zm-4.45.19,3.41-2h0a2.53,2.53,0,0,1,1.25-.32A2.45,2.45,0,0,1,99,147l.09,0,12.9,7.45a1.68,1.68,0,0,1,.63.61h0a1.42,1.42,0,0,1,0,1.42,1.74,1.74,0,0,1-.63.6h0l-2.33,1.35-.06,0-1,.59a2.53,2.53,0,0,1-1.25.32,2.58,2.58,0,0,1-1.25-.32l-12.9-7.45a1.68,1.68,0,0,1-.63-.61,1.39,1.39,0,0,1-.19-.7,1.43,1.43,0,0,1,.19-.71,1.63,1.63,0,0,1,.55-.56Z"/><path class="cls-6" d="M51.32,79.38C44.25,101.71,52,117,60,130.63c5,8.62,8.61,9.85,11.38,19.65,1.67,5.9,1.09,10.47,5.73,15.28,12.72,13.19,39.28,13.57,50.65,0,4.29-5.12,4.06-9.37,5.73-15.28,2.77-9.8,6.35-11,11.38-19.65,8-13.68,15.7-28.92,8.62-51.25C146.17,56.44,124.28,45,102.38,45S58.59,56.44,51.32,79.38Z"/><path class="cls-7" d="M52.31,79.7C48.84,90.66,49,99.86,51,108s5.89,15.33,9.85,22.11a67.28,67.28,0,0,0,4.85,7.12A33,33,0,0,1,72.32,150c.48,1.68.77,3.25,1.05,4.74.69,3.65,1.29,6.85,4.43,10.11.65.67,1.34,1.31,2.06,1.92,6.17,5.16,14.76,7.8,23.22,7.8s16.7-2.61,22.23-7.94a22.1,22.1,0,0,0,1.61-1.73c3-3.58,3.68-6.77,4.47-10.47.3-1.39.61-2.84,1.06-4.43a32.75,32.75,0,0,1,6.63-12.78,66,66,0,0,0,4.85-7.11c4-6.78,7.85-13.93,9.85-22.11s2.15-17.34-1.32-28.3a45.7,45.7,0,0,0-18.29-24.4A57.14,57.14,0,0,0,102.38,46,57.13,57.13,0,0,0,70.6,55.3,45.7,45.7,0,0,0,52.31,79.7ZM49,108.49c-2.08-8.48-2.24-18,1.36-29.42A47.69,47.69,0,0,1,69.45,53.59a59.18,59.18,0,0,1,32.93-9.66,59.19,59.19,0,0,1,32.94,9.66,47.74,47.74,0,0,1,19.11,25.48c3.6,11.37,3.44,20.94,1.35,29.42s-6,15.76-10.06,22.66a68.39,68.39,0,0,1-5,7.32,31.33,31.33,0,0,0-6.28,12.09c-.43,1.52-.73,2.94-1,4.3-.85,4-1.58,7.39-4.91,11.36a24.15,24.15,0,0,1-1.76,1.89c-5.93,5.72-14.72,8.52-23.66,8.52s-18-2.8-24.54-8.28c-.77-.65-1.52-1.34-2.23-2.07-3.56-3.7-4.22-7.18-5-11.16-.28-1.44-.56-3-1-4.56a31.2,31.2,0,0,0-6.29-12.09,68.49,68.49,0,0,1-5-7.32C55,124.25,51.06,116.94,49,108.49Z"/><path class="cls-2" d="M52.31,79.7C48.84,90.66,49,99.86,51,108s5.89,15.33,9.85,22.11a67.28,67.28,0,0,0,4.85,7.12A33,33,0,0,1,72.32,150c.48,1.68.77,3.25,1.05,4.74.69,3.65,1.29,6.85,4.43,10.11.65.67,1.34,1.31,2.06,1.92,6.17,5.16,14.76,7.8,23.22,7.8s16.7-2.61,22.23-7.94a22.1,22.1,0,0,0,1.61-1.73c3-3.58,3.68-6.77,4.47-10.47.3-1.39.61-2.84,1.06-4.43a32.75,32.75,0,0,1,6.63-12.78,66,66,0,0,0,4.85-7.11c4-6.78,7.85-13.93,9.85-22.11s2.15-17.34-1.32-28.3a45.7,45.7,0,0,0-18.29-24.4A57.14,57.14,0,0,0,102.38,46,57.13,57.13,0,0,0,70.6,55.3,45.7,45.7,0,0,0,52.31,79.7ZM49,108.49c-2.08-8.48-2.24-18,1.36-29.42A47.69,47.69,0,0,1,69.45,53.59a59.18,59.18,0,0,1,32.93-9.66,59.19,59.19,0,0,1,32.94,9.66,47.74,47.74,0,0,1,19.11,25.48c3.6,11.37,3.44,20.94,1.35,29.42s-6,15.76-10.06,22.66a68.39,68.39,0,0,1-5,7.32,31.33,31.33,0,0,0-6.28,12.09c-.43,1.52-.73,2.94-1,4.3-.85,4-1.58,7.39-4.91,11.36a24.15,24.15,0,0,1-1.76,1.89c-5.93,5.72-14.72,8.52-23.66,8.52s-18-2.8-24.54-8.28c-.77-.65-1.52-1.34-2.23-2.07-3.56-3.7-4.22-7.18-5-11.16-.28-1.44-.56-3-1-4.56a31.2,31.2,0,0,0-6.29-12.09,68.49,68.49,0,0,1-5-7.32C55,124.25,51.06,116.94,49,108.49Z"/></g></g></svg>