<svg xmlns="http://www.w3.org/2000/svg" viewBox="0 0 244.78 241.17"><defs><style>.cls-1,.cls-3,.cls-4,.cls-5{fill-rule:evenodd;}.cls-1{opacity:0.2;}.cls-2{fill:#a6edf8;}.cls-3{fill:#0087ca;}.cls-4{fill:#fff;}.cls-5{fill:#00cef0;}</style></defs><g id="Layer_2" data-name="Layer 2"><g id="Layer_1-2" data-name="Layer 1"><path class="cls-1" d="M112.8,223.88A108.39,108.39,0,0,1,87.67,221a80,80,0,0,1-21.33-8.24h0A45.52,45.52,0,0,1,51.91,200.3a24.47,24.47,0,0,1,0-30,45.42,45.42,0,0,1,14.43-12.46l.06,0a79.68,79.68,0,0,1,21.27-8.21,108.39,108.39,0,0,1,25.13-2.89h0a108.89,108.89,0,0,1,25.14,2.88,80,80,0,0,1,21.33,8.24,49,49,0,0,1,12,9.42l73.54,14.26-53.07,16.62L236.42,224l-21.51,12.41-44.72-25.84-28.83,30.63-10.84-18.7A111.08,111.08,0,0,1,112.8,223.88Z"/><circle class="cls-2" cx="102.57" cy="102.57" r="101.47" transform="translate(-7.93 8.59) rotate(-4.62)"/><path class="cls-3" d="M102.57,2.2a100.38,100.38,0,1,0,71,29.4,100,100,0,0,0-71-29.4ZM30,30A102.57,102.57,0,1,1,0,102.57,102.26,102.26,0,0,1,30,30Z"/><path class="cls-4" d="M167.34,37.79a91.23,91.23,0,1,0,19.9,29.74A91.73,91.73,0,0,0,167.34,37.79Z"/><path class="cls-3" d="M166.57,38.57A90.66,90.66,0,0,0,137.19,18.9l-.05,0a89.4,89.4,0,0,0-16.89-5.09,91.21,91.21,0,0,0-35.36,0A89.94,89.94,0,0,0,68,18.9h0A90.94,90.94,0,0,0,38.57,38.57h0A90.18,90.18,0,0,0,18.92,68h0a89.38,89.38,0,0,0-5.13,16.93,91.31,91.31,0,0,0,0,35.38,89.94,89.94,0,0,0,13.48,32.55A91.06,91.06,0,0,0,68,186.23l.06,0a89.87,89.87,0,0,0,16.86,5.1,91.93,91.93,0,0,0,35.4,0,89.77,89.77,0,0,0,16.92-5.12h0a89.45,89.45,0,0,0,15.63-8.37,91.48,91.48,0,0,0,13.75-11.29h0a90.66,90.66,0,0,0,19.66-29.37l0-.05a90,90,0,0,0,5.1-16.87,91.93,91.93,0,0,0,0-35.4,89.79,89.79,0,0,0-13.49-32.56,91.19,91.19,0,0,0-11.29-13.74ZM154,25.45a93.12,93.12,0,0,1,25.64,25.64,92.12,92.12,0,0,1,13.83,33.36A92.88,92.88,0,0,1,188.28,138l0,.05a92.79,92.79,0,0,1-20.14,30.09h0A93.31,93.31,0,0,1,138,188.26h0a92,92,0,0,1-17.34,5.25,92.82,92.82,0,0,1-53.52-5.23l-.06,0A93.3,93.3,0,0,1,25.45,154a92.41,92.41,0,0,1-13.82-33.36,93.53,93.53,0,0,1,0-36.22,92.14,92.14,0,0,1,5.26-17.35h0A92.91,92.91,0,0,1,37,37h0A94.14,94.14,0,0,1,51.1,25.45a92.5,92.5,0,0,1,16-8.57h0a93,93,0,0,1,70.87,0l.06,0A92,92,0,0,1,154,25.45Z"/><path class="cls-3" d="M102.57,27c-27.3,0-52,9.35-69.89,24.48S3.83,87.38,3.83,110.37s11,43.81,28.85,58.89,42.59,24.48,69.89,24.48,52-9.35,69.88-24.48,28.85-35.9,28.85-58.89-11-43.81-28.85-58.89S129.87,27,102.57,27ZM31.26,49.8c18.26-15.45,43.47-25,71.31-25s53,9.55,71.3,25,29.64,36.91,29.64,60.57-11.33,45.08-29.64,60.57-43.47,25-71.3,25-53-9.55-71.31-25S1.63,134,1.63,110.37,13,65.29,31.26,49.8Z"/><path class="cls-3" d="M.81,95.21a1.1,1.1,0,0,1,2.2,0c0,17.89,11.08,34.13,29,45.91s43,19.21,70.58,19.21,52.53-7.34,70.57-19.21,29-28,29-45.91a1.1,1.1,0,0,1,2.2,0c0,18.68-11.46,35.56-30,47.74s-43.77,19.59-71.78,19.59S49.18,155.05,30.79,143,.81,113.89.81,95.21Z"/><path class="cls-3" d="M26.49,33.79a1.09,1.09,0,1,1,1.69,1.39A40.28,40.28,0,0,0,21.92,45.8a30.14,30.14,0,0,0-2.27,10.89c0,12.92,9.19,24.68,24.05,33.23,15,8.65,35.86,14,58.87,14s43.82-5.36,58.86-14c14.87-8.55,24.06-20.31,24.06-33.23A31.47,31.47,0,0,0,181.82,42a41.35,41.35,0,0,0-10.67-12.75,1.09,1.09,0,1,1,1.38-1.7A43.16,43.16,0,0,1,183.76,41a33.61,33.61,0,0,1,3.93,15.67c0,13.77-9.62,26.18-25.16,35.13-15.37,8.84-36.57,14.31-60,14.31s-44.59-5.47-60-14.31C27.06,82.87,17.45,70.46,17.45,56.69A32.21,32.21,0,0,1,19.88,45,41.83,41.83,0,0,1,26.49,33.79Z"/><path class="cls-3" d="M101.47,1.1a1.1,1.1,0,1,1,2.2,0V204a1.1,1.1,0,1,1-2.2,0Z"/><path class="cls-3" d="M184.11,41.72a1.1,1.1,0,1,1-1.83,1.22c-9.64-14.49-21.42-22.51-34.13-25.28-14-3.06-29.26.24-44.05,8.27C87.35,35,68.45,53.15,53.68,74.58,43,90.07,34.5,107.27,30.53,124s-3.39,32.84,4,46.42a53.9,53.9,0,0,0,17.2,18.69,1.1,1.1,0,1,1-1.25,1.8,56,56,0,0,1-17.88-19.44c-7.66-14.11-8.25-30.83-4.2-48S41.05,89,51.87,73.34C66.83,51.64,86,33.26,103.06,24c15.24-8.28,31-11.68,45.55-8.5C161.87,18.4,174.13,26.72,184.11,41.72Z"/><path class="cls-3" d="M22.85,42.94a1.1,1.1,0,0,1-1.52.31A1.12,1.12,0,0,1,21,41.72c10-15,22.24-23.32,35.5-26.21,14.58-3.18,30.32.22,45.56,8.5,17,9.25,36.23,27.63,51.18,49.33,10.82,15.7,19.45,33.16,23.48,50.19s3.47,33.85-4.19,48a56.11,56.11,0,0,1-17.88,19.44,1.1,1.1,0,1,1-1.25-1.8,54,54,0,0,0,17.2-18.69c7.38-13.58,7.92-29.77,4-46.42s-12.47-33.95-23.14-49.44C136.69,53.15,117.79,35,101,25.93c-14.78-8-30-11.33-44-8.27C44.27,20.43,32.5,28.45,22.85,42.94Z"/><polygon class="cls-3" points="211.81 153.42 211.81 166.63 167.34 180.56 167.34 167.34 211.81 153.42"/><path class="cls-3" d="M212.9,153.42v13.21a1.1,1.1,0,0,1-.83,1.07l-44.4,13.91a1.12,1.12,0,0,1-1.38-.73,1.22,1.22,0,0,1,0-.32h0V167.34a1.1,1.1,0,0,1,.84-1.07l44.4-13.9a1.09,1.09,0,0,1,1.37.72,1,1,0,0,1,.05.33Zm-2.2,12.4V154.91l-42.26,13.24v10.91Z"/><polygon class="cls-3" points="204.8 188.99 204.8 202.2 186.78 212.6 186.78 199.38 204.8 188.99"/><path class="cls-3" d="M205.9,189V202.2a1.09,1.09,0,0,1-.64,1l-17.93,10.35a1.1,1.1,0,0,1-1.5-.41,1,1,0,0,1-.14-.54h0V199.38a1.11,1.11,0,0,1,.64-1L204.26,188a1.09,1.09,0,0,1,1.49.4,1.11,1.11,0,0,1,.15.55Zm-2.2,12.58V190.89L187.88,200V210.7Z"/><polygon class="cls-5" points="186.78 199.38 186.78 212.6 149.32 190.95 149.32 177.74 186.78 199.38"/><path class="cls-3" d="M187.88,199.38V212.6a1.1,1.1,0,0,1-1.72.91L148.77,191.9a1.1,1.1,0,0,1-.55-1h0V177.74a1.1,1.1,0,0,1,1.72-.91l37.39,21.6a1.12,1.12,0,0,1,.55.95Zm-2.2,11.32V200l-35.26-20.38v10.68Z"/><polygon class="cls-3" points="149.32 177.74 149.32 190.95 125.16 216.61 125.16 203.4 149.32 177.74"/><path class="cls-3" d="M150.42,177.74V191a1.09,1.09,0,0,1-.35.81L126,217.36a1.1,1.1,0,0,1-1.9-.75h0V203.39a1.07,1.07,0,0,1,.36-.8l24.1-25.6a1.1,1.1,0,0,1,1.9.75Zm-2.2,12.78v-10l-22,23.32v10Z"/><polygon class="cls-5" points="125.16 203.4 125.16 216.61 81.53 141.37 81.53 128.16 125.16 203.4"/><path class="cls-3" d="M126.26,203.39v13.22a1.1,1.1,0,0,1-2.09.48L80.58,141.92a1,1,0,0,1-.15-.55h0V128.16a1.11,1.11,0,0,1,2.1-.49l43.59,75.17a1.14,1.14,0,0,1,.15.55Zm-2.2,9.13v-8.83L82.63,132.24v8.84Z"/><polygon class="cls-4" points="81.53 128.16 211.81 153.42 167.34 167.34 204.8 188.99 186.78 199.38 149.32 177.74 125.16 203.4 81.53 128.16"/><path class="cls-3" d="M81.73,127.08,212,152.34a1.08,1.08,0,0,1,.87,1.28,1.1,1.1,0,0,1-.76.85l-42.06,13.17L205.35,188a1.09,1.09,0,0,1,.4,1.5,1.06,1.06,0,0,1-.46.43l-18,10.36a1.08,1.08,0,0,1-1.1,0h0l-36.71-21.21-23.56,25a1.09,1.09,0,0,1-1.55,0,1.71,1.71,0,0,1-.21-.26L80.58,128.71a1.09,1.09,0,0,1,1.15-1.63Zm125.6,26.59-123.64-24,41.68,71.88L148.51,177a1.09,1.09,0,0,1,1.36-.21l36.91,21.33L202.61,189l-35.79-20.68a1.1,1.1,0,0,1-.53-.64,1.12,1.12,0,0,1,.73-1.38Z"/></g></g></svg>