<svg xmlns="http://www.w3.org/2000/svg" viewBox="0 0 243.66 203.29"><defs><style>.cls-1,.cls-2,.cls-3,.cls-4,.cls-6{fill-rule:evenodd;}.cls-1{opacity:0.2;}.cls-2,.cls-5{fill:#0087ca;}.cls-3{fill:#a6edf8;}.cls-4{fill:#f8f9fd;}.cls-6{fill:#fff;}</style></defs><g id="Layer_2" data-name="Layer 2"><g id="Layer_1-2" data-name="Layer 1"><path class="cls-1" d="M143.65,175.38l-16.12-12.21L58.63,203H55.18l76.62-44.21c6.61,3.83,13.57,7.84,20.34,11.8Z"/><polygon class="cls-2" points="210.91 110.52 210.91 59.47 176.62 79.28 176.61 130.32 210.91 110.52"/><path class="cls-2" d="M210.67,110.38V59.88L176.86,79.42l0,50.49,33.83-19.53Zm.48-50.91v51a.25.25,0,0,1-.12.22l-34.3,19.8h0a.28.28,0,0,1-.12,0,.24.24,0,0,1-.24-.24v-51a.26.26,0,0,1,.12-.22l34.29-19.81h0l.12,0A.24.24,0,0,1,211.15,59.47Z"/><polygon class="cls-2" points="155.91 47.62 155.91 21.81 118.54 43.38 118.54 82.09 138.8 70.4 138.8 57.44 155.91 47.62"/><path class="cls-2" d="M155.67,47.48V22.22L118.78,43.51V81.68l19.78-11.42V57.44a.23.23,0,0,1,.13-.21l17-9.75Zm.47-25.67V47.62a.22.22,0,0,1-.12.2l-17,9.76v12.8a.22.22,0,0,1-.11.22L118.66,82.3h0a.21.21,0,0,1-.12,0,.23.23,0,0,1-.23-.24V43.38a.25.25,0,0,1,.12-.21l37.35-21.56a.2.2,0,0,1,.13,0A.23.23,0,0,1,156.14,21.81Z"/><polygon class="cls-3" points="118.54 43.38 81.18 21.81 81.18 73.39 88.35 77.53 118.54 94.96 118.54 43.38"/><path class="cls-2" d="M118.31,43.51,81.42,22.22v51l36.89,21.3v-51ZM81.3,21.6l37.36,21.57a.24.24,0,0,1,.12.21V95a.27.27,0,0,1,0,.12.24.24,0,0,1-.32.09L81.08,73.61a.25.25,0,0,1-.14-.22V21.81h0a.19.19,0,0,1,0-.12A.24.24,0,0,1,81.3,21.6Z"/><polygon class="cls-4" points="138.8 70.4 118.54 82.09 87.51 64.17 40.38 91.38 89.21 119.64 156.37 80.56 138.8 70.4"/><path class="cls-2" d="M138.8,70.67,118.66,82.3a.23.23,0,0,1-.24,0L87.51,64.45,40.85,91.38l48.36,28,66.69-38.8-17.1-9.89ZM118.54,81.82l20.14-11.63a.25.25,0,0,1,.24,0l17.57,10.16a.24.24,0,0,1,.08.09.24.24,0,0,1-.08.33L89.33,119.84a.23.23,0,0,1-.24,0L40.26,91.59h0a.38.38,0,0,1-.09-.09.24.24,0,0,1,.09-.32L87.38,64a.23.23,0,0,1,.25,0Z"/><polygon class="cls-3" points="0.28 158.54 55.22 190.25 55.19 203 0.28 171.31 0.28 158.54"/><path class="cls-2" d="M.45,158.31,55.36,190a.27.27,0,0,1,.14.24l0,12.75a.29.29,0,0,1-.29.29.33.33,0,0,1-.14,0L.14,171.56a.29.29,0,0,1-.14-.25H0V158.54a.29.29,0,0,1,.28-.29.25.25,0,0,1,.17.06Zm54.48,32.11L.57,159v12.12L54.9,202.51Z"/><polygon class="cls-4" points="0.28 158.54 55.22 190.25 131.6 146.04 109.46 133.26 89.21 144.95 56.51 126.08 0.28 158.54"/><path class="cls-2" d="M.85,158.54l54.36,31.38L131,146l-21.57-12.45L89.35,145.2a.28.28,0,0,1-.29,0L56.51,126.4.85,158.54Zm54.22,32L.15,158.79a.29.29,0,0,1,0-.5l56.23-32.46a.28.28,0,0,1,.28,0l32.56,18.79L109.32,133a.26.26,0,0,1,.28,0l22.12,12.77a.25.25,0,0,1,.12.11.28.28,0,0,1-.1.39L55.36,190.5h0A.3.3,0,0,1,55.07,190.5Z"/><polygon class="cls-4" points="210.91 59.47 176.69 39.58 167.25 34.09 155.91 40.66 155.91 47.64 138.8 57.4 176.62 79.28 210.91 59.47"/><path class="cls-2" d="M210.44,59.47,176.57,39.78l-9.32-5.42L156.14,40.8v6.84a.24.24,0,0,1-.13.22L139.27,57.4,176.62,79l33.82-19.54Zm-33.63-20.1L211,59.26l.09.09a.24.24,0,0,1-.09.32L176.74,79.48a.23.23,0,0,1-.24,0L138.68,57.61a.2.2,0,0,1-.09-.09.24.24,0,0,1,.09-.32l17-9.7V40.66h0a.22.22,0,0,1,.12-.2l11.34-6.57a.21.21,0,0,1,.24,0Z"/><polygon class="cls-2" points="236.77 156.47 236.81 131.02 182.29 162.57 182.29 188.08 236.77 156.47"/><polygon class="cls-2" points="131.6 158.67 131.6 146.04 55.22 190.25 55.19 203 131.6 158.67"/><path class="cls-2" d="M131.36,158.53V146.45L55.45,190.39l0,12.2,75.94-44.06Zm.47-12.49v12.61a.22.22,0,0,1-.11.22L55.3,203.21h0a.21.21,0,0,1-.12,0A.23.23,0,0,1,55,203l0-12.73a.22.22,0,0,1,.12-.22l76.38-44.22h0a.21.21,0,0,1,.12,0A.23.23,0,0,1,131.83,146Z"/><polygon class="cls-2" points="156.37 106.03 156.37 80.56 89.21 119.64 89.21 144.95 156.37 106.03"/><path class="cls-2" d="M156.13,105.89V81l-66.68,38.8v24.77l66.68-38.65Zm.48-25.33V106a.24.24,0,0,1-.12.22L89.33,145.16h0a.27.27,0,0,1-.12,0A.24.24,0,0,1,89,145v-25.3a.26.26,0,0,1,.12-.22l67.16-39.08h0a.28.28,0,0,1,.12,0A.24.24,0,0,1,156.61,80.56Z"/><polygon class="cls-3" points="40.34 129.55 40.34 91.41 89.21 119.64 89.21 144.95 56.51 126.08 45.42 132.48 40.34 129.55"/><path class="cls-2" d="M40.1,129.53V91.41a.24.24,0,0,1,.24-.24.27.27,0,0,1,.12,0h0l48.87,28.23a.26.26,0,0,1,.12.22V145a.24.24,0,0,1-.24.24.21.21,0,0,1-.12,0l-32.58-18.8-11,6.33a.23.23,0,0,1-.24,0h0l-5.08-2.93a.24.24,0,0,1-.12-.22Zm.48-37.71v37.59l4.84,2.8,11-6.34a.25.25,0,0,1,.24,0L89,144.54V119.78Z"/><polygon class="cls-4" points="236.81 131.02 182.29 162.57 109.46 120.38 156.37 93.3 176.62 105 184.17 100.64 236.81 131.02"/><path class="cls-2" d="M236.93,131.23l-54.52,31.55a.25.25,0,0,1-.24,0l-72.82-42.19a.24.24,0,0,1-.09-.33.18.18,0,0,1,.09-.08l46.9-27.08a.21.21,0,0,1,.24,0l20.13,11.62,7.43-4.29a.25.25,0,0,1,.24,0l52.63,30.39a.22.22,0,0,1,.09.32.2.2,0,0,1-.09.09ZM182.29,162.3l54-31.28-52.16-30.11-7.41,4.28a.23.23,0,0,1-.25,0L156.37,93.57l-46.43,26.81Z"/><polygon class="cls-3" points="131.6 158.67 131.6 146.04 109.46 133.26 109.46 120.38 182.29 162.57 182.29 188.08 131.6 158.67"/><path class="cls-2" d="M131.36,158.65V146.18l-22-12.71a.24.24,0,0,1-.12-.21V120.38a.23.23,0,0,1,.23-.23.21.21,0,0,1,.12,0h0l72.83,42.19a.22.22,0,0,1,.11.22v25.49a.23.23,0,0,1-.23.24.24.24,0,0,1-.12,0h0l-50.69-29.42a.25.25,0,0,1-.12-.22Zm.47-12.61v12.49l50.22,29.14v-25L109.7,120.79v12.34l22,12.7A.24.24,0,0,1,131.83,146Z"/><polygon class="cls-4" points="155.91 21.81 118.54 0.24 81.18 21.81 118.54 43.38 155.91 21.81"/><path class="cls-2" d="M155.44,21.81,118.54.51,81.65,21.81l36.89,21.3,36.9-21.3ZM118.66,0,156,21.6a.2.2,0,0,1,.09.09A.22.22,0,0,1,156,22L118.66,43.58a.21.21,0,0,1-.23,0L81.06,22a.24.24,0,0,1-.08-.09.23.23,0,0,1,.08-.32L118.42,0A.25.25,0,0,1,118.66,0Z"/><polygon class="cls-3" points="138.8 70.4 138.8 57.44 176.62 79.28 176.62 104.99 156.37 93.3 156.37 80.56 138.8 70.4"/><path class="cls-2" d="M138.56,70.38V57.44a.23.23,0,0,1,.24-.23.27.27,0,0,1,.12,0h0l37.82,21.83a.26.26,0,0,1,.12.22V105a.24.24,0,0,1-.24.24.2.2,0,0,1-.11,0h0L156.25,93.51a.26.26,0,0,1-.12-.22V80.7L138.68,70.6a.25.25,0,0,1-.12-.22ZM139,57.85V70.26l17.46,10.1h0a.23.23,0,0,1,.12.2v12.6l19.78,11.42V79.42Z"/><rect class="cls-5" x="138.56" y="57.44" width="0.47" height="1.26"/><rect class="cls-5" x="109.23" y="120.38" width="0.47" height="1.26"/><polygon class="cls-1" points="189.12 188.08 182.29 188.08 236.77 156.47 236.78 152.62 243.66 156.6 189.12 188.08"/><path class="cls-1" d="M183.14,105.19h-5.7l-.36.2-8.39,4.75L152.26,97.66l-41.12,23.69-1.44-.83,46.91-27.08V82l1.78,1,.38,1.38,1.65,1,.37,1.38,1.66,1,.34,1.28,1.6,1.12.35,1.28,1.85,1,.35,1.28,1.58,1.1.37,1.39,1.66,1,.37,1.39,1.65,1,.37,1.39,1.66,1,.37,1.38,1.65,1v1.19a.26.26,0,0,0,.15,0l7.41-4.28,3.19,1.84Z"/><polygon class="cls-1" points="127.33 87.26 118.7 82.27 119.13 81.77 138.8 58.7 139.03 58.57 139.03 57.54 142.42 59.5 142.59 60.89 147.52 63.74 148.39 75.94 127.76 87.03 127.33 87.26"/><polygon class="cls-6" points="136.77 59.87 138.8 58.7 147.52 63.74 145.49 64.91 136.77 59.87"/><path class="cls-2" d="M136.66,59.67l2-1.17a.23.23,0,0,1,.24,0h0l8.72,5a.24.24,0,0,1,.08.33.22.22,0,0,1-.1.09l-2,1.16a.23.23,0,0,1-.24,0l-8.72-5a.24.24,0,0,1-.08-.33.24.24,0,0,1,.09-.08ZM138.8,59l-1.56.89,8.25,4.76,1.55-.89Z"/><polygon class="cls-6" points="132.72 64.55 134.75 63.38 143.47 68.42 141.44 69.58 132.72 64.55"/><path class="cls-2" d="M132.62,64.34l2-1.16a.23.23,0,0,1,.24,0l8.71,5a.23.23,0,0,1,.09.32.2.2,0,0,1-.09.09l-2,1.17a.25.25,0,0,1-.24,0h0l-8.72-5a.23.23,0,0,1-.08-.32.22.22,0,0,1,.1-.09Zm2.13-.69-1.56.9,8.25,4.76,1.55-.9Z"/><polygon class="cls-6" points="130.7 66.89 132.72 65.72 141.44 70.75 139.41 71.92 130.7 66.89"/><path class="cls-2" d="M130.58,66.68l2-1.17a.23.23,0,0,1,.24,0l8.72,5a.24.24,0,0,1,.09.32.38.38,0,0,1-.09.09l-2,1.17a.25.25,0,0,1-.24,0l-8.71-5a.24.24,0,0,1-.09-.32.2.2,0,0,1,.09-.09Zm2.14-.69-1.55.9,8.25,4.76,1.55-.9Z"/><polygon class="cls-6" points="128.67 69.23 130.7 68.06 139.42 73.09 137.39 74.26 128.67 69.23"/><path class="cls-2" d="M128.56,69l2-1.17a.23.23,0,0,1,.24,0l8.71,5a.22.22,0,0,1,.09.32.2.2,0,0,1-.09.09l-2,1.17a.23.23,0,0,1-.24,0l-8.72-5a.23.23,0,0,1-.08-.32.2.2,0,0,1,.09-.09Zm2.14-.69-1.56.9L137.39,74l1.55-.9Z"/><polygon class="cls-6" points="126.64 71.57 128.67 70.4 137.39 75.43 135.36 76.6 126.64 71.57"/><path class="cls-2" d="M126.53,71.36l2-1.17a.25.25,0,0,1,.24,0l8.72,5a.23.23,0,0,1,.08.32.24.24,0,0,1-.08.09l-2,1.17a.23.23,0,0,1-.24,0l-8.71-5a.23.23,0,0,1-.09-.32.2.2,0,0,1,.09-.09Zm2.14-.69-1.55.9,8.24,4.76,1.56-.9Z"/><polygon class="cls-6" points="124.62 73.91 126.64 72.74 135.37 77.77 133.34 78.94 124.62 73.91"/><path class="cls-2" d="M124.5,73.7l2-1.17a.24.24,0,0,1,.23,0h0l8.72,5a.23.23,0,0,1,.09.32.22.22,0,0,1-.1.09l-2,1.16a.23.23,0,0,1-.24,0l-8.72-5a.24.24,0,0,1-.09-.32.38.38,0,0,1,.09-.09Zm2.14-.69-1.55.9,8.25,4.76,1.55-.9Z"/><polygon class="cls-6" points="122.59 76.24 124.62 75.08 133.34 80.11 131.31 81.28 122.59 76.24"/><path class="cls-2" d="M122.49,76l2-1.16a.25.25,0,0,1,.24,0h0l8.72,5a.24.24,0,0,1,.08.33.22.22,0,0,1-.1.09l-2,1.16a.23.23,0,0,1-.24,0h0l-8.71-5a.23.23,0,0,1-.09-.32.19.19,0,0,1,.1-.1Zm2.13-.68-1.55.89L131.31,81l1.56-.89Z"/><polygon class="cls-6" points="120.57 78.58 122.59 77.41 131.31 82.45 129.29 83.62 120.57 78.58"/><path class="cls-2" d="M120.46,78.37l2-1.16a.23.23,0,0,1,.24,0l8.71,5a.25.25,0,0,1,.09.33.24.24,0,0,1-.09.08l-2,1.17a.23.23,0,0,1-.24,0h0l-8.72-5a.25.25,0,0,1-.09-.33.28.28,0,0,1,.1-.09Zm2.13-.68-1.55.89,8.25,4.76,1.55-.89Z"/><polygon class="cls-6" points="118.54 80.92 120.57 79.75 129.29 84.79 127.26 85.96 118.54 80.92"/><path class="cls-2" d="M118.43,80.72l2-1.17a.23.23,0,0,1,.24,0l8.72,5a.23.23,0,0,1,.08.32.2.2,0,0,1-.09.09l-2,1.17a.25.25,0,0,1-.24,0l-8.71-5a.23.23,0,0,1,0-.41Zm2.14-.7-1.55.9,8.24,4.76,1.56-.89Z"/><polygon class="cls-6" points="134.75 62.21 136.77 61.04 145.49 66.08 143.47 67.25 134.75 62.21"/><path class="cls-2" d="M134.63,62l2-1.17a.23.23,0,0,1,.24,0h0l8.72,5a.24.24,0,0,1,.09.32.24.24,0,0,1-.1.1l-2,1.16a.25.25,0,0,1-.24,0l-8.71-5a.25.25,0,0,1-.09-.33.34.34,0,0,1,.09-.08Zm2.14-.7-1.55.9L143.47,67l1.55-.89Z"/><path class="cls-1" d="M142.42,59.5l-3.38-2,.23-.14h0L156,47.84a.22.22,0,0,0,.12-.2V43.91l6.63,3.83Z"/><path class="cls-6" d="M157,45.63l-2-1.17L154,45l1,.59-5.53,3.19-1-.58-1,.57,2,1.17Z"/><path class="cls-2" d="M156.51,45.63l-1.55-.9-.52.3.66.38a.24.24,0,0,1,.09.32.2.2,0,0,1-.09.09h0L149.57,49a.25.25,0,0,1-.25,0l-.88-.51-.52.3,1.55.9,7-4.07Zm-1.43-1.37,2,1.16a.2.2,0,0,1,.09.09.22.22,0,0,1-.09.32l-7.51,4.34a.23.23,0,0,1-.24,0l-2-1.16a.2.2,0,0,1-.09-.09.25.25,0,0,1,.09-.33l1-.57a.24.24,0,0,1,.23,0l.9.52,5.06-2.92-.65-.38a.2.2,0,0,1-.09-.09.23.23,0,0,1,.08-.32l1-.57A.23.23,0,0,1,155.08,44.26Z"/><path class="cls-6" d="M157,43.38l-2-1.17-1,.57,1,.59-5.53,3.19-1-.58-1,.57,2,1.17Z"/><path class="cls-2" d="M156.51,43.38,155,42.49l-.52.29.66.38a.25.25,0,0,1,.09.33.24.24,0,0,1-.09.08h0l-5.53,3.2a.23.23,0,0,1-.25,0l-.88-.51-.52.3,1.55.9,7-4.07ZM155.08,42l2,1.17a.23.23,0,0,1,0,.41l-7.51,4.33a.23.23,0,0,1-.24,0l-2-1.17a.2.2,0,0,1-.09-.09.24.24,0,0,1,.09-.32l1-.57a.21.21,0,0,1,.23,0l.9.52,5.06-2.92-.65-.38a.2.2,0,0,1-.09-.09.23.23,0,0,1,.08-.32l1-.57A.23.23,0,0,1,155.08,42Z"/><path class="cls-6" d="M157,41.13,155,40l-1,.58,1,.58-5.53,3.2-1-.59-1,.57,2,1.17Z"/><path class="cls-2" d="M156.51,41.13,155,40.24l-.52.3.66.38a.24.24,0,0,1,.09.32.2.2,0,0,1-.09.09h0l-5.53,3.19a.23.23,0,0,1-.25,0l-.88-.51-.52.3,1.55.9,7-4.07Zm-1.43-1.37,2,1.17a.2.2,0,0,1,.09.09.23.23,0,0,1-.09.32l-7.51,4.34a.25.25,0,0,1-.24,0l-2-1.17a.2.2,0,0,1-.09-.09.24.24,0,0,1,.09-.32l1-.57a.21.21,0,0,1,.23,0l.9.51,5.06-2.92-.65-.38a.2.2,0,0,1-.09-.09.23.23,0,0,1,.08-.32l1-.57A.25.25,0,0,1,155.08,39.76Z"/><path class="cls-6" d="M157,38.89l-2-1.17-1,.57,1,.58-5.53,3.2-1-.59-1,.58,2,1.16Z"/><path class="cls-2" d="M156.51,38.89,155,38l-.52.3.66.38a.24.24,0,0,1,.09.32.2.2,0,0,1-.09.09h0l-5.53,3.19a.23.23,0,0,1-.25,0l-.88-.5-.52.3,1.55.89,7-4.06Zm-1.43-1.38,2,1.17a.2.2,0,0,1,.09.09.22.22,0,0,1-.09.32l-7.51,4.34a.25.25,0,0,1-.24,0l-2-1.17a.2.2,0,0,1-.09-.09.24.24,0,0,1,.09-.32l1-.57a.21.21,0,0,1,.23,0l.9.51,5.06-2.92-.65-.38a.24.24,0,0,1-.09-.08.24.24,0,0,1,.08-.33l1-.57A.25.25,0,0,1,155.08,37.51Z"/><path class="cls-6" d="M157,36.64l-2-1.17L154,36l1,.58-5.53,3.2-1-.59-1,.58,2,1.17Z"/><path class="cls-2" d="M156.51,36.64l-1.55-.9-.52.3.66.38a.24.24,0,0,1,.09.32.2.2,0,0,1-.09.09h0L149.57,40a.25.25,0,0,1-.25,0l-.88-.51-.52.3,1.55.89,7-4.06Zm-1.43-1.38,2,1.17a.2.2,0,0,1,.09.09.22.22,0,0,1-.09.32l-7.51,4.34a.25.25,0,0,1-.24,0l-2-1.17a.2.2,0,0,1-.09-.09.24.24,0,0,1,.09-.32l1-.57a.24.24,0,0,1,.23,0l.9.52,5.06-2.93-.65-.37a.2.2,0,0,1-.09-.09.23.23,0,0,1,.08-.32l1-.58A.25.25,0,0,1,155.08,35.26Z"/><path class="cls-6" d="M157,34.39l-2-1.17-1,.57,1,.59-5.53,3.19-1-.58-1,.57,2,1.17Z"/><path class="cls-2" d="M156.51,34.39l-1.55-.9-.52.3.66.38a.24.24,0,0,1,.09.32.2.2,0,0,1-.09.09h0l-5.53,3.2a.25.25,0,0,1-.25,0l-.88-.51-.52.3,1.55.9,7-4.07ZM155.08,33l2,1.17a.2.2,0,0,1,.09.09.22.22,0,0,1-.09.32l-7.51,4.34a.23.23,0,0,1-.24,0l-2-1.16a.38.38,0,0,1-.09-.09.25.25,0,0,1,.09-.33l1-.57a.24.24,0,0,1,.23,0l.9.52,5.06-2.92-.65-.38a.2.2,0,0,1-.09-.09.23.23,0,0,1,.08-.32l1-.57A.23.23,0,0,1,155.08,33Z"/><path class="cls-6" d="M157,32.14,155,31l-1,.57,1,.59-5.53,3.19-1-.58-1,.57,2,1.17Z"/><path class="cls-2" d="M156.51,32.14l-1.55-.9-.52.3.66.38a.25.25,0,0,1,.09.33.24.24,0,0,1-.09.08h0l-5.53,3.2a.25.25,0,0,1-.25,0l-.88-.51-.52.3,1.55.9,7-4.07Zm-1.43-1.37,2,1.16a.2.2,0,0,1,.09.09.24.24,0,0,1-.09.33l-7.51,4.33a.23.23,0,0,1-.24,0l-2-1.16a.2.2,0,0,1-.09-.09.24.24,0,0,1,.09-.32l1-.57a.21.21,0,0,1,.23,0l.9.52,5.06-2.92-.65-.38a.2.2,0,0,1-.09-.09.23.23,0,0,1,.08-.32l1-.57A.23.23,0,0,1,155.08,30.77Z"/><path class="cls-6" d="M157,29.89l-2-1.17-1,.58,1,.58-5.53,3.19c-.34-.19-.68-.38-1-.58l-1,.57,2,1.17Z"/><path class="cls-2" d="M156.51,29.89,155,29l-.52.3.66.38a.24.24,0,0,1,.09.32.18.18,0,0,1-.09.08h0l-5.53,3.2a.23.23,0,0,1-.25,0l-.88-.51-.52.3,1.55.9,7-4.07Zm-1.43-1.37,2,1.17a.23.23,0,0,1,0,.41l-7.51,4.33a.23.23,0,0,1-.24,0l-2-1.17a.2.2,0,0,1-.09-.09.24.24,0,0,1,.09-.32l1-.57a.21.21,0,0,1,.23,0l.9.51,5.06-2.92-.65-.38a.2.2,0,0,1-.09-.09.23.23,0,0,1,.08-.32l1-.57A.23.23,0,0,1,155.08,28.52Z"/><path class="cls-6" d="M157,27.64l-2-1.16-1,.57,1,.58-5.53,3.2-1-.59-1,.57,2,1.17Z"/><path class="cls-2" d="M156.51,27.64,155,26.75l-.52.3.66.38a.24.24,0,0,1,.09.32.2.2,0,0,1-.09.09h0L149.57,31a.23.23,0,0,1-.25,0l-.88-.51-.52.3,1.55.9,7-4.07Zm-1.43-1.37,2,1.17a.2.2,0,0,1,.09.09.23.23,0,0,1-.09.32l-7.51,4.34a.25.25,0,0,1-.24,0l-2-1.17a.2.2,0,0,1-.09-.09.24.24,0,0,1,.09-.32l1-.57a.21.21,0,0,1,.23,0l.9.51,5.06-2.92-.65-.38a.24.24,0,0,1-.09-.08.24.24,0,0,1,.08-.33l1-.57A.25.25,0,0,1,155.08,26.27Z"/><polygon class="cls-6" points="156.99 25.4 154.96 24.23 153.97 24.8 154.98 25.38 149.45 28.58 148.44 27.99 147.45 28.57 149.47 29.73 156.99 25.4"/><path class="cls-2" d="M156.51,25.4,155,24.5l-.52.3.66.38a.24.24,0,0,1,.09.32.2.2,0,0,1-.09.09h0l-5.53,3.19a.25.25,0,0,1-.25,0l-.88-.51-.52.3,1.55.89,7-4.06ZM155.08,24l2,1.17a.2.2,0,0,1,.09.09.22.22,0,0,1-.09.32l-7.51,4.34a.25.25,0,0,1-.24,0l-2-1.17a.2.2,0,0,1-.09-.09.24.24,0,0,1,.09-.32l1-.57a.21.21,0,0,1,.23,0l.9.52,5.06-2.93-.65-.37a.2.2,0,0,1-.09-.09.24.24,0,0,1,.08-.33l1-.57A.25.25,0,0,1,155.08,24Z"/><polygon class="cls-1" points="98.24 150.06 89.52 145.03 109.46 121.66 109.7 121.53 109.7 120.52 111.14 121.35 111.3 122.7 118.18 126.68 119.05 138.88 98.24 150.06"/><polygon class="cls-6" points="107.44 122.81 109.46 121.64 118.18 126.68 116.16 127.85 107.44 122.81"/><path class="cls-2" d="M107.32,122.61l2-1.17a.21.21,0,0,1,.23,0l8.72,5a.24.24,0,0,1,.09.32.26.26,0,0,1-.09.09l-2,1.17a.24.24,0,0,1-.23,0l-8.72-5a.25.25,0,0,1-.09-.33l.09-.08Zm2.14-.69-1.55.89,8.25,4.76,1.55-.89Z"/><polygon class="cls-6" points="103.39 127.49 105.41 126.32 114.13 131.35 112.11 132.52 103.39 127.49"/><path class="cls-2" d="M103.27,127.28l2-1.16a.21.21,0,0,1,.23,0h0l8.72,5a.24.24,0,0,1,.09.32.24.24,0,0,1-.1.1l-2,1.16a.24.24,0,0,1-.23,0l-8.72-5a.24.24,0,0,1-.09-.32.26.26,0,0,1,.09-.09Zm2.14-.69-1.55.9,8.25,4.76,1.55-.9Z"/><polygon class="cls-6" points="101.36 129.83 103.39 128.66 112.11 133.69 110.08 134.86 101.36 129.83"/><path class="cls-2" d="M101.26,129.62l2-1.17a.25.25,0,0,1,.24,0h0l8.72,5a.23.23,0,0,1,.08.32.24.24,0,0,1-.1.1l-2,1.16a.25.25,0,0,1-.24,0h0l-8.72-5a.23.23,0,0,1-.08-.32.22.22,0,0,1,.1-.09Zm2.13-.69-1.56.9,8.25,4.76,1.55-.9Z"/><polygon class="cls-6" points="99.34 132.17 101.36 131 110.08 136.03 108.06 137.2 99.34 132.17"/><path class="cls-2" d="M99.23,132l2-1.17a.23.23,0,0,1,.24,0l8.72,5a.24.24,0,0,1,.09.32l-.09.09-2,1.17a.24.24,0,0,1-.23,0h0l-8.72-5a.23.23,0,0,1-.09-.32.28.28,0,0,1,.1-.09Zm2.13-.69-1.55.9,8.25,4.76,1.55-.9Z"/><polygon class="cls-6" points="97.31 134.51 99.34 133.34 108.06 138.37 106.03 139.54 97.31 134.51"/><path class="cls-2" d="M97.2,134.3l2-1.17a.25.25,0,0,1,.24,0l8.71,5a.22.22,0,0,1,.09.32.2.2,0,0,1-.09.09l-2,1.16a.23.23,0,0,1-.24,0l-8.72-5a.23.23,0,0,1-.08-.32.2.2,0,0,1,.09-.09Zm2.14-.69-1.56.9,8.25,4.76,1.55-.9Z"/><polygon class="cls-6" points="95.28 136.84 97.31 135.68 106.03 140.71 104 141.88 95.28 136.84"/><path class="cls-2" d="M95.17,136.64l2-1.17a.25.25,0,0,1,.24,0l8.72,5a.25.25,0,0,1,.09.33.38.38,0,0,1-.09.09l-2,1.16a.23.23,0,0,1-.24,0l-8.71-5a.23.23,0,0,1-.09-.32.2.2,0,0,1,.09-.09Zm2.14-.69-1.55.89,8.24,4.77,1.56-.9Z"/><polygon class="cls-6" points="93.26 139.18 95.29 138.01 104 143.05 101.98 144.22 93.26 139.18"/><path class="cls-2" d="M93.14,139l2-1.17a.26.26,0,0,1,.24,0l8.71,5a.24.24,0,0,1,.09.33.24.24,0,0,1-.09.08l-2,1.17a.23.23,0,0,1-.24,0l-8.72-5a.23.23,0,0,1-.08-.32.24.24,0,0,1,.08-.09Zm2.15-.69-1.56.89,8.25,4.76,1.55-.89Z"/><polygon class="cls-6" points="91.23 141.52 93.26 140.35 101.98 145.39 99.95 146.56 91.23 141.52"/><path class="cls-2" d="M91.12,141.32l2-1.17a.23.23,0,0,1,.24,0h0l8.72,5a.24.24,0,0,1,.08.33.18.18,0,0,1-.1.09l-2,1.16a.23.23,0,0,1-.24,0l-8.71-5a.24.24,0,0,1-.09-.33.24.24,0,0,1,.09-.08Zm2.14-.69-1.55.89,8.24,4.76,1.56-.89Z"/><polygon class="cls-6" points="89.21 143.86 91.23 142.69 99.95 147.73 97.93 148.9 89.21 143.86"/><path class="cls-2" d="M89.1,143.65l2-1.16a.23.23,0,0,1,.24,0l8.71,5a.24.24,0,0,1,.09.32.2.2,0,0,1-.09.09l-2,1.17a.25.25,0,0,1-.24,0h0l-8.72-5a.25.25,0,0,1-.09-.33.28.28,0,0,1,.1-.09Zm2.13-.69-1.55.9,8.25,4.76,1.55-.89Z"/><polygon class="cls-6" points="105.41 125.15 107.44 123.98 116.16 129.02 114.13 130.19 105.41 125.15"/><path class="cls-2" d="M105.3,124.94l2-1.16a.23.23,0,0,1,.24,0l8.72,5a.23.23,0,0,1,.08.32.2.2,0,0,1-.09.09l-2,1.17a.25.25,0,0,1-.24,0l-8.71-5a.24.24,0,0,1-.09-.33.2.2,0,0,1,.09-.09Zm2.14-.69-1.55.9,8.24,4.76,1.56-.89Z"/><path class="cls-2" d="M236.54,156.34l0-24.91-54,31.28v25l54-31.33ZM237,131l0,25.44a.23.23,0,0,1-.12.22l-54.48,31.61h0a.27.27,0,0,1-.12,0,.24.24,0,0,1-.24-.24V162.59a.25.25,0,0,1,.12-.22l54.52-31.55h0a.21.21,0,0,1,.12,0A.23.23,0,0,1,237,131Z"/><polygon class="cls-1" points="131.8 158.78 152.14 170.59 151.85 169.52 150.2 168.56 149.83 167.18 148.17 166.22 147.8 164.84 146.15 163.89 145.78 162.5 144.12 161.55 143.75 160.16 142.16 159.06 141.82 157.78 139.97 156.83 139.62 155.55 138.02 154.43 137.67 153.15 136.02 152.19 135.65 150.81 133.99 149.85 133.62 148.47 131.83 147.44 131.8 158.78"/><rect class="cls-5" x="131.36" y="146.04" width="0.47" height="1.26"/><polygon class="cls-6" points="133.62 148.47 131.6 147.3 122.88 152.34 124.9 153.5 133.62 148.47"/><path class="cls-2" d="M133.15,148.47l-1.55-.9-8.25,4.77,1.55.89,8.25-4.76Zm-1.43-1.37,2,1.16a.26.26,0,0,1,.09.09.25.25,0,0,1-.09.33l-8.71,5a.25.25,0,0,1-.24,0l-2-1.17a.38.38,0,0,1-.09-.09.24.24,0,0,1,.09-.32l8.72-5A.23.23,0,0,1,131.72,147.1Z"/><polygon class="cls-6" points="137.67 153.15 135.65 151.98 126.93 157.01 128.96 158.18 137.67 153.15"/><path class="cls-2" d="M137.2,153.15l-1.55-.9L127.4,157l1.55.9,8.25-4.76Zm-1.43-1.38,2,1.17a.2.2,0,0,1,.09.09.24.24,0,0,1-.09.32l-8.71,5a.23.23,0,0,1-.24,0l-2-1.17a.28.28,0,0,1-.1-.09.24.24,0,0,1,.09-.32l8.72-5h0A.25.25,0,0,1,135.77,151.77Z"/><polygon class="cls-6" points="139.7 155.49 137.67 154.32 128.95 159.35 130.98 160.52 139.7 155.49"/><path class="cls-2" d="M139.23,155.49l-1.56-.9-8.24,4.76,1.55.9,8.25-4.76Zm-1.44-1.38,2,1.16a.24.24,0,0,1,.1.1.23.23,0,0,1-.08.32l-8.72,5h0a.25.25,0,0,1-.24,0l-2-1.17a.2.2,0,0,1-.09-.09.22.22,0,0,1,.09-.32l8.71-5A.25.25,0,0,1,137.79,154.11Z"/><polygon class="cls-6" points="141.72 157.82 139.7 156.66 130.98 161.69 133.01 162.86 141.72 157.82"/><path class="cls-2" d="M141.25,157.83l-1.55-.9-8.25,4.76,1.56.9,8.24-4.76Zm-1.43-1.38,2,1.16a.19.19,0,0,1,.1.1.23.23,0,0,1-.09.32l-8.72,5h0a.21.21,0,0,1-.23,0l-2-1.16a.24.24,0,0,1-.08-.09.23.23,0,0,1,.08-.32l8.72-5A.25.25,0,0,1,139.82,156.45Z"/><polygon class="cls-6" points="143.75 160.16 141.72 159 133 164.03 135.03 165.2 143.75 160.16"/><path class="cls-2" d="M143.28,160.16l-1.56-.89L133.48,164l1.55.9,8.25-4.77Zm-1.44-1.37,2,1.17a.38.38,0,0,1,.09.09.24.24,0,0,1-.09.32l-8.72,5a.23.23,0,0,1-.24,0l-2-1.16a.2.2,0,0,1-.09-.09.24.24,0,0,1,.09-.33l8.71-5A.25.25,0,0,1,141.84,158.79Z"/><polygon class="cls-6" points="145.78 162.5 143.75 161.33 135.03 166.37 137.06 167.54 145.78 162.5"/><path class="cls-2" d="M145.3,162.5l-1.55-.89-8.25,4.76,1.56.89,8.24-4.76Zm-1.43-1.37,2,1.17a.2.2,0,0,1,.09.09.23.23,0,0,1-.09.32l-8.71,5a.23.23,0,0,1-.24,0l-2-1.17a.24.24,0,0,1-.09-.08.24.24,0,0,1,.08-.33l8.72-5A.23.23,0,0,1,143.87,161.13Z"/><polygon class="cls-6" points="147.8 164.84 145.78 163.67 137.06 168.71 139.08 169.88 147.8 164.84"/><path class="cls-2" d="M147.33,164.84l-1.55-.89-8.25,4.76,1.55.89,8.25-4.76Zm-1.44-1.37,2,1.17.09.08a.25.25,0,0,1-.09.33l-8.72,5a.25.25,0,0,1-.24,0l-2-1.16a.28.28,0,0,1-.1-.09.24.24,0,0,1,.09-.33l8.72-5h0A.21.21,0,0,1,145.89,163.47Z"/><polygon class="cls-6" points="149.83 167.18 147.8 166.01 139.08 171.04 141.11 172.22 149.83 167.18"/><path class="cls-2" d="M149.35,167.18l-1.55-.9-8.25,4.77,1.56.89,8.24-4.76Zm-1.43-1.37,2,1.16a.22.22,0,0,1,.1.09.24.24,0,0,1-.08.33l-8.72,5h0a.25.25,0,0,1-.24,0l-2-1.16a.19.19,0,0,1-.1-.1.23.23,0,0,1,.08-.32l8.72-5h0A.23.23,0,0,1,147.92,165.81Z"/><polygon class="cls-6" points="151.85 169.52 149.83 168.35 141.11 173.38 143.13 174.55 151.85 169.52"/><path class="cls-2" d="M151.38,169.52l-1.55-.9-8.25,4.76,1.55.9,8.25-4.76Zm-1.44-1.37,2,1.16a.28.28,0,0,1,.1.09.24.24,0,0,1-.09.32l-8.72,5h0a.24.24,0,0,1-.23,0l-2-1.17a.26.26,0,0,1-.09-.09.24.24,0,0,1,.09-.32l8.72-5A.2.2,0,0,1,149.94,168.15Z"/><polygon class="cls-6" points="135.65 150.81 133.62 149.64 124.9 154.67 126.93 155.84 135.65 150.81"/><path class="cls-2" d="M135.18,150.81l-1.56-.9-8.24,4.76,1.55.9,8.25-4.76Zm-1.44-1.37,2,1.16a.2.2,0,0,1,.09.09.23.23,0,0,1-.08.32l-8.72,5a.25.25,0,0,1-.24,0l-2-1.16a.24.24,0,0,1-.1-.1.22.22,0,0,1,.09-.32l8.71-5h0A.21.21,0,0,1,133.74,149.44Z"/><polygon class="cls-6" points="158.4 82.99 156.37 81.82 147.65 86.86 149.68 88.02 158.4 82.99"/><path class="cls-2" d="M157.92,83l-1.55-.9-8.25,4.76,1.56.9L157.92,83Zm-1.43-1.37,2,1.16a.2.2,0,0,1,.09.09.23.23,0,0,1-.09.32l-8.71,5a.26.26,0,0,1-.24,0l-2-1.17a.24.24,0,0,1-.08-.09.23.23,0,0,1,.08-.32l8.72-5A.23.23,0,0,1,156.49,81.62Z"/><polygon class="cls-6" points="162.45 87.67 160.42 86.5 151.7 91.53 153.73 92.7 162.45 87.67"/><path class="cls-2" d="M162,87.67l-1.55-.9-8.25,4.76,1.56.9L162,87.67Zm-1.43-1.38,2,1.17a.2.2,0,0,1,.09.09.22.22,0,0,1-.09.32l-8.71,5a.23.23,0,0,1-.24,0l-2-1.17a.22.22,0,0,1-.1-.09.23.23,0,0,1,.08-.32l8.72-5h0A.25.25,0,0,1,160.54,86.29Z"/><polygon class="cls-6" points="164.47 90.01 162.45 88.84 153.73 93.87 155.75 95.04 164.47 90.01"/><path class="cls-2" d="M164,90l-1.55-.9-8.25,4.76,1.55.9L164,90Zm-1.44-1.38,2,1.16a.32.32,0,0,1,.1.1.24.24,0,0,1-.09.32l-8.72,5h0a.23.23,0,0,1-.24,0l-2-1.17a.26.26,0,0,1-.09-.09.24.24,0,0,1,.09-.32l8.71-5A.25.25,0,0,1,162.56,88.63Z"/><polygon class="cls-6" points="166.5 92.34 164.47 91.18 155.75 96.21 157.78 97.38 166.5 92.34"/><path class="cls-2" d="M166,92.35l-1.55-.9-8.25,4.76,1.56.9L166,92.35ZM164.59,91l2,1.16a.19.19,0,0,1,.1.1.23.23,0,0,1-.08.32l-8.72,5h0a.23.23,0,0,1-.24,0l-2-1.16a.2.2,0,0,1-.09-.09.23.23,0,0,1,.08-.32l8.72-5A.25.25,0,0,1,164.59,91Z"/><polygon class="cls-6" points="168.52 94.68 166.5 93.52 157.78 98.55 159.8 99.72 168.52 94.68"/><path class="cls-2" d="M168.05,94.68l-1.55-.89-8.25,4.76,1.55.9,8.25-4.77Zm-1.44-1.37,2,1.17a.38.38,0,0,1,.09.09.24.24,0,0,1-.09.32l-8.72,5a.21.21,0,0,1-.23,0l-2-1.16a.26.26,0,0,1-.09-.09.25.25,0,0,1,.09-.33l8.72-5A.24.24,0,0,1,166.61,93.31Z"/><polygon class="cls-6" points="170.55 97.02 168.52 95.85 159.8 100.89 161.83 102.06 170.55 97.02"/><path class="cls-2" d="M170.08,97l-1.56-.89-8.24,4.76,1.55.89L170.08,97Zm-1.44-1.37,2,1.17a.2.2,0,0,1,.09.09.23.23,0,0,1-.08.32l-8.72,5a.23.23,0,0,1-.24,0l-2-1.17a.24.24,0,0,1-.09-.08.24.24,0,0,1,.08-.33l8.72-5A.23.23,0,0,1,168.64,95.65Z"/><polygon class="cls-6" points="172.57 99.36 170.55 98.19 161.83 103.23 163.85 104.4 172.57 99.36"/><path class="cls-2" d="M172.1,99.36l-1.55-.89-8.25,4.76,1.55.89,8.25-4.76ZM170.67,98l2,1.17a.34.34,0,0,1,.09.08.25.25,0,0,1-.09.33l-8.71,5a.25.25,0,0,1-.24,0l-2-1.16a.24.24,0,0,1-.1-.1.24.24,0,0,1,.09-.32l8.72-5h0A.23.23,0,0,1,170.67,98Z"/><polygon class="cls-6" points="174.6 101.7 172.57 100.53 163.85 105.56 165.88 106.73 174.6 101.7"/><path class="cls-2" d="M174.13,101.7l-1.56-.9-8.24,4.77,1.55.89,8.25-4.76Zm-1.44-1.37,2,1.16a.22.22,0,0,1,.1.09.24.24,0,0,1-.08.33l-8.72,5h0a.25.25,0,0,1-.24,0l-2-1.16a.19.19,0,0,1-.1-.1.23.23,0,0,1,.08-.32l8.72-5h0A.23.23,0,0,1,172.69,100.33Z"/><polygon class="cls-6" points="176.62 104.04 174.6 102.87 165.88 107.9 167.91 109.07 176.62 104.04"/><path class="cls-2" d="M176.15,104l-1.55-.9-8.25,4.76,1.55.9,8.25-4.76Zm-1.43-1.37,2,1.16a.28.28,0,0,1,.1.09.23.23,0,0,1-.09.32l-8.72,5h0a.24.24,0,0,1-.23,0l-2-1.17a.38.38,0,0,1-.09-.09.24.24,0,0,1,.09-.32l8.72-5A.21.21,0,0,1,174.72,102.67Z"/><polygon class="cls-6" points="160.42 85.33 158.4 84.16 149.68 89.19 151.7 90.36 160.42 85.33"/><path class="cls-2" d="M160,85.33l-1.55-.9-8.25,4.76,1.55.9L160,85.33ZM158.51,84l2,1.17a.38.38,0,0,1,.09.09.24.24,0,0,1-.09.32l-8.72,5a.25.25,0,0,1-.24,0l-2-1.16a.32.32,0,0,1-.1-.1.23.23,0,0,1,.09-.32l8.72-5h0A.21.21,0,0,1,158.51,84Z"/></g></g></svg>