<svg xmlns="http://www.w3.org/2000/svg" viewBox="0 0 749.92 412.49"><defs><style>.cls-1{fill:#c1d0ea;}.cls-2{fill:#afc3e0;}.cls-3{fill:#fff;}.cls-4{fill:#a81d38;}.cls-5{fill:#7f1634;}.cls-6{fill:#ebf3ff;}.cls-7{fill:#fafcff;}.cls-8{fill:#c94769;}.cls-9{fill:#d85b82;}.cls-10{fill:#c13d65;}.cls-11{fill:#bc3756;}.cls-12{fill:#b22244;}.cls-13{fill:#fefefe;}.cls-14{fill:#cc4669;}.cls-15{fill:#cfd5e5;}.cls-16{fill:#2e4275;}.cls-17{fill:#3d5489;}.cls-18{fill:#455f99;}.cls-19{fill:#dcf7ff;}.cls-20{fill:#d5e1f9;}.cls-21{fill:#253568;}.cls-22{fill:#1c295d;}.cls-23{fill:#121f47;}.cls-24{fill:#2d4175;}.cls-25{fill:#304477;}.cls-26{fill:#25386d;}.cls-27{fill:#415b93;}.cls-28{fill:#5374ad;}.cls-29{fill:#e58994;}.cls-30{fill:#f09ea4;}.cls-31{fill:#cc5065;}.cls-32{fill:#c64063;}.cls-33{fill:#577aad;}.cls-34{fill:#516fa5;}.cls-35{fill:#c93f63;}.cls-36{fill:#7494c1;}.cls-37{fill:#af2e50;}.cls-38{fill:#1e3282;}.cls-39{fill:#39538e;}.cls-40{fill:#c14465;}.cls-41{fill:#c94c73;}</style></defs><g id="Layer_2" data-name="Layer 2"><g id="OBJECTS"><rect class="cls-1" y="314.49" width="749.92" height="98.01"/><polygon class="cls-2" points="158.75 397.99 309.96 350.77 450.45 336.16 625.09 337.16 525.92 399.83 158.75 397.99"/><path class="cls-3" d="M284.52,22.21h-4.84V19.36h4.84V14.29h3v5.07h4.84v2.85h-4.84v5.06h-3Z"/><path class="cls-3" d="M425.19,20.24h-4.84V17.39h4.84V12.33h3v5.06H433v2.85h-4.84v5.07h-3Z"/><path class="cls-3" d="M76.76,52.17H71.91V49.32h4.85V44.25h3v5.07h4.84v2.85H79.72v5.07h-3Z"/><path class="cls-3" d="M154.13,41h-4.84V38.12h4.84V33.06h3v5.06h4.84V41H157.1V46h-3Z"/><path class="cls-3" d="M192.86,23.62a6.84,6.84,0,1,1,6.84-6.84A6.84,6.84,0,0,1,192.86,23.62Zm0-11.21a4.38,4.38,0,1,0,4.38,4.37A4.37,4.37,0,0,0,192.86,12.41Z"/><path class="cls-3" d="M114.2,30.14A6.84,6.84,0,1,1,121,23.31,6.84,6.84,0,0,1,114.2,30.14Zm0-11.21a4.38,4.38,0,1,0,4.37,4.38A4.38,4.38,0,0,0,114.2,18.93Z"/><path class="cls-3" d="M57.3,26.67a6.84,6.84,0,1,1,6.84-6.84A6.84,6.84,0,0,1,57.3,26.67Zm0-11.21a4.38,4.38,0,1,0,4.38,4.37A4.37,4.37,0,0,0,57.3,15.46Z"/><path class="cls-3" d="M77.67,289l-4.81.52-.31-2.83,4.81-.53-.54-5,2.94-.32.55,5,4.81-.53.31,2.84-4.81.52.54,5-2.94.32Z"/><path class="cls-3" d="M52.58,332a6.83,6.83,0,1,1,6.06-7.53A6.84,6.84,0,0,1,52.58,332Zm-1.2-11.15a4.38,4.38,0,1,0,4.82,3.88A4.38,4.38,0,0,0,51.38,320.82Z"/><path class="cls-3" d="M69.22,252.25a6.84,6.84,0,1,1,6.06-7.53A6.85,6.85,0,0,1,69.22,252.25ZM68,241.11A4.38,4.38,0,1,0,72.83,245,4.38,4.38,0,0,0,68,241.11Z"/><path class="cls-3" d="M595.67,24.17h-4.84V21.31h4.84V16.25h3v5.06h4.84v2.86h-4.84v5.06h-3Z"/><path class="cls-3" d="M681,135.71H676.2v-2.85H681v-5.07h3v5.07h4.84v2.85H684v5.07h-3Z"/><path class="cls-3" d="M680.62,37a6.84,6.84,0,1,1,6.84-6.84A6.85,6.85,0,0,1,680.62,37Zm0-11.21A4.38,4.38,0,1,0,685,30.12,4.38,4.38,0,0,0,680.62,25.75Z"/><path class="cls-3" d="M579.08,118a6.84,6.84,0,1,1,6.83-6.84A6.85,6.85,0,0,1,579.08,118Zm0-11.21a4.38,4.38,0,1,0,4.37,4.37A4.38,4.38,0,0,0,579.08,106.74Z"/><path class="cls-4" d="M315.88,385a8.16,8.16,0,0,0-4.24-1.6A8,8,0,0,0,307,385l-1.49-1.9A10.44,10.44,0,0,1,311.8,381a10.6,10.6,0,0,1,5.64,2.17Z"/><path class="cls-5" d="M270.76,385.19a1.42,1.42,0,0,1-1-.36.75.75,0,0,1,.25-1.25c.07,0,7.08-3.84,14.46-7.51,15.33-7.62,17.25-7.25,18.18-7.08a1.68,1.68,0,0,1,1.15.69,11.87,11.87,0,0,1,1.78,4.23c.07.49-.41.92-1.08,1a1.14,1.14,0,0,1-1.32-.79,10.59,10.59,0,0,0-1.39-3.36c-3.12.32-17.6,7.37-30.34,14.28A1.51,1.51,0,0,1,270.76,385.19Z"/><path class="cls-5" d="M348.5,387.71a1.47,1.47,0,0,1-.83-.24.74.74,0,0,1-.05-1.26s4.69-3.68,9.61-7.22c10.39-7.48,11.85-7.24,12.73-7.09a1.49,1.49,0,0,1,1.18.81,14.41,14.41,0,0,1,1.18,4c.05.49-.45.91-1.12.95a1.16,1.16,0,0,1-1.29-.83,12.89,12.89,0,0,0-.85-3.08c-2.8,1.06-11.87,7.5-19.68,13.64A1.42,1.42,0,0,1,348.5,387.71Z"/><path class="cls-4" d="M288.79,367.47c-10.78,0-19.54,7-19.54,15.61s8.76,15.61,19.54,15.61,19.53-7,19.53-15.61S299.56,367.47,288.79,367.47Zm-16.52,15.61c0-6.94,7.41-12.59,16.52-12.59s16.51,5.65,16.51,12.59-7.41,12.58-16.51,12.58S272.27,390,272.27,383.08Z"/><path class="cls-4" d="M334.05,367.47c-10.77,0-19.53,7-19.53,15.61s8.76,15.6,19.53,15.6,19.54-7,19.54-15.6S344.83,367.47,334.05,367.47Zm0,28.19c-9.1,0-16.51-5.64-16.51-12.58s7.41-12.59,16.51-12.59,16.52,5.65,16.52,12.59S343.16,395.66,334.05,395.66Z"/><path class="cls-6" d="M305.3,383.08c0-6.94-7.41-12.59-16.51-12.59s-16.52,5.65-16.52,12.59,7.41,12.58,16.52,12.58S305.3,390,305.3,383.08Z"/><path class="cls-6" d="M296.11,371.82l-15.32,22.26a19,19,0,0,0,3.47,1.09l15-21.81A17.47,17.47,0,0,0,296.11,371.82Z"/><path class="cls-6" d="M272.27,383.08a10,10,0,0,0,1.28,4.85l11.81-17.16C277.9,372,272.27,377,272.27,383.08Z"/><path class="cls-6" d="M292.3,395.37c7.42-1.23,13-6.27,13-12.29a10,10,0,0,0-1.25-4.78Z"/><path class="cls-7" d="M288.79,370.49a21.36,21.36,0,0,0-3.43.28l-11.81,17.16a14.67,14.67,0,0,0,7.24,6.15l15.32-22.26A20.62,20.62,0,0,0,288.79,370.49Z"/><path class="cls-7" d="M299.27,373.36l-15,21.81a20.89,20.89,0,0,0,4.53.49,21.22,21.22,0,0,0,3.51-.29l11.75-17.07A13.49,13.49,0,0,0,299.27,373.36Z"/><path class="cls-6" d="M317.54,383.08a10,10,0,0,0,1.23,4.74l11.71-17C323.09,372,317.54,377.07,317.54,383.08Z"/><path class="cls-6" d="M341.28,371.78,326,394a19.08,19.08,0,0,0,3.45,1.12l15-21.84A17.87,17.87,0,0,0,341.28,371.78Z"/><path class="cls-6" d="M337.42,395.4c7.5-1.19,13.15-6.26,13.15-12.32a10,10,0,0,0-1.3-4.9Z"/><path class="cls-7" d="M334.05,370.49a22,22,0,0,0-3.57.3l-11.71,17A14.51,14.51,0,0,0,326,394l15.32-22.25A20.6,20.6,0,0,0,334.05,370.49Z"/><path class="cls-7" d="M344.45,373.31l-15,21.84a21.28,21.28,0,0,0,4.64.51,21.81,21.81,0,0,0,3.37-.26l11.85-17.22A13.6,13.6,0,0,0,344.45,373.31Z"/><path class="cls-8" d="M133,299.43l-.47-4.3c4.78-.52,10.94-5.2,14-10.65,1.5-2.65,2.93-6.62,1.18-10.42-.93-2-2.06-3.14-3.36-3.36-2.54-.41-5.78,2.35-6.72,3.35l-3.16-3c.53-.56,5.35-5.5,10.57-4.65,2.81.45,5,2.41,6.6,5.81,2,4.27,1.49,9.37-1.34,14.38C146.54,293.26,139.09,298.77,133,299.43Z"/><polygon class="cls-8" points="133.27 312.31 102.33 311.96 94.58 252.88 141.19 252.88 133.27 312.31"/><polygon class="cls-9" points="99.14 252.88 107.3 312.02 116.39 312.13 113.17 252.88 99.14 252.88"/><polygon class="cls-10" points="130.97 252.96 141.19 252.88 133.27 312.31 126.28 312.18 130.97 252.96"/><path class="cls-11" d="M238.79,349.53a16.62,16.62,0,0,1-9.22-15.17h0a16.62,16.62,0,0,1,9.22-15.17v-5.88H101.31A16.31,16.31,0,0,0,84.8,329.42v9.38a16.32,16.32,0,0,0,16.51,16.12H238.79Z"/><path class="cls-12" d="M238.79,349.53a16.62,16.62,0,0,1-9.22-15.17h0a16.62,16.62,0,0,1,9.22-15.17v-5.88H166.13a21.06,21.06,0,0,0-21.31,20.8h0a21.07,21.07,0,0,0,21.31,20.81h72.66Z"/><path class="cls-13" d="M238.79,349.53a16.62,16.62,0,0,1-9.22-15.17h0a16.62,16.62,0,0,1,9.22-15.17V317.8H169.52a16.77,16.77,0,0,0-17,16.56h0a16.77,16.77,0,0,0,17,16.56h69.27Z"/><path class="cls-14" d="M97.33,316.42s-5.85,3.43-6.75,7.78-.28,6.25-.28,6.25l50.68.2s.34-10.3,8.9-15Z"/><polygon class="cls-15" points="169.03 324.55 232.79 324.26 231.77 326 169.03 324.55"/><polygon class="cls-15" points="156.41 334.7 229.85 333.69 229.82 334.82 156.41 334.7"/><polygon class="cls-15" points="170.92 344.49 233.1 344.22 233.97 345.37 170.92 344.49"/><path class="cls-16" d="M69.36,392.38a16.66,16.66,0,0,0,9.21-15.18h0A16.65,16.65,0,0,0,69.36,362v-5.88H206.83a16.32,16.32,0,0,1,16.51,16.12v9.37a16.32,16.32,0,0,1-16.51,16.12H69.36Z"/><path class="cls-17" d="M69.36,392.38a16.66,16.66,0,0,0,9.21-15.18h0A16.65,16.65,0,0,0,69.36,362v-5.88H142A21.06,21.06,0,0,1,163.32,377h0A21.07,21.07,0,0,1,142,397.76H69.36Z"/><path class="cls-13" d="M69.36,392.38a16.66,16.66,0,0,0,9.21-15.18h0A16.65,16.65,0,0,0,69.36,362v-1.38h69.26a16.77,16.77,0,0,1,17,16.55h0a16.77,16.77,0,0,1-17,16.56H69.36Z"/><path class="cls-17" d="M210.73,358.83s5.86,3.43,6.76,7.78.28,6.25.28,6.25l-50.69.2s-.33-10.3-8.89-15.05Z"/><polygon class="cls-15" points="139.31 368 75.55 367.71 76.57 369.45 139.31 368"/><polygon class="cls-15" points="151.93 378.15 78.48 377.14 78.51 378.26 151.93 378.15"/><polygon class="cls-15" points="137.41 387.94 75.23 387.67 74.36 388.82 137.41 387.94"/><polygon class="cls-18" points="148.6 137.17 148.6 115.01 136.14 126.09 148.6 137.17"/><rect class="cls-18" x="59.44" y="73.75" width="98.39" height="52.3"/><rect class="cls-19" x="64.46" y="80.39" width="88.49" height="4.09"/><rect class="cls-19" x="64.46" y="91.82" width="67.94" height="4.09"/><rect class="cls-19" x="64.46" y="103.24" width="80.9" height="4.09"/><rect class="cls-19" x="64.46" y="114.66" width="79.53" height="4.09"/><polygon class="cls-18" points="147.15 224.57 147.15 203.25 135.16 213.91 147.15 224.57"/><rect class="cls-18" x="61.34" y="163.53" width="94.69" height="50.34"/><circle class="cls-20" cx="83.27" cy="188.32" r="4.97"/><circle class="cls-20" cx="108.6" cy="188.42" r="4.97"/><circle class="cls-20" cx="133.93" cy="188.52" r="4.97"/><polygon class="cls-18" points="668.21 116.91 668.21 95.58 656.22 106.24 668.21 116.91"/><rect class="cls-18" x="611.47" y="55.87" width="65.62" height="50.34"/><circle class="cls-20" cx="623.21" cy="81.02" r="4.3"/><circle class="cls-20" cx="645.13" cy="81.11" r="4.3"/><circle class="cls-20" cx="667.06" cy="81.19" r="4.3"/><polygon class="cls-21" points="389.21 330.58 322.37 336.06 322.37 296.49 400.58 296.49 400.58 324.62 389.21 330.58"/><rect class="cls-22" x="314.79" y="301.23" width="78.21" height="27.36"/><polygon class="cls-23" points="393 301.23 392.97 316.94 314.79 301.23 393 301.23"/><polygon class="cls-22" points="428.06 365.43 272.21 365.43 272.3 357.1 314.46 328.57 385.78 328.57 428.1 357.02 428.06 365.43"/><polygon class="cls-21" points="393.09 328.57 315.06 328.57 308.48 332.69 393.42 333.7 393.09 328.57"/><polygon class="cls-24" points="393.33 333.7 393.01 328.57 400.58 324.62 434.98 348.51 428.1 357.02 393.33 333.7"/><polygon class="cls-21" points="434.98 348.51 434.74 357.32 428.06 365.43 428.1 357.02 434.98 348.51"/><polyline class="cls-21" points="541.04 301.29 550.35 292.29 550.35 67.13 541.04 76.14 541.04 301.29"/><polyline class="cls-25" points="166.75 76.14 176.05 67.13 550.35 67.13 541.04 76.14 166.75 76.14"/><rect class="cls-22" x="166.75" y="76.14" width="374.3" height="225.16"/><rect class="cls-19" x="181.34" y="89.51" width="344.78" height="178.45"/><polygon class="cls-26" points="466.99 85.06 169.25 85.13 169.25 79.73 458.3 79.73 466.99 85.06"/><polygon class="cls-26" points="536.02 291.89 171.28 292.82 171.28 277.62 536.02 277.06 536.02 291.89"/><circle class="cls-12" cx="353.98" cy="284.54" r="7.85"/><path class="cls-27" d="M506.76,51.42,503,62.55a6.37,6.37,0,0,0,1.78,6.85l21.14,18.17a5.41,5.41,0,0,0,3.6,1.32l29-.4a5.75,5.75,0,0,0,5.35-4.32l2.59-9.11A6.21,6.21,0,0,0,563,67.59L514.07,47.81A5.56,5.56,0,0,0,506.76,51.42Z"/><path class="cls-25" d="M479.78,30l51.35,44.87a1.91,1.91,0,0,0,1.28.47l60-1.14a2,2,0,0,0,1.82-1.37c.28-.8,2-4.83,1.25-5.47l-43.3-32.93a2,2,0,0,0-1-.46L481.23,22.69c-.85-.1-1.52,3.89-1.88,4.53A2.19,2.19,0,0,0,479.78,30Z"/><path class="cls-27" d="M481.09,25.92l51.36,44.86a1.84,1.84,0,0,0,1.27.47l60-1.13A2.16,2.16,0,0,0,595,66.33l-41.44-36a1.89,1.89,0,0,0-1-.46l-69.94-7.74C480.59,21.94,479.57,24.59,481.09,25.92Z"/><polygon class="cls-28" points="483.74 23.67 542.73 47.69 553.34 31.38 483.74 23.67"/><polygon class="cls-12" points="542.73 47.69 560.62 70.42 559.7 100.94 553.4 104.94 554.21 71.14 542.73 47.69"/><rect class="cls-29" x="338.42" y="97.1" width="31.91" height="37.68"/><path class="cls-25" d="M338.42,99.58l-.09,15.19s16.82,0,32-14.15Z"/><path class="cls-30" d="M399.36,68.34c-1.42-15.67-12-5.87-12-5.87s9.68-42.81-22.95-52a27.69,27.69,0,0,0-18.27,0c-32.63,9.23-23,52-23,52s-10.55-9.8-12,5.87,15.22,17.19,15.22,17.19c5.46,11.29,16.71,18.91,28.09,19.16,11.88.25,23.9-7.37,29.6-19.16C384.15,85.53,400.78,84,399.36,68.34Z"/><path class="cls-25" d="M387.7,71.29s1.64-7.62,4.46-4.57-.47,11.28-3,10.92-.43-1.81-.12-4.25S387.7,71.29,387.7,71.29Z"/><path class="cls-25" d="M322,69.93s-1.65-7.62-4.47-4.57.48,11.28,3,10.92.44-1.81.13-4.24S322,69.93,322,69.93Z"/><path class="cls-25" d="M362.19,88a.78.78,0,0,0-.7.47c-.05.11-1.31,2.71-5.32,2.81a7.9,7.9,0,0,1-6.37-3,.76.76,0,0,0-1.09-.16.85.85,0,0,0-.16,1.14,9.47,9.47,0,0,0,7.66,3.6c5-.13,6.62-3.6,6.69-3.75a.83.83,0,0,0-.38-1.08A.76.76,0,0,0,362.19,88Z"/><ellipse class="cls-25" cx="341.07" cy="67.75" rx="2.13" ry="3.92"/><path class="cls-25" d="M334.53,59.61a1.75,1.75,0,0,1,.77-1.92c1.5-1,4.95-2.83,7.54-1.61,3.4,1.61,2.21,3.05,1.38,3.56s-2.91-1.11-5.84.38C336.19,61.13,334.86,60.77,334.53,59.61Z"/><ellipse class="cls-25" cx="371.7" cy="66.52" rx="2.13" ry="3.92"/><path class="cls-25" d="M376.93,58.72a1.75,1.75,0,0,0-.88-1.87c-1.56-.87-5.11-2.52-7.62-1.14-3.3,1.81-2,3.18-1.18,3.64s2.85-1.29,5.85,0C375.36,60.34,376.67,59.9,376.93,58.72Z"/><ellipse class="cls-31" cx="338.67" cy="78.41" rx="5.07" ry="4.79"/><ellipse class="cls-31" cx="374.58" cy="78.41" rx="5.07" ry="4.79"/><path class="cls-25" d="M353.49,80.34c-.63,0-1.24-.07-1.48-.62a.84.84,0,0,1,.39-1.08.75.75,0,0,1,.73,0c.7.13,2.91-.19,3.25-.62.18-.67-.18-5.56-.64-9.87a.8.8,0,0,1,.68-.9.79.79,0,0,1,.86.71c.31,2.85,1,9.61.51,10.74-.61,1.5-3.81,1.58-4.17,1.59Zm-.06-1.29Z"/><path class="cls-25" d="M396.14,22.3s3.28-6.22,1.38-9.5-6.74-3.11-6.74-3.11,2.25-4-4-5.18-6.05,2.24-8.47,3.11-24.18-9.68-39-7.26c-6.08,1-8.14,5.13-8.17,10.5a8.45,8.45,0,0,0-2.76.43c-12.1,4.35-13.22,16.46-13.87,21.38a85.44,85.44,0,0,0-.25,10.54c0,7.43.9,10.31,1.64,16.34a6.42,6.42,0,0,1,4.08.74c5.09,2.67,5.43,16.51,8.45,11.53,1.8-3-2.36-14.35-1-22.82,1-5.75,12.72-4.21,13.44-9.82,3.13,1.82,9.35,3.92,21.72,4.89a70.16,70.16,0,0,0,19.23-.9c6.08,6.62-1.56,22.26.85,26.22,2.63,4.33,2.39-3.74,5.6-7.67a10.62,10.62,0,0,1,5.13-2.26c.69-7.48,1.35-16.63,1.07-21.13,3.8-2.51,5.83-5.48,6-8.25C400.8,22.82,396.14,22.3,396.14,22.3Z"/><path class="cls-3" d="M353,68.49l-1.17-2.25c.18-.09,4.47-2.27,8.27-.2l-1.22,2.23C356.28,66.86,353,68.48,353,68.49Z"/><polygon class="cls-3" points="381.67 70.45 379.97 68.56 387.71 62.54 385.94 66.76 381.67 70.45"/><polygon class="cls-3" points="330.43 68.72 324.17 66.38 322.55 63.09 331.29 66.34 330.43 68.72"/><path class="cls-3" d="M353.18,75.17H329.6V59.1h23.58ZM331.67,73.1h19.44V61.18H331.67Z"/><path class="cls-3" d="M382.05,75.4H358.46V59.33h23.59Zm-21.51-2.08H380V61.4H360.54Z"/><path class="cls-30" d="M230.3,28.45s-6.61-16.57-7.91-19.18.84-6,4.92-2.84,11.95,23.74,12.94,28.92.78,10.49,3.47,10.18,4.4-5.82,7.34-7.05,10.31-1.56,12.29-.24-2.59,3.41-6.13,6.35-7.14,8.47-7.91,11.95-7.72,13.9-12.2,14.11-17.44-4.5-19.82-9.93-10.07-17.83-8.88-20.48,2.36-7.27,4-8.09S230.3,28.45,230.3,28.45Z"/><path class="cls-25" d="M230.19,56.46s-4.07-4.08-4.64-5.17,2.18,1.26,4.93,1,4.83-3.14,7.88-3c0,0-4.38,2.78-5,4.66S232.64,58.41,230.19,56.46Z"/><path class="cls-25" d="M234.33,43.37c-.3-1.5,2.18-5.95,1.92-7.23s-4.49-7.79-5.47-8.58A9.16,9.16,0,0,0,228,26.29v4.65a51.47,51.47,0,0,0-4.35-3.13,4.07,4.07,0,0,1-2.1.4c-.9-.18-4.41,3.05-4.41,3.05l.33,1.58-5.13-.69s-1,1.52.73,3.44a4.57,4.57,0,0,1,.81,1.28c-.4.31-.41,1.46-.51,2.38-.26,2.33,2.34,2.85,2.34,2.85h0c1.4,1.06,4.4,2.09,5.15,1.48.47,0,1.15.56,2.4,1.33,2.36,1.46,4-.23,4.82-.42,1.33-.31,2,.58,2.79.9a7.73,7.73,0,0,0,1.53.21C233.87,45.71,234.43,43.88,234.33,43.37Z"/><path class="cls-30" d="M223.61,28.13c1.19-3.33,3.92-2.11,5.61-1.33s6.26,8.45,6.23,9.25-1.6,5.82-1.33,7.39-3.25,3.42-5.34.07c-1.21-1.94.25-5.76.18-6.62C228.84,35.49,223.3,29,223.61,28.13Z"/><path class="cls-30" d="M217.52,31.84s3.93,4.7,3.9,5.5-1.35,5.16,1.06,6.79,4.65.79,4.8.55.17-5.18.92-6.49-3.59-7.73-5.42-9.29S215.91,27.44,217.52,31.84Z"/><path class="cls-30" d="M219.74,43.56c-1.12,0-4.45-2.12-4.31-3.6s0-3-.47-3.62-2.4-1.77-2.79-2.78,1-3,2-3.22a5.61,5.61,0,0,1,3.21,1.11c.05.15,3.28,5,3.29,5.43C220.69,38.5,221.71,43.59,219.74,43.56Z"/><path class="cls-30" d="M245,64.31s-1.92,3.93-1,7.25-16.27,2.94-16.27,2.94l-6.21-3.38a43.57,43.57,0,0,0-3.14-8.7C216.62,59.29,245,64.31,245,64.31Z"/><path class="cls-11" d="M219.87,70.06s15.44,1.43,25.42-4.4a17.94,17.94,0,0,1,2.1,6.31c.58,6.68,9.57,26.69,12.23,41.1s11.53,40.27,5.35,52-15.52,15.8-24.89,9.66-15.6-22.42-17-39.32c-.85-10-4.42-39.2-3.66-56.88C219.58,74,219.87,70.06,219.87,70.06Z"/><path class="cls-11" d="M372.45,112.49s22.28,4.11,35.76,11.33,17,12.47,29,33.56c7.66,13.42,24.27,31,29.65,40.08,4.77,8,6.41,9.17,6,17.6-.39,7.6-8.82,12.62-17.81,14.55s-29.66-22.46-40-35.73C403.9,179.51,403,182.63,391.56,170,386.2,164.14,350.94,125.81,372.45,112.49Z"/><path class="cls-11" d="M337.57,110.67s-21.08,3.69-39.65,10.89c-19.83,7.69-37.39,19-42.69,20.73A30.93,30.93,0,0,0,239.87,154s-16.85,18.14,11,24.51c17.25,3.95,47.1,8.52,61.76.7S350.77,122.9,337.57,110.67Z"/><path class="cls-11" d="M299.21,222.89c.52,10.11,2,23.11,1.56,33.69l101.37.13c6-33.95,12.53-82.82,12.53-82.82,2.4-42.37-42.37-61.4-42.37-61.4s-3.08,7.31-19.3,6.59-15.46-8.27-15.46-8.27S297.67,138.26,296,151.75,298.57,210.33,299.21,222.89Z"/><path class="cls-3" d="M337.57,110.67s.52,15.81,17.1,63.5a452.24,452.24,0,0,0,17.62-61.68,95.41,95.41,0,0,1-17.62,5.44C346.12,119.49,337.57,110.67,337.57,110.67Z"/><polygon class="cls-32" points="337.57 110.67 320.98 136.33 343.27 158.36 330.57 162.76 358.82 210.71 354.67 174.17 337.57 110.67"/><polygon class="cls-32" points="372.29 112.31 388.02 127.87 368.32 156.89 378.34 155.85 358.82 210.71 354.67 174.17 372.29 112.31"/><polygon class="cls-18" points="460.7 77.63 467.59 35.03 426.49 46.13 415.53 126.11 455.63 119.65 460.7 77.63"/><polygon class="cls-33" points="422.06 42.48 426.49 46.13 467.59 35.03 463.47 31.67 422.06 42.48"/><polygon class="cls-34" points="411.92 122.93 415.53 126.11 426.49 46.13 422.07 42.49 411.92 122.93"/><path class="cls-29" d="M431.07,136.88s13,1.63,13.87-.32,8.48-28.24,9.22-31.37-2-10.54-2.23-20c-.2-8.94-.74-8.75-1.74-8.93s-2,1.15-2,1.15a5.79,5.79,0,0,0-3-.63,5.44,5.44,0,0,0-3.14,1c-.21.2-1.59,6-1.59,6s-1.87-1.4-3.24-.77-2.91,1.74-3.14,6.46-.24,7.57,0,8.77.63,8,.63,8-3.11,15-4.06,17.13S428.32,136.59,431.07,136.88Z"/><path class="cls-25" d="M439.86,111s-5.73-12.42-5.59-16.8,1-8.74,2-10l1-1.21a4.46,4.46,0,0,0-2.78,2.14c-1.13,1.85-1.75,10.68-1,12.29s1.7,8.88,1.7,8.88l5,5.42"/><path class="cls-25" d="M445.71,76.83s-3.58-.34-4.2,1-1.8,10.5-1.42,14.32S445,106.07,445,106.07s-3.56-10-3.61-15.18S440.43,76.17,445.71,76.83Z"/><path class="cls-25" d="M448.21,77.43a63.07,63.07,0,0,0-.28,14.63c.85,7.28,2.37,10.44,2.37,10.44S446.7,83.78,448.21,77.43Z"/><path class="cls-29" d="M429,136.27s-2.37-12.09,2-22.17c2.4-5.54-3.85-11.81-4-17.06s2.66-6.55,4-5.6,0,4.31,2.77,9,6.17,9.92,6.28,11.35a51.56,51.56,0,0,1-1.15,11.42C437.92,127.4,438.29,140,429,136.27Z"/><path class="cls-35" d="M462.3,228.91c5.16-1.68,11.43-8.29,12.21-15.39,1.23-11.25-3.28-31-9.36-46.39-9.2-23.27-10.38-25.55-16.15-37.94,0,0-11.79,8.64-21.57,4.3,0,0-.64,10.28-.87,14-.89,14.21,1.14,28,3.68,46.63C432.51,210.83,443.7,235,462.3,228.91Z"/><rect class="cls-34" x="219.93" y="234.68" width="267.84" height="6.03"/><rect class="cls-36" x="219.93" y="234.68" width="95.48" height="6.03"/><rect class="cls-22" x="219.94" y="240.69" width="267.84" height="20.31"/><polygon class="cls-19" points="224.81 258.07 224.81 243.24 237 250.65 224.81 258.07"/><polygon class="cls-19" points="469.81 249.77 469.81 246.08 473.5 246.08 473.5 243.62 467.35 243.62 467.35 249.78 469.81 249.77"/><polygon class="cls-19" points="475.96 246.08 479.65 246.08 479.65 249.73 482.11 249.72 482.11 243.62 475.96 243.62 475.96 246.08"/><polygon class="cls-19" points="473.5 255.92 469.81 255.92 469.81 252.23 467.35 252.24 467.35 258.38 473.5 258.38 473.5 255.92"/><polygon class="cls-19" points="479.65 252.19 479.65 255.92 475.96 255.92 475.95 258.38 482.11 258.38 482.11 252.18 479.65 252.19"/><path class="cls-29" d="M568,316.63s-3.61,34.5-3.21,44.53-1.61,18.45,9.62,17.24,15.25-44.92,13.64-51.34S584.07,307,568,316.63Z"/><path class="cls-29" d="M560,358.21s-16.62-.54-44.85,4.92-44.13,8.69-44,10.29-1.77,12.54,3.12,13.9,85.5-.77,100.54-5.16S592.61,359.76,560,358.21Z"/><path class="cls-37" d="M587.48,250.66s-7.15,4.88-14.51,23.86c-1.83,4.73-10.16,32.89-10.16,32.89l8.42,3.61,16.45-9.63Z"/><path class="cls-11" d="M580.26,270.31A52.3,52.3,0,0,1,574,285.22c-4.54,7.22-13.3,16-12.23,28.81s12,18.51,12.77,27.61-3.21,40.64-4.82,44.92,20.06,8.55,35.83,7.22,40.11-5.35,41.45-6.69-2-20.32,2.81-31.95,23.26-45.73,23.26-45.73-13.64-39.3-16.84-40.51S580.26,270.31,580.26,270.31Z"/><path class="cls-11" d="M609.17,242.56s0,9.63,13.4,8.83,26.08-15.11,26.08-15.11,17.11,15.24,31.81,26.47c11.83,9-54,42.52-54,42.52l-47.59-29.75s3.88-23.12,8.28-24.93C591.92,248.62,597.67,244.56,609.17,242.56Z"/><path class="cls-37" d="M678.59,261.69s-6.16,4.13-17.92,14.55-10.25,22.4-6.81,36.78c4.41,18.45,8.82,28.88,8.82,28.88s38.37-8.29,39.71-11.76S690.63,265.43,678.59,261.69Z"/><path class="cls-30" d="M678.47,374.37s-15.68.43-44.32,3.05-44.78,4.22-44.86,5.83-3,12.3,1.71,14.14,85.16,7.79,100.56,4.93S710.76,379.16,678.47,374.37Z"/><path class="cls-30" d="M592.09,382.71l.1-.1s-18-2.2-25.77-2.2a43.21,43.21,0,0,0-14,2.4l5.22,13.24,39.51,1.2Z"/><path class="cls-30" d="M699.9,331.82c-7.07,3.18-27.1,7.82-34.46,9.47,3.62,13.06,9.59,34.28,12.28,42,4,11.49,3.2,23,17.09,17.35,4.56-1.86,9.32-4.81,10.16-15.38C706.25,369.26,702.9,345.17,699.9,331.82Z"/><path class="cls-30" d="M622.57,251.39c9.25-.55,18.17-7.56,22.8-11.84a26.72,26.72,0,0,1-4.14-6.87l0-17.72-29.78,1.54v24.72a5.64,5.64,0,0,1-2.14,2.26C609.67,245.87,611.77,252,622.57,251.39Z"/><path class="cls-25" d="M611.41,219.52v14S632.32,243,641,238c4.56-2.6,1.75-10.25,1.13-23.12Z"/><path class="cls-30" d="M607,233.36c-7.22-.31-13.9-9.94-17.94-18.66-3.57-7.69-6.43-26.51-5.64-38.9,1.46-23,12-53.21,42-47.57,49.44,9.28,32.37,44.41,26.39,58.45,0,0,7.86-4.89,8.43,5.49.66,11.67-5.62,14.15-11.14,13.16-.48-.09-1.21,5.49-3.59,9.34C643.76,217.47,627.19,234.21,607,233.36Z"/><path class="cls-38" d="M611.22,216.62c-2.61,4.47-9.47,5.54-13,1.54-.91-1,.77-2.33,1.67-1.31,2.67,3.05,7.74,1.69,9.61-1.52.69-1.18,2.37.12,1.69,1.29Z"/><path class="cls-38" d="M604.27,209.22c-.4,0-3.9.34-4.76-1.22-.64-1.18-.75-8.63-.77-11.79a.87.87,0,0,1,.85-.89.89.89,0,0,1,.86.9c0,4.77.24,10.16.52,10.87.42.42,2.88.5,3.62.28a.82.82,0,0,1,.8-.15.92.92,0,0,1,.55,1.13c-.19.63-.85.78-1.53.86Zm0-1.43Z"/><path class="cls-38" d="M611.56,183.86a31.31,31.31,0,0,1,8.26-.19,19.69,19.69,0,0,1,4.6,2c3.38,2.66-4.51-1.45-9.87.82-2.93,1.25-4.55,1.13-4.63-.33A2.25,2.25,0,0,1,611.56,183.86Z"/><ellipse class="cls-38" cx="617.62" cy="195.13" rx="5.06" ry="3.35" transform="matrix(0.02, -1, 1, 0.02, 408.73, 808.24)"/><ellipse class="cls-31" cx="622.66" cy="207.08" rx="6.17" ry="5.82"/><ellipse class="cls-38" cx="589.57" cy="194.5" rx="5.06" ry="3.35" transform="translate(386.26 781.09) rotate(-89.14)"/><path class="cls-38" d="M591.79,183.89c-1.06-.27-8,0-8.84.62-.28.2-.29,1.6.55,1.75a18.31,18.31,0,0,1,6.15.75c2.28.55,4,0,3.91-1.43C593.47,184.29,592.71,184.11,591.79,183.89Z"/><path class="cls-31" d="M594.07,208a6,6,0,0,0-6.17-5.82,6.42,6.42,0,0,0-2.38.45,62.63,62.63,0,0,0,3.1,11.16A6,6,0,0,0,594.07,208Z"/><path class="cls-39" d="M596.9,165.22s-.7,8.21,16.45,6.35c14.24-1.53,20.86,3.48,23.26,23.8,1.33,11.22-1.85,50.35-3.19,58.37s39.56,2.33,45.44-3.55S688,234.14,689,228.8s-12-31.29-14.71-46.53-4.81-34.36-21.65-46.13-30.22-11.09-41.72-8.95S589.82,148.18,596.9,165.22Z"/><path class="cls-39" d="M603.92,132.33a19.06,19.06,0,0,0-13.83,5.82c-6.09,6.28-10,29.55-9.23,33.76s12.84,2.74,19-4.68S605.13,134.14,603.92,132.33Z"/><path class="cls-39" d="M588.3,250.08c4.57-2.1,10.28-5.68,20.87-7.52a6,6,0,0,0,.1.93,5.61,5.61,0,0,0,2.14-2.27v-8a36.67,36.67,0,0,1-4.46.1c-7.22-.31-13.9-9.94-17.94-18.66-2.66-5.73-4.92-17.64-5.58-28.47-.76-.22-.75-1.52-.48-1.72a1.39,1.39,0,0,1,.38-.16,80.65,80.65,0,0,1,0-8.55,91,91,0,0,1,2.14-14.69L580.93,169s-4.21,52.61-4.21,65.44C576.72,243.76,583,247.43,588.3,250.08Z"/><polygon class="cls-40" points="620.57 389.83 554.79 390.03 554.79 401.8 631.8 401.8 620.57 389.83"/><polygon class="cls-11" points="406.86 401.73 559.19 401.73 530.62 303.06 383.27 303.06 406.86 401.73"/><polygon class="cls-40" points="530.62 303.06 536.64 296.58 565.21 395.25 559.19 401.73 530.62 303.06"/><polygon class="cls-41" points="383.27 303.06 389.28 296.58 536.64 296.58 530.62 303.06 383.27 303.06"/><ellipse class="cls-41" cx="465.72" cy="353.52" rx="10.95" ry="13.21" transform="translate(-47.35 73.11) rotate(-8.54)"/><rect class="cls-18" x="38.16" y="401.35" width="673.7" height="11.08"/></g></g></svg>