<svg xmlns="http://www.w3.org/2000/svg" xmlns:xlink="http://www.w3.org/1999/xlink" viewBox="0 0 281.44 539"><defs><style>.cls-1{fill:#fff7f2;}.cls-2{fill:url(#linear-gradient);}.cls-3{isolation:isolate;}.cls-4{opacity:0.8;mix-blend-mode:overlay;}.cls-5{fill:#feaff1;opacity:0;}.cls-6{fill:#fea5e8;opacity:0.09;}.cls-7{fill:#fd9bdf;opacity:0.18;}.cls-8{fill:#fd91d6;opacity:0.27;}.cls-9{fill:#fc87cd;opacity:0.36;}.cls-10{fill:#fc7dc4;opacity:0.45;}.cls-11{fill:#fb72bc;opacity:0.55;}.cls-12{fill:#fb68b3;opacity:0.64;}.cls-13{fill:#fa5eaa;opacity:0.73;}.cls-14{fill:#fa54a1;opacity:0.82;}.cls-15{fill:#f94a98;opacity:0.91;}.cls-16{fill:#f9408f;}.cls-17{opacity:0.19;}.cls-18{opacity:0.5;}.cls-19{opacity:0.3;}.cls-20{fill:#1f0159;mix-blend-mode:multiply;}.cls-20,.cls-52{opacity:0.2;}.cls-21{fill:url(#linear-gradient-2);}.cls-22{fill:url(#linear-gradient-3);}.cls-23{clip-path:url(#clip-path);}.cls-24{fill:#fff;}.cls-25{clip-path:url(#clip-path-2);}.cls-26{fill:#d9e1ee;}.cls-27{fill:#f1f5fa;}.cls-28{fill:url(#linear-gradient-5);}.cls-29{fill:url(#linear-gradient-6);}.cls-30{fill:#211f26;}.cls-31{fill:url(#linear-gradient-7);}.cls-32{fill:url(#linear-gradient-8);}.cls-33{fill:url(#linear-gradient-9);}.cls-34{fill:url(#linear-gradient-10);}.cls-35{fill:url(#linear-gradient-11);}.cls-36{fill:url(#linear-gradient-12);}.cls-37{fill:#c2c3c3;}.cls-38{fill:#d9dada;}.cls-39{fill:url(#linear-gradient-13);}.cls-40{fill:url(#linear-gradient-14);}.cls-41{fill:url(#linear-gradient-15);}.cls-42{fill:#f5c2a6;}.cls-43{fill:#e6e6e6;}.cls-44{fill:#171d23;}.cls-45{fill:#2e2644;}.cls-46{fill:#3f354d;}.cls-47{fill:#42395a;}.cls-48{fill:#ffd6bf;}.cls-49{fill:#816e5d;}.cls-50{fill:#746150;}.cls-51{fill:#f7f8fa;}.cls-52{fill:#fb82b5;}.cls-53{fill:url(#linear-gradient-16);}.cls-54{fill:url(#linear-gradient-17);}.cls-55{fill:url(#linear-gradient-18);}</style><linearGradient id="linear-gradient" x1="210.04" y1="171.43" x2="234.01" y2="171.43" gradientUnits="userSpaceOnUse"><stop offset="0.01" stop-color="#e4e9f2"/><stop offset="1" stop-color="#b4c2da"/></linearGradient><linearGradient id="linear-gradient-2" x1="12.51" y1="443.11" x2="261.18" y2="443.11" xlink:href="#linear-gradient"/><linearGradient id="linear-gradient-3" x1="332.11" y1="569.34" x2="-47.17" y2="300" gradientUnits="userSpaceOnUse"><stop offset="0" stop-color="#4422a1"/><stop offset="0.12" stop-color="#4a239f"/><stop offset="0.27" stop-color="#5a2699"/><stop offset="0.44" stop-color="#742b90"/><stop offset="0.62" stop-color="#9a3283"/><stop offset="0.81" stop-color="#c93a72"/><stop offset="1" stop-color="#ff445f"/></linearGradient><clipPath id="clip-path"><path class="cls-1" d="M113.6,98.31l-14.22,8.26c1.78-1,4.25-.89,7,.67L120.55,99C117.85,97.42,115.38,97.28,113.6,98.31Z"/></clipPath><clipPath id="clip-path-2"><path class="cls-2" d="M219.79,184,234,175.74c0-6.18-4.37-13.78-9.75-16.89L210,167.12C215.42,170.22,219.81,177.82,219.79,184Z"/></clipPath><linearGradient id="linear-gradient-5" x1="95.89" y1="274.18" x2="219.76" y2="274.18" gradientUnits="userSpaceOnUse"><stop offset="0" stop-color="#21deff"/><stop offset="0.29" stop-color="#1ad2fa"/><stop offset="1" stop-color="#0ab4ef"/></linearGradient><linearGradient id="linear-gradient-6" x1="181.4" y1="146.55" x2="193.26" y2="146.55" gradientUnits="userSpaceOnUse"><stop offset="0" stop-color="#aabad6"/><stop offset="1" stop-color="#96aac9"/></linearGradient><linearGradient id="linear-gradient-7" x1="195.85" y1="156.44" x2="214.86" y2="156.44" xlink:href="#linear-gradient-6"/><linearGradient id="linear-gradient-8" x1="140.98" y1="151.69" x2="184.71" y2="151.69" xlink:href="#linear-gradient-6"/><linearGradient id="linear-gradient-9" x1="333.87" y1="224.97" x2="331.14" y2="227.02" gradientUnits="userSpaceOnUse"><stop offset="0" stop-color="#148a9e"/><stop offset="1" stop-color="#087dc2"/></linearGradient><linearGradient id="linear-gradient-10" x1="133.76" y1="198.64" x2="77.46" y2="171.79" gradientUnits="userSpaceOnUse"><stop offset="0.01" stop-color="#ffc300"/><stop offset="1" stop-color="#ff445f"/></linearGradient><linearGradient id="linear-gradient-11" x1="84.7" y1="143" x2="98.12" y2="176.93" xlink:href="#linear-gradient-10"/><linearGradient id="linear-gradient-12" x1="58.42" y1="174.26" x2="107.94" y2="174.26" xlink:href="#linear-gradient-10"/><linearGradient id="linear-gradient-13" x1="276.88" y1="300.08" x2="219.94" y2="309.73" gradientUnits="userSpaceOnUse"><stop offset="0.01" stop-color="#752cac"/><stop offset="1" stop-color="#c03348"/></linearGradient><linearGradient id="linear-gradient-14" x1="199.86" y1="253.65" x2="261.95" y2="253.65" gradientUnits="userSpaceOnUse"><stop offset="0.01" stop-color="#ad5ceb"/><stop offset="1" stop-color="#ff667c"/></linearGradient><linearGradient id="linear-gradient-15" x1="199.68" y1="287.94" x2="257.08" y2="287.94" gradientUnits="userSpaceOnUse"><stop offset="0.01" stop-color="#9f3ceb"/><stop offset="1" stop-color="#ff445f"/></linearGradient><linearGradient id="linear-gradient-16" x1="277.18" y1="197.86" x2="281.44" y2="197.86" xlink:href="#linear-gradient-9"/><linearGradient id="linear-gradient-17" x1="255.4" y1="159.33" x2="257.96" y2="210.62" xlink:href="#linear-gradient-5"/><linearGradient id="linear-gradient-18" x1="228.88" y1="185.11" x2="277.33" y2="185.11" xlink:href="#linear-gradient-5"/></defs><g class="cls-3"><g id="Layer_2" data-name="Layer 2"><g id="Layer_1-2" data-name="Layer 1"><g class="cls-4"><ellipse class="cls-5" cx="130.71" cy="71.79" rx="124.34" ry="71.79"/><ellipse class="cls-6" cx="131.26" cy="104.41" rx="124.34" ry="71.79"/><ellipse class="cls-7" cx="131.82" cy="137.04" rx="124.34" ry="71.79"/><ellipse class="cls-8" cx="132.38" cy="169.67" rx="124.34" ry="71.79"/><ellipse class="cls-9" cx="132.94" cy="202.29" rx="124.34" ry="71.79"/><ellipse class="cls-10" cx="133.5" cy="234.92" rx="124.34" ry="71.79"/><ellipse class="cls-11" cx="134.06" cy="267.54" rx="124.34" ry="71.79"/><ellipse class="cls-12" cx="134.61" cy="300.17" rx="124.34" ry="71.79"/><ellipse class="cls-13" cx="135.17" cy="332.8" rx="124.34" ry="71.79"/><ellipse class="cls-14" cx="135.73" cy="365.42" rx="124.34" ry="71.79"/><ellipse class="cls-15" cx="136.29" cy="398.05" rx="124.34" ry="71.79"/><ellipse class="cls-16" cx="136.85" cy="430.68" rx="124.34" ry="71.79"/></g><g class="cls-17"><path class="cls-16" d="M.65,372.79c-4-24.13,10.53-47.69,39.87-64.63,53.12-30.66,139.54-30.66,192.65,0,26.52,15.31,40.9,35.8,40.51,57.69l-4.2-.08c.37-20.29-13.27-39.46-38.41-54-51.95-30-136.49-30-188.45,0-27.74,16-41.52,38-37.82,60.3Z"/></g><g class="cls-18"><path class="cls-16" d="M.65,414.62c-4-24.13,10.53-47.68,39.87-64.62,53.12-30.67,139.54-30.67,192.65,0,26.52,15.31,40.9,35.8,40.51,57.69l-4.2-.08c.37-20.29-13.27-39.46-38.41-54-51.95-30-136.49-30-188.45,0-27.74,16-41.52,38-37.82,60.3Z"/></g><g class="cls-19"><path class="cls-16" d="M.65,396.56c-4-24.13,10.53-47.69,39.87-64.63,53.12-30.66,139.54-30.66,192.65,0,26.52,15.31,40.9,35.8,40.51,57.69l-4.2-.08c.37-20.29-13.27-39.46-38.41-54-51.95-30-136.49-30-188.45,0-27.74,16-41.52,38-37.82,60.3Z"/></g><ellipse class="cls-20" cx="136.85" cy="467.21" rx="124.34" ry="71.79"/><ellipse class="cls-21" cx="136.85" cy="443.11" rx="124.34" ry="71.79"/><ellipse class="cls-22" cx="136.85" cy="430.68" rx="124.34" ry="71.79"/><g class="cls-3"><g class="cls-3"><path class="cls-1" d="M113.6,98.31l-14.22,8.26c1.78-1,4.25-.89,7,.67L120.55,99C117.85,97.42,115.38,97.28,113.6,98.31Z"/><g class="cls-23"><g class="cls-3"><path class="cls-1" d="M106.33,107.24,120.55,99a10.38,10.38,0,0,0-3-1.18l-14.22,8.26a10.27,10.27,0,0,1,3,1.18Z"/><path class="cls-1" d="M103.38,106.06,117.6,97.8a5.59,5.59,0,0,0-3.82.42l-14.22,8.26a5.59,5.59,0,0,1,3.82-.42Z"/><path class="cls-1" d="M99.56,106.48l14.22-8.26-.18.09-14.22,8.26.18-.09Z"/></g></g></g><polygon class="cls-24" points="210.04 167.12 224.26 158.85 120.55 98.98 106.33 107.24 210.04 167.12"/><path class="cls-2" d="M219.79,184,234,175.74c0-6.18-4.37-13.78-9.75-16.89L210,167.12C215.42,170.22,219.81,177.82,219.79,184Z"/><g class="cls-25"><path class="cls-26" d="M224.26,158.85A17.83,17.83,0,0,1,229,163a23.83,23.83,0,0,1,3.29,5.35,18.42,18.42,0,0,1,1.73,7.39L219.79,184a18.56,18.56,0,0,0-1.72-7.38,24.3,24.3,0,0,0-3.3-5.36,17.78,17.78,0,0,0-4.73-4.14Z"/></g><path class="cls-27" d="M95.84,361.91c0,6.18,4.37,13.78,9.74,16.89l103.71,59.87c5.38,3.11,9.8.59,9.81-5.59l.06-7.9L95.89,354Z"/><polygon class="cls-28" points="96.49 123.18 95.89 354 219.16 425.18 219.76 194.35 96.49 123.18"/><path class="cls-27" d="M219.79,184c0-6.18-4.37-13.78-9.75-16.88L106.33,107.24c-5.38-3.1-9.79-.59-9.81,5.59l0,10.35,123.27,71.17Z"/></g><path class="cls-29" d="M193.25,146.7a3,3,0,0,1-1.7,2.29,9.4,9.4,0,0,1-8.43,0,3.88,3.88,0,0,1-1.25-1.09c-.92-1.28-.5-2.75,1.25-3.78a9.34,9.34,0,0,1,8.43,0A2.75,2.75,0,0,1,193.25,146.7Z"/><path class="cls-30" d="M193.25,146.7a3,3,0,0,1-1.7,2.29,9.4,9.4,0,0,1-8.43,0,3.88,3.88,0,0,1-1.25-1.09,3,3,0,0,1,1.72-2.28,9.28,9.28,0,0,1,8.4,0A3.8,3.8,0,0,1,193.25,146.7Z"/><path class="cls-31" d="M214.58,159.84a3.17,3.17,0,0,1-1.29,1.29,8.25,8.25,0,0,1-7.68,0l-8.2-4.82a3.42,3.42,0,0,1-1.23-1.18c-.7-1.15-.3-2.44,1.26-3.35a8.31,8.31,0,0,1,7.71.06l8.11,4.88C214.77,157.55,215.22,158.76,214.58,159.84Z"/><path class="cls-30" d="M214.58,159.84a3.17,3.17,0,0,1-1.29,1.29,8.25,8.25,0,0,1-7.68,0l-8.2-4.82a3.42,3.42,0,0,1-1.23-1.18,3,3,0,0,1,1.32-1.35,8.28,8.28,0,0,1,7.71.07l8.11,4.87A3.12,3.12,0,0,1,214.58,159.84Z"/><path class="cls-32" d="M143.94,144.19,181.75,166c1.63.94,3,.17,3-1.71h0a6.57,6.57,0,0,0-3-5.13l-37.81-21.83c-1.63-.94-3-.17-3,1.71h0A6.57,6.57,0,0,0,143.94,144.19Z"/><path class="cls-26" d="M219.1,433.08c0,3.07-1.1,5.24-2.86,6.26l14.22-8.26c1.76-1,2.85-3.19,2.86-6.26l.06-7.17-14.22,8.21Z"/><polygon class="cls-26" points="234.01 175.74 219.79 184 219.76 194.34 233.98 186.13 234.01 175.74"/><polygon class="cls-26" points="219.76 194.34 219.16 425.86 233.38 417.65 233.98 186.13 219.76 194.34"/><polygon class="cls-33" points="227.07 190.12 219.76 194.34 219.16 425.86 227.07 421.29 227.07 190.12"/><g class="cls-3"><polygon class="cls-34" points="107.94 160.15 112.14 157.71 111.98 214.43 107.78 216.87 107.94 160.15"/><polygon class="cls-35" points="58.58 131.65 62.78 129.21 112.14 157.71 107.94 160.15 58.58 131.65"/><polygon class="cls-36" points="107.94 160.15 107.78 216.87 58.42 188.37 58.58 131.65 107.94 160.15"/></g><path class="cls-24" d="M102,203,88.86,169.79v-6.34l0,0c.76.43,1.37.08,1.37-.79v-3.5a3,3,0,0,0-1.37-2.37L77,149.93c-.75-.43-1.37-.08-1.37.79v3.5A3,3,0,0,0,77,156.59l0,0V163L63.9,181a1.75,1.75,0,0,0,0,1.58,3,3,0,0,0,1.19,1.48l35.73,20.63c.5.28,1,.24,1.19-.11A1.76,1.76,0,0,0,102,203ZM79.81,180.52c0-.65.47-.91,1-.57a2.29,2.29,0,0,1,1,1.78c0,.65-.47.91-1,.57A2.27,2.27,0,0,1,79.81,180.52Zm9,7.6c0-1,.73-1.41,1.63-.89A3.56,3.56,0,0,1,92,190c0,1-.73,1.41-1.63.89A3.56,3.56,0,0,1,88.76,188.12Zm-17.51-4.31a2.39,2.39,0,0,1-1.1-1.87c0-.68.49-.95,1.1-.6a2.41,2.41,0,0,1,1.09,1.87C72.34,183.89,71.85,184.16,71.25,183.81Zm22.23.76c-10.68-4.35-14-9.74-20.67-12.71l5.59-7.68v-8.36L77,155v-3.5l11.91,6.88v3.5l-1.4-.81v8.36l13.31,33.66Z"/><g class="cls-18"><g class="cls-3"><polygon class="cls-37" points="248.16 222.81 251.8 220.7 251.66 269.93 248.02 272.05 248.16 222.81"/><polygon class="cls-38" points="137 158.78 140.65 156.66 251.8 220.7 248.16 222.81 137 158.78"/><polygon class="cls-27" points="248.16 222.81 248.02 272.05 136.87 208.01 137 158.78 248.16 222.81"/></g></g><g class="cls-18"><g class="cls-3"><polygon class="cls-37" points="185.65 272.16 189.3 270.04 189.16 319.27 185.51 321.39 185.65 272.16"/><polygon class="cls-38" points="74.5 208.12 78.15 206 189.3 270.04 185.65 272.16 74.5 208.12"/><polygon class="cls-27" points="185.65 272.16 185.51 321.39 74.36 257.35 74.5 208.12 185.65 272.16"/></g></g><g class="cls-18"><g class="cls-3"><polygon class="cls-37" points="250.11 372.83 253.76 370.71 253.62 419.94 249.97 422.06 250.11 372.83"/><polygon class="cls-38" points="138.96 308.79 142.61 306.67 253.76 370.71 250.11 372.83 138.96 308.79"/><polygon class="cls-27" points="250.11 372.83 249.97 422.06 138.82 358.02 138.96 308.79 250.11 372.83"/></g></g><g class="cls-18"><g class="cls-3"><polygon class="cls-37" points="58.06 228.74 61.26 226.86 61.35 270.13 58.15 272 58.06 228.74"/><polygon class="cls-38" points="20.31 207.19 23.5 205.31 61.26 226.86 58.06 228.74 20.31 207.19"/><polygon class="cls-27" points="58.06 228.74 58.15 272 20.4 250.45 20.31 207.19 58.06 228.74"/></g></g><path class="cls-24" d="M38.21,250.43,35,246.79l.72-.75,2.5,2.82ZM35.64,247l2.12,2.4v-.44l-1.91-2.17Z"/><path class="cls-24" d="M39.6,251.23v-1.58l2.41,0,.73,1.57Zm.43-1v.44l2,0-.2-.44Z"/><path class="cls-24" d="M31.62,250.51h0a1.84,1.84,0,0,1-.46-.43l-.57-.81a1.67,1.67,0,0,1-.32-.77.7.7,0,0,1,.13-.59L35.1,243l2.8,1.59-5.65,5.86A.49.49,0,0,1,31.62,250.51Zm3.71-6.84-4.57,4.75a.31.31,0,0,0-.06.25,1,1,0,0,0,.14.34l.58.8c.15.21.37.29.47.18L37,244.65Z"/><path class="cls-24" d="M46.22,259h0a1.68,1.68,0,0,1-.64-.74l-5.83-12.57,2.8,1.6,4.87,10.5c.26.55.18,1.06-.17,1.15l-.57.15A.62.62,0,0,1,46.22,259Zm-5.61-12.31,5.33,11.48a.68.68,0,0,0,.28.32h0a.25.25,0,0,0,.2,0l.57-.15c.15,0,.18-.27.07-.5l-4.73-10.21Z"/><path class="cls-24" d="M39.29,257.13l-.71-.4a1.73,1.73,0,0,1-.79-1.35l0-10.84,2.27,1.3.05,10.84C40.07,257.18,39.72,257.38,39.29,257.13ZM38.18,245.3l0,10.33a.77.77,0,0,0,.34.59l.71.4c.19.11.34,0,.34-.19l0-10.33Z"/><path class="cls-24" d="M49.72,232.27,27.84,219.78c-1.13-.64-2-.11-2,1.18l.07,15a4.52,4.52,0,0,0,2.05,3.51L49.82,252c1.12.64,2,.11,2-1.19l-.07-15A4.51,4.51,0,0,0,49.72,232.27Zm.59,17.61a.31.31,0,0,1-.5.3L27.93,237.69a1.17,1.17,0,0,1-.51-.88l-.08-15a.31.31,0,0,1,.51-.29L49.73,234a1.14,1.14,0,0,1,.51.87Z"/><path class="cls-24" d="M31.22,229.55l.52.16v-.83c0-1,.46-1,1.33-.54a3.27,3.27,0,0,1,.94.73V230l-.53-.31c-.36-.21-.33,0-.33.5v.32l.72.41V232l-.71-.41,0,3.33-1.41-.81,0-3.32-.52-.3Z"/><path class="cls-24" d="M35.77,229.26,37,230a5.92,5.92,0,0,0-1.19,3.78,14,14,0,0,0,1.23,5.17l-1.24-.71a9.8,9.8,0,0,1-1.4-5.27C34.4,229.88,35.77,229.26,35.77,229.26Z"/><path class="cls-24" d="M38.49,235.77l-1.28-2.94,1.68,1,.44,1.26.43-.76,1.69,1-1.29,1.5,1.25,2.91-1.62-.93-.45-1.26-.43.76-1.68-1Z"/><path class="cls-24" d="M42.85,237.76a15.17,15.17,0,0,0-1.23-5.16l1.24.71a10.86,10.86,0,0,1,1.4,5.25c0,3.32-1.35,3.7-1.35,3.7l-1.25-.71A5.32,5.32,0,0,0,42.85,237.76Z"/><path class="cls-24" d="M44.7,237.07l3.1,1.77v1.29l-3.1-1.77Zm0,1.83,3.1,1.77V242l-3.1-1.77Z"/><g class="cls-3"><polygon class="cls-39" points="257.08 271.58 261.95 268.75 261.77 334.5 256.9 337.33 257.08 271.58"/><polygon class="cls-40" points="199.86 238.54 204.73 235.72 261.95 268.75 257.08 271.58 199.86 238.54"/><polygon class="cls-41" points="257.08 271.58 256.9 337.33 199.68 304.29 199.86 238.54 257.08 271.58"/></g><path class="cls-24" d="M226.91,306.68c.69-.53.6-2-.2-3.24s-2-1.86-2.71-1.33-.6,2,.2,3.24S226.22,307.21,226.91,306.68Z"/><path class="cls-24" d="M230,309.17l13.09,3.41-1.26-6.06-12.67-3.31a10.06,10.06,0,0,0-.62-1.14c-1.46-2.3-3.66-3.79-5.34-3.67a22.76,22.76,0,0,1-5.26-13.65c0-5.24,2.89-8.27,7-7.43a8.56,8.56,0,0,0,2.29,2l.15.08L229.6,290a.56.56,0,0,0-.49.22,1.22,1.22,0,0,0-.11.91l.11.51a2.49,2.49,0,0,0,1.07,1.56,1,1,0,0,0,.29.12l1.17.31.89,4.26a3.15,3.15,0,0,0,1.35,2h0a1.42,1.42,0,0,0,.36.16l3.42.89c.74.19,1.18-.44,1-1.42l-.89-4.26,1.25.33a.58.58,0,0,0,.67-.22,1.17,1.17,0,0,0,.11-.91l-.11-.5a2.31,2.31,0,0,0-1.36-1.69h0L233.24,268a2.7,2.7,0,0,0-1.58-1.94h0l-1.13-5.39a3,3,0,0,0-1.71-2.12l-3.42-.89a.71.71,0,0,0-.84.27.94.94,0,0,0-.12.22,1.87,1.87,0,0,0,0,.92l1.13,5.39-.13,0c-.68-.18-1.08.41-.89,1.3l.45,2.17h0a2.28,2.28,0,0,0-1.3.49,9.87,9.87,0,0,0-8,.76c-3.22,2-5,6.05-5,11.47a35.64,35.64,0,0,0,4.46,16.25,40.56,40.56,0,0,0,5.09,7.46l-.84,2.34-10-5.75v4.79L241,323.89v-4.8l-10-5.75Zm11.28-1.86.85,4.08L230,308.24a1.66,1.66,0,0,1,0-.22,3.86,3.86,0,0,0,.06-.49c0-.11,0-.22,0-.33a4.88,4.88,0,0,0,0-.76,2.06,2.06,0,0,0,0-.26c0-.22-.07-.44-.12-.67s0-.2-.07-.3a8,8,0,0,0-.27-.92v0ZM228,302.46a9.56,9.56,0,0,1,.66,1.25c.09.21.17.41.24.61s.12.37.17.55c0,0,0,0,0,.05a5,5,0,0,1,0,3.17h0l0,.08a2.13,2.13,0,0,1-.63.87,2.64,2.64,0,0,1-3-.15,7.64,7.64,0,0,1-2.49-2.48l-.22-.38h0a9.7,9.7,0,0,1-.51-1l0,0v0a10.76,10.76,0,0,1-.37-1.09h0a5.66,5.66,0,0,1-.13-.56c-.31-1.58,0-2.91.8-3.54a1.91,1.91,0,0,1,.87-.34,3.3,3.3,0,0,1,2.11.51A7.55,7.55,0,0,1,228,302.46Zm9.88-3.19c.09.42-.1.7-.43.62L234,299a.44.44,0,0,1-.16-.06h0a1.37,1.37,0,0,1-.59-.86l-.89-4.26,3.27.85L237,295Zm.72-6a.71.71,0,0,1,.32.46l.1.5a.38.38,0,0,1,0,.27.16.16,0,0,1-.2.06l-8.52-2.22a.69.69,0,0,1-.41-.5l-.1-.5a.39.39,0,0,1,0-.27.19.19,0,0,1,.2-.06l1.34.35,7,1.83h0l.16,0Zm-13.36-34.5a.32.32,0,0,1,.37-.12l3.41.89a.59.59,0,0,1,.14.06h0a1.26,1.26,0,0,1,.54.69l.06.17,0,.2-4.58-1.12-.06-.28A.67.67,0,0,1,225.24,258.74Zm1.06,5.89-.85-4.11,4.58,1.12.87,4.19-4-1Zm-.67.76,5.11,1.34,1.12.29h0a1.06,1.06,0,0,1,.61.75L237.54,292l-4.27-1.11-2.92-.77-2.17-10.36h0a4.34,4.34,0,0,0,.6.14l.14,0a2.72,2.72,0,0,0,.57,0,2.42,2.42,0,0,0,2.24-1.94,7.05,7.05,0,0,0-.4-4.35,10.24,10.24,0,0,0-4.11-5.17,4.69,4.69,0,0,0-.68-.33l-.17-.07a4.23,4.23,0,0,0-.65-.18h0l-.43-2C225.21,265.55,225.37,265.33,225.63,265.39Zm-.28,3.49h.26a3.76,3.76,0,0,1,1.62.53,8.47,8.47,0,0,1,3.42,4.31,5.87,5.87,0,0,1,.34,3.62,2,2,0,0,1-1.87,1.62,3.14,3.14,0,0,1-1.47-.31,7,7,0,0,1-2.47-2.07,9.44,9.44,0,0,1-1.37-2.46c-.77-2.05-.62-3.92.37-4.78A2,2,0,0,1,225.35,268.88Zm-9.59,27.7A34.13,34.13,0,0,1,211.49,281c0-5.18,1.7-9.07,4.78-11a9.08,9.08,0,0,1,6.73-.95l-.08.18-.08.18c-.05.14-.1.28-.14.43a1,1,0,0,1,0,.16,4.57,4.57,0,0,0-.09.66.45.45,0,0,0,0,.11q0,.3,0,.6c0,.09,0,.17,0,.26s0,.34.06.52,0,.18,0,.28.07.37.12.56l.06.26c.08.27.17.55.27.83s.26.63.41.94l.14.27c.12.23.25.46.38.68,0,.06.06.12.1.17-4.17-.53-7,2.69-7,8.08a24.39,24.39,0,0,0,5.3,14.23l0,0a1.72,1.72,0,0,0-.5.27c-1,.78-1.36,2.48-.92,4.5,0,.14.06.28.1.43a.14.14,0,0,1,0,.06,5.22,5.22,0,0,0,.18.56v0a.43.43,0,0,1,0,0l0,.06c-.15-.15-.29-.3-.43-.47A38.4,38.4,0,0,1,215.76,296.58Zm24.45,25.95-30-17.3v-3l9.74,5.63,1-2.75.16.17c.33.36.67.71,1,1l.12.13h0l.14.25a9.47,9.47,0,0,0,3.06,3.08h0a4,4,0,0,0,2.4.62A2.15,2.15,0,0,0,229,310a1.62,1.62,0,0,0,.37-.37l1.1,4.32,9.74,5.63Z"/><path class="cls-24" d="M227.05,276.08a1.87,1.87,0,0,0,1.13.38c.95-.06,1.3-1.24.78-2.64s-1.73-2.5-2.68-2.44l-.2.05c-.79.2-1.06,1.3-.57,2.59A4.48,4.48,0,0,0,227.05,276.08Z"/><path class="cls-42" d="M134.54,266.74a20.89,20.89,0,0,0-5,1.32c-3.74,1.54-6.59,4.7-10,6.92-2.77,1.83-21.47,4.92-24.65,5.55-.18-2.29,3.28,15.06,3.35,15.24,0,0,17.45-12.17,18.89-12.72,2.1-.82,4.47-.85,6.56-1.12a15,15,0,0,1,1.31-4.41,8,8,0,0,1,4.2-3.44,11.33,11.33,0,0,1,2.55-2.84,12.59,12.59,0,0,0,3.35-2.24C135.67,268.3,135.4,266.79,134.54,266.74Z"/><path class="cls-43" d="M66.64,291.65c70.88,153.4,11,13.53,17.1,20.24,9.92-.43,13.11-8.76,13.71-14.07-4.14-5.48-12.76-13.74-18.53-19.6C72.76,272,62.51,282.73,66.64,291.65Z"/><path class="cls-44" d="M104.41,467.75c-4,1.67-8.8,5.21-13.06,2.47-3.11-2-1.57-6.8-.06-10.16,1.44-3.11,3-5.31,6.44-6.36,1-.31,2.92-.72,3.76.12,3.05,3,9.56,2.61,13.67,2.5a13.21,13.21,0,0,1,3.77.22c3.44.92,4.47,4.81-.57,7.55C112.09,467.5,108.36,466.09,104.41,467.75Z"/><path class="cls-44" d="M73.85,450s-3.32,7.53-1.14,10.63c.6.86,3.61,1.48,7.22,1.15,2.37-.2,5-1.29,7.34-1.32a19.69,19.69,0,0,0,14.5-6.54c6.91-7.11-4.13-6.11-11.48-4.51A57,57,0,0,1,73.85,450Z"/><path class="cls-45" d="M89.48,450.43l6.71-88c.73-6-2.67-11.81-8.69-12.54s-17.38-1.44-18.34,4.56c-2.73,17,8.67,23.92,4.73,43.08-2.61,12.72-1.48,45.68-.89,51.15S87,454.86,89.48,450.43Z"/><path class="cls-46" d="M87.5,349.87c-6-.74-17.38-1.44-18.34,4.56a31.65,31.65,0,0,0-.31,7.91,6.64,6.64,0,0,1,4.5,3c2.12,6.6,9.72,18.28,10.11,21.39C86.68,409,87.7,431.25,85,453c2-.42,3.72-1.28,4.47-2.59l6.71-88C96.92,356.38,93.52,350.6,87.5,349.87Z"/><path class="cls-47" d="M108.3,456.9c1.57-10,1.29-25.64,1.8-39.83.41-11.74,2.15-47.26,2.15-47.26,0-6.06-.46-26.42-6-26.41s-30.56.29-30.55,12.75c0,7.89-1.93,10.38,6.15,22.25,5.38,7.9,7.5,22.68,6.85,33-1.23,19.28.23,45.47.23,45.64C89.45,462.36,107.81,460,108.3,456.9Z"/><path class="cls-45" d="M106.22,343.4c-5.56,0-30.56.29-30.55,12.75,0,2.79-.24,4.91-.2,7,9.7,4.93,20.71,5.19,31.71,3.73.78,0,1.55,1.94,1.94,3.11.39,5.05-.77,10.49-.77,15.55-.76,24.52,3.24,50.13-4,73.65,2.2-.6,3.78-1.42,3.92-2.29,1.57-10,1.29-25.64,1.8-39.83.41-11.74,2.15-47.26,2.15-47.26C112.24,363.75,111.79,343.39,106.22,343.4Z"/><path class="cls-26" d="M67.44,356.4c1.76,8.72,40.07,8.38,44.73,2.74a2.18,2.18,0,0,0,.43-1c.77-6.67-2.82-24.12-2-33.52.13-1.37,1.62-20.83,2.35-27.07a31,31,0,0,1,1.75-7.36c-1.37-7.95-15.14-9.92-18.21-11.67l-12.66-1.84a24.6,24.6,0,0,0-10,.51,9.31,9.31,0,0,0-4,2.18c-1.89,1.8-2.27,4.67-2.31,7-.17,6.54,1.88,25.95,3.42,40.4C71.63,333.56,66,349.13,67.44,356.4Z"/><path class="cls-48" d="M103.46,265.82l-.24,0c-.76-1.71-6.25-1.73-8.1-1.77a64.45,64.45,0,0,0-9.83.3L84.68,267h-.11a15.32,15.32,0,0,0-.33,5.51,14.28,14.28,0,0,1-.79,5.13c-.72,1.86-.9,3.67,1.41,4.82,6.12,3,13.49,2.46,15,.05,1-1.65-1-4.1,0-8.23.84-3.63,3.69-7.15,3.47-8.28Z"/><path class="cls-48" d="M108.43,253.31c.65,8.46.55,17.14-4,20.73a7.08,7.08,0,0,1-5.6,1c-.42-.06-.84-.15-1.25-.25a22.1,22.1,0,0,1-6-2.51c-2-1.28-4.45-8.88-5.07-11.48-2-8.26,4.26-9,9.46-13S107.79,244.86,108.43,253.31Z"/><path class="cls-49" d="M103.38,241a24.65,24.65,0,0,0-8.06-3.2,21.23,21.23,0,0,0-3.7-.57C83,238.49,81,243.87,81,243.87s-16.66,8.72,1,28.48a6.68,6.68,0,0,1,1.55,3.13c.84.42,7.31.51,8.48-.31a8.16,8.16,0,0,0,2.55-3.3c.6-1.27,1-2.62,1.62-3.9a6.1,6.1,0,0,1,1.43-2.07c1-.88,2.52-1.13,3.47-2.1a5,5,0,0,0,1.08-3.6c0-.83-.14-1.66-.19-2.49,0-.14,0-.28,0-.42a5.38,5.38,0,0,1,1.65-3.68c1.7-1.46,3.59-1.2,4.93-3.49S108.34,244.49,103.38,241Z"/><path class="cls-49" d="M103.38,241a24.65,24.65,0,0,0-8.06-3.2,21.23,21.23,0,0,0-3.7-.57C83,238.49,81,243.87,81,243.87s-9.76,5.11-6.43,16.37c5.74-7.7,16.68-7.91,25.18-5a9.12,9.12,0,0,1,2.39,1.1,4.85,4.85,0,0,1,1.51-2.78c1.7-1.46,3.59-1.2,4.93-3.49S108.34,244.49,103.38,241Z"/><path class="cls-50" d="M74.61,260.24c1,3.45,3.26,7.47,7.4,12.11a6.68,6.68,0,0,1,1.55,3.13c.84.42,7.31.51,8.48-.31,2.36-1.65,3.06-4.82,4.17-7.2a6.1,6.1,0,0,1,1.43-2.07c1-.88,2.52-1.13,3.47-2.1a5,5,0,0,0,1.08-3.6c0-.83-.14-1.66-.19-2.49,0-.14,0-.28,0-.42,0-.3.08-.6.14-.9a9.12,9.12,0,0,0-2.39-1.1C91.29,252.33,80.35,252.54,74.61,260.24Z"/><path class="cls-48" d="M100.48,264.27c1,1.84.71,3.94-.65,4.68s-3.29-.14-4.29-2-.71-3.94.65-4.68S99.48,262.42,100.48,264.27Z"/><path class="cls-42" d="M99,265.08a1.18,1.18,0,1,1-1.72-.8A1.36,1.36,0,0,1,99,265.08Z"/><path class="cls-42" d="M123.75,281.93a5.85,5.85,0,0,0,2.55-.88,9.67,9.67,0,0,1,3.92-1.63c1.25-.19,3-.12,4.06-.94.93-.73,1-1.86-.28-2.23-1.5-.43-3.34.78-4.93.53s-.66-1.55.19-2.7a8,8,0,0,0-4.2,3.44A15,15,0,0,0,123.75,281.93Z"/><path class="cls-48" d="M136.15,364.87a20.26,20.26,0,0,0-4.75-7.12c-.62-.56-1.58-.92-2.12-1.5-.27-.29-.59-.65-.95-1h0c-2.22-5.66-6.76-22.82-9.07-34.23-.46-2.84-2.56-8-3.1-13.08-5.85,3.57-9.37,3-16,0,3.51,23.06,21.12,50.32,21.12,50.32h0a4.42,4.42,0,0,1,.56,1.71,5.62,5.62,0,0,0,.36,3.35c.81,1.63,1.07,1.1,1.28,3.64.1,1.24.54,2.67,1.71,3.08a14.25,14.25,0,0,0,2.85.24c1.2,0,1.08.38,1.76.57s1.25-.23,1.89-.2c1.06.05,2.22,1.51,3.24.79C135.59,371,137.1,368,136.15,364.87Z"/><path class="cls-51" d="M118.44,310.29c-.84-7.91-2.56-18.68-4.48-23-2-4.53-6.56-4.1-7.74-4a11.16,11.16,0,0,0-3.84,1.41c-2.46,1.83-3.66,3.5-3.86,6.54-.14,2.17-1.17,12.58.16,21.32C105.33,315.49,112.59,313.87,118.44,310.29Z"/><g class="cls-18"><path class="cls-16" d="M136.85,486.65c-34.89,0-69.77-7.67-96.33-23-22.63-13.07-36.79-30.48-39.87-49l4.15-.69C7.66,431.22,21.1,447.59,42.62,460c52,30,136.5,30,188.45,0,24.41-14.09,38.05-32.7,38.41-52.4l4.2.08c-.39,21.23-14.78,41.1-40.51,56C206.61,479,171.73,486.65,136.85,486.65Z"/></g><g class="cls-17"><path class="cls-16" d="M136.85,444.82c-34.89,0-69.77-7.67-96.33-23-22.63-13.07-36.79-30.48-39.87-49l4.15-.69c2.86,17.29,16.3,33.65,37.82,46.08,52,30,136.5,30,188.45,0,24.41-14.09,38.05-32.7,38.41-52.41l4.2.08c-.39,21.23-14.78,41.11-40.51,56C206.61,437.15,171.73,444.82,136.85,444.82Z"/></g><g class="cls-19"><path class="cls-16" d="M136.85,468.59c-34.89,0-69.77-7.67-96.33-23-22.63-13.07-36.79-30.48-39.87-49l4.15-.69C7.66,413.16,21.1,429.52,42.62,442c52,30,136.5,30,188.45,0,24.41-14.09,38.05-32.71,38.41-52.41l4.2.08c-.39,21.23-14.78,41.11-40.51,56C206.61,460.92,171.73,468.59,136.85,468.59Z"/></g><rect class="cls-52" x="234.52" y="240.28" width="8.22" height="89.43"/><rect class="cls-52" x="32.45" y="324.88" width="8.22" height="89.43"/><rect class="cls-52" x="60.97" y="238.35" width="8.22" height="89.43"/><rect class="cls-52" x="140.73" y="415.28" width="8.22" height="55.11"/><rect class="cls-52" x="140.73" y="403.64" width="8.22" height="8.62"/><rect class="cls-52" x="187.39" y="454.28" width="8.22" height="8.62"/><rect class="cls-52" x="16.62" y="295.67" width="8.22" height="8.62"/><rect class="cls-52" x="114.46" y="429.36" width="8.22" height="8.62"/><rect class="cls-52" x="240.86" y="339.55" width="8.22" height="99.64"/><rect class="cls-52" x="140.73" y="391.28" width="8.22" height="8.62"/><rect class="cls-52" x="32.45" y="418.67" width="8.22" height="8.39"/><rect class="cls-52" x="32.45" y="430.45" width="8.22" height="8.39"/><rect class="cls-52" x="267.71" y="234.18" width="8.22" height="89.43"/><rect class="cls-52" x="267.71" y="327.97" width="8.22" height="8.39"/><rect class="cls-52" x="267.71" y="339.75" width="8.22" height="8.39"/><g class="cls-3"><polygon class="cls-53" points="277.33 171.31 281.44 168.92 281.29 224.41 277.18 226.8 277.33 171.31"/><polygon class="cls-54" points="229.04 143.42 233.15 141.04 281.44 168.92 277.33 171.31 229.04 143.42"/><polygon class="cls-55" points="277.33 171.31 277.18 226.8 228.88 198.92 229.04 143.42 277.33 171.31"/></g><path class="cls-24" d="M252.42,188.89c2.47,1.62,4.61.69,4.78-2.07a9.9,9.9,0,0,0-4.19-7.93c-2.47-1.62-4.61-.69-4.78,2.07A9.9,9.9,0,0,0,252.42,188.89Z"/><path class="cls-24" d="M269.22,198.26a5.09,5.09,0,0,0-2.15-4.09,3.35,3.35,0,0,0-.49-.26c-.24-.47-.48-.94-.74-1.43a13.12,13.12,0,0,0,2.11-1.12c2.77-1.88,3.77-4.48,2.8-7.32a12.22,12.22,0,0,0-5.12-5.89,25.55,25.55,0,0,0-5.61-2.67c-.06-.4-.13-.8-.2-1.19a1.47,1.47,0,0,0,.82-1.39,5.11,5.11,0,0,0-2.16-4.08c-1.15-3.54-2.67-6.17-4.44-7.33-2.76-1.8-5.37.45-7.13,5.42a38.49,38.49,0,0,0-5.49-4.58c-2.62-1.71-4.49-2.05-5.41-1-1.23,1.41-.6,5.07,1.76,10.3.53,1.17,1.14,2.41,1.82,3.68-4.12,1.79-6.13,4.85-4.91,8.42a12.22,12.22,0,0,0,5.12,5.89h0l.69.42a5.13,5.13,0,0,0,1.74,2.16c1,.64,1.85.5,2.25-.25.3.12.61.23.93.34,1.06,6.82,3.22,12.18,6,14s5.37-.45,7.13-5.42a38,38,0,0,0,5.5,4.58h0c2.61,1.71,4.48,2.05,5.4,1s.72-3.71-.52-7.19A1.79,1.79,0,0,0,269.22,198.26ZM266,193.77c-.18-.36-.37-.73-.57-1.1h0C265.58,193,265.77,193.41,266,193.77Zm-1.9-14.89a11.11,11.11,0,0,1,4.61,5.14c.89,2.61-.36,5.25-3.65,6.93-1.23-2.22-2.67-4.58-4.28-7a63.16,63.16,0,0,0-.51-7.05A23,23,0,0,1,264.05,178.88Zm-.32,12.63a18.15,18.15,0,0,1-3.39.88c.12-1.07.22-2.18.29-3.33.05-.91.08-1.82.1-2.72C261.85,188.12,262.86,189.85,263.73,191.51Zm-4.67-15a53,53,0,0,1,.54,5.8c-.79-1.14-1.62-2.3-2.48-3.46s-1.8-2.39-2.71-3.52A29,29,0,0,1,259.06,176.48Zm.57,6.72h0q-1.35-2-2.84-4Q258.27,181.22,259.63,183.2Zm-5.75-19.11a9.66,9.66,0,0,1,3.06,4.38,1.41,1.41,0,0,0-.93,1.41,5.15,5.15,0,0,0,2.16,4.1,3.25,3.25,0,0,0,.49.25c.06.29.12.57.17.87a35.21,35.21,0,0,0-5.53-1.17c-1.81-2.19-3.6-4.19-5.31-5.94C249.64,164.11,251.89,162.79,253.88,164.09Zm-6.46,5.43c1.28,1.23,2.61,2.65,4,4.22q-1.1-.08-2.19-.09c-1,0-1.92,0-2.83.1A31.94,31.94,0,0,1,247.42,169.52ZM236,163.36a2.31,2.31,0,0,1,.5-1.34,1.44,1.44,0,0,1,.86-.47,1.44,1.44,0,0,0-.86.47A2.31,2.31,0,0,0,236,163.36Zm8.66,27.18a5.3,5.3,0,0,0-2.14-3.49c-1.2-.78-2.24-.39-2.42.84a9.63,9.63,0,0,1-3.26-4.13c-.88-2.58.34-5.25,3.52-7,1.26,2.26,2.72,4.64,4.33,7.05a63.29,63.29,0,0,0,.49,6.91ZM243,180.33c-.79-1.28-1.54-2.55-2.22-3.78h0C241.49,177.78,242.24,179.05,243,180.33Zm-1.3-4.18a17.2,17.2,0,0,1,3.38-.93c-.13,1.12-.24,2.28-.31,3.5-.05.85-.08,1.7-.1,2.54C243.55,179.44,242.56,177.73,241.73,176.15Zm3.56-2.29a22.43,22.43,0,0,0-4.27.92c-.58-1.16-1.06-2.24-1.47-3.23-1.49-3.68-1.8-6.13-1.11-6.92a1.18,1.18,0,0,1,.28-.22,2.7,2.7,0,0,1,2.14.23,11.67,11.67,0,0,1,1.9,1,30.6,30.6,0,0,1,3.63,2.89A39.87,39.87,0,0,0,245.29,173.86Zm.46,5.48c.09-1.54.24-3,.42-4.28a26.91,26.91,0,0,1,3.46-.18c1,0,1.93.06,2.88.16l.62.76.86,1.06c.76.95,1.51,1.93,2.27,2.95,1,1.4,2,2.8,2.94,4.17v0l.44.65c0,1.2,0,2.43-.11,3.7-.09,1.51-.23,2.91-.41,4.2a27.85,27.85,0,0,1-3.39.17c-1,0-1.9-.07-2.82-.16-1.21-1.46-2.44-3-3.67-4.69s-2.53-3.51-3.6-5.14C245.65,181.62,245.68,180.49,245.75,179.34Zm0,6c.83,1.22,1.7,2.43,2.6,3.65s1.7,2.26,2.56,3.33a27.38,27.38,0,0,1-4.58-1.13A51.5,51.5,0,0,1,245.71,185.31Zm5.84,18.28c-2-1.3-3.91-5.32-5-10.92a34.72,34.72,0,0,0,5.58,1.17c1.78,2.17,3.54,4.14,5.23,5.87C255.76,203.6,253.56,204.9,251.55,203.59Zm6.4-5.52c-.77-.75-1.55-1.56-2.35-2.44-.47-.5-.94-1-1.42-1.58.68,0,1.36.07,2,.08.92,0,1.82,0,2.68-.09A30.43,30.43,0,0,1,258,198.07Zm4.79,4a28.71,28.71,0,0,1-3.67-2.94,40.92,40.92,0,0,0,1.07-5.22,22.68,22.68,0,0,0,4.35-.93c.19.38.37.76.54,1.13a1.72,1.72,0,0,0-.43,1.12,5.13,5.13,0,0,0,2.16,4.09l.23.12a10.19,10.19,0,0,1,.31,2.2A2.28,2.28,0,0,1,267,203l0,.07a1,1,0,0,1-.62.34h0C265.51,203.54,264.29,203.09,262.74,202.08Zm6.56.49a18.69,18.69,0,0,0-.81-3h0A18.69,18.69,0,0,1,269.3,202.57Z"/><g class="cls-18"><g class="cls-3"><polygon class="cls-37" points="220.2 110.1 223.77 108.03 223.63 141.5 220.06 143.58 220.2 110.1"/><polygon class="cls-38" points="80.99 30.07 84.56 28 223.77 108.03 220.2 110.1 80.99 30.07"/><polygon class="cls-27" points="220.2 110.1 220.06 143.58 80.86 63.54 80.99 30.07 220.2 110.1"/></g></g><path class="cls-24" d="M91.36,45.62c2.75,1.59,4.67,3.3,4.67,9.6,0,5.93-1.81,5.65-4.67,4s-4.68-3.29-4.68-9.4C86.68,43.52,88.69,44.08,91.36,45.62Zm0,11.23c1.87,1.08,2.44.7,2.44-2.92,0-4.19-.67-4.92-2.44-5.94s-2.45-1.16-2.45,3.11C88.91,54.77,89.37,55.71,91.36,56.85Z"/><path class="cls-24" d="M97.28,52.82l1.79,1,.44,1.29a2.94,2.94,0,0,1,2.68.35,5.22,5.22,0,0,1,2.52,4.87v6.49l-2.23-1.28V59a2,2,0,0,0-.93-1.86,2.22,2.22,0,0,0-2-.33v7l-2.23-1.28Z"/><path class="cls-24" d="M105.77,61.06l5,2.88v2.17l-5-2.88Z"/><path class="cls-24" d="M111.81,56.58,114,57.86v10.5a2.79,2.79,0,0,0,.74,2.34s1,.93,1.06,1v1.58L114,72.22c-1.38-.8-2.18-2.15-2.18-4.74Z"/><path class="cls-24" d="M116.66,60.93c0-.27.13-.39.38-.24l1.67,1a.74.74,0,0,1,.36.66V64c0,.27-.14.34-.36.21l-1.67-1a.78.78,0,0,1-.38-.64Zm.08,3.12L119,65.34v9.75l-2.22-1.29Z"/><path class="cls-24" d="M120.39,66.16l1.79,1,.44,1.29a2.92,2.92,0,0,1,2.67.35,5.21,5.21,0,0,1,2.52,4.88v6.48l-2.22-1.28V72.38a2,2,0,0,0-.93-1.86,2.24,2.24,0,0,0-2-.33v7l-2.23-1.28Z"/><path class="cls-24" d="M132.7,73.19c2.44,1.41,3.57,2.39,3.57,5.62,0,1.73-.82,2-2.35,1.08l-2.69-1.55c0,1.76.58,2.2,1.78,2.89a21.9,21.9,0,0,0,3.1,1.6v1.73a15.65,15.65,0,0,1-4.32-2c-2.15-1.24-2.78-3-2.78-6.62C129,71.77,130,71.64,132.7,73.19Zm.64,4.52c.47.27.71.15.71-.32a1.91,1.91,0,0,0-1.22-2.16c-1.18-.68-1.61-.85-1.6,1.27Z"/><path class="cls-24" d="M141.64,77.53c0-2.33,1.43-2,2.53-1.33,0,0,4.1,2.5,5.12,3.25v2.12l-4.59-2.65c-.83-.48-.83.06-.83.55v2.1l4.7,2.91v2.11l-4.7-2.54v2.09a1.56,1.56,0,0,0,1,1.53l4.44,2.56v2.11c-.9-.38-5-2.56-5-2.56a4.66,4.66,0,0,1-2.69-4.24Z"/><path class="cls-24" d="M153.09,84.89A12.48,12.48,0,0,1,155.65,87V81.85l2.22,1.28V97.54L156,96.49l-.4-1.21a3.29,3.29,0,0,1-2.55-.38c-2.08-1.2-2.76-3.49-2.76-6.53S150.75,83.54,153.09,84.89Zm.58,8.14a3,3,0,0,0,2,.54V88.74a8.76,8.76,0,0,0-2-1.5c-.7-.41-1.11-.18-1.11,2.31C152.56,91.73,153,92.62,153.67,93Z"/><path class="cls-24" d="M159.17,88.55l2.23,1.28v6.53a2,2,0,0,0,.93,1.86,2.21,2.21,0,0,0,2,.33v-7l2.23,1.29v9.74l-1.79-1-.44-1.29a3.21,3.21,0,0,1-2.68-.34A5.24,5.24,0,0,1,159.17,95Z"/><path class="cls-24" d="M170.69,95.11a21.49,21.49,0,0,1,3.89,2.82v1.6s-1.52-1-2.93-1.8c-1-.59-1.51-.8-1.51,2.07,0,2.49.36,3.07,1.51,3.73,1.46.84,3,1.58,3,1.58v1.62c-1.23,0-2.68-.94-4-1.69-1.57-.91-2.78-2.55-2.78-6.58S169.07,94.17,170.69,95.11Z"/><path class="cls-24" d="M175.64,104.4c0-1.42.66-2.29,2.47-1.24,0,0,2.48,1.45,2.48,1.43s0-.6,0-.63a1.86,1.86,0,0,0-1.13-1.85c-.73-.42-2.85-1.49-3.54-1.84V98.69a10.87,10.87,0,0,1,3.85,1.57,5.32,5.32,0,0,1,3,4.89V112l-1.76-1-.47-1.34a2.6,2.6,0,0,1-2.57-.3,4.91,4.91,0,0,1-2.38-4Zm3,3.19a3.16,3.16,0,0,0,1.94.36v-1.78l-2-1c-.59-.27-.68.17-.68.6v.47A1.38,1.38,0,0,0,178.65,107.59Z"/><path class="cls-24" d="M183.65,103.19l1.36.26.38-2.5,1.85,1.07v2.72l1.89,1.09v2l-1.89-1.09v3.91c0,1.44.29,1.91.72,2.35,0,0,1,.93,1.07,1v1.58l-1.94-1.13c-1.25-.72-2.08-2.09-2.08-4.68v-4.31l-1.36-.79Z"/><path class="cls-24" d="M190.07,103.31c0-.27.12-.38.38-.24l1.67,1a.73.73,0,0,1,.35.66v1.63c0,.27-.13.34-.35.22l-1.67-1a.77.77,0,0,1-.38-.64Zm.08,3.12,2.22,1.29v9.75l-2.22-1.29Z"/><path class="cls-24" d="M197.53,110.6c2.9,1.68,3.85,3.45,3.85,7.33,0,3.61-.9,4.31-3.85,2.6s-3.86-3.56-3.86-7C193.67,109.5,194.67,109,197.53,110.6Zm0,7.87c1.25.72,1.62.74,1.62-1.83,0-2.73-.3-3.21-1.62-4s-1.63-.63-1.63,2.1C195.9,117.29,196.34,117.79,197.53,118.47Z"/><path class="cls-24" d="M202.7,113.68l1.79,1,.43,1.29a2.93,2.93,0,0,1,2.68.35,5.2,5.2,0,0,1,2.52,4.87v6.49l-2.22-1.28V119.9A2,2,0,0,0,207,118a2.26,2.26,0,0,0-2.05-.33v7l-2.22-1.28Z"/></g></g></g></svg>