<svg xmlns="http://www.w3.org/2000/svg" viewBox="0 0 510.79 170.53"><defs><style>.cls-1,.cls-2{fill:none;stroke:#e03a80;stroke-miterlimit:10;}.cls-1{stroke-width:2px;opacity:0.8;}.cls-2{opacity:0.35;}.cls-3{fill:#ffce00;}.cls-4{fill:#7f8e94;}.cls-5{fill:#545c60;}.cls-6{fill:#02a9f4;}.cls-7{fill:#0377bc;}.cls-8{fill:#37474f;}.cls-9{fill:#ffdc00;}.cls-10{fill:#fec108;}.cls-11{fill:#ef314c;}</style></defs><g id="Camada_2" data-name="Camada 2"><g id="Layer_1" data-name="Layer 1"><polygon class="cls-1" points="509.75 103.39 72.01 131.65 47.3 54.46 506.75 9.39 509.75 103.39"/><polygon class="cls-2" points="496.57 115.89 57.93 119.55 37.59 41.1 498.85 21.87 496.57 115.89"/><path class="cls-3" d="M170.24,72.7l-.67,14.48,9.69-.74.29,3.75L169.38,91l-.57,13.09-3.69.29.57-13.1-14,1.08-.64,13.1-3.69.28.57-13.09-9.69.74L138,89.62l10.17-.79.67-14.47-9.76.75-.29-3.76L149,70.56l.57-13.09,3.76-.29-.64,13.1,14.07-1.08.57-13.1,3.69-.29-.57,13.1,9.63-.74.29,3.76Zm-3.69.29-14,1.08-.74,14.48,14.07-1.08Z"/><path class="cls-3" d="M223.15,81.82c.84,10.93-6.24,18.89-16.49,19.68a15.74,15.74,0,0,1-14.2-6l1.54,20-4.85.37-3.79-49.17L190,66.3l.55,7.11c2.56-5,7.35-8,13.29-8.45C214.1,64.17,222.31,71,223.15,81.82Zm-4.85.37c-.64-8.33-6.88-13.55-14.46-13s-13,6.7-12.31,15,6.81,13.56,14.46,13S219,90.59,218.3,82.19Z"/><path class="cls-3" d="M226,81.6c-.82-10.66,6.38-18.84,16.9-19.65s18.82,6.18,19.64,16.84-6.31,18.89-16.82,19.7S226.83,92.25,226,81.6Zm31.62-2.44c-.64-8.4-6.74-13.56-14.39-13s-13,6.63-12.31,15,6.82,13.56,14.46,13S258.28,87.56,257.63,79.16Z"/><path class="cls-3" d="M299.3,43.05l3.9,50.67-4.64.36L298,87c-2.56,5.07-7.35,8-13.29,8.51-10.25.79-18.47-6.07-19.3-16.93S271.66,59.74,281.9,59a15.75,15.75,0,0,1,14.21,6l-1.66-21.58ZM297,76.13c-.65-8.4-6.82-13.56-14.4-13s-12.95,6.63-12.31,15,6.82,13.55,14.47,13S297.68,84.53,297,76.13Z"/><path class="cls-3" d="M308.3,75.26c-.82-10.72,6.38-18.83,17.1-19.66,6.08-.47,11.39,1.53,14.62,6l-3.43,2.74a12.25,12.25,0,0,0-10.86-4.52c-7.85.6-13.16,6.64-12.51,15s6.81,13.56,14.67,13a12.19,12.19,0,0,0,10-6.07L341.74,84c-2.51,4.87-7.44,7.72-13.52,8.19C317.5,93,309.13,86,308.3,75.26Z"/><path class="cls-3" d="M373.73,65.9l1.72,22.26-4.65.36-.43-5.6c-1.9,3.85-6,6.43-11.9,6.89-8.13.63-13.44-3.22-13.92-9.44-.42-5.53,2.77-10.45,13.08-11.24L369,68.25l-.17-2.19c-.47-6.14-4.21-9.22-10.91-8.71a18.36,18.36,0,0,0-11.62,5.16l-2.47-3.45c3.39-3.35,8.58-5.54,14.25-6C367.4,52.37,373,56.61,373.73,65.9Zm-4,11.84-.45-5.87-11.27.87c-7,.53-9,3.44-8.73,7.13.32,4.16,3.87,6.5,9.61,6.06C364.39,85.51,368.22,82.6,369.77,77.74Z"/><path class="cls-3" d="M379.91,83.69l1.89-4a21.78,21.78,0,0,0,13.08,3c6.83-.53,9.45-3.07,9.18-6.62-.72-9.35-23.44-.18-24.53-14.39-.46-5.87,4.26-10.63,13.41-11.34,4.64-.36,9.8.55,13,2.37l-1.82,4.06a18.36,18.36,0,0,0-10.82-2.26c-6.49.5-9.16,3.25-8.9,6.66.75,9.7,23.48.6,24.54,14.39.48,6.22-4.68,10.67-14,11.39C388.93,87.46,383,86,379.91,83.69Z"/><path class="cls-3" d="M433.94,81.46a11.64,11.64,0,0,1-7.39,3.11c-6.76.52-10.81-3-11.32-9.64l-1.67-21.72-6.42.49-.32-4.09,6.42-.5-.6-7.85,4.85-.37.6,7.85L429,47.9l.32,4.1-10.93.84,1.65,21.44c.33,4.24,2.69,6.39,6.72,6.08A8,8,0,0,0,432,78.11Z"/><g id="Page-1"><g id="_031---Microphone" data-name="031---Microphone"><path id="Shape" class="cls-4" d="M102.08,47.52,107,79.28,37.92,90,33,58.2c-3.17-20.47,9.73-39.45,28.81-42.4S98.92,27.05,102.08,47.52Z"/><path id="Shape-2" data-name="Shape" class="cls-5" d="M87.92,22.87a33.8,33.8,0,0,0-26.1-7.07,32.8,32.8,0,0,0-3.67.78C76,15.9,91.76,29.73,94.68,48.66l4.91,31.77L107,79.28l-4.92-31.76A38.91,38.91,0,0,0,87.92,22.87Z"/><path id="Shape-3" data-name="Shape" class="cls-6" d="M63.36,156.5l39.47-6.1a5.19,5.19,0,0,1,5.76,4.53l.82,5.3-49.34,7.62-.82-5.29A5.18,5.18,0,0,1,63.36,156.5Z"/><path id="Shape-4" data-name="Shape" class="cls-7" d="M102.83,150.4l-7.4,1.14a5.2,5.2,0,0,1,5.76,4.54l.81,5.29,7.41-1.14-.82-5.3A5.19,5.19,0,0,0,102.83,150.4Z"/><path id="Shape-5" data-name="Shape" class="cls-8" d="M86.4,142.1,88,152.69l-9.87,1.52-1.63-10.58"/><path id="Shape-6" data-name="Shape" class="cls-4" d="M89.58,130l1.34,8.66a2.59,2.59,0,0,1-2.06,3L74.06,144a2.6,2.6,0,0,1-2.88-2.27l-1.33-8.66a38.51,38.51,0,0,0,7.51-.42l4.93-.77A38.42,38.42,0,0,0,89.58,130Z"/><path id="Shape-7" data-name="Shape" class="cls-6" d="M117.27,80.41c3.37,21.78-8.3,42.69-27.69,49.62a38.42,38.42,0,0,1-7.29,1.86l-4.93.77a38.51,38.51,0,0,1-7.51.42c-20.58-.75-38-17.16-41.39-38.94a5.18,5.18,0,0,1,4.12-6.06,5.19,5.19,0,0,1,5.75,4.53c2.94,19,19.68,32.19,37.39,29.46l4.93-.77a31.34,31.34,0,0,0,21.12-13.58,36.16,36.16,0,0,0,5.64-25.79,5,5,0,1,1,9.86-1.52Z"/><path id="Shape-8" data-name="Shape" class="cls-7" d="M111.52,75.87a4.9,4.9,0,0,0-3.42,2.4,5.54,5.54,0,0,1,1.77,3.28c3.87,24.37-11.12,47.16-33.75,51.3l1.24-.19,4.93-.77A38.42,38.42,0,0,0,89.58,130c19.39-6.93,31.06-27.84,27.69-49.62A5.18,5.18,0,0,0,111.52,75.87Z"/><path id="Shape-9" data-name="Shape" class="cls-9" d="M107,79.28l.4,2.65a36.11,36.11,0,0,1-5.63,25.79A31.34,31.34,0,0,1,80.65,121.3l-4.93.77C58,124.8,41.27,111.62,38.33,92.61L37.92,90Z"/><path id="Shape-10" data-name="Shape" class="cls-10" d="M99.59,80.43l.41,2.65c2.88,18.49-8.39,35.8-25.51,39.18l1.23-.19,4.93-.77c17.72-2.73,29.69-20.36,26.75-39.37l-.4-2.65Z"/><path id="Shape-11" data-name="Shape" class="cls-11" d="M132.1,45.59a2.6,2.6,0,0,1-2.88-2.27A69.23,69.23,0,0,0,109.83,4.63,2.78,2.78,0,0,1,109,2.75a2.72,2.72,0,0,1,.66-1.91A2.38,2.38,0,0,1,111.41,0a2.43,2.43,0,0,1,1.81.75,75,75,0,0,1,20.94,41.81,2.6,2.6,0,0,1-2.06,3Z"/><path id="Shape-12" data-name="Shape" class="cls-11" d="M3.81,65.42A2.58,2.58,0,0,1,.94,63.16,74.77,74.77,0,0,1,8.3,17a2.38,2.38,0,0,1,3.38-1,2.7,2.7,0,0,1,1.21,1.62,2.82,2.82,0,0,1-.21,2A69.4,69.4,0,0,0,5.87,62.39,2.59,2.59,0,0,1,3.81,65.42Z"/><path id="Shape-13" data-name="Shape" class="cls-11" d="M122.23,47.11a2.6,2.6,0,0,1-2.88-2.26,58.35,58.35,0,0,0-15.81-32,2.85,2.85,0,0,1-.86-2.64,2.54,2.54,0,0,1,1.76-2,2.43,2.43,0,0,1,2.5.78,63.92,63.92,0,0,1,17.35,35.1A2.6,2.6,0,0,1,122.23,47.11Z"/><path id="Shape-14" data-name="Shape" class="cls-11" d="M13.68,63.9a2.6,2.6,0,0,1-2.88-2.27A63.88,63.88,0,0,1,16.75,23a2.38,2.38,0,0,1,3.31-.87,2.82,2.82,0,0,1,1.09,3.5,58.32,58.32,0,0,0-5.41,35.29A2.6,2.6,0,0,1,13.68,63.9Z"/><path id="Shape-15" data-name="Shape" class="cls-11" d="M112.36,48.64a2.58,2.58,0,0,1-2.87-2.27,47.08,47.08,0,0,0-12.8-25.91,2.83,2.83,0,0,1-.86-2.63,2.53,2.53,0,0,1,1.76-2,2.44,2.44,0,0,1,2.5.79,52.8,52.8,0,0,1,14.33,29A2.59,2.59,0,0,1,112.36,48.64Z"/><path id="Shape-16" data-name="Shape" class="cls-11" d="M23.55,62.37a2.6,2.6,0,0,1-2.88-2.27,53,53,0,0,1,4.89-31.95,2.44,2.44,0,0,1,2.13-1.38,2.55,2.55,0,0,1,2.22,1.31,2.85,2.85,0,0,1,.1,2.69,47.25,47.25,0,0,0-4.4,28.57,2.78,2.78,0,0,1-.44,2A2.42,2.42,0,0,1,23.55,62.37Z"/><path id="Shape-17" data-name="Shape" d="M111.11,73.23a6.84,6.84,0,0,0-2.39.85l-4.17-26.94c-3.39-21.93-22.71-37.15-43.14-34S27.15,36.65,30.54,58.58l4.17,27a7.07,7.07,0,0,0-6.58,2,8.25,8.25,0,0,0-2.14,7c3.45,22.22,20.76,39.27,41.72,41.09l1,6.51a5.17,5.17,0,0,0,5.75,4.53l.82,5.3L63,153.86a7.78,7.78,0,0,0-6.17,9.08l.82,5.3a2.58,2.58,0,0,0,2.87,2.26l49.35-7.63a2.58,2.58,0,0,0,2.05-3l-.82-5.29a7.77,7.77,0,0,0-8.62-6.8l-12.34,1.91-.82-5.29a5.19,5.19,0,0,0,4.12-6.06l-1-6.51c19.43-8.07,30.79-29.55,27.36-51.78A7.78,7.78,0,0,0,111.11,73.23ZM62.23,18.44C75.17,16.44,88.14,23,95.1,35L72.9,38.48a2.68,2.68,0,0,0,.82,5.29L97.5,40.09a39,39,0,0,1,1.71,5.16L74.54,49.07a2.68,2.68,0,0,0,.82,5.29L100,50.55l.82,5.29L76.18,59.65A2.69,2.69,0,0,0,77,65l24.67-3.81.82,5.29L77.81,70.24a2.69,2.69,0,0,0,.82,5.3l24.67-3.82.82,5.3L40,86.94l-.82-5.3,12.33-1.91a2.68,2.68,0,0,0-.82-5.29L38.34,76.35l-.82-5.3,12.34-1.91A2.68,2.68,0,0,0,49,63.85L36.7,65.76l-.82-5.3,12.34-1.9a2.69,2.69,0,0,0-.82-5.3L35.19,55.15a36.19,36.19,0,0,1,0-5.41L46.58,48a2.69,2.69,0,0,0-.82-5.3L35.9,44.2C38.89,30.6,49.28,20.45,62.23,18.44Zm42.71,63.87c2.71,17.55-8.34,33.82-24.69,36.35l-4.94.76C59,122,43.51,109.77,40.8,92.23Zm1.18,73,.41,2.65-44.41,6.87-.41-2.65a2.6,2.6,0,0,1,2.06-3l39.47-6.1A2.59,2.59,0,0,1,106.12,155.31Zm-21-4.89-4.94.77-.82-5.3,4.94-.76Zm3.29-11.35-14.8,2.29-.87-5.61a37.92,37.92,0,0,0,5-.45l4.93-.76a37.45,37.45,0,0,0,4.89-1.08Zm-6.57-9.82L77,130c-21.8,3.37-42.41-12.86-46-36.25A2.5,2.5,0,1,1,35.86,93c3.17,20.47,21.19,34.67,40.27,31.72l4.93-.76c19.08-3,32-21.93,28.81-42.4a2.51,2.51,0,1,1,4.94-.76C118.42,104.18,103.68,125.87,81.88,129.25Z"/><path id="Shape-18" data-name="Shape" d="M58.09,57l2.46-.38a2.69,2.69,0,0,0-.81-5.3l-2.47.39A2.68,2.68,0,0,0,58.09,57Z"/><path id="Shape-19" data-name="Shape" d="M59.72,67.62l2.47-.38a2.69,2.69,0,0,0-.82-5.3l-2.46.38a2.69,2.69,0,0,0,.81,5.3Z"/><path id="Shape-20" data-name="Shape" d="M56.45,46.44l2.47-.38a2.68,2.68,0,0,0-.82-5.29l-2.47.38a2.68,2.68,0,0,0,.82,5.29Z"/><path id="Shape-21" data-name="Shape" d="M61.36,78.21l2.47-.38a2.69,2.69,0,0,0-.82-5.3l-2.47.38a2.69,2.69,0,0,0,.82,5.3Z"/></g></g></g></g></svg>