<svg xmlns="http://www.w3.org/2000/svg" xmlns:xlink="http://www.w3.org/1999/xlink" viewBox="0 0 549.03 173.7"><defs><style>.cls-1,.cls-2,.cls-3{fill:none;}.cls-2,.cls-3{stroke:#e03a80;stroke-miterlimit:10;}.cls-2{stroke-width:2px;opacity:0.8;}.cls-3{opacity:0.35;}.cls-4{fill:#ffce00;}.cls-5{fill:#ff5d5d;}.cls-6{fill:#ade5ff;}.cls-7{fill:#fff;}.cls-8{fill:#ffc66c;}.cls-9{clip-path:url(#clip-path);}</style><clipPath id="clip-path" transform="translate(0)"><rect class="cls-1" width="172" height="173.7"/></clipPath></defs><g id="Camada_2" data-name="Camada 2"><g id="Layer_1" data-name="Layer 1"><polygon class="cls-2" points="548 99 110.26 127.26 85.55 50.07 545 5 548 99"/><polygon class="cls-3" points="534.81 111.5 96.18 115.16 75.83 36.71 537.09 17.48 534.81 111.5"/><path class="cls-4" d="M199.48,70.31l-.67,14.48,9.7-.74.29,3.75-10.18.79-.57,13.09-3.69.29.58-13.1-14,1.08-.65,13.1-3.68.28.57-13.09-9.7.74-.29-3.75,10.18-.79L178,72l-9.77.75L168,69l10.25-.79.57-13.09,3.75-.29-.63,13.1L196,66.81l.58-13.1,3.68-.29-.57,13.1,9.63-.74.29,3.76Zm-3.68.29-14,1.08-.73,14.48,14.06-1.08Z" transform="translate(0)"/><path class="cls-4" d="M212.64,53a3.52,3.52,0,0,1,3.29-3.69,3.46,3.46,0,0,1,3.81,3.07,3.56,3.56,0,0,1-7.1.62Zm2,11.25,4.85-.37,2.76,35.92-4.84.37Z" transform="translate(0)"/><path class="cls-4" d="M263.78,75.67l1.61,20.83-4.85.37L259,76.52c-.58-7.58-4.85-11.17-11.67-10.64-7.72.59-12.2,5.75-11.57,13.94l1.45,18.85-4.85.37-2.77-35.92,4.65-.36.51,6.63c2.26-4.57,6.91-7.47,13.13-8C256.59,60.76,263,65.36,263.78,75.67Z" transform="translate(0)"/><path class="cls-4" d="M269.85,92l1.89-4a21.85,21.85,0,0,0,13.08,3c6.83-.53,9.45-3.07,9.18-6.62-.72-9.36-23.44-.19-24.54-14.39-.45-5.88,4.27-10.64,13.42-11.34,4.64-.36,9.8.55,13,2.37l-1.82,4a18.43,18.43,0,0,0-10.82-2.25c-6.49.5-9.16,3.24-8.9,6.66.75,9.7,23.47.6,24.53,14.39.48,6.22-4.67,10.66-14,11.39C278.86,95.8,273,94.33,269.85,92Z" transform="translate(0)"/><path class="cls-4" d="M340.14,72.67c.85,10.93-6.24,18.89-16.48,19.68a15.71,15.71,0,0,1-14.21-6l1.55,20-4.85.38-3.79-49.18,4.64-.35.55,7.1c2.57-5,7.36-8,13.3-8.44C331.09,55,339.31,61.81,340.14,72.67Zm-4.84.38c-.65-8.34-6.89-13.56-14.47-13s-12.95,6.7-12.31,15,6.82,13.56,14.47,13S335.94,81.45,335.3,73.05Z" transform="translate(0)"/><path class="cls-4" d="M343.28,43a3.52,3.52,0,0,1,3.29-3.69,3.46,3.46,0,0,1,3.81,3.07,3.56,3.56,0,0,1-7.1.62Zm2,11.25,4.84-.37,2.77,35.92-4.85.37Z" transform="translate(0)"/><path class="cls-4" d="M378.28,51.39l.36,4.72c-.41,0-.82,0-1.17,0-7.51.58-11.72,5.71-11.06,14.18l1.41,18.3L363,89,360.2,53.06l4.64-.36.55,7C367.27,54.78,371.65,51.9,378.28,51.39Z" transform="translate(0)"/><path class="cls-4" d="M416.06,68.34,386,70.65c1.13,7.47,7.25,12,15.1,11.41a14.18,14.18,0,0,0,10.63-5.56l3,2.93c-2.92,4.07-7.75,6.51-13.41,6.94-11.21.87-19.44-6.19-20.26-16.85s6-18.81,16.14-19.58,18,6.1,18.82,16.89C416,67.24,416,67.79,416.06,68.34ZM385.73,67l25.48-2c-1.16-7-6.66-11.51-13.7-11S385.8,60,385.73,67Z" transform="translate(0)"/><path class="cls-4" d="M420.31,63.82l17.89-1.38.33,4.24-17.89,1.37Z" transform="translate(0)"/><path class="cls-4" d="M441.93,78.78l1.89-4a21.81,21.81,0,0,0,13.09,3c6.83-.52,9.45-3.06,9.17-6.61-.72-9.36-23.44-.19-24.53-14.39C441.1,51,445.81,46.19,455,45.49c4.65-.36,9.8.55,13,2.37l-1.81,4a18.53,18.53,0,0,0-10.82-2.26c-6.49.5-9.17,3.25-8.9,6.67.74,9.69,23.47.59,24.53,14.39.48,6.21-4.67,10.66-14,11.38C451,82.55,445.06,81.08,441.93,78.78Z" transform="translate(0)"/><path class="cls-4" d="M507.22,61.32l-30,2.31c1.12,7.47,7.24,12,15.09,11.41a14.22,14.22,0,0,0,10.64-5.56l3,2.93c-2.91,4.07-7.74,6.51-13.41,6.94-11.2.87-19.44-6.19-20.26-16.85s6-18.81,16.15-19.58,18,6.1,18.82,16.89C507.21,60.22,507.18,60.77,507.22,61.32ZM476.9,60l25.47-2c-1.16-7-6.66-11.51-13.69-11S477,52.93,476.9,60Z" transform="translate(0)"/><path class="cls-5" d="M94.49,27.84A77.47,77.47,0,0,0,41.77,50.49L23.7,68.57,103.12,148l18.08-18.07a77.47,77.47,0,0,0,22.65-52.73Zm0,0" transform="translate(0)"/><path class="cls-6" d="M88.09,133l45.3-45.31A119.15,119.15,0,0,0,168.3,3.39,119.17,119.17,0,0,0,84,38.29L38.73,83.6Zm0,0" transform="translate(0)"/><path class="cls-7" d="M75.37,120.24a66.88,66.88,0,0,1-38.26,19l-5.4.74.74-5.39a67,67,0,0,1,19-38.26Zm0,0" transform="translate(0)"/><path class="cls-8" d="M75.37,120.24a66.88,66.88,0,0,1-38.26,19l-5.4.74.74-5.39a67,67,0,0,1,19-38.26Zm0,0" transform="translate(0)"/><path class="cls-7" d="M104.1,81.16A13.57,13.57,0,1,1,90.53,67.59,13.57,13.57,0,0,1,104.1,81.16Zm0,0" transform="translate(0)"/><path class="cls-7" d="M138.2,47.06a13.57,13.57,0,1,1-13.57-13.57A13.57,13.57,0,0,1,138.2,47.06Zm0,0" transform="translate(0)"/><path d="M171.69,3.39A3.39,3.39,0,0,0,168.3,0,122.68,122.68,0,0,0,94.82,24.46l-.32,0h-.09a80.54,80.54,0,0,0-55,23.65L21.3,66.17a3.39,3.39,0,0,0,0,4.8l15,15L46.71,96.38a70.8,70.8,0,0,0-17.62,37.74l-.74,5.39a3.41,3.41,0,0,0,3.36,3.86,2.32,2.32,0,0,0,.46,0l5.4-.73A70.8,70.8,0,0,0,75.31,125l10.38,10.38,15,15a3.4,3.4,0,0,0,4.8,0l18.07-18.07a80.47,80.47,0,0,0,23.65-55,2.77,2.77,0,0,0,0-.41,122.52,122.52,0,0,0,15.13-26.58,121.92,121.92,0,0,0,9.33-46.9ZM44.17,52.89A73.67,73.67,0,0,1,85.73,32q-2.08,1.9-4.09,3.9L38.73,78.8,28.5,68.57Zm-7.52,83-1,.14.13-1a64,64,0,0,1,15.7-33.86l19,19a63.9,63.9,0,0,1-33.86,15.69Zm82.15-8.35-15.68,15.67L92.89,133l9.08-9.08a3.39,3.39,0,0,0-4.8-4.8l-9.08,9.08L77.77,117.84,43.53,83.6,86.44,40.69A115,115,0,0,1,164.85,6.83,115,115,0,0,1,131,85.25L117.44,98.81a3.39,3.39,0,0,0,4.79,4.8l13.56-13.56c1.34-1.34,2.64-2.7,3.91-4.1a73.67,73.67,0,0,1-20.9,41.57Zm0,0" transform="translate(0)"/><path d="M109.52,108.14a3.39,3.39,0,1,0,0,6.78,3.38,3.38,0,0,0,3.39-3.39,3.41,3.41,0,0,0-1-2.4,3.44,3.44,0,0,0-2.4-1Zm0,0" transform="translate(0)"/><path d="M102.53,69.16a17,17,0,1,0,5,12,16.88,16.88,0,0,0-5-12Zm-4.8,19.19a10.18,10.18,0,1,1,3-7.19,10.09,10.09,0,0,1-3,7.19Zm0,0" transform="translate(0)"/><path d="M124.63,64a17,17,0,1,0-12-5,16.89,16.89,0,0,0,12,5Zm-7.19-24.16a10.18,10.18,0,1,1-3,7.2,10.07,10.07,0,0,1,3-7.2Zm0,0" transform="translate(0)"/><g class="cls-9"><path d="M76.25,140,53.07,163.18a3.39,3.39,0,0,0,4.79,4.8L81.05,144.8a3.39,3.39,0,1,0-4.8-4.8Zm0,0" transform="translate(0)"/><path d="M17.31,113.16,1,129.47a3.39,3.39,0,0,0,4.8,4.8L22.1,118a3.39,3.39,0,0,0-4.79-4.8Zm0,0" transform="translate(0)"/></g><path d="M29.62,109a3.44,3.44,0,0,0,2.4-1,3.4,3.4,0,0,0,0-4.8,3.39,3.39,0,1,0-2.4,5.79Zm0,0" transform="translate(0)"/><path d="M43.43,152.5,28,167.91a3.39,3.39,0,1,0,4.8,4.79l15.41-15.4a3.39,3.39,0,0,0-4.8-4.8Zm0,0" transform="translate(0)"/></g></g></svg>