<svg xmlns="http://www.w3.org/2000/svg" xmlns:xlink="http://www.w3.org/1999/xlink" viewBox="0 0 1028.88 1028.88"><defs><style>.cls-1{fill:url(#Áåçûìÿííûé_ãðàäèåíò_42);}.cls-2{fill:url(#Áåçûìÿííûé_ãðàäèåíò_41);}.cls-3{fill:#fff;}.cls-4{fill:#003887;}.cls-5{fill:#5d9af0;}.cls-6{fill:#ffd354;}.cls-7{fill:#a3d4ff;}</style><linearGradient id="Áåçûìÿííûé_ãðàäèåíò_42" x1="514.44" x2="514.44" y2="1028.88" gradientUnits="userSpaceOnUse"><stop offset="0" stop-color="#96ccff"/><stop offset="0.93" stop-color="#5c96e5"/><stop offset="1" stop-color="#5892e3"/></linearGradient><linearGradient id="Áåçûìÿííûé_ãðàäèåíò_41" x1="515.66" y1="57.67" x2="515.66" y2="972.33" gradientUnits="userSpaceOnUse"><stop offset="0" stop-color="#d0c6cb"/><stop offset="0.08" stop-color="#ded7db"/><stop offset="0.21" stop-color="#ede9eb"/><stop offset="0.35" stop-color="#f7f6f6"/><stop offset="0.55" stop-color="#fdfdfd"/><stop offset="1" stop-color="#fff"/></linearGradient></defs><g id="Layer_2" data-name="Layer 2"><g id="Ñëîé_1" data-name="Ñëîé 1"><circle class="cls-1" cx="514.44" cy="514.44" r="514.44"/><circle class="cls-2" cx="515.66" cy="515" r="457.33"/><path class="cls-3" d="M515.66,71.55c249.69,0,452.62,200.11,457.22,448.71,0-2.87.11-5.74.11-8.62C973,259.06,768.23,54.31,515.66,54.31S58.33,259.06,58.33,511.64c0,2.88.05,5.75.11,8.62C63,271.66,266,71.55,515.66,71.55Z"/><path class="cls-4" d="M228.66,340.83a3.36,3.36,0,0,1-2.81-5.18,348.42,348.42,0,0,1,23.43-31.81,3.34,3.34,0,0,1,5.15,4.27,338.25,338.25,0,0,0-23,31.2A3.35,3.35,0,0,1,228.66,340.83Zm49.85-60.16a3.35,3.35,0,0,1-2.32-5.76q4.2-4,8.56-7.94c6.9-6.18,14.12-12.15,21.46-17.74a3.35,3.35,0,0,1,4.05,5.33c-7.2,5.48-14.28,11.33-21,17.4q-4.28,3.82-8.4,7.78A3.34,3.34,0,0,1,278.51,280.67Zm62.16-47.32a3.35,3.35,0,0,1-1.72-6.23A346.69,346.69,0,0,1,374,208.9a3.34,3.34,0,1,1,2.74,6.1,339.26,339.26,0,0,0-34.37,17.87A3.36,3.36,0,0,1,340.67,233.35Z"/><path class="cls-4" d="M515.63,869.31a350.67,350.67,0,0,1-35.88-1.86q-1.8-.18-3.57-.39a3.34,3.34,0,1,1,.75-6.64l3.51.38a345.72,345.72,0,0,0,35.19,1.81,3.35,3.35,0,0,1,0,6.7ZM438,860.49a3.27,3.27,0,0,1-.75-.09,346.88,346.88,0,0,1-37.94-11,3.35,3.35,0,0,1,2.24-6.31,340,340,0,0,0,37.2,10.83,3.35,3.35,0,0,1-.75,6.61Zm-73.63-26.12a3.36,3.36,0,0,1-1.47-.34,341.82,341.82,0,0,1-34.39-19.44,3.35,3.35,0,0,1,3.62-5.63A334.61,334.61,0,0,0,365.83,828a3.35,3.35,0,0,1-1.48,6.35Zm-65.66-42.29a3.28,3.28,0,0,1-2.12-.77,346.25,346.25,0,0,1-29-26.77,3.35,3.35,0,0,1,4.81-4.66,339.48,339.48,0,0,0,28.47,26.26,3.35,3.35,0,0,1-2.13,5.94ZM244.36,736a3.33,3.33,0,0,1-2.65-1.31,351,351,0,0,1-22.32-32.59,3.35,3.35,0,0,1,5.73-3.47,343,343,0,0,0,21.89,32,3.35,3.35,0,0,1-2.65,5.39ZM204,669.09a3.36,3.36,0,0,1-3.05-2,343.57,343.57,0,0,1-14.32-36.82,3.34,3.34,0,1,1,6.36-2.06A337.35,337.35,0,0,0,207,664.35a3.34,3.34,0,0,1-1.65,4.43A3.27,3.27,0,0,1,204,669.09Z"/><path class="cls-4" d="M830.47,660.05a3.27,3.27,0,0,1-1.29-.26,3.35,3.35,0,0,1-1.79-4.38,339.85,339.85,0,0,0,13-36.52,3.34,3.34,0,1,1,6.42,1.87A345.16,345.16,0,0,1,833.56,658,3.35,3.35,0,0,1,830.47,660.05Zm21.86-75a3.66,3.66,0,0,1-.57,0,3.34,3.34,0,0,1-2.73-3.86c1.25-7.35,2.28-14.85,3.05-22.28.55-5.4,1-10.86,1.29-16.22a3.3,3.3,0,0,1,3.53-3.16,3.35,3.35,0,0,1,3.15,3.53c-.31,5.47-.75,11-1.32,16.54-.78,7.58-1.83,15.22-3.11,22.71A3.34,3.34,0,0,1,852.33,585.05Zm4.32-78a3.35,3.35,0,0,1-3.34-3.15,337.68,337.68,0,0,0-4.5-38.47,3.35,3.35,0,1,1,6.59-1.16A344.23,344.23,0,0,1,860,503.5a3.35,3.35,0,0,1-3.14,3.54Zm-13.54-76.92a3.36,3.36,0,0,1-3.21-2.39,339.85,339.85,0,0,0-13.17-36.43,3.34,3.34,0,0,1,6.15-2.63,345.28,345.28,0,0,1,13.44,37.15,3.34,3.34,0,0,1-2.25,4.16A3.19,3.19,0,0,1,843.11,430.13Zm-30.73-71.81a3.36,3.36,0,0,1-2.91-1.69,343.73,343.73,0,0,0-21.08-32.5,3.35,3.35,0,1,1,5.4-4,352.07,352.07,0,0,1,21.5,33.14,3.35,3.35,0,0,1-1.25,4.57A3.3,3.3,0,0,1,812.38,358.32Zm-46.17-63a3.33,3.33,0,0,1-2.45-1.07,342.28,342.28,0,0,0-27.87-26.93,3.35,3.35,0,1,1,4.37-5.07,349,349,0,0,1,28.41,27.45,3.35,3.35,0,0,1-.19,4.73A3.29,3.29,0,0,1,766.21,295.3Z"/><circle class="cls-5" cx="515.29" cy="524.01" r="251.34"/><path class="cls-3" d="M211.27,466.58a9.59,9.59,0,0,1-9.66-9.52V412.28a9.73,9.73,0,0,1,9.74-9.73h65.92a9.73,9.73,0,0,1,9.73,9.73v44.57a9.73,9.73,0,0,1-9.73,9.73h-66Z"/><path class="cls-4" d="M277.27,469.93h-66a13,13,0,0,1-13-12.87V412.28a13.1,13.1,0,0,1,13.08-13.08h65.92a13.1,13.1,0,0,1,13.08,13.08v44.57A13.09,13.09,0,0,1,277.27,469.93Zm-65.92-64a6.4,6.4,0,0,0-6.39,6.39v44.78a6.25,6.25,0,0,0,6.31,6.18h66a6.39,6.39,0,0,0,6.38-6.39V412.28a6.39,6.39,0,0,0-6.38-6.39Z"/><path class="cls-3" d="M254.47,425.85c0-7.23-7.55-12.7-15.19-9a8.61,8.61,0,0,0-3.85,3.79,10.29,10.29,0,0,0,2.78,13.25v12.67a5.67,5.67,0,0,0,5.67,5.67h.86a5.67,5.67,0,0,0,5.67-5.67V433.94A10.13,10.13,0,0,0,254.47,425.85Z"/><path class="cls-4" d="M244.74,455.63h-.86a9,9,0,0,1-9-9V435.46a13.55,13.55,0,0,1-2.41-16.27,11.86,11.86,0,0,1,5.35-5.29,13.84,13.84,0,0,1,13.65.48,13.47,13.47,0,0,1,6.37,11.47,13.32,13.32,0,0,1-4.07,9.62v11.14A9,9,0,0,1,244.74,455.63ZM244.3,419a8,8,0,0,0-3.55.88,5.21,5.21,0,0,0-2.33,2.29,7,7,0,0,0,1.81,9.07,3.33,3.33,0,0,1,1.33,2.67v12.67a2.32,2.32,0,0,0,2.32,2.32h.86a2.32,2.32,0,0,0,2.32-2.32V433.94a3.33,3.33,0,0,1,1.33-2.67A6.8,6.8,0,0,0,244.3,419Z"/><path class="cls-4" d="M268.7,405.89a3.35,3.35,0,0,1-3.35-3.34v-8.3a21,21,0,0,0-42.09,0v8.3a3.35,3.35,0,0,1-6.69,0v-8.3a27.74,27.74,0,0,1,55.48,0v8.3A3.35,3.35,0,0,1,268.7,405.89Z"/><path class="cls-6" d="M342.14,446.34l-.06,35.88,21.47-23.62-.06-.06h59.06a14.12,14.12,0,0,0,14.12-14.12V405.57a14.12,14.12,0,0,0-14.12-14.12H356.26a14.12,14.12,0,0,0-14.12,14.12v40.77Z"/><path class="cls-4" d="M342.07,485.57a3.46,3.46,0,0,1-1.21-.23,3.34,3.34,0,0,1-2.13-3.13l.06-76.64a17.49,17.49,0,0,1,17.47-17.47h66.3A17.49,17.49,0,0,1,440,405.57v38.85a17.49,17.49,0,0,1-17.46,17.47H365.09l-20.54,22.58A3.36,3.36,0,0,1,342.07,485.57Zm14.19-90.77a10.78,10.78,0,0,0-10.77,10.77v40.77h0l-.05,27.2,15.25-16.78a3.31,3.31,0,0,1,2.8-1.58h59.07a10.79,10.79,0,0,0,10.77-10.77V405.57a10.79,10.79,0,0,0-10.77-10.77Zm-14.12,51.54h0Z"/><path class="cls-3" d="M363.49,415.85h0Z"/><path class="cls-4" d="M419.82,419.19H363.49a3.35,3.35,0,1,1,0-6.69h56.33a3.35,3.35,0,1,1,0,6.69Z"/><path class="cls-3" d="M363.49,434.14h0Z"/><path class="cls-4" d="M418.38,437.49H363.49a3.35,3.35,0,0,1,0-6.7h54.89a3.35,3.35,0,0,1,0,6.7Z"/><path class="cls-3" d="M200.38,493.8h15.69a7.42,7.42,0,0,1,7.41,7.42v57.35a7.42,7.42,0,0,1-7.41,7.42H141.38a7.42,7.42,0,0,1-7.41-7.42V501.22a7.42,7.42,0,0,1,7.41-7.42h59Z"/><path class="cls-4" d="M216.07,569.34H141.38a10.78,10.78,0,0,1-10.76-10.77V501.22a10.77,10.77,0,0,1,10.76-10.76h74.69a10.77,10.77,0,0,1,10.76,10.76v57.35A10.78,10.78,0,0,1,216.07,569.34Zm-74.69-72.19a4.07,4.07,0,0,0-4.07,4.07v57.35a4.07,4.07,0,0,0,4.07,4.07h74.69a4.07,4.07,0,0,0,4.06-4.07V501.22a4.07,4.07,0,0,0-4.06-4.07Z"/><circle class="cls-6" cx="159.95" cy="516.9" r="8.66" transform="translate(-379.87 553.82) rotate(-76.72)"/><path class="cls-4" d="M160,528.91a12,12,0,1,1,12-12A12,12,0,0,1,160,528.91Zm0-17.32a5.32,5.32,0,1,0,5.31,5.31A5.32,5.32,0,0,0,160,511.59Z"/><path class="cls-7" d="M223.48,545.94v12.64a7.42,7.42,0,0,1-7.42,7.41H141.38a7.41,7.41,0,0,1-7.41-7.41V547.19l5.32-5a11,11,0,0,1,14.83,0,11,11,0,0,0,14.84,0l17.86-16.71a11,11,0,0,1,14.84,0Z"/><path class="cls-4" d="M216.07,569.34H141.38a10.78,10.78,0,0,1-10.76-10.76V547.19a3.32,3.32,0,0,1,1.07-2.44l5.31-5a14.4,14.4,0,0,1,19.41,0,7.86,7.86,0,0,0,10.27,0l17.85-16.7a14.41,14.41,0,0,1,19.41,0l21.82,20.42a3.35,3.35,0,0,1,1.06,2.45v12.64A10.77,10.77,0,0,1,216.07,569.34Zm-78.75-20.7v9.94a4.06,4.06,0,0,0,4.06,4.06h74.69a4.06,4.06,0,0,0,4.06-4.06V547.39L199.37,528a7.6,7.6,0,0,0-10.26,0l-17.86,16.7a14.35,14.35,0,0,1-19.4,0,7.71,7.71,0,0,0-10.27,0Z"/><path class="cls-7" d="M134,549v0Z"/><path class="cls-4" d="M134,552.32a3.36,3.36,0,0,1-3.35-3.35v-1.78a3.35,3.35,0,0,1,6.7,0V549A3.35,3.35,0,0,1,134,552.32Z"/><path class="cls-7" d="M223.48,548.47v0Z"/><path class="cls-4" d="M223.48,551.82a3.35,3.35,0,0,1-3.35-3.35v-2.53a3.35,3.35,0,1,1,6.69,0v2.53A3.35,3.35,0,0,1,223.48,551.82Z"/><path class="cls-3" d="M286.22,481.56l17.06,51.73Z"/><path class="cls-4" d="M303.28,536.64a3.34,3.34,0,0,1-3.18-2.3L283,482.61a3.34,3.34,0,0,1,6.35-2.09l17.06,51.72a3.34,3.34,0,0,1-2.13,4.23A3.19,3.19,0,0,1,303.28,536.64Z"/><path class="cls-3" d="M345,503.18l-9.93,30.11Z"/><path class="cls-4" d="M335.08,536.64a3.21,3.21,0,0,1-1.05-.17,3.35,3.35,0,0,1-2.13-4.23l9.93-30.11a3.35,3.35,0,0,1,6.36,2.09l-9.94,30.12A3.34,3.34,0,0,1,335.08,536.64Z"/><path class="cls-3" d="M270.51,555.85l-18.71-14.3Z"/><path class="cls-4" d="M270.51,559.2a3.28,3.28,0,0,1-2-.69L249.77,544.2a3.34,3.34,0,1,1,4.06-5.31l18.71,14.31a3.34,3.34,0,0,1-2,6Z"/><path class="cls-3" d="M361.72,555.85l18.71-14.3Z"/><path class="cls-4" d="M361.72,559.2a3.34,3.34,0,0,1-2-6l18.71-14.31a3.34,3.34,0,1,1,4.06,5.31l-18.71,14.31A3.28,3.28,0,0,1,361.72,559.2Z"/><rect class="cls-3" x="408.41" y="495.3" width="93.48" height="69.19" rx="9.25"/><path class="cls-4" d="M492.64,567.84h-75a12.61,12.61,0,0,1-12.6-12.6V504.55a12.61,12.61,0,0,1,12.6-12.6h75a12.61,12.61,0,0,1,12.6,12.6v50.69A12.61,12.61,0,0,1,492.64,567.84Zm-75-69.19a5.91,5.91,0,0,0-5.91,5.9v50.69a5.91,5.91,0,0,0,5.91,5.9h75a5.91,5.91,0,0,0,5.91-5.9V504.55a5.91,5.91,0,0,0-5.91-5.9Z"/><polygon class="cls-6" points="441.55 548.82 441.47 529.89 441.39 510.96 457.82 520.36 474.26 529.75 457.9 539.29 441.55 548.82"/><path class="cls-4" d="M441.55,552.17a3.36,3.36,0,0,1-3.35-3.34L438,511a3.37,3.37,0,0,1,1.67-2.9,3.32,3.32,0,0,1,3.34,0l32.87,18.8a3.34,3.34,0,0,1,0,5.79l-32.71,19.07A3.37,3.37,0,0,1,441.55,552.17Zm3.21-35.43.11,26.27,22.69-13.23Z"/><path class="cls-3" d="M385.42,629.35c0,36.59-30.84,66.25-68.88,66.25s-68.89-29.66-68.89-66.25,30.84-66.25,68.89-66.25S385.42,592.76,385.42,629.35Z"/><path class="cls-4" d="M316.54,699c-39.83,0-72.24-31.22-72.24-69.6s32.41-69.59,72.24-69.59,72.23,31.22,72.23,69.59S356.36,699,316.54,699Zm0-132.5c-36.14,0-65.54,28.22-65.54,62.9s29.4,62.9,65.54,62.9,65.53-28.21,65.53-62.9S352.68,566.45,316.54,566.45Z"/><path class="cls-7" d="M363.38,677.92A70.9,70.9,0,0,1,268.7,677a40,40,0,0,1,28.05-10.6l4.83,0,30.39.45,3.28,0C346,667.09,356.5,671.28,363.38,677.92Z"/><path class="cls-4" d="M316.53,698.94a73.42,73.42,0,0,1-50.11-19.47,3.34,3.34,0,0,1-1.07-2.45,3.39,3.39,0,0,1,1.06-2.45,42.7,42.7,0,0,1,30.4-11.51l4.79,0,33.69.49c11.49.16,22.86,4.62,30.41,11.93a3.34,3.34,0,0,1-.1,4.9A73.49,73.49,0,0,1,316.53,698.94Zm-42.7-21.88a67.69,67.69,0,0,0,84.38.84,39.69,39.69,0,0,0-23-7.62l-38.49-.52A36.16,36.16,0,0,0,273.83,677.06Z"/><path class="cls-4" d="M268.5,680.5a3.31,3.31,0,0,1-2.43-5.58l.22-.23a3.35,3.35,0,0,1,4.82,4.65l-.16.16A3.49,3.49,0,0,1,268.5,680.5Z"/><path class="cls-3" d="M330,653.8v12.87l-.08-.65a13.77,13.77,0,0,1-27.52,0l-.26.65V653.8Z"/><path class="cls-4" d="M316.17,682.6a17,17,0,0,1-16.94-14.31,3.34,3.34,0,0,1-.42-1.62V653.8a3.35,3.35,0,0,1,6.7,0v10.93a3.45,3.45,0,0,1,.25,1.29,10.43,10.43,0,0,0,20.83,0,3.47,3.47,0,0,1,.08-.73V653.8a3.35,3.35,0,1,1,6.69,0v12.87a3.35,3.35,0,0,1-.17,1.05A16.94,16.94,0,0,1,316.17,682.6Z"/><path class="cls-3" d="M346.14,631.22c-.05.38-.1.76-.16,1.13-2.25,13.64-14.52,24.06-29.34,24.06-14,0-25.7-9.28-28.86-21.79-.17-.67-.31-1.34-.43-2,0,0,.46-33.65,28.83-31.14s30,29.75,30,29.75Z"/><path class="cls-4" d="M316.64,659.76c-15.28,0-28.48-10-32.1-24.32-.19-.74-.34-1.48-.48-2.21a3.68,3.68,0,0,1-.06-.66c0-.74.38-18.19,11.31-28.07,5.52-5,12.64-7.13,21.16-6.36,30.89,2.72,33,32.58,33,32.88a2.58,2.58,0,0,1,0,.62c0,.41-.11.81-.17,1.21C346.71,648.46,333,659.76,316.64,659.76ZM290.7,632.35c.1.49.21,1,.33,1.46,2.86,11.33,13.4,19.25,25.61,19.25,13.06,0,24-8.94,26-21.25l.1-.69c-.28-3-3.08-24.21-26.9-26.32-6.56-.59-12,1-16.06,4.65C291.75,616.72,290.81,630.14,290.7,632.35Z"/><path class="cls-6" d="M346,632.21c16.39-32.13-5.65-50.67-5.65-50.67h-.12s2.05,5.91-4.09,7.88-26.49-2-38.93,2a23.41,23.41,0,0,0-12.42,10.25c-8.07,13.39,2.78,33.1,2.78,33.1s3-16,8.81-20.08c11.86-8.3,31.5.77,41.74-3.17,0,0,7.74,9.8,7.74,20.4Z"/><path class="cls-4" d="M287.54,638.08a3.33,3.33,0,0,1-2.93-1.73c-.48-.88-11.68-21.56-2.72-36.44a26.54,26.54,0,0,1,14.27-11.7c7.87-2.53,18.36-2.1,26.77-1.76,5,.21,10.18.41,12.15-.21a2.6,2.6,0,0,0,1.94-3.65,3.43,3.43,0,0,1,.49-3,3.58,3.58,0,0,1,5-.6c.24.2,23.87,20.65,6.48,54.75a3.51,3.51,0,0,1-6.47-1.84c0-6.84-3.73-13.45-5.75-16.53-4.58,1-10,.39-15.64-.21-8.35-.9-17-1.83-22.82,2.25-3.23,2.26-6.3,11.86-7.44,18a3.35,3.35,0,0,1-2.76,2.69A3.23,3.23,0,0,1,287.54,638.08Zm25.56-45.2c-5.35,0-10.72.36-14.9,1.7a20.06,20.06,0,0,0-10.57,8.78c-3.82,6.35-2.63,14.63-.75,20.84,1.66-4.77,4.12-9.88,7.55-12.28,7.9-5.53,18.26-4.41,27.38-3.43,5.93.64,11.53,1.25,15.08-.12a3.33,3.33,0,0,1,3.83,1A46.19,46.19,0,0,1,347,620.76c4.41-15.23-.54-26.08-4.62-31.86a9.68,9.68,0,0,1-5.22,3.71c-3.1,1-8.12.79-14.47.53C319.66,593,316.38,592.88,313.1,592.88Z"/><path class="cls-3" d="M415.25,200v95.8A19.12,19.12,0,0,0,434.33,315H557.48l43.75,31.77V315h57.89a19.13,19.13,0,0,0,19.09-19.18V200a19.13,19.13,0,0,0-19.09-19.18H434.33A19.12,19.12,0,0,0,415.25,200Z"/><path class="cls-4" d="M601.24,350.08a3.36,3.36,0,0,1-2-.64L556.4,318.31H434.33a22.5,22.5,0,0,1-22.43-22.52V200a22.51,22.51,0,0,1,22.43-22.53H659.12A22.51,22.51,0,0,1,681.55,200v95.81a22.5,22.5,0,0,1-22.43,22.52H604.58v28.42a3.34,3.34,0,0,1-1.82,3A3.41,3.41,0,0,1,601.24,350.08ZM434.33,184.15A15.8,15.8,0,0,0,418.59,200v95.81a15.8,15.8,0,0,0,15.74,15.83H557.48a3.31,3.31,0,0,1,2,.64l38.44,27.91V315a3.35,3.35,0,0,1,3.35-3.34h57.88a15.8,15.8,0,0,0,15.74-15.83V200a15.8,15.8,0,0,0-15.74-15.83Z"/><path class="cls-3" d="M614.57,485.9c12.46.86,25.25,2.92,33.59,7.59,25.47,14.29,42.17,13.29,63.76,13.29h48.94c10.61,0,17.78-7.38,18.23-17,.48-10.24-7.64-15.95-17.73-15.95l12.56-67.23c9.81,0,17.75-5.24,17.75-15.09s-7.17-16.72-17.75-17.83c0,0-22.69-2.19-71.38-.15a1.89,1.89,0,0,1-1.71-2.78c8.15-17.2,20-30.75,25.4-60.48v0c1.86-10.74-3.84-18.75-9.47-21.26-6.64-3-17.65-2-21,10.38-13.15,30.8-23.27,38.07-36.93,54.22-14.09,16.67-22.39,29.18-26.92,31.31-4,1.87-10.33,2.89-17.38,3.48Z"/><path class="cls-4" d="M704.26,510.14c-18.21,0-34.63-.77-57.74-13.73-6.68-3.74-17.51-6.16-32.18-7.17a3.35,3.35,0,1,1,.46-6.68c15.89,1.1,27.33,3.72,35,8,23.14,13,38.63,12.93,58.18,12.87h52.6c8.81,0,14.79-5.54,15.17-13.79a10.73,10.73,0,0,0-2.83-8.27c-2.56-2.69-6.67-4.17-11.55-4.17a3.37,3.37,0,0,1-3.29-4L770.63,406a3.35,3.35,0,0,1,3.29-2.74c7,0,14.4-3.08,14.4-11.74,0-8-5.65-13.55-14.75-14.51-.19,0-23.06-2.14-70.89-.12a5.18,5.18,0,0,1-4.52-2.31,5.37,5.37,0,0,1-.36-5.25c2.25-4.74,4.71-9.1,7.31-13.72,6.86-12.18,13.95-24.77,17.83-45.93,0-.06,0-.11,0-.17,1.63-9.5-3.77-15.78-7.57-17.47a12.66,12.66,0,0,0-10.25-.06c-3,1.42-5,4.2-6.13,8.26a4,4,0,0,1-.15.45c-10.77,25.22-19.59,35-29.79,46.35-2.45,2.73-5,5.55-7.66,8.71-5,6-9.28,11.31-13,16-7.13,9-11.43,14.45-15,16.15-3.88,1.83-10,3.07-18.54,3.78a3.35,3.35,0,0,1-.55-6.67c7.67-.63,13.13-1.7,16.24-3.16,2.18-1,7-7.16,12.64-14.25,3.76-4.76,8-10.15,13.15-16.2,2.72-3.22,5.3-6.09,7.79-8.86,9.78-10.86,18.23-20.25,28.52-44.3,2-7.35,6.36-10.76,9.65-12.33a19.18,19.18,0,0,1,15.85,0c7.25,3.23,13.5,12.81,11.41,24.89l0,.15c-4.08,22.21-11.78,35.87-18.57,47.93-2.15,3.8-4.19,7.43-6.07,11.2,46.67-1.86,68.45.17,69.37.26,12.44,1.31,20.78,9.81,20.78,21.16,0,10.19-7.24,17.29-18.3,18.31l-11.38,60.93a21,21,0,0,1,12.42,6A17.44,17.44,0,0,1,782.43,490c-.55,11.68-9.62,20.16-21.57,20.16h-56.6Z"/><path class="cls-3" d="M743.2,473.86H769A17.8,17.8,0,0,0,786.76,456c0-9.85-8-16.46-17.75-16.46h9c9.8,0,18.38-8,17.75-17.84-.65-10.12-9.5-15.09-17.75-15.09H743.2Z"/><path class="cls-4" d="M769,477.21H743.2a3.35,3.35,0,0,1,0-6.7H769A14.46,14.46,0,0,0,783.41,456c0-7.6-6.06-13.11-14.4-13.11H743.2a3.35,3.35,0,0,1,0-6.7H778a15,15,0,0,0,10.86-4.69,12.78,12.78,0,0,0,3.55-9.58c-.52-8.22-7.83-12-14.41-12H743.2a3.35,3.35,0,0,1,0-6.7H778c9.9,0,20.33,6.26,21.09,18.23a19.38,19.38,0,0,1-5.36,14.59,21.61,21.61,0,0,1-9.56,5.9,19.17,19.17,0,0,1,5.91,14A21.17,21.17,0,0,1,769,477.21Z"/><path class="cls-6" d="M456.51,226.13l6.48,15a.42.42,0,0,0,.35.25l16.31,1.51a.42.42,0,0,1,.24.73l-12.31,10.81a.44.44,0,0,0-.13.41l3.6,16a.42.42,0,0,1-.63.45L456.33,263a.4.4,0,0,0-.42,0l-14.09,8.35a.42.42,0,0,1-.62-.45l3.59-16a.4.4,0,0,0-.13-.41l-12.3-10.81a.42.42,0,0,1,.23-.73l16.32-1.51a.42.42,0,0,0,.34-.25l6.49-15A.42.42,0,0,1,456.51,226.13Z"/><path class="cls-4" d="M441.61,274.71a3.78,3.78,0,0,1-3.68-4.59l3.22-14.28-11-9.66a3.76,3.76,0,0,1,2.14-6.58l14.58-1.36,5.79-13.43a3.77,3.77,0,0,1,6.92,0h0l5.79,13.43L480,239.6a3.77,3.77,0,0,1,2.15,6.57l-11,9.67,3.21,14.27a3.77,3.77,0,0,1-5.6,4.07l-12.59-7.47-12.6,7.47A3.75,3.75,0,0,1,441.61,274.71Zm-1.5-6.29Zm32,0h0Zm-17.49-2.59h0Zm3,0h0Zm-1.5-6.28a3.84,3.84,0,0,1,1.93.53l8.24,4.89-2.1-9.35a3.73,3.73,0,0,1,1.18-3.65l7.2-6.32-9.54-.89a3.77,3.77,0,0,1-3.1-2.24l-3.81-8.82-3.8,8.8a3.74,3.74,0,0,1-3.1,2.26l-9.55.89,7.2,6.32a3.78,3.78,0,0,1,1.2,3.61L446,265l8.25-4.89A3.78,3.78,0,0,1,456.12,259.54Zm14.59-5.41v0Zm-24.52-14.31s0,0,0,.05Zm19.87,0h0Z"/><path class="cls-6" d="M516.44,226.13l6.48,15a.44.44,0,0,0,.35.25l16.31,1.51a.42.42,0,0,1,.24.73l-12.3,10.81a.43.43,0,0,0-.14.41l3.6,16a.42.42,0,0,1-.62.45L516.27,263a.42.42,0,0,0-.43,0l-14.09,8.35a.42.42,0,0,1-.62-.45l3.6-16a.43.43,0,0,0-.14-.41l-12.3-10.81a.42.42,0,0,1,.24-.73l16.31-1.51a.42.42,0,0,0,.34-.25l6.49-15A.42.42,0,0,1,516.44,226.13Z"/><path class="cls-4" d="M530.57,274.71a3.78,3.78,0,0,1-1.92-.53l-12.6-7.47-12.59,7.47a3.76,3.76,0,0,1-5.59-4.08l3.21-14.26-11-9.66a3.76,3.76,0,0,1,2.13-6.57l14.59-1.37,5.8-13.43a3.76,3.76,0,0,1,6.91,0h0l5.8,13.43,14.58,1.36a3.77,3.77,0,0,1,2.15,6.57l-11,9.67,3.21,14.27a3.74,3.74,0,0,1-1.45,3.87A3.78,3.78,0,0,1,530.57,274.71Zm-2.86-3.14s0,0,0,0Zm-23.31,0v0Zm27.66-3.14Zm-17.5-2.59.06,0Zm3,0-.06,0Zm-18-20.17,7.2,6.32a3.77,3.77,0,0,1,1.18,3.67l-2.1,9.33,8.26-4.89a3.72,3.72,0,0,1,3.87,0l8.21,4.87-2.1-9.35a3.73,3.73,0,0,1,1.16-3.62l7.22-6.35-9.54-.89a3.78,3.78,0,0,1-3.12-2.29l-3.79-8.77-3.79,8.8a3.77,3.77,0,0,1-3.1,2.26Zm1.86,8.5a0,0,0,0,1,0,0Zm29.18,0v0Zm-24.52-14.31s0,0,0,.05Zm19.85,0,0,.05Zm-12.6-12.33Z"/><path class="cls-6" d="M576.37,226.13l6.49,15a.42.42,0,0,0,.34.25l16.31,1.51a.42.42,0,0,1,.24.73l-12.3,10.81a.4.4,0,0,0-.13.41l3.59,16a.42.42,0,0,1-.62.45L576.2,263a.42.42,0,0,0-.43,0l-14.09,8.35a.42.42,0,0,1-.62-.45l3.6-16a.44.44,0,0,0-.13-.41l-12.31-10.81a.42.42,0,0,1,.24-.73l16.31-1.51a.44.44,0,0,0,.35-.25l6.48-15A.42.42,0,0,1,576.37,226.13Z"/><path class="cls-4" d="M561.47,274.71a3.78,3.78,0,0,1-3.68-4.59L561,255.84l-11-9.66a3.77,3.77,0,0,1,2.14-6.58l14.58-1.36,5.8-13.43a3.76,3.76,0,0,1,6.91,0h0l5.8,13.43,14.58,1.36a3.77,3.77,0,0,1,2.15,6.57l-11,9.67,3.22,14.27a3.77,3.77,0,0,1-5.6,4.07L576,266.71l-12.6,7.47A3.78,3.78,0,0,1,561.47,274.71ZM560,268.42h0Zm32,0h0Zm-17.49-2.59h0Zm3,0h0Zm-1.5-6.28a3.84,3.84,0,0,1,1.93.53l8.24,4.89-2.11-9.35a3.76,3.76,0,0,1,1.19-3.65l7.2-6.32-9.55-.89a3.77,3.77,0,0,1-3.1-2.24l-3.8-8.82-3.8,8.8a3.75,3.75,0,0,1-3.11,2.26l-9.54.89,7.19,6.32a3.78,3.78,0,0,1,1.2,3.61L565.82,265l8.25-4.89A3.75,3.75,0,0,1,576,259.54Zm14.59-5.41v0Zm-24.53-14.31s0,0,0,.05Zm19.88,0h0ZM573.3,227.46h0Z"/><path class="cls-6" d="M636.3,226.13l6.49,15a.42.42,0,0,0,.35.25l16.31,1.51a.42.42,0,0,1,.23.73l-12.3,10.81a.44.44,0,0,0-.13.41l3.59,16a.41.41,0,0,1-.62.45L636.13,263a.4.4,0,0,0-.42,0l-14.09,8.35a.41.41,0,0,1-.62-.45l3.59-16a.44.44,0,0,0-.13-.41l-12.3-10.81a.42.42,0,0,1,.23-.73l16.31-1.51a.42.42,0,0,0,.35-.25l6.49-15A.42.42,0,0,1,636.3,226.13Z"/><path class="cls-4" d="M650.44,274.71a3.84,3.84,0,0,1-1.93-.53l-12.59-7.47-12.6,7.47a3.77,3.77,0,0,1-5.59-4.08l3.21-14.26-11-9.66a3.76,3.76,0,0,1,2.13-6.57l14.58-1.37,5.8-13.43a3.77,3.77,0,0,1,6.92,0h0l5.79,13.43,14.59,1.36a3.76,3.76,0,0,1,2.14,6.57l-11,9.67,3.22,14.27a3.77,3.77,0,0,1-3.67,4.6Zm-2.86-3.14v0Zm-23.31,0v0S624.26,271.56,624.27,271.56Zm27.65-3.14h0Zm-17.49-2.59.05,0Zm3,0-.06,0Zm-18-20.17,7.2,6.32a3.77,3.77,0,0,1,1.18,3.67l-2.1,9.33,8.25-4.89a3.72,3.72,0,0,1,3.87,0l8.22,4.87L644,255.61a3.75,3.75,0,0,1,1.16-3.62l7.23-6.35-9.55-.89a3.79,3.79,0,0,1-3.12-2.29l-3.78-8.77-3.8,8.8a3.76,3.76,0,0,1-3.1,2.26Zm1.86,8.5a0,0,0,0,0,0,0Zm29.18,0v0ZM626,239.82l0,.05Zm19.85,0,0,.05A.08.08,0,0,0,645.84,239.79Zm-12.61-12.33Z"/><rect class="cls-7" x="571.15" y="378.77" width="43.42" height="117" rx="7.81"/><path class="cls-4" d="M606.76,499.11H579A11.17,11.17,0,0,1,567.8,488V386.58A11.18,11.18,0,0,1,579,375.42h27.8a11.18,11.18,0,0,1,11.16,11.16V488A11.17,11.17,0,0,1,606.76,499.11Zm-27.8-117a4.46,4.46,0,0,0-4.46,4.46V488a4.47,4.47,0,0,0,4.46,4.47h27.8a4.47,4.47,0,0,0,4.46-4.47V386.58a4.46,4.46,0,0,0-4.46-4.46Z"/><circle class="cls-3" cx="592.86" cy="473.86" r="7.83"/><path class="cls-4" d="M592.86,485A11.18,11.18,0,1,1,604,473.86,11.2,11.2,0,0,1,592.86,485Zm0-15.67a4.49,4.49,0,1,0,4.49,4.49A4.49,4.49,0,0,0,592.86,469.37Z"/><ellipse class="cls-3" cx="531.35" cy="622.15" rx="25.14" ry="26.02"/><path class="cls-4" d="M531.35,651.52c-15.71,0-28.49-13.18-28.49-29.37s12.78-29.37,28.49-29.37,28.48,13.17,28.48,29.37S547.05,651.52,531.35,651.52Zm0-52c-12,0-21.79,10.17-21.79,22.68s9.77,22.67,21.79,22.67,21.79-10.17,21.79-22.67S543.36,599.47,531.35,599.47Z"/><path class="cls-3" d="M579.5,720.86s-2.34-50.52-32.19-51.45c-12.21-.38-22.79-.24-31.66-.06-31.11.6-30.79,51.82-30.79,51.83h0c0,4.58,21.19,8.29,47.32,8.29s47.32-3.71,47.32-8.29a1.65,1.65,0,0,0,0-.31Z"/><path class="cls-4" d="M532.18,732.82c-11.88,0-50.66-.84-50.66-11.64,0-2.21.1-54.52,34.07-55.18,9.51-.19,19.94-.31,31.83.06,32.57,1,35.32,52.46,35.42,54.65a1.61,1.61,0,0,1,0,.31.86.86,0,0,1,0,.16C582.85,732,544.07,732.82,532.18,732.82Zm-44-12.32c2.75,2,17.85,5.63,44,5.63s41.14-3.56,44-5.61c-.35-5.11-4-47-28.92-47.77-11.74-.36-22.07-.24-31.49-.06C490.06,673.19,488.33,714.71,488.22,720.5Zm0,.66h0Z"/><ellipse class="cls-3" cx="743.58" cy="622.15" rx="25.14" ry="26.02"/><path class="cls-4" d="M743.58,651.52c-15.7,0-28.48-13.18-28.48-29.37s12.78-29.37,28.48-29.37,28.49,13.17,28.49,29.37S759.29,651.52,743.58,651.52Zm0-52c-12,0-21.79,10.17-21.79,22.68s9.78,22.67,21.79,22.67,21.79-10.17,21.79-22.67S755.6,599.47,743.58,599.47Z"/><path class="cls-3" d="M791.74,720.86s-2.34-50.52-32.19-51.45c-12.22-.38-22.79-.24-31.66-.06-31.11.6-30.79,51.82-30.79,51.83h0c0,4.58,21.18,8.29,47.32,8.29s47.32-3.71,47.32-8.29a1.67,1.67,0,0,0,0-.31Z"/><path class="cls-4" d="M744.42,732.82c-11.89,0-50.67-.84-50.67-11.64,0-2.21.11-54.52,34.07-55.18,9.52-.19,19.95-.31,31.83.06,32.57,1,35.33,52.46,35.43,54.65v.47C795.08,732,756.31,732.82,744.42,732.82Zm-44-12.32c2.76,2,17.85,5.63,44,5.63s41.13-3.56,43.94-5.61c-.35-5.11-4-47-28.91-47.77-11.74-.36-22.08-.24-31.49-.06C702.3,673.19,700.57,714.71,700.45,720.5Zm0,.66h0Z"/><ellipse class="cls-3" cx="638.06" cy="757.02" rx="25.14" ry="26.02"/><path class="cls-4" d="M638.06,786.39c-15.71,0-28.48-13.17-28.48-29.37s12.77-29.37,28.48-29.37,28.48,13.18,28.48,29.37S653.76,786.39,638.06,786.39Zm0-52c-12,0-21.79,10.17-21.79,22.67s9.78,22.68,21.79,22.68,21.79-10.17,21.79-22.68S650.07,734.35,638.06,734.35Z"/><path class="cls-3" d="M686.21,855.74s-2.34-50.53-32.18-51.46c-12.22-.38-22.8-.23-31.67-.06-31.11.6-30.79,51.82-30.79,51.84h0c0,4.57,21.19,8.29,47.32,8.29s47.32-3.72,47.32-8.29a1.65,1.65,0,0,0,0-.32Z"/><path class="cls-4" d="M638.89,867.69c-11.88,0-50.66-.84-50.66-11.63,0-2.21.1-54.53,34.07-55.19,8.91-.17,19.46-.32,31.83.07,32.57,1,35.32,52.45,35.42,54.64a1.6,1.6,0,0,1,0,.31.91.91,0,0,1,0,.17C689.56,866.85,650.78,867.69,638.89,867.69Zm-44-12.32c2.75,2,17.85,5.63,44,5.63s41.14-3.56,44-5.61c-.35-5.11-4-47-28.92-47.77-12.21-.38-22.66-.22-31.49-.06C596.77,808.06,595,849.58,594.93,855.37Zm0,.66h0Z"/><path class="cls-4" d="M564.33,849.27a3.43,3.43,0,0,1-1.71-.46,150.53,150.53,0,0,1-61.89-70.76,149.54,149.54,0,0,1-6.45-18.58,3.35,3.35,0,0,1,6.46-1.77A143.71,143.71,0,0,0,566,843a3.35,3.35,0,0,1-1.7,6.23Z"/><path class="cls-4" d="M717.61,846.72a3.35,3.35,0,0,1-1.8-6.17,143.87,143.87,0,0,0,55.08-65.11,141.74,141.74,0,0,0,6.49-19,3.35,3.35,0,1,1,6.47,1.72,149.81,149.81,0,0,1-38.93,67.51,151,151,0,0,1-25.51,20.49A3.38,3.38,0,0,1,717.61,846.72Z"/><path class="cls-4" d="M696,588a3.37,3.37,0,0,1-1.3-.27,143.79,143.79,0,0,0-111.51,0,3.35,3.35,0,1,1-2.61-6.16,150.36,150.36,0,0,1,116.73,0A3.35,3.35,0,0,1,696,588Z"/><path class="cls-6" d="M686.54,654.05a27.66,27.66,0,0,0-7.85-35.92A28.75,28.75,0,0,0,638,625.79,28.79,28.79,0,0,0,604,614.63c-16.4,6.11-22.39,26.54-13,41.31l.33.5A64.62,64.62,0,0,0,605,670.62l33.47,25.91,33.34-25.94a58.62,58.62,0,0,0,14.66-16.41A.83.83,0,0,1,686.54,654.05Z"/><path class="cls-4" d="M638.47,699.88a3.35,3.35,0,0,1-2.05-.7L603,673.27a68.31,68.31,0,0,1-14.38-14.92l-.41-.61a31.94,31.94,0,0,1-3.32-27.46,30.05,30.05,0,0,1,18-18.79A32.13,32.13,0,0,1,638,620.3a32.09,32.09,0,0,1,42.6-4.9,31,31,0,0,1,8.81,40.31l-.05.1a61.68,61.68,0,0,1-15.52,17.42l-33.34,25.94A3.36,3.36,0,0,1,638.47,699.88ZM614,616.18a25.22,25.22,0,0,0-8.87,1.59,23.36,23.36,0,0,0-13.94,14.64,25.27,25.27,0,0,0,2.61,21.73l.27.42A61.86,61.86,0,0,0,607,668l31.43,24.31L669.76,668a55,55,0,0,0,13.82-15.47l3,1.57-2.91-1.66a24.23,24.23,0,0,0-6.87-31.54,25.44,25.44,0,0,0-35.94,6.78,3.45,3.45,0,0,1-5.58,0A25.39,25.39,0,0,0,614,616.18Z"/></g></g></svg>