<svg xmlns="http://www.w3.org/2000/svg" xmlns:xlink="http://www.w3.org/1999/xlink" viewBox="0 0 1028.88 1028.88"><defs><style>.cls-1{fill:url(#Áåçûìÿííûé_ãðàäèåíò_42);}.cls-2{fill:url(#Áåçûìÿííûé_ãðàäèåíò_41);}.cls-3{fill:#fff;}.cls-4{fill:#003887;}.cls-5{fill:#5d9af0;}.cls-6{fill:#ffd354;}.cls-7{fill:#a3d4ff;}</style><linearGradient id="Áåçûìÿííûé_ãðàäèåíò_42" x1="514.44" x2="514.44" y2="1028.88" gradientUnits="userSpaceOnUse"><stop offset="0" stop-color="#96ccff"/><stop offset="0.93" stop-color="#5c96e5"/><stop offset="1" stop-color="#5892e3"/></linearGradient><linearGradient id="Áåçûìÿííûé_ãðàäèåíò_41" x1="515.66" y1="57.67" x2="515.66" y2="972.33" gradientUnits="userSpaceOnUse"><stop offset="0" stop-color="#d0c6cb"/><stop offset="0.08" stop-color="#ded7db"/><stop offset="0.21" stop-color="#ede9eb"/><stop offset="0.35" stop-color="#f7f6f6"/><stop offset="0.55" stop-color="#fdfdfd"/><stop offset="1" stop-color="#fff"/></linearGradient></defs><g id="Layer_2" data-name="Layer 2"><g id="Ñëîé_1" data-name="Ñëîé 1"><circle class="cls-1" cx="514.44" cy="514.44" r="514.44"/><circle class="cls-2" cx="515.66" cy="515" r="457.33"/><path class="cls-3" d="M515.66,71.55c249.69,0,452.62,200.11,457.22,448.71,0-2.87.11-5.74.11-8.62C973,259.06,768.23,54.31,515.66,54.31S58.33,259.06,58.33,511.64c0,2.88.05,5.75.11,8.62C63,271.66,266,71.55,515.66,71.55Z"/><path class="cls-4" d="M238.53,332.68a3.35,3.35,0,0,1-2.65-5.39,349.53,349.53,0,0,1,26.26-30.38,3.35,3.35,0,1,1,4.81,4.66,342.72,342.72,0,0,0-25.77,29.8A3.33,3.33,0,0,1,238.53,332.68Zm55.3-57a3.35,3.35,0,0,1-2.12-5.94,351.61,351.61,0,0,1,32.48-23.63,3.35,3.35,0,0,1,3.62,5.63A344.62,344.62,0,0,0,296,274.9,3.32,3.32,0,0,1,293.83,275.66Zm66.81-43a3.35,3.35,0,0,1-1.48-6.35,348.77,348.77,0,0,1,37-15.6,3.34,3.34,0,0,1,2.24,6.3,342.57,342.57,0,0,0-36.3,15.31A3.39,3.39,0,0,1,360.64,232.68Zm270.75-14.49a3.26,3.26,0,0,1-1.14-.2,341.32,341.32,0,0,0-37.74-11.31,3.35,3.35,0,1,1,1.55-6.51,347.58,347.58,0,0,1,38.48,11.53,3.35,3.35,0,0,1-1.15,6.49ZM435.47,206.1a3.35,3.35,0,0,1-.75-6.61,349,349,0,0,1,39.6-6.72,3.34,3.34,0,0,1,.73,6.65A342.52,342.52,0,0,0,436.22,206,3.2,3.2,0,0,1,435.47,206.1Zm118.65-6.29a2.68,2.68,0,0,1-.4,0q-2.7-.33-5.4-.6c-11.23-1.17-22.64-1.79-33.93-1.84a3.35,3.35,0,0,1,0-6.7h0c11.5.06,23.14.69,34.58,1.88,1.84.19,3.68.39,5.51.62a3.34,3.34,0,0,1-.4,6.66Z"/><path class="cls-4" d="M295.25,812.15a3.31,3.31,0,0,1-2.11-.75,351.81,351.81,0,0,1-29.67-27.07,3.35,3.35,0,0,1,4.79-4.68,345.06,345.06,0,0,0,29.1,26.56,3.34,3.34,0,0,1-2.11,5.94Zm-55.51-56.8a3.35,3.35,0,0,1-2.65-1.3A352.09,352.09,0,0,1,214.32,721,3.35,3.35,0,1,1,220,717.5,347,347,0,0,0,242.38,750a3.34,3.34,0,0,1-.6,4.69A3.29,3.29,0,0,1,239.74,755.35Zm-41.23-67.89a3.37,3.37,0,0,1-3-2,352.89,352.89,0,0,1-14.66-37.39,3.35,3.35,0,0,1,6.37-2.08,342.29,342.29,0,0,0,14.37,36.67,3.35,3.35,0,0,1-1.64,4.44A3.31,3.31,0,0,1,198.51,687.46Z"/><path class="cls-4" d="M713.46,825.48a3.35,3.35,0,0,1-1.94-6.08,343.88,343.88,0,0,0,30.33-24.26l.43-.38a3.35,3.35,0,0,1,4.45,5l-.42.38a356,356,0,0,1-30.91,24.72A3.34,3.34,0,0,1,713.46,825.48Zm59-53.12a3.35,3.35,0,0,1-2.51-5.57,341.2,341.2,0,0,0,24.34-31,3.34,3.34,0,0,1,5.49,3.82A346.6,346.6,0,0,1,775,771.23,3.36,3.36,0,0,1,772.51,772.36ZM817.9,707.2a3.24,3.24,0,0,1-1.58-.41,3.34,3.34,0,0,1-1.36-4.53,341.4,341.4,0,0,0,16.61-35.71,3.34,3.34,0,0,1,6.22,2.46,350,350,0,0,1-16.94,36.42A3.34,3.34,0,0,1,817.9,707.2Zm29.29-73.83a3.36,3.36,0,0,1-3.23-4.22,345.65,345.65,0,0,0,8-38.58,3.35,3.35,0,0,1,6.62,1,352.32,352.32,0,0,1-8.18,39.33A3.35,3.35,0,0,1,847.19,633.37Z"/><circle class="cls-5" cx="513.04" cy="540.05" r="254.06"/><polygon class="cls-3" points="594.48 498.99 534.07 498.99 531.65 544.9 824.04 544.9 824.04 498.99 799.88 498.99 790.21 498.99 780.55 498.99 594.48 498.99"/><path class="cls-3" d="M652.32,373.54l-26.43-45.65v-44a14.32,14.32,0,0,0-14.32-14.32h-.35a14.32,14.32,0,0,0-14.32,14.32v48.4a21.79,21.79,0,0,0,2.93,10.91l23.73,40.68Z"/><path class="cls-4" d="M623.56,387.22a3.38,3.38,0,0,1-2.9-1.66l-23.72-40.69a25.13,25.13,0,0,1-3.39-12.59v-48.4a17.69,17.69,0,0,1,17.67-17.67h.35a17.69,17.69,0,0,1,17.67,17.67V327l26,44.86a3.34,3.34,0,1,1-5.79,3.35L623,329.57a3.3,3.3,0,0,1-.45-1.67v-44a11,11,0,0,0-11-11h-.35a11,11,0,0,0-11,11v48.4a18.45,18.45,0,0,0,2.48,9.23l23.73,40.68a3.35,3.35,0,0,1-2.89,5Z"/><path class="cls-3" d="M753.08,274.72a14.23,14.23,0,0,0-4,9.87v43.29l-26.32,45.5c3.53,13.55,15.1,13.74,28.69,10.59l23.7-40.92a21.72,21.72,0,0,0,2.93-10.9V299.5Z"/><path class="cls-4" d="M739.56,389c-8.07,0-16.88-2.83-20-14.78a3.35,3.35,0,0,1,.34-2.52L745.79,327V284.58a17.62,17.62,0,0,1,4.86-12.17A3.35,3.35,0,1,1,755.5,277a10.93,10.93,0,0,0-3,7.56v43.3a3.31,3.31,0,0,1-.45,1.68l-25.61,44.26c2.66,8.08,9.28,10.14,22.92,7.21l23-39.66a18.34,18.34,0,0,0,2.48-9.22V299.5a3.35,3.35,0,0,1,6.7,0v32.65a25.16,25.16,0,0,1-3.38,12.58l-23.71,40.92a3.31,3.31,0,0,1-2.14,1.58A55.78,55.78,0,0,1,739.56,389Z"/><path class="cls-3" d="M770.88,426.93l3.79,1.81a23.75,23.75,0,0,0,28.44-6.44l16.94-28.73-20.48-20.49L785,399.21l-39-17.75-8.54-3.74a39.36,39.36,0,0,0-18.11-4.39H656.65a39.43,39.43,0,0,0-18.12,4.39l-10.17,4.08-37.81,17.41-14.1-25.27-6-11c-5-6.12-14.33-7.3-20.45-2.28h0a14.34,14.34,0,0,0-4.56,15.46L551.58,387l20.84,35.31a23.75,23.75,0,0,0,28.44,6.44l3.24-1.48Z"/><path class="cls-4" d="M590.79,434.34a27.13,27.13,0,0,1-21-9.91,3.93,3.93,0,0,1-.29-.42L548.7,388.7l-6.19-10.92a3,3,0,0,1-.28-.63,17.58,17.58,0,0,1,5.62-19.07c7.41-6.09,18.94-4.83,25.16,2.75a3.48,3.48,0,0,1,.34.51l6,11L592,394.87l35-16.11,10.18-4.09A42.94,42.94,0,0,1,656.65,370h62.66A43,43,0,0,1,739,374.75l8.34,3.64,36.26,16.5,13.09-23.44a3.36,3.36,0,0,1,5.29-.74l20.48,20.49a3.36,3.36,0,0,1,.51,4.07L806,424a4.15,4.15,0,0,1-.3.43,27.09,27.09,0,0,1-32.45,7.34L769.44,430a3.35,3.35,0,1,1,2.88-6l3.8,1.81a20.4,20.4,0,0,0,24.25-5.35l15.48-26.27-15.52-15.52-12.42,22.26a3.36,3.36,0,0,1-4.31,1.42l-47.52-21.47a36,36,0,0,0-16.77-4.11H656.65a35.86,35.86,0,0,0-16.59,4l-.28.14-10.17,4.07L592,402.25a3.34,3.34,0,0,1-4.32-1.41l-20-36a11.68,11.68,0,0,0-7.43-3.89,10.72,10.72,0,0,0-8.13,2.3,10.91,10.91,0,0,0-3.58,11.54l6,10.54,20.68,35a20.4,20.4,0,0,0,24.27,5.34l3.27-1.49a3.35,3.35,0,0,1,2.77,6.09l-3.23,1.48A27,27,0,0,1,590.79,434.34Z"/><path class="cls-3" d="M671.81,354v17.53a15.7,15.7,0,0,0,15.7,15.71h0a15.71,15.71,0,0,0,15.71-15.71V354.82Z"/><path class="cls-4" d="M687.51,390.59a19.08,19.08,0,0,1-19-19.06V354a3.35,3.35,0,1,1,6.69,0v17.53a12.37,12.37,0,0,0,24.73,0V354.82a3.35,3.35,0,1,1,6.69,0v16.71A19.08,19.08,0,0,1,687.51,390.59Z"/><path class="cls-3" d="M727.39,302.39v5.07c0,24.9-14.35,50.68-38.17,50.68-21.07,0-35-16.84-37.92-38.77C651.3,319.37,635.74,269.1,727.39,302.39Z"/><path class="cls-4" d="M689.22,361.49c-21.6,0-37.75-16.25-41.2-41.43-.63-2.24-3.95-16,5.57-25,11.59-11,36.81-9.64,74.94,4.22a3.35,3.35,0,0,1,2.2,3.14v5.07C730.73,334,715.21,361.49,689.22,361.49ZM677,294.31c-9.94,0-15.58,2.51-18.77,5.54-7.19,6.8-3.77,18.42-3.74,18.54a2.48,2.48,0,0,1,.12.54c2.91,21.79,16.49,35.86,34.6,35.86,21.8,0,34.82-24.06,34.82-47.33v-2.71C702.33,297,687.34,294.31,677,294.31Z"/><path class="cls-6" d="M730.92,281.43a19.28,19.28,0,0,1,1.61,7.76,19.53,19.53,0,0,1-16.24,19.25c-12.51.72-14.51-3-32.54-6.94-32-6.94-32.28,17.87-32.28,17.87A27.84,27.84,0,0,1,650,289.71c15.87-29.34,52-16.66,52-16.66l-4.55,4.32a19.47,19.47,0,0,1,14.81-7.7l7.53,1.19a19.81,19.81,0,0,1,6,3.51Z"/><path class="cls-4" d="M651.47,322.71a3.34,3.34,0,0,1-2.63-1.27,31,31,0,0,1-1.8-33.32c15-27.8,46.92-20.83,54.45-18.72a22.91,22.91,0,0,1,10.64-3.08,4.82,4.82,0,0,1,.65,0l7.52,1.2a2.88,2.88,0,0,1,.64.17,22.74,22.74,0,0,1,7,4.11,3.33,3.33,0,0,1,.51.55l5.2,7.05a3.21,3.21,0,0,1,.37.65,22.89,22.89,0,0,1-17.14,31.65,2.21,2.21,0,0,1-.37,0c-8.24.47-12.49-.91-18.37-2.84A137.86,137.86,0,0,0,683,304.77c-9.94-2.16-17.44-1.3-22.28,2.53-5.73,4.53-5.94,12-5.94,12.12a3.38,3.38,0,0,1-2.28,3.12A3.67,3.67,0,0,1,651.47,322.71Zm32.81-49.11c-10.55,0-23.6,3.36-31.36,17.7a24.41,24.41,0,0,0-2.34,18.36,21.54,21.54,0,0,1,5.94-7.54c6.5-5.19,15.9-6.5,27.93-3.89a144.4,144.4,0,0,1,15.74,4.35c5.71,1.87,8.86,2.91,15.72,2.53a16.19,16.19,0,0,0,12.08-22l-4.72-6.41a16.23,16.23,0,0,0-4.36-2.56L712.06,273a16,16,0,0,0-7.94,2.61l-4.38,4.16a3.35,3.35,0,0,1-5-4.46c.15-.2.31-.41.48-.61A56.06,56.06,0,0,0,684.28,273.6Z"/><path class="cls-7" d="M574.25,357.34l9-4.72a4.2,4.2,0,0,1,5.51,2.11L592,361a4.19,4.19,0,0,1-1.39,5.74l-9,4.71-50.89,26.77-18.87,1,11.44-15.11Z"/><path class="cls-4" d="M511.92,402.57a3.35,3.35,0,0,1-2.66-5.37l11.43-15.12a3.46,3.46,0,0,1,1.11-.94l59.85-31.48a7.53,7.53,0,0,1,10,3.52l3.31,6.28a7.53,7.53,0,0,1-2.79,10.26L532.35,401.2a3.35,3.35,0,0,1-1.38.38l-18.87,1Zm13.66-15.85-6.65,8.78,11-.57,59.21-31.13a1.09,1.09,0,0,0,0-1.22l-3.31-6.29c-.33-.63-.86-.77-1-.71l-9,4.72h0Zm48.67-29.38h0Z"/><path class="cls-3" d="M604.15,511V414.44a4.85,4.85,0,0,1,4.86-4.86H766a4.85,4.85,0,0,1,4.86,4.86V511Z"/><path class="cls-4" d="M770.88,514.31a3.34,3.34,0,0,1-3.34-3.34V414.44a1.52,1.52,0,0,0-1.52-1.52H609a1.52,1.52,0,0,0-1.52,1.52V511a3.35,3.35,0,0,1-6.69,0V414.44a8.22,8.22,0,0,1,8.21-8.21H766a8.22,8.22,0,0,1,8.21,8.21V511A3.35,3.35,0,0,1,770.88,514.31Z"/><path class="cls-6" d="M715.3,507.69h60.81c0,10.81-6.49,19.57-14.5,19.57H614.49c-8,0-14.5-8.76-14.5-19.57H715.3Z"/><path class="cls-4" d="M761.61,530.6H614.49c-9.84,0-17.85-10.28-17.85-22.91a3.35,3.35,0,0,1,3.35-3.35H776.11a3.35,3.35,0,0,1,3.34,3.35C779.45,520.32,771.45,530.6,761.61,530.6ZM603.59,511c1.09,7.26,5.64,12.88,10.9,12.88H761.61c5.26,0,9.81-5.62,10.9-12.88Z"/><path class="cls-7" d="M695.61,457.31a10.49,10.49,0,1,1-7.42-3.07Z"/><path class="cls-4" d="M688.19,478.57a13.84,13.84,0,0,1,0-27.68,3.35,3.35,0,0,1,0,6.7,7.14,7.14,0,1,0,5,2.09,3.35,3.35,0,0,1,4.73-4.74,13.84,13.84,0,0,1-9.78,23.63Z"/><rect class="cls-6" x="800.1" y="337.95" width="33.5" height="57.04" rx="8.11" transform="translate(-19.88 684.93) rotate(-45)"/><path class="cls-4" d="M825.17,398.46a11.46,11.46,0,0,1-8.11-3.35l-28.85-28.86a11.47,11.47,0,0,1,0-16.21l12.22-12.21a11.46,11.46,0,0,1,16.21,0l28.85,28.86a11.46,11.46,0,0,1,0,16.2l-12.21,12.22A11.43,11.43,0,0,1,825.17,398.46Zm-16.65-57.3a4.7,4.7,0,0,0-3.36,1.4l-12.22,12.22a4.74,4.74,0,0,0,0,6.73l28.86,28.86a4.77,4.77,0,0,0,6.74,0l12.21-12.21a4.77,4.77,0,0,0,0-6.74l-28.86-28.86A4.73,4.73,0,0,0,808.52,341.16Z"/><path class="cls-4" d="M824,502.33H780.55a3.35,3.35,0,1,1,0-6.69H824a3.35,3.35,0,1,1,0,6.69Z"/><path class="cls-4" d="M824,548.25H531.65a3.35,3.35,0,0,1,0-6.7H824a3.35,3.35,0,0,1,0,6.7Z"/><path class="cls-4" d="M594.48,502.33H534.07a3.35,3.35,0,1,1,0-6.69h60.41a3.35,3.35,0,1,1,0,6.69Z"/><path class="cls-6" d="M818.33,285.29l-24.54,24.54a3.76,3.76,0,0,1-5.32,0L747.13,268.5a3.77,3.77,0,0,1,0-5.33l24.54-24.54a3.76,3.76,0,0,1,5.32,0l4.69,4.69,31.77,31.77,4.88,4.88A3.76,3.76,0,0,1,818.33,285.29Z"/><path class="cls-4" d="M791.13,314.28a7.09,7.09,0,0,1-5-2.08l-41.33-41.34a7.1,7.1,0,0,1,0-10.05l24.54-24.54a7.12,7.12,0,0,1,10.05,0l41.34,41.34a7.11,7.11,0,0,1,0,10.05h0L796.16,312.2A7.09,7.09,0,0,1,791.13,314.28Zm-16.8-73.4a.42.42,0,0,0-.29.12L749.5,265.54a.41.41,0,0,0,0,.59l41.34,41.34a.42.42,0,0,0,.59,0L816,282.93a.47.47,0,0,0,0-.59L774.63,241A.42.42,0,0,0,774.33,240.88Zm44,44.41h0Z"/><path class="cls-6" d="M781.44,253.56,791,244Z"/><path class="cls-4" d="M781.44,256.91a3.28,3.28,0,0,1-2.36-1,3.34,3.34,0,0,1,0-4.73l9.53-9.53a3.34,3.34,0,0,1,4.73,4.73l-9.53,9.53A3.32,3.32,0,0,1,781.44,256.91Z"/><path class="cls-6" d="M792.64,264.76l9.53-9.53Z"/><path class="cls-4" d="M792.64,268.11a3.35,3.35,0,0,1-2.37-5.71l9.53-9.53a3.35,3.35,0,0,1,4.74,4.73L795,267.13A3.36,3.36,0,0,1,792.64,268.11Z"/><path class="cls-6" d="M803.84,276l9.53-9.53Z"/><path class="cls-4" d="M803.84,279.31a3.35,3.35,0,0,1-2.37-5.72l9.53-9.53a3.35,3.35,0,0,1,4.73,4.74l-9.53,9.53A3.32,3.32,0,0,1,803.84,279.31Z"/><rect class="cls-3" x="336.99" y="609.84" width="353.48" height="234.82" rx="25.59"/><path class="cls-4" d="M664.89,848H362.58a29,29,0,0,1-28.93-28.93V635.43a29,29,0,0,1,28.93-28.94H664.89a29,29,0,0,1,28.93,28.94V819.08A29,29,0,0,1,664.89,848ZM362.58,613.19a22.26,22.26,0,0,0-22.24,22.24V819.08a22.27,22.27,0,0,0,22.24,22.24H664.89a22.26,22.26,0,0,0,22.23-22.24V635.43a22.25,22.25,0,0,0-22.23-22.24Z"/><rect class="cls-6" x="363.96" y="643.31" width="141.48" height="95.23"/><path class="cls-4" d="M505.44,741.89H364a3.35,3.35,0,0,1-3.35-3.34V643.31A3.35,3.35,0,0,1,364,640H505.44a3.35,3.35,0,0,1,3.34,3.34v95.24A3.35,3.35,0,0,1,505.44,741.89ZM367.3,735.2H502.09V646.66H367.3Z"/><path class="cls-4" d="M459.31,721.81h-.09a4.5,4.5,0,0,1-4.24-3.62L444.24,672.8l-10,37.75A4.53,4.53,0,0,1,430,714a4.47,4.47,0,0,1-4.32-3.32l-7-21.82L413,709.71a3.38,3.38,0,0,1-.11.34,5.7,5.7,0,0,1-5.2,3.82l-41.32-.09a3.35,3.35,0,0,1,0-6.7h0l40.37.1,7.83-29a3.38,3.38,0,0,1,.11-.34,3.8,3.8,0,0,1,3.84-2.6,4,4,0,0,1,3.66,2.92l7.49,23.27,10.86-40.8a4,4,0,0,1,3.84-3.06h.06a4,4,0,0,1,3.82,3.19L459,706.07l6-34a3.35,3.35,0,0,1,3.3-2.76h37.11a3.35,3.35,0,0,1,0,6.7H471.13l-7.47,42.11c0,.11-.05.22-.08.33A4.48,4.48,0,0,1,459.31,721.81ZM432,708.68l0,0S432,708.69,432,708.68Zm-16.21-28.52,0,.07Zm25.95-17.85h0Z"/><rect class="cls-3" x="540.88" y="643.31" width="120.5" height="95.23"/><path class="cls-4" d="M661.38,741.89H540.88a3.34,3.34,0,0,1-3.34-3.34V643.31a3.34,3.34,0,0,1,3.34-3.34h120.5a3.35,3.35,0,0,1,3.35,3.34v95.24A3.35,3.35,0,0,1,661.38,741.89ZM544.23,735.2H658V646.66H544.23Z"/><path class="cls-3" d="M364,770.43h0Z"/><path class="cls-4" d="M505.44,773.77H364a3.35,3.35,0,1,1,0-6.69H505.44a3.35,3.35,0,0,1,0,6.69Z"/><path class="cls-3" d="M364,792.26h0Z"/><path class="cls-4" d="M505.44,795.61H364a3.35,3.35,0,1,1,0-6.7H505.44a3.35,3.35,0,0,1,0,6.7Z"/><path class="cls-3" d="M364,814.09h0Z"/><path class="cls-4" d="M505.44,817.44H364a3.35,3.35,0,1,1,0-6.7H505.44a3.35,3.35,0,0,1,0,6.7Z"/><path class="cls-3" d="M540.88,770.43h0Z"/><path class="cls-4" d="M661.38,773.77H540.88a3.35,3.35,0,0,1,0-6.69h120.5a3.35,3.35,0,1,1,0,6.69Z"/><path class="cls-3" d="M540.88,792.26h0Z"/><path class="cls-4" d="M661.38,795.61H540.88a3.35,3.35,0,0,1,0-6.7h120.5a3.35,3.35,0,1,1,0,6.7Z"/><path class="cls-3" d="M540.88,814.09h0Z"/><path class="cls-4" d="M661.38,817.44H540.88a3.35,3.35,0,0,1,0-6.7h120.5a3.35,3.35,0,0,1,0,6.7Z"/><path class="cls-7" d="M633.07,690.92a31.79,31.79,0,0,1-10.52,23.68l-21.42-23.68V659A31.94,31.94,0,0,1,633.07,690.92Z"/><path class="cls-4" d="M622.55,718a3.33,3.33,0,0,1-2.48-1.1l-21.42-23.68a3.35,3.35,0,0,1-.86-2.25V659a3.34,3.34,0,0,1,3.34-3.34,35.27,35.27,0,0,1,23.66,61.43A3.32,3.32,0,0,1,622.55,718Zm-18.07-28.32,18.18,20.11a28.59,28.59,0,0,0-18.18-47.2Z"/><path class="cls-6" d="M622.55,714.6A31.93,31.93,0,1,1,601.13,659v31.92Z"/><path class="cls-4" d="M601.13,726.21a35.28,35.28,0,1,1,0-70.55,3.35,3.35,0,0,1,3.35,3.34v30.63L625,712.36a3.34,3.34,0,0,1-.24,4.72A35.17,35.17,0,0,1,601.13,726.21Zm-3.34-63.67a28.58,28.58,0,1,0,19.9,51.68l-19-21.05a3.35,3.35,0,0,1-.86-2.25Z"/><path class="cls-4" d="M601.13,726.21a35.28,35.28,0,1,1,35.28-35.28A35.32,35.32,0,0,1,601.13,726.21Zm0-63.87a28.59,28.59,0,1,0,28.59,28.59A28.63,28.63,0,0,0,601.13,662.34Z"/><path class="cls-3" d="M171.22,505a101.43,101.43,0,0,1,43.26-20.48l.37,93.86s-30.65,2.72-44.41-8.19Z"/><path class="cls-4" d="M206.36,582c-10.55,0-28-1.31-38-9.21a3.35,3.35,0,0,1,4.16-5.25c10.15,8,31.11,8,39,7.65l-.34-86.53a99.37,99.37,0,0,0-37.72,18.82,3.35,3.35,0,0,1-4.42-5,104,104,0,0,1,44.82-21.24,3.35,3.35,0,0,1,4,3.27l.37,93.85a3.36,3.36,0,0,1-3,3.35C214.73,581.73,211.31,582,206.36,582Z"/><path class="cls-3" d="M262.77,463.07l77,53.34c6.95,4.81,15.77-1,15.77-10.31v-184c0-9.35-8.82-15.11-15.77-10.31l-77,53.34Z"/><path class="cls-4" d="M345.08,521.48a12.71,12.71,0,0,1-7.26-2.32l-76.95-53.34a3.35,3.35,0,1,1,3.81-5.5l76.95,53.34a5.77,5.77,0,0,0,6.18.44,8.76,8.76,0,0,0,4.34-8v-184a8.73,8.73,0,0,0-4.34-8,5.74,5.74,0,0,0-6.18.43l-76.95,53.34a3.35,3.35,0,1,1-3.81-5.5l76.95-53.34a12.5,12.5,0,0,1,13.1-.86,15.46,15.46,0,0,1,7.92,13.92v184A15.46,15.46,0,0,1,350.91,520,12.52,12.52,0,0,1,345.08,521.48Z"/><path class="cls-3" d="M197.09,387.43H176.72c-6.25,0-11.31,4.36-11.31,9.74v29.61c0,5.38,5.06,9.75,11.31,9.75h20.37Z"/><path class="cls-4" d="M197.09,439.88H176.72c-8.08,0-14.66-5.88-14.66-13.1V397.17c0-7.21,6.58-13.09,14.66-13.09h20.37a3.35,3.35,0,0,1,0,6.7H176.72c-4.39,0-8,2.87-8,6.39v29.61c0,3.53,3.58,6.4,8,6.4h20.37a3.35,3.35,0,0,1,0,6.7Z"/><path class="cls-6" d="M214.48,534.72v41.75a18.18,18.18,0,0,0,.17,2.47,18.45,18.45,0,0,0,36.56-.33l2.48-56H216.27Z"/><path class="cls-4" d="M232.91,598.08a21.79,21.79,0,0,1-21.58-18.69,21.38,21.38,0,0,1-.19-2.92V534.72a4,4,0,0,1,0-.49L213,522.16a3.35,3.35,0,0,1,3.31-2.86h37.42a3.35,3.35,0,0,1,3.35,3.5l-2.49,56A21.74,21.74,0,0,1,232.91,598.08ZM217.83,535v41.5a14.9,14.9,0,0,0,.13,2,15.1,15.1,0,0,0,29.92-.27L250.2,526h-31Z"/><polygon class="cls-6" points="214.48 455.58 214.48 484.89 250.27 493.18 250.27 459.77 214.48 455.58"/><path class="cls-4" d="M250.27,496.52a3.27,3.27,0,0,1-.76-.08l-35.78-8.29a3.34,3.34,0,0,1-2.59-3.26V455.58a3.34,3.34,0,0,1,3.73-3.32l35.79,4.19a3.35,3.35,0,0,1,3,3.32v33.41a3.33,3.33,0,0,1-3.34,3.34Zm-32.44-14.29L246.92,489V462.75l-29.09-3.41Z"/><path class="cls-7" d="M414.18,439.25h47.16a15.89,15.89,0,0,0,16-15.82V397.79a15.9,15.9,0,0,0-16-15.82H408a15.89,15.89,0,0,0-16,15.82V461Z"/><path class="cls-4" d="M392,464.38a3.28,3.28,0,0,1-1.3-.26,3.35,3.35,0,0,1-2.05-3.09V397.8A19.26,19.26,0,0,1,408,378.63h53.39a19.25,19.25,0,0,1,19.31,19.17v25.63a19.26,19.26,0,0,1-19.31,19.17H415.55l-21.23,20.82A3.32,3.32,0,0,1,392,464.38Zm16-79.06a12.57,12.57,0,0,0-12.63,12.48v55.27l16.52-16.2a3.3,3.3,0,0,1,2.34-1h47.16A12.56,12.56,0,0,0,474,423.43V397.8a12.56,12.56,0,0,0-12.62-12.48Z"/><path class="cls-4" d="M414,418.05a3.35,3.35,0,0,1-3.35-3.34V403.79a3.35,3.35,0,0,1,6.69,0v10.92A3.35,3.35,0,0,1,414,418.05Z"/><path class="cls-4" d="M436,418.05a3.35,3.35,0,0,1-3.35-3.34V403.79a3.35,3.35,0,0,1,6.69,0v10.92A3.34,3.34,0,0,1,436,418.05Z"/><path class="cls-4" d="M455.29,418.05a3.35,3.35,0,0,1-3.35-3.34V403.79a3.35,3.35,0,0,1,6.69,0v10.92A3.35,3.35,0,0,1,455.29,418.05Z"/><path class="cls-4" d="M360.07,304.85a3.34,3.34,0,0,1-1.74-6.2l64.94-39.55a3.34,3.34,0,0,1,3.48,5.71l-64.94,39.55A3.32,3.32,0,0,1,360.07,304.85Z"/><path class="cls-4" d="M425,566.71a3.32,3.32,0,0,1-1.73-.49l-64.94-39.55a3.35,3.35,0,0,1,3.48-5.72l64.94,39.56a3.35,3.35,0,0,1-1.75,6.2Z"/><path class="cls-3" d="M265.18,559.27H232.6a9.55,9.55,0,1,1,0-19.09h32.58a9.55,9.55,0,1,1,0,19.09Z"/><path class="cls-4" d="M265.18,562.62H232.6a12.89,12.89,0,1,1,0-25.78h32.58a12.89,12.89,0,1,1,0,25.78ZM232.6,543.53a6.21,6.21,0,1,0,0,12.4h32.58a6.21,6.21,0,1,0,0-12.4Z"/><path class="cls-3" d="M264,521.08h1.37a9.55,9.55,0,1,0,0-19.09H264l-47.76-1.17v24.95Z"/><path class="cls-4" d="M216.27,529.11a3.34,3.34,0,0,1-3.35-3.34V500.82a3.38,3.38,0,0,1,1-2.4,3.61,3.61,0,0,1,2.42-.95l47.76,1.17h1.29a12.9,12.9,0,1,1,0,25.79h-1.21L216.6,529.1Zm3.35-24.86v17.83l44.08-4.33.33,0h1.37a6.2,6.2,0,1,0,0-12.39H264Z"/><path class="cls-3" d="M264,521.08h1.37a9.55,9.55,0,1,1,0,19.1h-33a9.55,9.55,0,1,1,0-19.1H264Z"/><path class="cls-4" d="M265.4,543.53h-33a12.9,12.9,0,1,1,0-25.8h15.15a3.35,3.35,0,0,1,0,6.7H232.37a6.21,6.21,0,1,0,0,12.41h33a6.21,6.21,0,1,0,0-12.41H264a3.35,3.35,0,0,1,0-6.7h1.37a12.9,12.9,0,1,1,0,25.8Z"/><path class="cls-3" d="M256.92,578.37H238.11a9.55,9.55,0,1,1,0-19.09h18.81a9.55,9.55,0,1,1,0,19.09Z"/><path class="cls-4" d="M256.92,581.71H238.11a12.89,12.89,0,1,1,0-25.78h18.81a12.89,12.89,0,1,1,0,25.78Zm-18.81-19.09a6.21,6.21,0,1,0,0,12.4h18.81a6.21,6.21,0,1,0,0-12.4Z"/><path class="cls-3" d="M171.22,505s24.37-21.47,58.15-22.1l16.93.16a12.76,12.76,0,0,1,12.18,9.2L264,511.53a10.11,10.11,0,0,1-5.92,12.12,10.25,10.25,0,0,1-13.59-6.11l-3.44-10.1-13.81-.23s4.15,27.28-28.57,30Z"/><path class="cls-4" d="M198.66,540.54a3.35,3.35,0,0,1-.27-6.69c9.68-.8,16.75-3.93,21-9.33,5.88-7.44,4.55-16.71,4.53-16.81a3.33,3.33,0,0,1,.79-2.7,3,3,0,0,1,2.58-1.15l13.81.24a3.34,3.34,0,0,1,3.11,2.27l3.44,10.09a6.73,6.73,0,0,0,3.64,4,6.9,6.9,0,0,0,5.51.1,6.74,6.74,0,0,0,4-8.09l-5.52-19.29a9.47,9.47,0,0,0-9-6.78l-16.93-.15c-32.09.6-55.68,21.05-55.91,21.26a3.35,3.35,0,0,1-4.42-5c1-.91,25.69-22.28,60.3-22.92l17,.15a16.23,16.23,0,0,1,15.37,11.62l5.51,19.29a13.44,13.44,0,0,1-7.85,16.13,13.68,13.68,0,0,1-10.83-.2,13.52,13.52,0,0,1-7.2-7.92l-2.69-7.87-7.89-.13a29.88,29.88,0,0,1-6.1,18c-5.46,6.91-14.11,10.9-25.71,11.85Z"/><path class="cls-6" d="M446.05,357c-6.47-1.49-34.93-8.18-41.11-12.51-17.17-12,0-38.08,18.6-28.45a32.5,32.5,0,0,1,7.27,5.05l-.12.05a32.12,32.12,0,0,1,1.28-8.7c5.72-20.05,36.61-14.51,33.64,6.11-1,7.29-15.15,31.62-18.83,37.88Z"/><path class="cls-4" d="M446.05,360.34a3.2,3.2,0,0,1-.75-.09c-10.59-2.43-35.91-8.57-42.28-13-10.28-7.2-10-18.65-5.44-26.23,5.07-8.38,16.14-13.8,27.5-7.93,1.06.55,2,1.11,2.91,1.67.19-1,.44-2.09.76-3.22,3.48-12.18,15-16.47,24.6-14.43,8.75,1.87,17.36,9.53,15.57,21.94-1,7.28-12.51,27.62-19.25,39.1a3.3,3.3,0,0,1-1.24,1.22A3.35,3.35,0,0,1,446.05,360.34Zm-30.71-43a14.35,14.35,0,0,0-12,7.16c-2.9,4.8-3.71,12.2,3.55,17.29,4.23,3,22.6,7.94,37.9,11.52,10.09-17.29,16.94-31,17.54-35.19,1.26-8.76-4.79-13.26-10.35-14.44-6.34-1.35-14.3,1.1-16.76,9.71a31.18,31.18,0,0,0-1.14,6.93,3.18,3.18,0,0,1,0,1.44,3.33,3.33,0,0,1-2,2.45,3.47,3.47,0,0,1-3.18-.24,3.71,3.71,0,0,1-.94-.87,30.54,30.54,0,0,0-6-4A14.39,14.39,0,0,0,415.34,317.29Z"/><polygon class="cls-3" points="393.43 496.97 472.81 467.44 428.1 511.75 393.43 496.97"/><path class="cls-4" d="M428.1,515.09a3.17,3.17,0,0,1-1.31-.27l-34.67-14.77a3.35,3.35,0,0,1,.15-6.22l79.37-29.53a3.34,3.34,0,0,1,3.52,5.51l-44.71,44.31A3.3,3.3,0,0,1,428.1,515.09Zm-25.64-17.91,24.88,10.61L459.43,476Z"/><polygon class="cls-3" points="442.82 545.91 472.9 467.52 428.18 511.83 442.82 545.91"/><path class="cls-4" d="M442.82,549.26a3.34,3.34,0,0,1-3.07-2l-14.64-34.08a3.35,3.35,0,0,1,.71-3.7l44.72-44.31a3.35,3.35,0,0,1,5.48,3.58L446,547.11a3.36,3.36,0,0,1-3.06,2.15ZM432.15,512.6,442.65,537l21.55-56.18Z"/><path class="cls-3" d="M264,463.8H237.86c-25.08,0-45.4-19.67-45.4-43.95V409.56c0-24.28,20.32-43.95,45.4-43.95H264Z"/><path class="cls-4" d="M264,467.15H237.86c-26.88,0-48.75-21.22-48.75-47.3V409.56c0-26.08,21.87-47.3,48.75-47.3H264a3.34,3.34,0,0,1,3.34,3.35V463.8A3.34,3.34,0,0,1,264,467.15ZM237.86,369c-23.19,0-42.05,18.21-42.05,40.6v10.29c0,22.39,18.86,40.6,42.05,40.6h22.82V369Z"/></g></g></svg>