<svg xmlns="http://www.w3.org/2000/svg" viewBox="0 0 654.02 1566"><defs><style>.cls-1{fill:#fff;}.cls-2{fill:#ffb327;}.cls-3{fill:#ef9411;}.cls-4{fill:#fca71f;}.cls-5{fill:#e88400;}.cls-6{fill:#d12c3d;}.cls-7{fill:#eaeaea;}.cls-8{fill:none;}</style></defs><g id="Layer_2" data-name="Layer 2"><g id="Layer_1-2" data-name="Layer 1"><polygon class="cls-1" points="224 1222.47 158.72 1222.47 177.37 447.47 205.35 447.47 224 1222.47"/><path class="cls-1" d="M242.07,284.37c0,77.36-51.71,140.06-51.71,140.06a.68.68,0,0,1-.12-.15c-2.68-3.27-51.63-64.68-51.63-139.91,0-77.25,23.1-139.91,51.63-140.07h.12C218.89,144.3,242.07,207,242.07,284.37Z"/><path class="cls-2" d="M220.37,442H161.88a2.86,2.86,0,0,1-2.76-3.6l1.72-6.41,11.43-42.76H210L221.41,432l1.72,6.41A2.86,2.86,0,0,1,220.37,442Z"/><polygon class="cls-3" points="221.41 431.96 160.84 431.96 172.27 389.2 209.98 389.2 221.41 431.96"/><path class="cls-1" d="M165.12,358S118,379.7,113.37,461.82c-.23,4,5.43,5.11,6.64,1.29,9.68-30.53,33.83-70.6,65-70.6Z"/><path class="cls-2" d="M166.18,358s-47.11,21.68-51.75,103.8c-.23,4,5.43,5.11,6.64,1.29,9.68-30.53,33.83-70.6,65-70.6Z"/><path class="cls-4" d="M216.32,358s47.11,21.68,51.75,103.8c.22,4-5.43,5.11-6.65,1.29-9.67-30.53-33.83-70.6-65-70.6Z"/><path class="cls-2" d="M243,285.27c0,77.36-51.71,140.07-51.71,140.07a.87.87,0,0,1-.11-.16c-2.69-3.27-51.63-64.67-51.63-139.91,0-77.25,23.09-139.91,51.63-140.07h.11C219.8,145.2,243,207.9,243,285.27Z"/><path class="cls-4" d="M243,285.27c0,77.36-51.71,140.07-51.71,140.07a.87.87,0,0,1-.11-.16v-280h.11C219.8,145.2,243,207.9,243,285.27Z"/><path class="cls-3" d="M216.17,239.55a26.28,26.28,0,1,1-26.27-26.27A26.28,26.28,0,0,1,216.17,239.55Z"/><path class="cls-5" d="M217.06,240.45a26.27,26.27,0,1,1-26.27-26.28A26.27,26.27,0,0,1,217.06,240.45Z"/><path class="cls-6" d="M194.36,342.07a4.09,4.09,0,1,1-4.09-4.08A4.08,4.08,0,0,1,194.36,342.07Z"/><path class="cls-5" d="M194.49,342.21a4.08,4.08,0,1,1-4.08-4.08A4.08,4.08,0,0,1,194.49,342.21Z"/><path class="cls-6" d="M194.36,322.41a4.09,4.09,0,1,1-4.09-4.08A4.09,4.09,0,0,1,194.36,322.41Z"/><path class="cls-5" d="M194.49,322.55a4.08,4.08,0,1,1-4.08-4.08A4.07,4.07,0,0,1,194.49,322.55Z"/><path class="cls-6" d="M194.36,302.76a4.09,4.09,0,1,1-4.09-4.09A4.09,4.09,0,0,1,194.36,302.76Z"/><path class="cls-5" d="M194.49,302.9a4.08,4.08,0,1,1-4.08-4.09A4.08,4.08,0,0,1,194.49,302.9Z"/><path class="cls-7" d="M212.63,240.45a21.84,21.84,0,1,1-21.84-21.85A21.84,21.84,0,0,1,212.63,240.45Z"/><path class="cls-1" d="M204.51,230a16.94,16.94,0,0,0-10.45-3.54,17.24,17.24,0,0,0-17.22,17.26,17,17,0,0,0,3.58,10.48A17.24,17.24,0,1,1,204.51,230Z"/><path class="cls-1" d="M654,1309.58a55,55,0,0,0-32.27-50.06,31.25,31.25,0,1,0-52.31-32.44,55,55,0,0,0-56.85,17.71,56.56,56.56,0,0,0-8.18-.6,54.68,54.68,0,0,0-33.66,11.52,55,55,0,0,0-60.09-7.6,54.95,54.95,0,0,0-68.17-5.66,55,55,0,0,0-47.44-13.5,31.19,31.19,0,0,0-23.88-11.1,30.72,30.72,0,0,0-4.32.31,55,55,0,0,0-15.32-20.71,31.25,31.25,0,0,0-44.27-39,19.08,19.08,0,0,0-29.69-3.53,31.23,31.23,0,0,0-43.4,21.71A55,55,0,0,0,110.63,1210a55.05,55.05,0,0,0-33.22,24.37,55,55,0,0,0-59.4,10,31.05,31.05,0,0,0-15.09-3.89c-1,0-2,.06-2.92.15v196.72a99.62,99.62,0,0,0,4-13.79A55,55,0,0,0,57,1464.11h.2a55,55,0,0,0,84.15,1.3,55,55,0,0,0,82.16-35c1.2.08,2.42.13,3.65.13a54.75,54.75,0,0,0,11.88-1.3,54.78,54.78,0,0,0,19.1,11.51,55,55,0,0,0,106.45-2.25,54.94,54.94,0,0,0,63,9.14,54.75,54.75,0,0,0,32.42,14.5A55,55,0,0,0,552.45,1440a55,55,0,1,0,72.65-82A55,55,0,0,0,654,1309.58Z"/><path class="cls-1" d="M119.31,1151a13.95,13.95,0,1,1-13.94-14A13.95,13.95,0,0,1,119.31,1151Z"/><circle class="cls-1" cx="333.1" cy="1146.03" r="11.56"/><circle class="cls-1" cx="124.59" cy="1077.42" r="8.81"/><path class="cls-1" d="M278.9,1157.11a7.34,7.34,0,1,1-7.34-7.34A7.34,7.34,0,0,1,278.9,1157.11Z"/><circle class="cls-1" cx="52.19" cy="1181.27" r="8.81"/><circle class="cls-1" cx="332.77" cy="1194.91" r="4.77"/><rect class="cls-8" x="9.34" width="496" height="118"/><rect class="cls-8" x="9.34" y="1503" width="496" height="63"/></g></g></svg>