<svg xmlns="http://www.w3.org/2000/svg" xmlns:xlink="http://www.w3.org/1999/xlink" viewBox="0 0 1028.88 1028.88"><defs><style>.cls-1{fill:url(#Áåçûìÿííûé_ãðàäèåíò_42);}.cls-2{fill:url(#Áåçûìÿííûé_ãðàäèåíò_41);}.cls-3{fill:#fff;}.cls-4{fill:#003887;}.cls-5{fill:#5d9af0;}.cls-6{fill:#ffd354;}.cls-7{fill:#a3d4ff;}</style><linearGradient id="Áåçûìÿííûé_ãðàäèåíò_42" x1="514.44" x2="514.44" y2="1028.88" gradientUnits="userSpaceOnUse"><stop offset="0" stop-color="#96ccff"/><stop offset="0.93" stop-color="#5c96e5"/><stop offset="1" stop-color="#5892e3"/></linearGradient><linearGradient id="Áåçûìÿííûé_ãðàäèåíò_41" x1="515.66" y1="57.67" x2="515.66" y2="972.33" gradientUnits="userSpaceOnUse"><stop offset="0" stop-color="#d0c6cb"/><stop offset="0.08" stop-color="#ded7db"/><stop offset="0.21" stop-color="#ede9eb"/><stop offset="0.35" stop-color="#f7f6f6"/><stop offset="0.55" stop-color="#fdfdfd"/><stop offset="1" stop-color="#fff"/></linearGradient></defs><g id="Layer_2" data-name="Layer 2"><g id="Ñëîé_1" data-name="Ñëîé 1"><circle class="cls-1" cx="514.44" cy="514.44" r="514.44"/><circle class="cls-2" cx="515.66" cy="515" r="457.33"/><path class="cls-3" d="M515.66,71.55c249.69,0,452.62,200.11,457.22,448.71,0-2.87.11-5.74.11-8.62C973,259.06,768.23,54.31,515.66,54.31S58.33,259.06,58.33,511.64c0,2.88.05,5.75.11,8.62C63,271.66,266,71.55,515.66,71.55Z"/><path class="cls-4" d="M817.49,682a3.35,3.35,0,0,1-3-4.84,333.75,333.75,0,0,0,15.45-36.23,3.35,3.35,0,0,1,6.3,2.26,341.25,341.25,0,0,1-15.76,37A3.33,3.33,0,0,1,817.49,682Zm26.77-74.77a3.82,3.82,0,0,1-.75-.08,3.35,3.35,0,0,1-2.52-4,335.93,335.93,0,0,0,6.53-38.84,3.34,3.34,0,0,1,6.65.71,344.38,344.38,0,0,1-6.65,39.62A3.36,3.36,0,0,1,844.26,607.18Zm8.55-79a3.34,3.34,0,0,1-3.34-3.32,332.22,332.22,0,0,0-2.67-39.28,3.36,3.36,0,0,1,2.9-3.75,3.32,3.32,0,0,1,3.74,2.9,339.19,339.19,0,0,1,2.72,40.07,3.35,3.35,0,0,1-3.32,3.38Zm-10.07-78.76a3.34,3.34,0,0,1-3.24-2.53,330.33,330.33,0,0,0-11.88-37.54,3.34,3.34,0,1,1,6.24-2.4A335.72,335.72,0,0,1,846,445.29a3.36,3.36,0,0,1-2.43,4.07A3.91,3.91,0,0,1,842.74,449.46ZM814.3,375.31a3.35,3.35,0,0,1-3-1.78,335.42,335.42,0,0,0-20.41-33.69,3.34,3.34,0,1,1,5.51-3.79,342.69,342.69,0,0,1,20.82,34.35,3.35,3.35,0,0,1-1.4,4.52A3.25,3.25,0,0,1,814.3,375.31ZM769.24,309.9a3.35,3.35,0,0,1-2.51-1.14,339,339,0,0,0-27.63-28.07,3.34,3.34,0,1,1,4.48-5,344.52,344.52,0,0,1,28.18,28.62,3.35,3.35,0,0,1-2.52,5.55Zm-59-53.2a3.28,3.28,0,0,1-1.92-.62,330.49,330.49,0,0,0-33.46-20.77,3.35,3.35,0,0,1,3.19-5.89,336.25,336.25,0,0,1,34.13,21.2,3.35,3.35,0,0,1-1.94,6.08Z"/><path class="cls-4" d="M179.94,525.52h-.07a3.36,3.36,0,0,1-3.28-3.41c.19-9.53.78-19.16,1.76-28.63q.6-5.73,1.38-11.43a3.35,3.35,0,1,1,6.63.91q-.77,5.58-1.35,11.21c-1,9.29-1.54,18.73-1.73,28.07A3.34,3.34,0,0,1,179.94,525.52Zm10.84-78.69a3.15,3.15,0,0,1-.85-.11,3.34,3.34,0,0,1-2.39-4.08,339.86,339.86,0,0,1,12.4-38.21,3.35,3.35,0,1,1,6.23,2.44A333.26,333.26,0,0,0,194,444.33,3.36,3.36,0,0,1,190.78,446.83Zm28.95-73.95a3.34,3.34,0,0,1-2.95-4.92,340.42,340.42,0,0,1,21-34.22,3.35,3.35,0,0,1,5.49,3.83,332.34,332.34,0,0,0-20.63,33.55A3.35,3.35,0,0,1,219.73,372.88Zm45.52-65.05a3.36,3.36,0,0,1-2.49-5.58,342.07,342.07,0,0,1,26.7-26.75l1.78-1.58a3.35,3.35,0,1,1,4.44,5l-1.75,1.55a334,334,0,0,0-26.18,26.23A3.35,3.35,0,0,1,265.25,307.83Zm59.51-52.61a3.35,3.35,0,0,1-1.91-6.1,342.7,342.7,0,0,1,34.3-20.91,3.35,3.35,0,1,1,3.14,5.91,335.29,335.29,0,0,0-33.63,20.5A3.34,3.34,0,0,1,324.76,255.22Z"/><path class="cls-4" d="M516.67,868.27c-10.63,0-21.41-.51-32.08-1.51a3.34,3.34,0,0,1,.63-6.66,337.17,337.17,0,0,0,39.36,1.39,3.35,3.35,0,1,1,.16,6.69C522.05,868.24,519.37,868.27,516.67,868.27Zm47.63-3.39a3.35,3.35,0,0,1-.47-6.66,333.09,333.09,0,0,0,38.58-7.9,3.35,3.35,0,1,1,1.73,6.47,340.26,340.26,0,0,1-39.36,8.06Zm-118.71-4.13a3.43,3.43,0,0,1-.71-.08,338.72,338.72,0,0,1-38.72-10.74,3.35,3.35,0,1,1,2.18-6.33,330.85,330.85,0,0,0,38,10.53,3.35,3.35,0,0,1-.7,6.62ZM641,844.37a3.35,3.35,0,0,1-1.24-6.46,333.12,333.12,0,0,0,35.64-16.75,3.35,3.35,0,0,1,3.2,5.88,340.89,340.89,0,0,1-36.36,17.09A3.41,3.41,0,0,1,641,844.37ZM370.45,835a3.45,3.45,0,0,1-1.46-.33,339.3,339.3,0,0,1-35.08-19.58,3.35,3.35,0,1,1,3.6-5.64,336.55,336.55,0,0,0,34.39,19.19,3.35,3.35,0,0,1-1.45,6.36Z"/><circle class="cls-5" cx="516.34" cy="528.46" r="245.36" transform="translate(-222.44 519.89) rotate(-45)"/><path class="cls-3" d="M574,514.42V791.55a4.56,4.56,0,0,0,4.5,4.64h213a4.56,4.56,0,0,0,4.49-4.64V514.42a4.57,4.57,0,0,0-4.49-4.64h-213A4.57,4.57,0,0,0,574,514.42Z"/><path class="cls-4" d="M791.53,799.54h-213a7.92,7.92,0,0,1-7.84-8V514.42a7.92,7.92,0,0,1,7.84-8h213a7.92,7.92,0,0,1,7.84,8V791.55A7.92,7.92,0,0,1,791.53,799.54Zm-213-286.41a1.23,1.23,0,0,0-1.15,1.29V791.55a1.23,1.23,0,0,0,1.15,1.3h213a1.23,1.23,0,0,0,1.15-1.3V514.42a1.23,1.23,0,0,0-1.15-1.29Z"/><rect class="cls-3" x="591.96" y="528.47" width="186.1" height="249.04"/><path class="cls-4" d="M781.41,780.85H588.61V525.12h192.8Zm-186.1-6.69H774.72V531.81H595.31Z"/><polygon class="cls-6" points="737.15 542.14 632.88 542.14 646.55 499.44 723.48 499.44 737.15 542.14"/><path class="cls-4" d="M737.15,545.49H632.88a3.37,3.37,0,0,1-2.71-1.38,3.33,3.33,0,0,1-.48-3l13.68-42.7a3.34,3.34,0,0,1,3.18-2.33h76.93a3.34,3.34,0,0,1,3.18,2.33l13.68,42.7a3.36,3.36,0,0,1-3.19,4.37Zm-99.69-6.7h95.11l-11.54-36H649Z"/><ellipse class="cls-6" cx="685.01" cy="499.44" rx="14.06" ry="11.8"/><path class="cls-4" d="M685,514.59c-9.59,0-17.41-6.8-17.41-15.15s7.82-15.15,17.41-15.15,17.41,6.8,17.41,15.15S694.61,514.59,685,514.59ZM685,491c-5.91,0-10.71,3.79-10.71,8.46s4.8,8.45,10.71,8.45,10.72-3.79,10.72-8.45S690.92,491,685,491Z"/><path class="cls-7" d="M654.31,726A16,16,0,1,1,650,714.53,15.93,15.93,0,0,1,654.31,726Z"/><path class="cls-4" d="M638.33,744.83h-.65a19.37,19.37,0,1,1,.65,0Zm0-32a12.21,12.21,0,1,0,.42,0Z"/><path class="cls-6" d="M652.68,582.71a12.37,12.37,0,1,1-4.66-8.24A12.29,12.29,0,0,1,652.68,582.71Z"/><path class="cls-4" d="M640.38,599.94a15.75,15.75,0,1,1,2-.12A16.07,16.07,0,0,1,640.38,599.94Zm0-24.75a10.52,10.52,0,0,0-1.12.07,9,9,0,1,0,10.06,7.86,9,9,0,0,0-8.94-7.93Z"/><path class="cls-3" d="M641.54,665.59a13.59,13.59,0,1,1-5.13-9.06A13.58,13.58,0,0,1,641.54,665.59Z"/><path class="cls-4" d="M628,684.22a17,17,0,1,1,2.11-.13A18.67,18.67,0,0,1,628,684.22Zm0-27.22a9.26,9.26,0,0,0-1.28.08A10.26,10.26,0,1,0,638.22,666h0a10.26,10.26,0,0,0-10.17-9Z"/><path class="cls-3" d="M718.87,581.84a12.35,12.35,0,1,1-4.66-8.24A12.33,12.33,0,0,1,718.87,581.84Z"/><path class="cls-4" d="M706.57,599.08a15.75,15.75,0,1,1,1.95-.12A16,16,0,0,1,706.57,599.08Zm0-24.75a8.53,8.53,0,0,0-1.12.07,9,9,0,1,0,1.12-.07Z"/><path class="cls-4" d="M667.49,721.64a3.35,3.35,0,0,1-.39-6.68c2.45-.28,59.91-7.7,69-71.78a3.35,3.35,0,1,1,6.63,1c-9.88,69.29-74.26,77.41-74.91,77.48Z"/><path class="cls-4" d="M746.66,667.45a3.34,3.34,0,0,1-3.21-2.4l-4.85-16.5L726.74,661a3.35,3.35,0,0,1-4.85-4.61l15.86-16.65a3.35,3.35,0,0,1,5.64,1.36l6.48,22.06a3.35,3.35,0,0,1-2.26,4.16A3.51,3.51,0,0,1,746.66,667.45Z"/><path class="cls-3" d="M731.9,607.34l20.85,21.75Z"/><path class="cls-4" d="M752.75,632.43a3.29,3.29,0,0,1-2.41-1l-20.85-21.74a3.35,3.35,0,1,1,4.83-4.64l20.85,21.75a3.34,3.34,0,0,1-2.42,5.66Z"/><path class="cls-3" d="M754.67,609.58,730,626.85Z"/><path class="cls-4" d="M730,630.2a3.35,3.35,0,0,1-1.92-6.09l24.68-17.27a3.35,3.35,0,1,1,3.84,5.48L731.9,629.59A3.31,3.31,0,0,1,730,630.2Z"/><path class="cls-6" d="M743.06,740.07a12.37,12.37,0,1,1-2.15-9.22A12.33,12.33,0,0,1,743.06,740.07Z"/><path class="cls-4" d="M730.89,753.78a15.3,15.3,0,0,1-2.6-.22,15.55,15.55,0,1,1,2.6.22ZM730.83,729a9.14,9.14,0,1,0,1.5.13A8.44,8.44,0,0,0,730.83,729Z"/><path class="cls-4" d="M712.65,730.56a3.36,3.36,0,0,1-1.72-.48c-15.3-9.17-40.89-31.7-40.42-79.65a3.36,3.36,0,0,1,3.35-3.32h0a3.36,3.36,0,0,1,3.32,3.38c-.42,42.38,20,63.55,37.16,73.85a3.35,3.35,0,0,1-1.72,6.22Z"/><path class="cls-4" d="M664.71,670.61a3.19,3.19,0,0,1-1.55-.39,3.33,3.33,0,0,1-1.41-4.51l9.11-17.42a3.36,3.36,0,0,1,5.8-.24l10.52,16.61a3.35,3.35,0,0,1-5.66,3.58l-7.42-11.71-6.43,12.28A3.34,3.34,0,0,1,664.71,670.61Z"/><path class="cls-3" d="M661.24,617.09l23.4,19Z"/><path class="cls-4" d="M684.64,639.42a3.38,3.38,0,0,1-2.11-.75l-23.4-19a3.35,3.35,0,0,1,4.22-5.2l23.4,19a3.35,3.35,0,0,1-2.11,5.95Z"/><path class="cls-3" d="M684.11,616.47l-22.34,20.22Z"/><path class="cls-4" d="M661.77,640a3.35,3.35,0,0,1-2.24-5.83L681.87,614a3.35,3.35,0,0,1,4.49,5L664,639.17A3.33,3.33,0,0,1,661.77,640Z"/><path class="cls-6" d="M575.05,398.3l-.18-30.7c-.66-16.64-15.71-33.45-37-33.26h-.47l-40.93-.19h-.75c-20.09.46-36.18,13.83-36,33.58l.12,33.19Z"/><path class="cls-4" d="M459.79,404.28a3.35,3.35,0,0,1-3.35-3.34l-.12-33.19c-.18-20.86,16.33-36.4,39.28-36.94h.83l41.39.19c24-.08,39.69,18.77,40.4,36.48l.18,30.81a3.35,3.35,0,0,1-3.33,3.37h0a3.36,3.36,0,0,1-3.35-3.33l-.17-30.7c-.58-14.39-13.48-29.94-33.34-29.94h-.84l-41-.2h-.67c-19.1.45-32.87,13.15-32.71,30.21l.11,33.21a3.34,3.34,0,0,1-3.33,3.36Z"/><polygon class="cls-6" points="486.11 380.99 486.09 427.2 551.25 427.11 551.25 380.99 486.11 380.99"/><path class="cls-4" d="M486.09,430.54a3.35,3.35,0,0,1-3.35-3.35l0-46.2a3.35,3.35,0,0,1,3.34-3.35h0a3.35,3.35,0,0,1,3.34,3.35l0,42.86,58.47-.08V381a3.35,3.35,0,1,1,6.69,0v46.12a3.34,3.34,0,0,1-3.34,3.35l-65.16.08Z"/><path class="cls-3" d="M419.26,405.84l18.32,22c3,4.57,55.42,1.57,55.42,1.57,8.72-1.18,15.41-6.06,14.48-14.74-1-9-9-13.06-18.34-13l-25,.47s-12,0-15-7.79c-3.52-9.48-7.09-29-14-37.9l-.07-.09a29,29,0,0,0-20.53-10.85c-26.45-1.88-38.72,13.66-40.36,34.14L369.56,458H511.1Z"/><ellipse class="cls-3" cx="419.49" cy="304.42" rx="28.99" ry="28.76"/><path class="cls-4" d="M419.49,336.53a32.11,32.11,0,1,1,32.34-32.11A32.26,32.26,0,0,1,419.49,336.53Zm0-57.52a25.41,25.41,0,1,0,25.65,25.41A25.55,25.55,0,0,0,419.49,279Z"/><path class="cls-4" d="M369.56,461.3h-.2a3.35,3.35,0,0,1-3.14-3.54l4.6-78.33c2-25.18,18.43-39.09,43.93-37.29a32.32,32.32,0,0,1,22.94,12.14c5.3,6.78,8.52,18.19,11.36,28.26,1.14,4,2.22,7.85,3.24,10.61,2,5.48,11.68,5.61,11.8,5.61h0l25-.47h.08c12.31,0,20.58,6.14,21.64,16,1,9.62-5.77,16.85-17.35,18.41-52.62,3-57.38-1.19-58.55-2.88L416.69,408a3.34,3.34,0,0,1,5.14-4.28L440,425.55c4.18,1.95,30.42,1.79,52.78.52,3.53-.49,12.25-2.6,11.34-11.05-1-9.3-11.63-10-14.95-10h-.05l-25,.46h0c-.92,0-14.48-.17-18.12-10-1.12-3-2.23-7-3.41-11.12-2.54-9-5.71-20.22-10.13-25.89a25.59,25.59,0,0,0-18.2-9.65c-29.7-2.13-35.78,18.56-36.78,31.07l-4.6,78.27A3.34,3.34,0,0,1,369.56,461.3Z"/><path class="cls-3" d="M611.47,405.84l-18.32,20.25c-3,4.57-55.42,1.57-55.42,1.57-8.72-1.18-15.41-4.31-14.48-13,1-9,9-13.06,18.34-13l25,.47s12,0,15-7.79c3.52-9.48,7.09-29,14-37.9l.07-.09a29,29,0,0,1,20.53-10.85c26.45-1.88,38.72,13.66,40.36,34.14l4.6,78.34L463,457.23Z"/><ellipse class="cls-3" cx="611.24" cy="304.42" rx="28.99" ry="28.76"/><path class="cls-4" d="M611.24,336.53a32.11,32.11,0,1,1,32.33-32.11A32.27,32.27,0,0,1,611.24,336.53Zm0-57.52a25.41,25.41,0,1,0,25.64,25.41A25.56,25.56,0,0,0,611.24,279Z"/><path class="cls-3" d="M611.47,405.84l-18.32,20.25c-3,4.57-55.42,1.57-55.42,1.57-8.72-1.18-15.41-4.31-14.48-13,1-9,9-13.06,18.34-13l25,.47s12,0,15-7.79c3.52-9.48,7.09-29,14-37.9l.07-.09a29,29,0,0,1,20.53-10.85c26.45-1.88,38.72,13.66,40.36,34.14l4.6,78.34Z"/><path class="cls-4" d="M661.17,461.3a3.34,3.34,0,0,1-3.34-3.15l-4.6-78.34c-1-12.44-7.12-33.13-36.78-31a25.53,25.53,0,0,0-18.13,9.56c-4.5,5.76-7.66,17-10.21,26-1.17,4.16-2.28,8.09-3.4,11.1-3.65,9.81-17.24,10-18.08,10h0L541.52,405h0c-3.26,0-13.9.74-14.9,10-.43,4,.68,7.85,11.6,9.33,22.12,1.25,48.4,1.4,52.53-.55L609,403.59a3.35,3.35,0,0,1,5,4.49l-18.17,20.09c-1.25,1.72-6.56,5.79-58.24,2.83-12.78-1.71-18.62-7.32-17.61-16.69,1.06-9.89,9.33-16,21.59-16h.08l25.08.47s9.74-.17,11.76-5.61c1-2.75,2.1-6.56,3.23-10.59,2.85-10.08,6.07-21.5,11.3-28.21a32.43,32.43,0,0,1,23-12.21c25.46-1.81,41.93,12.1,43.93,37.21l4.61,78.41a3.35,3.35,0,0,1-3.14,3.54Zm-70.82-37h0Z"/><polygon class="cls-7" points="615.78 425.32 414.93 424.27 413.99 457.23 617.11 457.23 615.78 425.32"/><path class="cls-4" d="M617.11,460.58H414a3.35,3.35,0,0,1-2.4-1,3.32,3.32,0,0,1-.94-2.42l.95-33a3.34,3.34,0,0,1,3.34-3.25h0L615.79,422a3.34,3.34,0,0,1,3.33,3.2l1.33,31.91a3.35,3.35,0,0,1-3.34,3.49Zm-199.68-6.7H613.62l-1-25.23-194.39-1Z"/><ellipse class="cls-3" cx="517.36" cy="296.62" rx="27.52" ry="27.64"/><path class="cls-4" d="M517.36,327.6a31,31,0,1,1,30.87-31A31,31,0,0,1,517.36,327.6Zm0-55.27a24.29,24.29,0,1,0,24.17,24.29A24.25,24.25,0,0,0,517.36,272.33Z"/><path class="cls-3" d="M625.68,192.86a35.32,35.32,0,0,1,1.86,11.33c0,19-15.06,34.42-33.64,34.42s-33.63-15.41-33.63-34.42,15.06-34.43,33.63-34.43a32.94,32.94,0,0,1,13,2.64Z"/><path class="cls-4" d="M593.9,242c-20.39,0-37-16.94-37-37.77s16.59-37.78,37-37.78a36.12,36.12,0,0,1,14.26,2.91,3.35,3.35,0,1,1-2.62,6.16,29.58,29.58,0,0,0-11.64-2.37c-16.7,0-30.29,13.94-30.29,31.08s13.59,31.08,30.29,31.08,30.29-13.94,30.29-31.08a31.65,31.65,0,0,0-1.68-10.25,3.34,3.34,0,1,1,6.33-2.16,38.31,38.31,0,0,1,2,12.41C630.89,225,614.29,242,593.9,242Z"/><path class="cls-6" d="M609.32,204.19a15.42,15.42,0,1,1-15.42-15.78Z"/><path class="cls-4" d="M593.9,223.31a19.13,19.13,0,0,1,0-38.25,3.35,3.35,0,1,1,0,6.7A12.44,12.44,0,1,0,606,204.19a3.35,3.35,0,1,1,6.7,0A19,19,0,0,1,593.9,223.31Z"/><path class="cls-3" d="M593.9,204.19l33.64-34.43Z"/><path class="cls-4" d="M593.9,207.54a3.35,3.35,0,0,1-2.39-5.69l33.64-34.43a3.34,3.34,0,0,1,4.78,4.68L596.3,206.53A3.36,3.36,0,0,1,593.9,207.54Z"/><path class="cls-6" d="M627.54,169.76V155.41l16.82-17.21v14.35h14l-16.82,17.21Z"/><path class="cls-4" d="M641.55,173.11h-14a3.35,3.35,0,0,1-3.35-3.35V155.42a3.34,3.34,0,0,1,1-2.34L642,135.86a3.35,3.35,0,0,1,5.74,2.34v11h10.67a3.34,3.34,0,0,1,2.39,5.68L644,172.1A3.38,3.38,0,0,1,641.55,173.11Zm-10.66-6.7h9.25l10.28-10.52h-6.07a3.35,3.35,0,0,1-3.34-3.34v-6.13l-10.12,10.36Z"/><path class="cls-4" d="M449.82,240.82a3.35,3.35,0,0,1-3.35-3.35c0-12.63-10-22.91-22.31-22.91a3.35,3.35,0,0,1,0-6.7c16,0,29,13.29,29,29.61A3.35,3.35,0,0,1,449.82,240.82Z"/><path class="cls-4" d="M475.48,240.82a3.35,3.35,0,0,1-3.35-3.35c0-27.12-21.52-49.18-48-49.18a3.35,3.35,0,1,1,0-6.69c30.14,0,54.67,25.06,54.67,55.87A3.35,3.35,0,0,1,475.48,240.82Z"/><path class="cls-4" d="M501.14,240.82a3.35,3.35,0,0,1-3.35-3.35c0-41.6-33-75.45-73.63-75.45a3.35,3.35,0,1,1,0-6.69c44.29,0,80.33,36.85,80.33,82.14A3.35,3.35,0,0,1,501.14,240.82Z"/><path class="cls-7" d="M273.54,608.48l-4.27,47.77,60.07-39.68a10.33,10.33,0,0,0,4.48-6.74c1.32-7.06,3.8-20.92,4.18-27.28h0Z"/><path class="cls-4" d="M269.27,659.6a3.31,3.31,0,0,1-1.72-.48,3.36,3.36,0,0,1-1.62-3.17l4.27-47.77a3.35,3.35,0,0,1,6.67.6l-3.65,40.85,54.28-35.86a7,7,0,0,0,3-4.56c1.12-6,3.75-20.5,4.13-26.86a3.38,3.38,0,0,1,3.53-3.14,3.35,3.35,0,0,1,3.15,3.54c-.38,6.49-2.81,20.14-4.23,27.69a13.79,13.79,0,0,1-5.93,8.92L271.11,659A3.34,3.34,0,0,1,269.27,659.6Z"/><path class="cls-7" d="M297.39,513.65h0c-5.71-2.64-17.08-6.6-23.18-8.68a10.36,10.36,0,0,0-7.95.53l-66.45,32.83,44.33,20.25Z"/><path class="cls-4" d="M244.14,561.93a3.3,3.3,0,0,1-1.39-.31l-44.33-20.25a3.35,3.35,0,0,1-.09-6l66.44-32.83a13.82,13.82,0,0,1,10.52-.69c6.26,2.12,17.65,6.1,23.51,8.81a3.34,3.34,0,1,1-2.81,6.07c-5.79-2.67-17.91-6.87-22.86-8.55a7.06,7.06,0,0,0-5.39.36L207.6,538.21l37.93,17.33a3.35,3.35,0,0,1-1.39,6.39Z"/><path class="cls-6" d="M268.93,605.24s-29.07,19.57-81.21,19.92C213.05,579.29,244.06,563,244.06,563Z"/><path class="cls-4" d="M187.72,628.51a3.35,3.35,0,0,1-2.93-5c25.52-46.21,56.41-62.8,57.72-63.48a3.34,3.34,0,0,1,3.11,5.92c-.29.16-28.17,15.22-52.07,55.71,46.74-1.67,73.24-19,73.52-19.23A3.35,3.35,0,0,1,270.8,608c-1.22.82-30.51,20.14-83.06,20.49Z"/><path class="cls-3" d="M258.45,596.2a66.88,66.88,0,0,1-37.26,9,67.55,67.55,0,0,1,25.72-28.57Z"/><path class="cls-4" d="M224.8,608.68c-2.32,0-3.74-.14-4-.16a3.38,3.38,0,0,1-2.54-1.62,3.34,3.34,0,0,1-.2-3,70.4,70.4,0,0,1,27.09-30.16,3.35,3.35,0,0,1,3.42,5.75,64.82,64.82,0,0,0-21.94,22.44,64.28,64.28,0,0,0,30.05-8.6,3.35,3.35,0,1,1,3.43,5.75A70.6,70.6,0,0,1,224.8,608.68Z"/><path class="cls-3" d="M246.76,589.94c22.05,37.45,77.39,2,77.39,2,16.74-10,75.14-69.88,65.05-87s-90.34,5.67-107.08,15.65C282.12,520.63,224.7,552.5,246.76,589.94Z"/><path class="cls-4" d="M278,610.48a46.12,46.12,0,0,1-10.74-1.2c-10-2.4-17.87-8.33-23.36-17.64h0c-5.47-9.31-6.88-19.09-4.16-29.07,7.06-25.89,39.42-44.1,40.79-44.86,15.36-9.17,77.13-27.22,101.5-21,4.87,1.24,8.27,3.44,10.09,6.54,12,20.28-49.85,81.82-66.22,91.59C324.8,595.55,301.15,610.48,278,610.48Zm-28.33-22.24c4.52,7.68,11,12.57,19.13,14.53,23.21,5.57,53.28-13.4,53.58-13.6,17.4-10.38,72.25-68.45,64-82.49-1.1-1.88-3.86-2.92-6-3.46-22-5.64-82.53,11.95-96.5,20.29-.4.22-31.37,17.67-37.67,40.83-2.23,8.18-1,16.22,3.47,23.9Z"/><path class="cls-4" d="M296.57,607.59a3.4,3.4,0,0,1-1.08-.18c-13.7-4.65-24.65-13.79-32.52-27.16a58.4,58.4,0,0,1-7.33-42.52,3.35,3.35,0,0,1,6.57,1.29c-2.68,13.71-.6,25.73,6.52,37.83s16.6,20,28.91,24.22a3.35,3.35,0,0,1-1.07,6.52Z"/><path class="cls-4" d="M313.36,553.56a3.35,3.35,0,0,1-1.71-6.22L364.15,516a3.35,3.35,0,0,1,3.42,5.75l-52.5,31.31A3.29,3.29,0,0,1,313.36,553.56Z"/><path class="cls-6" d="M336.58,557.91c-7.64,4.56-18,1.11-23.22-7.69s-3.2-19.64,4.43-24.19c26.12-15.58,40.4-13.26,46.5-10.6a6.47,6.47,0,0,1,3.84,6.52c-.61,6.67-5.44,20.39-31.55,36Z"/><path class="cls-4" d="M329.18,563.27a18.88,18.88,0,0,1-4.8-.62,23.06,23.06,0,0,1-13.9-10.73c-6.11-10.38-3.6-23.28,5.6-28.76,27.31-16.29,42.76-13.75,49.55-10.79a9.81,9.81,0,0,1,5.84,9.89c-.68,7.4-5.89,22.25-33.18,38.53h0A17.71,17.71,0,0,1,329.18,563.27Zm7.39-5.36h0Zm17.44-41c-7.24,0-18.44,2.44-34.5,12-6.05,3.61-7.51,12.41-3.26,19.62a16.28,16.28,0,0,0,9.78,7.65,11.53,11.53,0,0,0,8.83-1.13h0c25.67-15.31,29.49-28.45,29.94-33.39A3.12,3.12,0,0,0,363,518.5,22.28,22.28,0,0,0,354,516.89Z"/><path class="cls-3" d="M327.27,776.54H287.42a5.2,5.2,0,0,1-5.19-5.22V673.81a1.93,1.93,0,0,1,.93-1.66l46.37-28.34a1.92,1.92,0,0,1,2.93,1.66V771.32A5.2,5.2,0,0,1,327.27,776.54Z"/><path class="cls-4" d="M327.27,779.89H287.42a8.57,8.57,0,0,1-8.54-8.57V673.81a5.31,5.31,0,0,1,2.53-4.51L327.79,641a5.27,5.27,0,0,1,8,4.52V771.32A8.57,8.57,0,0,1,327.27,779.89ZM285.58,674.6v96.72a1.85,1.85,0,0,0,1.84,1.87h39.85a1.86,1.86,0,0,0,1.85-1.87V648Z"/><path class="cls-3" d="M397.69,776.54H355.91a3.27,3.27,0,0,1-3.26-3.28l1.78-143.6a2,2,0,0,1,.93-1.64L400,600.76a1.93,1.93,0,0,1,2.93,1.66v168.9A5.2,5.2,0,0,1,397.69,776.54Z"/><path class="cls-4" d="M397.69,779.89H355.91a6.63,6.63,0,0,1-6.61-6.63l1.78-143.64a5.29,5.29,0,0,1,2.53-4.45l44.59-27.26a5.28,5.28,0,0,1,8,4.51v168.9A8.57,8.57,0,0,1,397.69,779.89ZM357.77,630.47,356,773.3l41.69-.11a1.85,1.85,0,0,0,1.84-1.87V604.94Z"/><path class="cls-3" d="M468.11,776.54H428.25a5.21,5.21,0,0,1-5.19-5.22V587.69a1.94,1.94,0,0,1,.88-1.63l46.37-30.44a1.93,1.93,0,0,1,3,1.63V771.32A5.21,5.21,0,0,1,468.11,776.54Z"/><path class="cls-4" d="M468.11,779.89H428.25a8.57,8.57,0,0,1-8.53-8.57V587.69a5.27,5.27,0,0,1,2.39-4.43l46.37-30.44a5.28,5.28,0,0,1,8.17,4.43V771.32A8.57,8.57,0,0,1,468.11,779.89Zm-41.7-191.45V771.32a1.86,1.86,0,0,0,1.84,1.87h39.86a1.86,1.86,0,0,0,1.84-1.87V559.86Z"/><path class="cls-3" d="M262.05,688.51v82.81a5.21,5.21,0,0,1-5.19,5.22H217a5.21,5.21,0,0,1-5.19-5.22V716.85a2,2,0,0,1,.93-1.66l46.38-28.34A1.93,1.93,0,0,1,262.05,688.51Z"/><path class="cls-4" d="M256.86,779.89H217a8.57,8.57,0,0,1-8.53-8.57V716.85a5.31,5.31,0,0,1,2.53-4.51L257.37,684a5.28,5.28,0,0,1,8,4.52v82.81A8.57,8.57,0,0,1,256.86,779.89Zm-41.7-62.25v53.68a1.86,1.86,0,0,0,1.84,1.87h39.86a1.86,1.86,0,0,0,1.84-1.87V691Z"/><ellipse class="cls-6" cx="444.23" cy="720.97" rx="65.3" ry="65.2"/><path class="cls-4" d="M444.22,789.51A68.54,68.54,0,1,1,512.87,721,68.68,68.68,0,0,1,444.22,789.51Zm0-130.39A61.85,61.85,0,1,0,506.17,721,62,62,0,0,0,444.22,659.12Z"/><path class="cls-3" d="M432.22,734.41v24.94c0,3.83-4.16,7-9.25,7h0c-5.1,0-9.26-3.14-9.26-7v-27Z"/><path class="cls-4" d="M423,769.67c-7,0-12.61-4.63-12.61-10.32v-27a3.35,3.35,0,0,1,6.7,0v27c0,1.71,2.52,3.62,5.91,3.62s5.91-1.91,5.91-3.62V734.41a3.35,3.35,0,1,1,6.69,0v24.94C435.57,765,429.92,769.67,423,769.67Z"/><path class="cls-3" d="M423.11,695.35H405a3.62,3.62,0,0,0-3.42,3.77v29.93a3.62,3.62,0,0,0,3.42,3.78h18.1Z"/><path class="cls-4" d="M423.11,736.17H405a7,7,0,0,1-6.77-7.11V699.12A7,7,0,0,1,405,692h18.1a3.35,3.35,0,0,1,0,6.7H405c.06,0-.07.14-.07.42v29.94a.52.52,0,0,0,.17.44l18,0a3.35,3.35,0,1,1,0,6.69Z"/><path class="cls-3" d="M469.78,686.34v55.72c-11.43-2.89-45.71-9-46.77-9.23l0,0V695.25a1.11,1.11,0,0,0,.36,0Z"/><path class="cls-4" d="M469.78,745.41a3.29,3.29,0,0,1-.82-.1c-9-2.29-33.26-6.74-42.38-8.41l-4.33-.81a3.75,3.75,0,0,1-.71-.25,3.35,3.35,0,0,1-1.92-3V695.25a3.34,3.34,0,0,1,3.16-3.34l46.37-8.85a3.36,3.36,0,0,1,4,3.28v55.72a3.37,3.37,0,0,1-3.35,3.35Zm-43.47-15.36,1.48.27c8.77,1.61,27.79,5.1,38.64,7.52V690.39l-40.12,7.66Zm-4-38Z"/><path class="cls-3" d="M483.78,714.2h0Z"/><path class="cls-4" d="M495.61,717.55H483.78a3.35,3.35,0,1,1,0-6.69h11.83a3.35,3.35,0,1,1,0,6.69Z"/><path class="cls-3" d="M479.7,729.54l11.13,4Z"/><path class="cls-4" d="M490.83,736.91a3.51,3.51,0,0,1-1.14-.2l-11.12-4a3.34,3.34,0,0,1,2.27-6.29l11.13,4a3.34,3.34,0,0,1-1.14,6.49Z"/><path class="cls-3" d="M490.83,695.35l-11.13,4Z"/><path class="cls-4" d="M479.7,702.72a3.34,3.34,0,0,1-1.13-6.49l11.12-4A3.35,3.35,0,1,1,492,698.5l-11.13,4A3.22,3.22,0,0,1,479.7,702.72Z"/></g></g></svg>