<svg xmlns="http://www.w3.org/2000/svg" xmlns:xlink="http://www.w3.org/1999/xlink" viewBox="0 0 1028.88 1028.88"><defs><style>.cls-1{fill:url(#Áåçûìÿííûé_ãðàäèåíò_42);}.cls-2{fill:url(#Áåçûìÿííûé_ãðàäèåíò_41);}.cls-3{fill:#fff;}.cls-4{fill:#003887;}.cls-5{fill:#5d9af0;}.cls-6{fill:#a3d4ff;}.cls-7{fill:#ffd354;}</style><linearGradient id="Áåçûìÿííûé_ãðàäèåíò_42" x1="514.44" x2="514.44" y2="1028.88" gradientUnits="userSpaceOnUse"><stop offset="0" stop-color="#96ccff"/><stop offset="0.93" stop-color="#5c96e5"/><stop offset="1" stop-color="#5892e3"/></linearGradient><linearGradient id="Áåçûìÿííûé_ãðàäèåíò_41" x1="515.66" y1="57.67" x2="515.66" y2="972.33" gradientUnits="userSpaceOnUse"><stop offset="0" stop-color="#d0c6cb"/><stop offset="0.08" stop-color="#ded7db"/><stop offset="0.21" stop-color="#ede9eb"/><stop offset="0.35" stop-color="#f7f6f6"/><stop offset="0.55" stop-color="#fdfdfd"/><stop offset="1" stop-color="#fff"/></linearGradient></defs><g id="Layer_2" data-name="Layer 2"><g id="Ñëîé_1" data-name="Ñëîé 1"><circle class="cls-1" cx="514.44" cy="514.44" r="514.44"/><circle class="cls-2" cx="515.66" cy="515" r="457.33"/><path class="cls-3" d="M515.66,71.55c249.69,0,452.62,200.11,457.22,448.71,0-2.87.11-5.74.11-8.62C973,259.06,768.23,54.31,515.66,54.31S58.33,259.06,58.33,511.64c0,2.88.05,5.75.11,8.62C63,271.66,266,71.55,515.66,71.55Z"/><path class="cls-4" d="M519.31,870.2a346.74,346.74,0,0,1-35.38-1.83l-3.52-.38a3.35,3.35,0,0,1,.76-6.65l3.45.37a336.36,336.36,0,0,0,68.63.06,3.3,3.3,0,0,1,3.66,3,3.34,3.34,0,0,1-3,3.67A341.83,341.83,0,0,1,519.31,870.2Zm72.35-7.88a3.35,3.35,0,0,1-.72-6.62,333.94,333.94,0,0,0,36.75-10.34,3.34,3.34,0,1,1,2.19,6.32,341,341,0,0,1-37.5,10.56A3.53,3.53,0,0,1,591.66,862.32Zm-148.9-.82a3.25,3.25,0,0,1-.75-.08,341,341,0,0,1-37.41-10.89,3.35,3.35,0,0,1,2.24-6.31,334.1,334.1,0,0,0,36.67,10.67,3.35,3.35,0,0,1-.75,6.61Zm221.71-24.28a3.35,3.35,0,0,1-1.45-6.37,332.86,332.86,0,0,0,33.44-18.45,3.35,3.35,0,0,1,3.57,5.67,344.27,344.27,0,0,1-34.11,18.82A3.41,3.41,0,0,1,664.47,837.22Zm-294.3-1.46a3.21,3.21,0,0,1-1.47-.35,337.62,337.62,0,0,1-33.92-19.16,3.35,3.35,0,0,1,3.63-5.63,329.25,329.25,0,0,0,33.24,18.79,3.35,3.35,0,0,1-1.48,6.35Zm359.51-39.54a3.35,3.35,0,0,1-2.1-6c4.83-3.86,9.62-7.93,14.25-12.08,4.84-4.34,9.6-8.87,14.16-13.46a3.35,3.35,0,0,1,4.75,4.72c-4.65,4.68-9.51,9.3-14.44,13.73-4.72,4.23-9.61,8.37-14.53,12.31A3.32,3.32,0,0,1,729.68,796.22Zm-424.24-2.17a3.37,3.37,0,0,1-2.13-.76,344.13,344.13,0,0,1-28.62-26.4,3.35,3.35,0,1,1,4.81-4.65,337.38,337.38,0,0,0,28.06,25.88,3.35,3.35,0,0,1-2.12,5.93Zm478.48-52.49a3.34,3.34,0,0,1-2.62-5.42,336.57,336.57,0,0,0,21.87-31.3,3.34,3.34,0,0,1,5.69,3.51,338,338,0,0,1-22.31,31.93A3.31,3.31,0,0,1,783.92,741.56Zm-532-2.84a3.34,3.34,0,0,1-2.65-1.3,346.17,346.17,0,0,1-22-32.15,3.35,3.35,0,0,1,5.73-3.46,339.81,339.81,0,0,0,21.59,31.52,3.35,3.35,0,0,1-2.65,5.39ZM824.34,676a3.4,3.4,0,0,1-1.42-.31,3.36,3.36,0,0,1-1.61-4.45,334.73,334.73,0,0,0,14.17-35.47,3.35,3.35,0,0,1,6.35,2.12,340.91,340.91,0,0,1-14.46,36.18A3.32,3.32,0,0,1,824.34,676ZM212,672.79a3.35,3.35,0,0,1-3-2,335.37,335.37,0,0,1-14.12-36.31,3.34,3.34,0,1,1,6.36-2.06,332.05,332.05,0,0,0,13.85,35.59,3.36,3.36,0,0,1-3,4.74ZM848.77,603a3.25,3.25,0,0,1-.69-.08,3.33,3.33,0,0,1-2.58-4A338.26,338.26,0,0,0,851,564.08l.29-2.93a3.35,3.35,0,1,1,6.66.64l-.29,3A342.68,342.68,0,0,1,852,600.3,3.34,3.34,0,0,1,848.77,603Zm-660.45-3.44a3.35,3.35,0,0,1-3.28-2.69,339.38,339.38,0,0,1-5.41-38.58,3.35,3.35,0,0,1,3.06-3.61,3.4,3.4,0,0,1,3.61,3.07,332.9,332.9,0,0,0,5.3,37.81,3.34,3.34,0,0,1-2.62,3.93A3,3,0,0,1,188.32,599.52ZM856,526.27a3.36,3.36,0,0,1-3.35-3.28,333.41,333.41,0,0,0-2.93-38.05,3.35,3.35,0,1,1,6.63-.9,339.89,339.89,0,0,1,3,38.82,3.35,3.35,0,0,1-3.28,3.41Zm-674-3.51h-.12a3.34,3.34,0,0,1-3.23-3.45c.26-8.16.82-16.44,1.67-24.63.49-4.74,1.08-9.51,1.77-14.18a3.31,3.31,0,0,1,3.79-2.82,3.36,3.36,0,0,1,2.83,3.8c-.67,4.57-1.25,9.24-1.74,13.89-.82,8-1.37,16.16-1.63,24.15A3.35,3.35,0,0,1,182,522.76ZM845.7,450a3.36,3.36,0,0,1-3.24-2.52,332.24,332.24,0,0,0-11.55-36.36,3.35,3.35,0,0,1,6.25-2.39,342,342,0,0,1,11.78,37.09,3.35,3.35,0,0,1-2.41,4.08A3.42,3.42,0,0,1,845.7,450Zm-652.55-3.44a3.12,3.12,0,0,1-.86-.11,3.34,3.34,0,0,1-2.38-4.09,341.31,341.31,0,0,1,12.12-37,3.35,3.35,0,1,1,6.23,2.44,335.28,335.28,0,0,0-11.88,36.3A3.35,3.35,0,0,1,193.15,446.54Zm625.08-68.45a3.34,3.34,0,0,1-3-1.8,335.17,335.17,0,0,0-19.51-32.82,3.35,3.35,0,1,1,5.56-3.74A343.24,343.24,0,0,1,821.2,373.2a3.35,3.35,0,0,1-1.43,4.51A3.28,3.28,0,0,1,818.23,378.09Zm-597-3.25a3.41,3.41,0,0,1-1.57-.39,3.36,3.36,0,0,1-1.39-4.53,343.68,343.68,0,0,1,20.23-33.29,3.35,3.35,0,1,1,5.51,3.8,332,332,0,0,0-19.82,32.63A3.36,3.36,0,0,1,221.26,374.84Zm553.94-60.6a3.35,3.35,0,0,1-2.55-1.17,337.48,337.48,0,0,0-26.41-27.6,3.35,3.35,0,0,1,4.57-4.89,344.11,344.11,0,0,1,26.93,28.14,3.34,3.34,0,0,1-2.54,5.52ZM265,311.43a3.34,3.34,0,0,1-2.52-5.55,344,344,0,0,1,27.26-27.82,3.35,3.35,0,1,1,4.51,4.95,335.6,335.6,0,0,0-26.73,27.28A3.36,3.36,0,0,1,265,311.43Zm453.9-49.72a3.36,3.36,0,0,1-2-.65,332.89,332.89,0,0,0-32-20.91,3.35,3.35,0,0,1,3.34-5.8,342.35,342.35,0,0,1,32.6,21.32,3.35,3.35,0,0,1-2,6Zm-396.95-2.14a3.35,3.35,0,0,1-2-6.06,342.33,342.33,0,0,1,32.84-20.95,3.34,3.34,0,1,1,3.27,5.83,337.41,337.41,0,0,0-32.2,20.55A3.36,3.36,0,0,1,321.91,259.57Zm330.16-36.25a3.43,3.43,0,0,1-1.32-.27A330.87,330.87,0,0,0,614.85,210a3.35,3.35,0,1,1,1.92-6.41A338,338,0,0,1,653.4,216.9a3.35,3.35,0,0,1-1.33,6.42Zm-263-1.39a3.34,3.34,0,0,1-1.29-6.43,338.35,338.35,0,0,1,36.74-12.94,3.35,3.35,0,0,1,1.86,6.43,333.59,333.59,0,0,0-36,12.68A3.27,3.27,0,0,1,389.11,221.93Zm189.18-20.71a3.79,3.79,0,0,1-.58-.05c-8-1.43-16.23-2.58-24.37-3.43-4.5-.46-9.05-.84-13.55-1.12a3.35,3.35,0,1,1,.42-6.68c4.58.28,9.23.67,13.82,1.15,8.3.86,16.66,2,24.85,3.49a3.35,3.35,0,0,1-.59,6.64Zm-115.2-.65a3.35,3.35,0,0,1-.55-6.65,340.22,340.22,0,0,1,38.72-4.22,3.35,3.35,0,0,1,.34,6.69,336,336,0,0,0-38,4.13A3.64,3.64,0,0,1,463.09,200.57Z"/><circle class="cls-5" cx="518.98" cy="529.73" r="247.79" transform="translate(-222.57 522.13) rotate(-45)"/><polygon class="cls-3" points="446 494.51 431.34 447.46 395.26 447.46 380.6 494.51 446 494.51"/><path class="cls-4" d="M446,497.85H380.6a3.34,3.34,0,0,1-3.2-4.34l14.66-47a3.36,3.36,0,0,1,3.2-2.36h36.08a3.35,3.35,0,0,1,3.19,2.36l14.66,47a3.34,3.34,0,0,1-3.19,4.34Zm-60.86-6.69h56.31l-12.57-40.35H397.72Z"/><path class="cls-6" d="M254.06,420.53v10.68a16,16,0,0,0,16,16H553.16a16,16,0,0,0,16-16V420.53Z"/><path class="cls-4" d="M553.16,450.58H270.09a19.39,19.39,0,0,1-19.38-19.37V420.53a3.35,3.35,0,1,1,6.69,0v10.68a12.7,12.7,0,0,0,12.69,12.68H553.16a12.7,12.7,0,0,0,12.68-12.68V420.53a3.35,3.35,0,1,1,6.69,0v10.68A19.39,19.39,0,0,1,553.16,450.58Z"/><path class="cls-3" d="M515.77,229.11H552.4c9.27,0,16.79,7.1,16.79,15.86V420.76H254.06V245c0-8.76,7.51-15.86,16.79-15.86H515.77Z"/><path class="cls-4" d="M569.19,424.11H254.06a3.35,3.35,0,0,1-3.35-3.35V245c0-10.59,9-19.2,20.14-19.2H552.4c11.1,0,20.13,8.61,20.13,19.2V420.76A3.35,3.35,0,0,1,569.19,424.11ZM257.4,417.42H565.84V245c0-6.9-6-12.51-13.44-12.51H270.85c-7.42,0-13.45,5.61-13.45,12.51Z"/><path class="cls-7" d="M288.38,336.55s-4.51-2.24-4.23-9.94c.35-9.23,12-9.12,7.42-16.25-3.16-4.93-8.56-9.69-3.71-14.26s4-6.27,2.57-13.4,5.84-7.48,6-10.55c1.43-31.64,29.31-24,29.31-24l.91.09a56.72,56.72,0,0,1,17.21-2.4l8.33,1.22a21.54,21.54,0,0,1,8.86,4.83l5.4,8.49a35.38,35.38,0,0,1,1.76,11.81c0,3.07,7.41,3.43,6,10.55s-2.28,8.84,2.57,13.4-.55,9.33-3.71,14.26c-4.56,7.13,7.07,7,7.42,16.25.19,5.16-2.06,8-3.56,9.34Z"/><path class="cls-4" d="M288.34,339.89a3.28,3.28,0,0,1-1.45-.34c-2.39-1.19-6.37-5.28-6.08-13.06.22-5.86,3.92-9,6.36-11,.75-.63,2-1.69,2.11-2.1h0a2.63,2.63,0,0,0-.53-1.19c-.56-.87-1.2-1.74-1.84-2.61-2.77-3.8-7.42-10.16-1.34-15.88,3.09-2.92,3.05-3.14,1.91-8.68l-.34-1.63c-1.31-6.55,2.78-9.51,5-11.1.32-.24.73-.53,1-.75.58-10.65,4.08-18.38,10.4-23,9.11-6.64,20.76-4.21,22.81-3.71a60.21,60.21,0,0,1,17.64-2.36l.38,0,8.34,1.22a3.29,3.29,0,0,1,.43.09,24.69,24.69,0,0,1,10.21,5.6,3.39,3.39,0,0,1,.55.65l5.4,8.49a3.49,3.49,0,0,1,.34.7,38.72,38.72,0,0,1,1.94,12.34c.25.21.63.49.94.71,2.19,1.59,6.29,4.55,5,11.07l-.34,1.63c-1.14,5.54-1.19,5.76,1.91,8.68,6.08,5.72,1.43,12.08-1.34,15.88-.64.87-1.28,1.74-1.84,2.61a2.59,2.59,0,0,0-.53,1.2c.1.4,1.36,1.46,2.1,2.09,2.45,2.06,6.15,5.18,6.37,11,.25,6.61-2.83,10.34-4.69,12a3.35,3.35,0,0,1-4.42-5c1.18-1,2.56-3,2.42-6.69-.1-2.71-1.57-4.14-4-6.17s-6.88-5.8-2.9-12c.64-1,1.36-2,2.07-3,3.56-4.86,3.58-5.73,2.17-7.06-5.59-5.26-5.23-8.37-3.88-14.9l.32-1.59c.44-2.2-.26-2.83-2.34-4.34-1.57-1.13-3.71-2.68-3.71-5.56a32.86,32.86,0,0,0-1.45-10.35L358.44,254a18.21,18.21,0,0,0-7-3.74l-7.91-1.15a54,54,0,0,0-15.87,2.24,3.13,3.13,0,0,1-1.39.15l-.91-.09a3,3,0,0,1-.54-.1c-.1,0-10.26-2.66-17.44,2.61-4.68,3.43-7.25,9.61-7.64,18.36-.13,2.76-2.21,4.27-3.72,5.37-2.08,1.51-2.78,2.14-2.33,4.37l.32,1.59c1.35,6.53,1.71,9.64-3.88,14.9-1.41,1.33-1.39,2.2,2.17,7.06.71,1,1.43,2,2.06,3,4,6.21-.49,10-2.89,12s-3.89,3.46-4,6.17c-.2,5.24,2.35,6.8,2.46,6.86a3.4,3.4,0,0,1,1.3,4.51A3.33,3.33,0,0,1,288.34,339.89Z"/><path class="cls-3" d="M267.41,420.47V407.2L281,353.75,282.5,348a27.36,27.36,0,0,1,26.76-20.93h11.56V310.55l26.71-1.36v17.87h11.35c12.57,0,50.86,36.29,50.86,36.29l33.68-19a11.77,11.77,0,0,1,15.23,3.25h0a11.76,11.76,0,0,1-3.71,17.27l-39,21.84a16.79,16.79,0,0,1-18-1l-32.63-23.38Z"/><path class="cls-4" d="M267.41,423.82a3.35,3.35,0,0,1-3.35-3.35V407.2a3.32,3.32,0,0,1,.11-.83l15.09-59.2a30.54,30.54,0,0,1,30-23.46h8.21V310.55a3.34,3.34,0,0,1,3.17-3.34l26.71-1.37a3.38,3.38,0,0,1,2.47.92,3.34,3.34,0,0,1,1.05,2.43v14.52h8c12.29,0,41.93,26.72,51.36,35.52l31.53-17.78a15.12,15.12,0,1,1,14.81,26.36l-39,21.84A20.22,20.22,0,0,1,396,388.44l-32.63-23.38a3.35,3.35,0,1,1,3.9-5.44L399.89,383a13.48,13.48,0,0,0,14.39.8l39-21.84a8.42,8.42,0,1,0-8.25-14.68l-33.68,19a3.36,3.36,0,0,1-3.95-.49C393,352.1,367.06,330.4,358.88,330.4H347.53a3.35,3.35,0,0,1-3.35-3.34V312.71l-20,1v13.33a3.35,3.35,0,0,1-3.35,3.34H309.27a23.9,23.9,0,0,0-23.51,18.36l-15,58.86v12.85A3.35,3.35,0,0,1,267.41,423.82Z"/><path class="cls-3" d="M359.36,281.83c0,.5,0,1,0,1.52,0,17-11.71,30.84-26.14,30.84-12.63,0-23.17-10.57-25.6-24.62Z"/><path class="cls-4" d="M333.26,317.54c-14,0-26.15-11.53-28.9-27.4A3.34,3.34,0,1,1,311,289c2.2,12.66,11.58,21.85,22.31,21.85,12.57,0,22.79-12.33,22.79-27.49,0-.46,0-.92,0-1.37a3.34,3.34,0,0,1,6.68-.3c0,.55,0,1.11,0,1.67C362.74,302.2,349.52,317.54,333.26,317.54Z"/><path class="cls-3" d="M359.37,282.08c-.94-7.1-8-8.33-11.51-9.13-20.7-4.67-20.4-14.58-20.4-14.58s0,11.66-7.29,14.58-6.73,4.22-5.83,8.74c1,5.1-3.67,5.92-6.57,7.94Z"/><path class="cls-4" d="M307.77,293a3.35,3.35,0,0,1-1.92-6.09,24.71,24.71,0,0,1,2.53-1.48c2.89-1.53,2.93-1.81,2.68-3.06l-.09-.47c-1.22-6-.21-8.78,8-12,4.88-1.95,5.17-10.95,5.18-11.45v-.12a3.35,3.35,0,0,1,3.35-3.24h.05a3.34,3.34,0,0,1,3.3,3.34.54.54,0,0,1,0,.11c0,.19.84,7.38,17.8,11.2l.48.11c3.71.82,12.41,2.74,13.61,11.85a3.34,3.34,0,1,1-6.63.88c-.55-4.13-4.14-5.25-8.42-6.2l-.52-.11c-9.3-2.1-14.86-5.27-18.16-8.37-1.33,3.34-3.62,6.64-7.55,8.21-3.5,1.4-4.15,2.07-4.27,2.24a18.26,18.26,0,0,0,.39,2.27l.1.47c1.27,6.39-3.54,8.93-6.12,10.3a17.85,17.85,0,0,0-1.83,1.05A3.3,3.3,0,0,1,307.77,293Z"/><path class="cls-3" d="M333.76,378.64c-1.7-18.73-23.62-28.91-23.62-28.91-9,7.85-10.61,17.11-11.87,22.93a22,22,0,0,0,1.43,14.09,81.53,81.53,0,0,1,3.73,33.72Z"/><path class="cls-4" d="M303.44,423.82l-.37,0a3.36,3.36,0,0,1-3-3.7A78.79,78.79,0,0,0,296.6,388,25.58,25.58,0,0,1,295,372l.18-.82c1.25-5.87,3.34-15.71,12.76-23.92a3.34,3.34,0,0,1,3.61-.51c1,.44,23.69,11.23,25.55,31.63a3.35,3.35,0,1,1-6.67.61c-1.22-13.49-14.64-22.27-19.74-25.14-6.34,6.37-7.84,13.45-9,18.72l-.17.84a18.71,18.71,0,0,0,1.17,11.95c0,.09.08.18.11.27a84.24,84.24,0,0,1,3.93,35.26A3.35,3.35,0,0,1,303.44,423.82Z"/><path class="cls-3" d="M333.76,378.64c1.71-18.73,21.79-28.46,21.79-28.46a41.35,41.35,0,0,1,13.62,22.48,22,22,0,0,1-1.42,14.09s-5.74,17.55-4.54,33.72Z"/><path class="cls-4" d="M363.21,423.82a3.36,3.36,0,0,1-3.34-3.1c-1.23-16.64,4.45-34.27,4.7-35a2.74,2.74,0,0,1,.15-.4,18.77,18.77,0,0,0,1.18-11.95,37.64,37.64,0,0,0-10.83-19.08c-4.78,2.87-16.76,11.36-18,24.66a3.35,3.35,0,1,1-6.67-.61c1.86-20.37,22.77-30.73,23.66-31.16a3.32,3.32,0,0,1,3.66.49A44.64,44.64,0,0,1,372.44,372a25.53,25.53,0,0,1-1.57,16c-.59,1.87-5.39,17.81-4.32,32.25a3.36,3.36,0,0,1-3.09,3.59Z"/><path class="cls-3" d="M310.14,349.73v0Z"/><path class="cls-4" d="M310.14,353.08a3.35,3.35,0,0,1-3.35-3.35V327.11a3.35,3.35,0,0,1,6.7,0v22.62A3.35,3.35,0,0,1,310.14,353.08Z"/><path class="cls-3" d="M355.54,350.18v0Z"/><path class="cls-4" d="M355.54,353.53a3.35,3.35,0,0,1-3.35-3.35V327.23a3.35,3.35,0,1,1,6.7,0v22.95A3.35,3.35,0,0,1,355.54,353.53Z"/><polygon class="cls-3" points="298.18 381.55 288.77 410.41 288.77 420.53 298.18 381.55"/><path class="cls-4" d="M288.78,423.87a3.35,3.35,0,0,1-3.35-3.34V410.41a3.57,3.57,0,0,1,.16-1L295,380.51a3.35,3.35,0,1,1,6.36,2.08L292.12,411v9.58A3.35,3.35,0,0,1,288.78,423.87Z"/><rect class="cls-7" x="438.33" y="292.44" width="16.02" height="10.68"/><path class="cls-4" d="M454.35,306.47a3.35,3.35,0,0,1-3.35-3.35v-7.33h-9.33v7.33a3.35,3.35,0,1,1-6.69,0V292.44a3.35,3.35,0,0,1,3.35-3.35h16a3.35,3.35,0,0,1,3.35,3.35v10.68A3.35,3.35,0,0,1,454.35,306.47Z"/><path class="cls-7" d="M467.7,327.06v10.79a5.23,5.23,0,0,1-5.22,5.23H430.2a5.23,5.23,0,0,1-5.23-5.23V310.92a5.23,5.23,0,0,1,5.23-5.23h32.28a5.23,5.23,0,0,1,5.22,5.23v16.14Z"/><path class="cls-4" d="M462.48,346.43H430.2a8.58,8.58,0,0,1-8.57-8.58V310.92a8.58,8.58,0,0,1,8.57-8.58h32.28a8.59,8.59,0,0,1,8.57,8.58v5.46a3.35,3.35,0,0,1-6.69,0v-5.46a1.88,1.88,0,0,0-1.88-1.88H430.2a1.88,1.88,0,0,0-1.88,1.88v26.93a1.88,1.88,0,0,0,1.88,1.88h32.28a1.88,1.88,0,0,0,1.88-1.88V327.06a3.35,3.35,0,1,1,6.69,0v10.79A8.59,8.59,0,0,1,462.48,346.43Z"/><path class="cls-3" d="M505.83,268.61l11.56-3.31Z"/><path class="cls-4" d="M505.83,272a3.34,3.34,0,0,1-.92-6.56l11.57-3.3a3.34,3.34,0,0,1,1.83,6.43l-11.56,3.3A3.3,3.3,0,0,1,505.83,272Z"/><path class="cls-3" d="M471.45,278.42l24.61-7Z"/><path class="cls-4" d="M471.45,281.77a3.35,3.35,0,0,1-.91-6.57l24.6-7a3.34,3.34,0,0,1,1.83,6.43l-24.6,7A3.25,3.25,0,0,1,471.45,281.77Z"/><path class="cls-3" d="M471.45,296l45.94,13.12Z"/><path class="cls-4" d="M517.4,312.44a3.71,3.71,0,0,1-.92-.13l-45.94-13.12a3.34,3.34,0,0,1,1.83-6.43l45.94,13.11a3.35,3.35,0,0,1-.91,6.57Z"/><path class="cls-3" d="M491.74,287h0Z"/><path class="cls-4" d="M523.79,290.35h-32a3.35,3.35,0,0,1,0-6.7h32a3.35,3.35,0,0,1,0,6.7Z"/><path class="cls-3" d="M526.46,375.13h0Z"/><path class="cls-4" d="M542.48,378.48h-16a3.35,3.35,0,0,1,0-6.7h16a3.35,3.35,0,0,1,0,6.7Z"/><path class="cls-3" d="M467.7,375.13h0Z"/><path class="cls-4" d="M513.1,378.48H467.7a3.35,3.35,0,0,1,0-6.7h45.4a3.35,3.35,0,0,1,0,6.7Z"/><path class="cls-3" d="M467.7,391.15h0Z"/><path class="cls-4" d="M542.48,394.5H467.7a3.35,3.35,0,0,1,0-6.7h74.78a3.35,3.35,0,1,1,0,6.7Z"/><path class="cls-3" d="M366.22,506v-8.36a2.33,2.33,0,0,1,2.33-2.33h88.81a2.33,2.33,0,0,1,2.33,2.33V506Z"/><path class="cls-4" d="M459.69,509.33a3.35,3.35,0,0,1-3.34-3.34v-7.34H369.57V506a3.35,3.35,0,0,1-6.69,0v-8.36a5.67,5.67,0,0,1,5.67-5.67h88.81a5.68,5.68,0,0,1,5.68,5.67V506A3.35,3.35,0,0,1,459.69,509.33Z"/><rect class="cls-3" x="242.68" y="573.79" width="302.97" height="220.81"/><rect class="cls-7" x="283.76" y="689.32" width="56.49" height="102.7" rx="28.24"/><path class="cls-4" d="M312,795.37a31.62,31.62,0,0,1-31.59-31.59V717.57a31.59,31.59,0,0,1,63.18,0v46.21A31.62,31.62,0,0,1,312,795.37Zm0-102.7a24.93,24.93,0,0,0-24.89,24.9v46.21a24.9,24.9,0,1,0,49.79,0V717.57A24.93,24.93,0,0,0,312,692.67Z"/><path class="cls-4" d="M312,810.78a47.05,47.05,0,0,1-47-47V738.11a3.35,3.35,0,0,1,3.34-3.35h15.41a3.35,3.35,0,1,1,0,6.69H271.7v22.33a40.3,40.3,0,1,0,80.6,0V741.45H340.24a3.35,3.35,0,0,1,0-6.69h15.41a3.35,3.35,0,0,1,3.35,3.35v25.67A47.06,47.06,0,0,1,312,810.78Z"/><path class="cls-4" d="M340.24,752.85H283.76a3.35,3.35,0,1,1,0-6.7h56.48a3.35,3.35,0,0,1,0,6.7Z"/><path class="cls-4" d="M319.7,833.88a3.35,3.35,0,0,1-3.34-3.34V807.43a3.35,3.35,0,1,1,6.69,0v23.11A3.35,3.35,0,0,1,319.7,833.88Z"/><path class="cls-4" d="M306.87,833.88a3.35,3.35,0,0,1-3.35-3.34V807.43a3.35,3.35,0,0,1,6.7,0v23.11A3.35,3.35,0,0,1,306.87,833.88Z"/><path class="cls-4" d="M337.68,846.72H288.9a3.35,3.35,0,0,1-3.35-3.35v-8a8.21,8.21,0,0,1,8.2-8.2h39.07a8.21,8.21,0,0,1,8.2,8.2v8A3.35,3.35,0,0,1,337.68,846.72ZM292.24,840h42.09v-4.64a1.52,1.52,0,0,0-1.51-1.51H293.75a1.52,1.52,0,0,0-1.51,1.51Z"/><path class="cls-4" d="M545.64,797.94H360.78a3.35,3.35,0,0,1,0-6.7h30V577.13H246V791.24h22.32a3.35,3.35,0,0,1,0,6.7H242.68a3.35,3.35,0,0,1-3.35-3.35V573.79a3.35,3.35,0,0,1,3.35-3.35H412.13a3.35,3.35,0,1,1,0,6.69H397.51V791.24H542.3V574.57H527.67a3.35,3.35,0,1,1,0-6.7h18a3.35,3.35,0,0,1,3.35,3.35V794.59A3.35,3.35,0,0,1,545.64,797.94Z"/><rect class="cls-6" x="263.22" y="599.46" width="59.05" height="56.49"/><path class="cls-4" d="M322.27,659.29h-59a3.35,3.35,0,0,1-3.35-3.34V599.46a3.35,3.35,0,0,1,3.35-3.35h59a3.35,3.35,0,0,1,3.35,3.35V656A3.35,3.35,0,0,1,322.27,659.29Zm-55.7-6.69h52.35V602.81H266.57Z"/><path class="cls-4" d="M371.06,602.81H337.68a3.35,3.35,0,0,1,0-6.7h33.38a3.35,3.35,0,0,1,0,6.7Z"/><path class="cls-4" d="M371.06,628.48H337.68a3.35,3.35,0,1,1,0-6.69h33.38a3.35,3.35,0,0,1,0,6.69Z"/><path class="cls-4" d="M371.06,656.73H337.68a3.35,3.35,0,0,1,0-6.7h33.38a3.35,3.35,0,0,1,0,6.7Z"/><path class="cls-6" d="M420,561h89.57l18.14-19.32V648.12a7.83,7.83,0,0,1-7.82,7.83H420a7.84,7.84,0,0,1-7.83-7.83V568.78A7.83,7.83,0,0,1,420,561Z"/><path class="cls-4" d="M519.85,659.29H420a11.18,11.18,0,0,1-11.17-11.17V568.77A11.18,11.18,0,0,1,420,557.6h88.12l17.15-18.26a3.34,3.34,0,0,1,5.79,2.29V648.12A11.18,11.18,0,0,1,519.85,659.29ZM420,564.3a4.48,4.48,0,0,0-4.48,4.47v79.35A4.49,4.49,0,0,0,420,652.6h99.89a4.48,4.48,0,0,0,4.47-4.48v-98L512,563.24a3.37,3.37,0,0,1-2.44,1.06Z"/><path class="cls-6" d="M502,620h0Z"/><path class="cls-4" d="M502,623.35H435.24a3.35,3.35,0,0,1,0-6.7H502a3.35,3.35,0,0,1,0,6.7Z"/><path class="cls-6" d="M473.76,594.33h0Z"/><path class="cls-4" d="M473.76,597.67H435.24a3.35,3.35,0,1,1,0-6.69h38.52a3.35,3.35,0,0,1,0,6.69Z"/><path class="cls-6" d="M502,594.33h0Z"/><path class="cls-4" d="M502,597.67H486.59a3.35,3.35,0,0,1,0-6.69H502a3.35,3.35,0,1,1,0,6.69Z"/><path class="cls-4" d="M523.81,780H416a7.22,7.22,0,0,1-7.21-7.21V693.19A7.21,7.21,0,0,1,416,686h60.32a3.35,3.35,0,1,1,0,6.69H416a.52.52,0,0,0-.52.52v79.57a.51.51,0,0,0,.52.51H523.81a.51.51,0,0,0,.51-.51V693.19a.51.51,0,0,0-.51-.52H491.73a3.35,3.35,0,1,1,0-6.69h32.08a7.22,7.22,0,0,1,7.21,7.21v79.57A7.23,7.23,0,0,1,523.81,780Z"/><polygon class="cls-7" points="481.46 705.54 442.94 716.46 442.94 737.15 481.46 748.07 481.46 705.54"/><path class="cls-4" d="M481.46,751.42a3.2,3.2,0,0,1-.92-.13L442,740.37a3.34,3.34,0,0,1-2.43-3.22V716.46a3.34,3.34,0,0,1,2.43-3.22l38.51-10.92a3.35,3.35,0,0,1,4.26,3.22v42.53a3.33,3.33,0,0,1-1.33,2.67A3.27,3.27,0,0,1,481.46,751.42Zm-35.17-16.79,31.82,9V710l-31.82,9Z"/><path class="cls-4" d="M442.94,740.5h-5.46a10.77,10.77,0,0,1-10.72-10.8v-5.79a10.77,10.77,0,0,1,10.72-10.8h5.46a3.35,3.35,0,0,1,0,6.7h-5.46a4.07,4.07,0,0,0-4,4.1v5.79a4.07,4.07,0,0,0,4,4.11h5.46a3.35,3.35,0,1,1,0,6.69Z"/><path class="cls-4" d="M442.94,763.13a8.5,8.5,0,0,1-8.48-8.49v-17.5a3.35,3.35,0,1,1,6.7,0v17.5a1.79,1.79,0,1,0,3.57,0v-16a3.35,3.35,0,0,1,6.7,0v16A8.5,8.5,0,0,1,442.94,763.13Z"/><path class="cls-4" d="M509.35,748.09a3.17,3.17,0,0,1-1-.14l-15.33-4.52A3.35,3.35,0,1,1,495,737l15.33,4.53a3.34,3.34,0,0,1-.95,6.55Z"/><path class="cls-4" d="M494,718.07a3.35,3.35,0,0,1-.95-6.56L508.4,707a3.34,3.34,0,1,1,1.9,6.41L495,717.93A3.52,3.52,0,0,1,494,718.07Z"/><path class="cls-4" d="M512.27,731.18h-18a3.35,3.35,0,0,1,0-6.69h18a3.35,3.35,0,0,1,0,6.69Z"/><path class="cls-3" d="M623.14,488.7l-1.22-103.51a8.44,8.44,0,0,1,8.42-8.44l106.95-.09a8.45,8.45,0,0,1,8.45,8.43l.72,184.12Z"/><path class="cls-4" d="M746.46,572.56a3.35,3.35,0,0,1-3.35-3.33l-.72-184.13A5.09,5.09,0,0,0,737.3,380h0l-106.95.09a5.09,5.09,0,0,0-5.09,5.09l1.23,103.47a3.35,3.35,0,0,1-3.31,3.39h0a3.35,3.35,0,0,1-3.35-3.31l-1.22-103.5a11.76,11.76,0,0,1,11.77-11.83l106.95-.1h0a11.8,11.8,0,0,1,11.78,11.77l.73,184.12a3.36,3.36,0,0,1-3.34,3.36Z"/><path class="cls-7" d="M671.86,423.07l0,31.75a4,4,0,0,0,6.15,3.32l23.67-15.49a4,4,0,0,0,.08-6.6l-23.7-16.27A4,4,0,0,0,671.86,423.07Z"/><path class="cls-4" d="M675.86,462.14a7.43,7.43,0,0,1-3.48-.88,7.31,7.31,0,0,1-3.84-6.44l0-31.75A7.33,7.33,0,0,1,680,417l23.7,16.27a7.32,7.32,0,0,1-.13,12.16l-23.68,15.49A7.27,7.27,0,0,1,675.86,462.14Zm0-39.71a.61.61,0,0,0-.3.08.57.57,0,0,0-.33.55h0l0,31.75a.6.6,0,0,0,.33.56.61.61,0,0,0,.65,0l23.67-15.49a.62.62,0,0,0,0-1l-23.7-16.27A.66.66,0,0,0,675.84,422.43Z"/><path class="cls-3" d="M757.5,531.94l-28.89.12a8.43,8.43,0,0,1-8.51-8.36l-1-106.94a8.43,8.43,0,0,1,8.36-8.51l106.94-1a8.45,8.45,0,0,1,8.52,8.36l.61,106.2Z"/><path class="cls-4" d="M728.51,535.41a11.8,11.8,0,0,1-11.76-11.67l-1-106.95a11.78,11.78,0,0,1,11.67-11.89l106.94-1a11.36,11.36,0,0,1,8.36,3.37,11.68,11.68,0,0,1,3.53,8.3l.61,106.21a3.35,3.35,0,0,1-3.32,3.37h0a3.35,3.35,0,0,1-3.35-3.33l-.61-106.2a5.09,5.09,0,0,0-5.09-5h-.05l-106.94,1a5.1,5.1,0,0,0-5,5.14l1,106.94a5.09,5.09,0,0,0,5.09,5h.05l28.91-.12h0a3.35,3.35,0,0,1,0,6.7l-28.89.12Z"/><circle class="cls-7" cx="759.53" cy="445.53" r="13.07" transform="translate(-92.58 667.56) rotate(-45)"/><path class="cls-4" d="M759.53,462a16.45,16.45,0,0,1-16.42-16.27,16.42,16.42,0,0,1,16.26-16.56,16.52,16.52,0,0,1,11.65,4.7A16.42,16.42,0,0,1,759.68,462Zm0-26.14h-.1a9.72,9.72,0,0,0,.1,19.44h.09a9.71,9.71,0,0,0,9.62-9.81h0a9.71,9.71,0,0,0-9.71-9.63Z"/><path class="cls-3" d="M719.89,501.53l10.22-10.41a17.21,17.21,0,0,1,24.34-.23h0a17.22,17.22,0,0,0,24.35-.23l26.87-27.38a17.22,17.22,0,0,1,24.35-.23,57.83,57.83,0,0,1,13.23,12.86Z"/><path class="cls-4" d="M719.89,504.88a3.35,3.35,0,0,1-2.39-5.69l10.22-10.42a20.42,20.42,0,0,1,14.48-6.15,21.14,21.14,0,0,1,14.6,5.88,13.73,13.73,0,0,0,9.71,4h.13a13.76,13.76,0,0,0,9.77-4.15l26.88-27.39a20.44,20.44,0,0,1,14.48-6.15h.2a20.38,20.38,0,0,1,14.17,5.67A60.83,60.83,0,0,1,846,474a3.35,3.35,0,0,1-5.46,3.87,55,55,0,0,0-12.36-12,3.11,3.11,0,0,1-.49-.39,14,14,0,0,0-9.84-4,13.79,13.79,0,0,0-9.77,4.15L781.19,493a20.57,20.57,0,0,1-29.08.28,13.75,13.75,0,0,0-9.71-4h-.13a13.76,13.76,0,0,0-9.77,4.15l-10.22,10.42A3.37,3.37,0,0,1,719.89,504.88Z"/><path class="cls-3" d="M787.73,501H695.9a4.87,4.87,0,0,1-4.87-4.87V484a14.38,14.38,0,0,0-14.38-14.38H613.92A14.37,14.37,0,0,0,599.55,484v154.2a14.37,14.37,0,0,0,14.37,14.38H841.31a14.38,14.38,0,0,0,14.38-14.38V515.39A14.37,14.37,0,0,0,841.31,501H787.73Z"/><path class="cls-4" d="M841.31,656H613.92a17.74,17.74,0,0,1-17.72-17.73V484a17.75,17.75,0,0,1,17.72-17.73h62.73A17.75,17.75,0,0,1,694.37,484v12.12a1.53,1.53,0,0,0,1.52,1.52H841.31A17.74,17.74,0,0,1,859,515.39V638.23A17.75,17.75,0,0,1,841.31,656ZM613.92,473a11,11,0,0,0-11,11v154.2a11,11,0,0,0,11,11H841.31a11,11,0,0,0,11-11V515.39a11,11,0,0,0-11-11H695.89a8.22,8.22,0,0,1-8.21-8.21V484a11,11,0,0,0-11-11Z"/><polygon class="cls-6" points="675.34 561.13 642.8 574.2 675.34 587.27 675.34 561.13"/><path class="cls-4" d="M675.34,590.61a3.22,3.22,0,0,1-1.24-.24L641.55,577.3a3.35,3.35,0,0,1,0-6.21L674.1,558a3.35,3.35,0,0,1,2.49,6.22l-24.81,10,24.81,10a3.35,3.35,0,0,1-1.25,6.45Z"/><path class="cls-7" d="M787.73,561.13h18.58a7.57,7.57,0,0,1,7.56,7.56v11a7.57,7.57,0,0,1-7.56,7.57H787.73Z"/><path class="cls-4" d="M806.31,590.61H787.73a3.35,3.35,0,0,1,0-6.69h18.58a4.22,4.22,0,0,0,4.21-4.22v-11a4.22,4.22,0,0,0-4.21-4.21H787.73a3.35,3.35,0,0,1,0-6.7h18.58a10.93,10.93,0,0,1,10.91,10.91v11A10.92,10.92,0,0,1,806.31,590.61Z"/><rect class="cls-3" x="675.34" y="561.13" width="112.39" height="26.14"/><path class="cls-4" d="M787.73,590.61H675.34a3.35,3.35,0,0,1-3.34-3.34V561.13a3.35,3.35,0,0,1,3.34-3.35H787.73a3.35,3.35,0,0,1,3.35,3.35v26.14A3.35,3.35,0,0,1,787.73,590.61Zm-109-6.69h105.7V564.48H678.69Z"/></g></g></svg>