<svg xmlns="http://www.w3.org/2000/svg" xmlns:xlink="http://www.w3.org/1999/xlink" viewBox="0 0 3138.68 1788.66"><defs><style>.cls-1{fill:none;}.cls-2{fill:#ddeffe;opacity:0.6;}.cls-3,.cls-56{fill:#9bd6e8;}.cls-11,.cls-3{opacity:0.5;}.cls-4{fill:#63acc2;}.cls-5{clip-path:url(#clip-path);}.cls-6{fill:#d5ebfe;}.cls-7{fill:#303c60;}.cls-8{fill:#f09959;}.cls-11,.cls-9{fill:#6791c9;}.cls-10{fill:#75a1de;}.cls-12{fill:#e38540;}.cls-13{fill:#f5ce5c;}.cls-14{fill:#4381db;}.cls-15{fill:#2e5b9a;}.cls-16{fill:#9cbeed;}.cls-17{fill:#fff;}.cls-18{fill:#232e4f;}.cls-19{fill:#1b243d;}.cls-20{fill:#ffd24f;}.cls-21{fill:#edc055;}.cls-22{fill:#2a66c6;}.cls-23{fill:#0f2d5c;}.cls-24{fill:#9ec8ff;}.cls-25{clip-path:url(#clip-path-2);}.cls-26{fill:#d54a41;}.cls-27{fill:#58556e;}.cls-28{fill:#7ec1d6;}.cls-29{fill:#8ddaf2;}.cls-30{fill:#3e6bab;}.cls-31{fill:#f37168;}.cls-32{fill:#ffcb30;}.cls-33{fill:#4578bf;}.cls-34{clip-path:url(#clip-path-3);}.cls-35{fill:#255096;}.cls-36{fill:#ffc34e;}.cls-37{fill:#a1a654;}.cls-38{fill:#c1c765;}.cls-39{clip-path:url(#clip-path-4);}.cls-40{fill:#a8ceff;}.cls-41{fill:#93bbf0;}.cls-42{clip-path:url(#clip-path-5);}.cls-43{fill:#fb8627;}.cls-44{fill:url(#Безымянный_градиент_37);}.cls-45{fill:url(#Безымянный_градиент_37-2);}.cls-46{fill:url(#Безымянный_градиент_37-3);}.cls-47{fill:url(#Безымянный_градиент_37-4);}.cls-48{clip-path:url(#clip-path-6);}.cls-49{fill:#c6e0f7;}.cls-50{fill:#2e2d3d;}.cls-51{fill:#bdccd4;}.cls-52{clip-path:url(#clip-path-7);}.cls-53{fill:#3a384d;}.cls-54{clip-path:url(#clip-path-8);}.cls-55{fill:#7a4e34;}</style><clipPath id="clip-path"><circle class="cls-1" cx="1380.97" cy="995.76" r="320.17" transform="translate(-299.63 1268.14) rotate(-45)"/></clipPath><clipPath id="clip-path-2"><circle class="cls-1" cx="774.33" cy="432.66" r="380"/></clipPath><clipPath id="clip-path-3"><circle class="cls-1" cx="2219.35" cy="400.85" r="351.03" transform="translate(366.59 1686.72) rotate(-45)"/></clipPath><clipPath id="clip-path-4"><circle class="cls-1" cx="2879.87" cy="1025.11" r="251.24" transform="translate(118.63 2336.63) rotate(-45)"/></clipPath><clipPath id="clip-path-5"><circle class="cls-1" cx="343.67" cy="1376.42" r="315.09"/></clipPath><linearGradient id="Безымянный_градиент_37" x1="2673.94" y1="1237.89" x2="2134.9" y2="1877.06" gradientTransform="translate(-2051.62)" gradientUnits="userSpaceOnUse"><stop offset="0" stop-color="#ffc34e"/><stop offset="1" stop-color="#fb8627"/></linearGradient><linearGradient id="Безымянный_градиент_37-2" x1="2568.66" y1="1149.1" x2="2029.62" y2="1788.28" xlink:href="#Безымянный_градиент_37"/><linearGradient id="Безымянный_градиент_37-3" x1="2693.91" y1="1033.07" x2="2323.57" y2="1695.56" xlink:href="#Безымянный_градиент_37"/><linearGradient id="Безымянный_градиент_37-4" x1="2661.96" y1="1190.47" x2="2086.64" y2="1872.66" xlink:href="#Безымянный_градиент_37"/><clipPath id="clip-path-6"><circle class="cls-1" cx="1442.21" cy="279.66" r="153"/></clipPath><clipPath id="clip-path-7"><circle class="cls-1" cx="157" cy="769.5" r="153"/></clipPath><clipPath id="clip-path-8"><circle class="cls-1" cx="2971.66" cy="423.8" r="163.03" transform="translate(570.71 2225.41) rotate(-45)"/></clipPath></defs><g id="Layer_2" data-name="Layer 2"><g id="Слой_1" data-name="Слой 1"><path class="cls-2" d="M72.34,1064.74c-122.33-535.13,232-955.25,960-1039.19,815.36-94,979.27,356.93,747.64,487.86s-623,939.15-673.32,1097S244.34,1817.15,72.34,1064.74Z"/><path class="cls-2" d="M2658.72,487.54c384.23,16.79,645.17,602.73,357.39,907.76s-1355.89,195.84-1317.83-25.57,494.06-150.28,690.06-423.84S2549.1,482.75,2658.72,487.54Z"/><path class="cls-3" d="M2782.86,1652.13c-299.35-.76-968.09,12.09-1493.65,39.38s-80.72,88.45,281.24,62.41,615.16,56.88,1058.18,28.88S3130.16,1653,2782.86,1652.13Z"/><path class="cls-4" d="M164.08,796a2.52,2.52,0,0,1-2.4-1.8l-7.08-24a2.5,2.5,0,0,1,1.32-3l22.55-10.8a2.5,2.5,0,0,1,2.16,4.51L160,770.83l6.48,21.94a2.52,2.52,0,0,1-2.4,3.21Z"/><path class="cls-4" d="M323.32,1335.09a2.5,2.5,0,0,1-2.4-1.79l-13.27-44.93a2.5,2.5,0,0,1,4.8-1.41l13.27,44.92A2.51,2.51,0,0,1,324,1335,2.53,2.53,0,0,1,323.32,1335.09Zm-26.54-89.85a2.51,2.51,0,0,1-2.4-1.79l-13.27-44.93a2.5,2.5,0,1,1,4.8-1.42L299.18,1242a2.49,2.49,0,0,1-2.4,3.21Zm-26.54-89.85a2.51,2.51,0,0,1-2.4-1.8l-13.27-44.92a2.5,2.5,0,0,1,4.8-1.42l13.27,44.93a2.5,2.5,0,0,1-1.69,3.1A2.56,2.56,0,0,1,270.24,1155.39Zm-26.54-89.86a2.5,2.5,0,0,1-2.4-1.79L228,1018.81a2.5,2.5,0,0,1,4.8-1.41l13.27,44.92a2.51,2.51,0,0,1-1.69,3.11A2.53,2.53,0,0,1,243.7,1065.53Zm-26.54-89.85a2.5,2.5,0,0,1-2.4-1.79L201.49,929a2.5,2.5,0,0,1,4.8-1.41l13.27,44.92a2.51,2.51,0,0,1-1.69,3.11A2.53,2.53,0,0,1,217.16,975.68Zm-26.54-89.85a2.51,2.51,0,0,1-2.4-1.79L175,839.11a2.5,2.5,0,0,1,4.8-1.42L193,882.62a2.49,2.49,0,0,1-2.4,3.21Z"/><path class="cls-4" d="M343.67,1404a2.59,2.59,0,0,1-1.12-.26,2.53,2.53,0,0,1-1.28-1.53l-7.08-24a2.5,2.5,0,0,1,4.8-1.41l6.32,21.41,20.94-7.75a2.5,2.5,0,1,1,1.73,4.69l-23.44,8.68A2.61,2.61,0,0,1,343.67,1404Z"/><path class="cls-4" d="M413.33,1378.22a2.5,2.5,0,0,1-.87-4.84l46.21-17.1a2.5,2.5,0,1,1,1.73,4.69l-46.21,17.1A2.6,2.6,0,0,1,413.33,1378.22ZM505.74,1344a2.5,2.5,0,0,1-.86-4.85l46.21-17.09a2.5,2.5,0,1,1,1.73,4.69l-46.21,17.09A2.39,2.39,0,0,1,505.74,1344Zm92.42-34.19a2.51,2.51,0,0,1-.87-4.85l46.21-17.1a2.5,2.5,0,1,1,1.74,4.69L599,1309.68A2.67,2.67,0,0,1,598.16,1309.84Zm92.42-34.2a2.5,2.5,0,0,1-.87-4.84l46.21-17.1a2.5,2.5,0,1,1,1.74,4.69l-46.21,17.1A2.65,2.65,0,0,1,690.58,1275.64ZM783,1241.45a2.51,2.51,0,0,1-.87-4.85l46.21-17.09a2.5,2.5,0,1,1,1.74,4.68l-46.21,17.1A2.43,2.43,0,0,1,783,1241.45Zm92.42-34.2a2.5,2.5,0,0,1-.87-4.84l46.21-17.1a2.5,2.5,0,0,1,1.74,4.69l-46.21,17.1A2.65,2.65,0,0,1,875.42,1207.25Zm92.42-34.19a2.5,2.5,0,0,1-.87-4.84l46.21-17.1a2.5,2.5,0,1,1,1.73,4.69L968.7,1172.9A2.34,2.34,0,0,1,967.84,1173.06Zm92.42-34.19a2.5,2.5,0,0,1-.87-4.85l46.21-17.09a2.49,2.49,0,1,1,1.73,4.68l-46.21,17.1A2.38,2.38,0,0,1,1060.26,1138.87Zm92.41-34.2a2.5,2.5,0,0,1-.86-4.84l46.21-17.1a2.5,2.5,0,1,1,1.73,4.69l-46.21,17.1A2.61,2.61,0,0,1,1152.67,1104.67Zm92.42-34.19a2.5,2.5,0,0,1-.86-4.84l46.21-17.1a2.5,2.5,0,1,1,1.73,4.69L1246,1070.32A2.43,2.43,0,0,1,1245.09,1070.48Z"/><path class="cls-4" d="M1382.46,1040.37a2.47,2.47,0,0,1-1.28-.35l-20.47-12.15-22.33,8.26a2.5,2.5,0,0,1-1.73-4.69l23.44-8.67a2.54,2.54,0,0,1,2.15.19l21.49,12.76a2.5,2.5,0,0,1-1.27,4.65Z"/><path class="cls-4" d="M2092.26,1461.66a2.47,2.47,0,0,1-1.28-.35L2046.62,1435a2.5,2.5,0,0,1,2.55-4.3l44.36,26.33a2.5,2.5,0,0,1-1.27,4.65ZM2003.53,1409a2.46,2.46,0,0,1-1.27-.35l-44.37-26.33a2.5,2.5,0,0,1,2.56-4.3l44.36,26.33a2.5,2.5,0,0,1-1.28,4.65Zm-88.72-52.66a2.47,2.47,0,0,1-1.28-.35l-44.36-26.33a2.5,2.5,0,0,1,2.55-4.3l44.36,26.33a2.5,2.5,0,0,1-1.27,4.65Zm-88.73-52.66a2.56,2.56,0,0,1-1.27-.35L1780.44,1277a2.5,2.5,0,0,1,2.56-4.3l44.36,26.33a2.5,2.5,0,0,1-1.28,4.65ZM1737.36,1251a2.57,2.57,0,0,1-1.28-.35l-44.36-26.34a2.5,2.5,0,0,1,2.55-4.29l44.36,26.33a2.5,2.5,0,0,1-1.27,4.65Zm-88.73-52.67a2.46,2.46,0,0,1-1.27-.35L1603,1171.67a2.5,2.5,0,1,1,2.56-4.29l44.36,26.33a2.5,2.5,0,0,1-1.28,4.64Zm-88.72-52.66a2.47,2.47,0,0,1-1.28-.35L1514.27,1119a2.5,2.5,0,0,1,2.55-4.3l44.36,26.33a2.5,2.5,0,0,1-1.27,4.65ZM1471.18,1093a2.46,2.46,0,0,1-1.27-.35l-44.37-26.33a2.5,2.5,0,0,1,2.56-4.3l44.36,26.33a2.5,2.5,0,0,1-1.28,4.65Z"/><path class="cls-4" d="M2158.12,1500.75a2.57,2.57,0,0,1-1.28-.35l-21.5-12.76a2.5,2.5,0,1,1,2.56-4.3l20.16,12,19.64-12.8a2.5,2.5,0,1,1,2.73,4.19l-20.95,13.65A2.56,2.56,0,0,1,2158.12,1500.75Z"/><path class="cls-4" d="M2223.45,1458.18a2.5,2.5,0,0,1-1.37-4.6l44.38-28.92a2.5,2.5,0,0,1,2.73,4.19l-44.38,28.92A2.43,2.43,0,0,1,2223.45,1458.18Zm88.76-57.85a2.5,2.5,0,0,1-1.37-4.59l44.38-28.92A2.5,2.5,0,0,1,2358,1371l-44.39,28.92A2.5,2.5,0,0,1,2312.21,1400.33Zm88.76-57.84a2.5,2.5,0,0,1-1.36-4.6L2444,1309a2.5,2.5,0,0,1,2.73,4.19l-44.38,28.92A2.46,2.46,0,0,1,2401,1342.49Zm88.77-57.84a2.5,2.5,0,0,1-1.37-4.6l44.38-28.92a2.5,2.5,0,0,1,2.73,4.19l-44.38,28.92A2.43,2.43,0,0,1,2489.74,1284.65Zm88.76-57.85a2.5,2.5,0,0,1-1.37-4.59l44.38-28.93a2.5,2.5,0,0,1,2.74,4.19l-44.39,28.93A2.5,2.5,0,0,1,2578.5,1226.8Zm88.76-57.84a2.5,2.5,0,0,1-1.36-4.6l44.38-28.92a2.5,2.5,0,0,1,2.73,4.19l-44.38,28.92A2.46,2.46,0,0,1,2667.26,1169Zm88.77-57.85a2.5,2.5,0,0,1-1.37-4.59L2799,1077.6a2.5,2.5,0,0,1,2.73,4.19l-44.38,28.92A2.5,2.5,0,0,1,2756,1111.11Z"/><path class="cls-4" d="M2844.79,1053.27a2.5,2.5,0,0,1-1.37-4.6l20-13.05,4.13-23.56a2.5,2.5,0,1,1,4.92.87l-4.31,24.62a2.49,2.49,0,0,1-1.1,1.66l-20.95,13.65A2.43,2.43,0,0,1,2844.79,1053.27Z"/><path class="cls-4" d="M2878.9,964.52a2.18,2.18,0,0,1-.44,0,2.49,2.49,0,0,1-2-2.89l8.84-50.47a2.5,2.5,0,1,1,4.93.86l-8.84,50.47A2.5,2.5,0,0,1,2878.9,964.52Zm17.69-100.95a3.25,3.25,0,0,1-.44,0,2.5,2.5,0,0,1-2-2.9l8.84-50.47a2.5,2.5,0,0,1,4.93.86l-8.84,50.48A2.5,2.5,0,0,1,2896.59,863.57Zm17.69-100.94a2.18,2.18,0,0,1-.44,0,2.5,2.5,0,0,1-2-2.89l8.84-50.48a2.5,2.5,0,0,1,4.93.87l-8.84,50.47A2.51,2.51,0,0,1,2914.28,762.63Zm17.68-101a2.15,2.15,0,0,1-.43,0,2.49,2.49,0,0,1-2-2.89l8.84-50.47a2.5,2.5,0,0,1,4.93.86l-8.85,50.47A2.49,2.49,0,0,1,2932,661.68Zm17.69-100.94a3.28,3.28,0,0,1-.43,0,2.5,2.5,0,0,1-2-2.9l8.84-50.47a2.5,2.5,0,0,1,4.93.86l-8.85,50.48A2.5,2.5,0,0,1,2949.65,560.74Z"/><path class="cls-4" d="M2967.34,459.79a2.15,2.15,0,0,1-.43,0,2.5,2.5,0,0,1-2-2.89l3.84-21.92-22.18-1.75a2.5,2.5,0,0,1,.39-5l24.92,2a2.51,2.51,0,0,1,2.27,2.93l-4.32,24.62A2.5,2.5,0,0,1,2967.34,459.79Z"/><path class="cls-4" d="M224.93,739.45a2.5,2.5,0,0,1-1.08-4.75L269.23,713a2.5,2.5,0,0,1,2.16,4.51L226,739.21A2.61,2.61,0,0,1,224.93,739.45ZM315.69,696a2.5,2.5,0,0,1-1.08-4.76L360,669.46a2.5,2.5,0,0,1,2.16,4.51l-45.39,21.74A2.41,2.41,0,0,1,315.69,696Zm90.77-43.49a2.5,2.5,0,0,1-1.08-4.76L450.76,626a2.5,2.5,0,1,1,2.16,4.5l-45.38,21.75A2.47,2.47,0,0,1,406.46,652.47ZM497.23,609a2.5,2.5,0,0,1-1.09-4.75l45.39-21.75a2.5,2.5,0,0,1,2.16,4.51L498.3,608.73A2.39,2.39,0,0,1,497.23,609ZM588,565.48a2.5,2.5,0,0,1-1.08-4.75L632.29,539a2.5,2.5,0,1,1,2.16,4.51l-45.38,21.75A2.61,2.61,0,0,1,588,565.48ZM678.76,522a2.5,2.5,0,0,1-1.08-4.75l45.38-21.75a2.5,2.5,0,0,1,2.16,4.51l-45.38,21.74A2.47,2.47,0,0,1,678.76,522Zm90.76-43.49a2.5,2.5,0,0,1-1.08-4.76l30-14.39a2.92,2.92,0,0,1,.38-.14l16.34-4.77a2.5,2.5,0,1,1,1.4,4.8L800.45,464l-29.85,14.3A2.44,2.44,0,0,1,769.52,478.5Zm94.68-33.27a2.5,2.5,0,0,1-.7-4.9l48.3-14.11a2.5,2.5,0,1,1,1.41,4.8L864.9,445.13A2.42,2.42,0,0,1,864.2,445.23Zm2032.37-16h-.2l-50.17-4a2.5,2.5,0,1,1,.4-5l50.16,4a2.5,2.5,0,0,1-.19,5Zm-100.34-7.92h-.2l-50.16-4a2.5,2.5,0,1,1,.39-5l50.17,4a2.5,2.5,0,0,1-.2,5ZM960.81,417a2.5,2.5,0,0,1-.7-4.9L1008.42,398a2.5,2.5,0,0,1,1.4,4.8l-48.31,14.11A2.82,2.82,0,0,1,960.81,417Zm1735.09-3.64h-.2l-50.17-4a2.5,2.5,0,0,1,.4-5l50.16,4a2.5,2.5,0,0,1-.19,5Zm-100.34-7.93h-.2l-50.16-4a2.5,2.5,0,1,1,.39-5l50.17,4a2.5,2.5,0,0,1-.2,5Zm-100.33-7.92h-.2l-50.17-4a2.5,2.5,0,0,1,.39-5l50.17,4a2.5,2.5,0,0,1-.19,5Zm-100.34-7.93h-.2l-50.16-4a2.5,2.5,0,1,1,.39-5l50.17,4a2.5,2.5,0,0,1-.2,5Zm-1337.47-.8a2.5,2.5,0,0,1-.7-4.9L1105,369.8a2.5,2.5,0,1,1,1.4,4.8l-48.3,14.1A2.48,2.48,0,0,1,1057.42,388.8Zm1237.14-7.13h-.2l-50.17-4a2.5,2.5,0,1,1,.4-5l50.16,4a2.5,2.5,0,0,1-.19,5Zm-100.27-8.57-.3,0-50-5.89a2.5,2.5,0,1,1,.59-5l50,5.88a2.5,2.5,0,0,1-.29,5Zm-100-11.78-.29,0-50-5.89a2.5,2.5,0,1,1,.58-5l50,5.89a2.5,2.5,0,0,1-.29,5ZM1154,360.59a2.5,2.5,0,0,1-.7-4.9l48.3-14.11a2.5,2.5,0,0,1,1.4,4.8l-48.3,14.11A2.47,2.47,0,0,1,1154,360.59Zm840.33-11a1.46,1.46,0,0,1-.29,0l-50-5.89a2.5,2.5,0,1,1,.59-5l50,5.89a2.5,2.5,0,0,1-.29,5Zm-99.95-11.78h-.3l-50-5.89a2.5,2.5,0,0,1,.58-5l50,5.89a2.5,2.5,0,0,1-.29,5Zm-643.77-5.38a2.5,2.5,0,0,1-.7-4.9l48.31-14.11a2.5,2.5,0,0,1,1.4,4.8l-48.31,14.1A2.43,2.43,0,0,1,1250.65,332.38Zm543.81-6.4h-.29l-50-5.89a2.5,2.5,0,0,1,.58-5l50,5.89a2.5,2.5,0,0,1-.29,5Zm-100-11.77-.3,0-50-5.89a2.5,2.5,0,1,1,.59-5l50,5.89a2.5,2.5,0,0,1-.29,5Zm-347.25-10a2.5,2.5,0,0,1-.7-4.9l48.31-14.1a2.5,2.5,0,1,1,1.4,4.8L1348,304.06A2.42,2.42,0,0,1,1347.26,304.16Zm247.29-1.73-.3,0-50-5.89a2.5,2.5,0,1,1,.58-5l50,5.88a2.5,2.5,0,0,1-.29,5Zm-100-11.78-.29,0-50-5.89a2.5,2.5,0,1,1,.58-5l50,5.89a2.5,2.5,0,0,1-.29,5Z"/><path class="cls-4" d="M201.92,781.56a2.35,2.35,0,0,1-.52,0L177,776.32a2.5,2.5,0,1,1,1-4.89l24.46,5.19a2.5,2.5,0,0,1-.52,4.94Z"/><path class="cls-4" d="M1287.18,1012a2.24,2.24,0,0,1-.52-.06l-49.33-10.47a2.5,2.5,0,1,1,1-4.89l49.33,10.47a2.5,2.5,0,0,1-.51,5Zm-98.66-21a2.24,2.24,0,0,1-.52,0l-49.33-10.47a2.5,2.5,0,1,1,1-4.89L1189,986.06a2.5,2.5,0,0,1-.51,4.94Zm-98.66-20.94a3.05,3.05,0,0,1-.52,0L1040,959.53a2.5,2.5,0,1,1,1-4.89l49.33,10.47a2.5,2.5,0,0,1-.52,4.95ZM991.2,949.12a2.31,2.31,0,0,1-.52-.06l-49.33-10.47a2.5,2.5,0,1,1,1-4.89l49.32,10.47a2.5,2.5,0,0,1-.51,5Zm-98.66-21a3.05,3.05,0,0,1-.52,0l-49.33-10.48a2.5,2.5,0,1,1,1-4.89l49.33,10.48a2.5,2.5,0,0,1-.52,4.94Zm-98.66-20.94a2.31,2.31,0,0,1-.52-.06L744,896.7a2.5,2.5,0,1,1,1-4.89l49.33,10.47a2.5,2.5,0,0,1-.52,5Zm-98.66-21a2.29,2.29,0,0,1-.52,0l-49.33-10.47a2.5,2.5,0,1,1,1-4.89l49.33,10.47a2.5,2.5,0,0,1-.52,4.94Zm-98.66-20.94a2.31,2.31,0,0,1-.52-.06l-49.33-10.47a2.5,2.5,0,1,1,1-4.89l49.33,10.47a2.5,2.5,0,0,1-.52,5ZM497.9,844.4a2.31,2.31,0,0,1-.52-.06l-49.33-10.47a2.5,2.5,0,1,1,1-4.89l49.33,10.47a2.5,2.5,0,0,1-.52,4.95Zm-98.66-20.95a3.05,3.05,0,0,1-.52-.05l-49.33-10.47a2.5,2.5,0,0,1,1-4.9l49.33,10.48a2.5,2.5,0,0,1-.52,4.94Zm-98.66-20.94a2.31,2.31,0,0,1-.52-.06L250.73,792a2.5,2.5,0,1,1,1-4.89l49.33,10.47a2.5,2.5,0,0,1-.52,5Z"/><path class="cls-4" d="M1361,1027.61a3.05,3.05,0,0,1-.52,0l-24.45-5.19a2.5,2.5,0,1,1,1-4.89l21.76,4.61,2.49-22.1a2.5,2.5,0,1,1,5,.56l-2.8,24.84a2.49,2.49,0,0,1-2.48,2.22Z"/><path class="cls-4" d="M1369.58,951.09l-.28,0a2.5,2.5,0,0,1-2.21-2.76l5.82-51.68a2.5,2.5,0,1,1,5,.56l-5.82,51.68A2.5,2.5,0,0,1,1369.58,951.09Zm11.64-103.36-.28,0a2.5,2.5,0,0,1-2.21-2.76l5.82-51.68a2.5,2.5,0,1,1,5,.56l-5.82,51.68A2.5,2.5,0,0,1,1381.22,847.73Zm11.64-103.36-.28,0a2.5,2.5,0,0,1-2.21-2.76l5.82-51.68a2.5,2.5,0,1,1,5,.56l-5.82,51.68A2.5,2.5,0,0,1,1392.86,744.37ZM1404.5,641l-.28,0a2.5,2.5,0,0,1-2.21-2.76l5.82-51.68a2.5,2.5,0,1,1,5,.56L1407,638.79A2.51,2.51,0,0,1,1404.5,641Zm11.64-103.36-.28,0a2.5,2.5,0,0,1-2.21-2.76l5.82-51.68a2.5,2.5,0,1,1,5,.56l-5.82,51.68A2.51,2.51,0,0,1,1416.14,537.65Zm11.64-103.36-.28,0a2.5,2.5,0,0,1-2.21-2.76l5.82-51.68a2.5,2.5,0,1,1,5,.55l-5.82,51.69A2.51,2.51,0,0,1,1427.78,434.29Z"/><path class="cls-4" d="M1439.42,330.92h-.29a2.5,2.5,0,0,1-2.2-2.77l2.8-24.84a2.5,2.5,0,0,1,5,.56l-2.8,24.84A2.5,2.5,0,0,1,1439.42,330.92Z"/><path class="cls-4" d="M386.88,1425.77h-.12l-25-1.16a2.5,2.5,0,0,1,.23-5l25,1.17a2.5,2.5,0,0,1-.11,5Z"/><path class="cls-4" d="M1919.09,1497.2H1919l-51.07-2.38a2.5,2.5,0,1,1,.23-5l51.07,2.38a2.5,2.5,0,0,1-.11,5Zm-102.15-4.76h-.12l-51.07-2.38a2.5,2.5,0,0,1,.23-5l51.07,2.38a2.5,2.5,0,0,1-.11,5Zm-102.15-4.76h-.12l-51.07-2.38a2.5,2.5,0,0,1,.23-5l51.08,2.38a2.5,2.5,0,0,1-.12,5Zm-102.15-4.76h-.11l-51.08-2.38a2.5,2.5,0,0,1-2.38-2.61,2.52,2.52,0,0,1,2.62-2.38l51.07,2.38a2.5,2.5,0,0,1-.12,5Zm-102.14-4.77h-.12l-51.07-2.38a2.5,2.5,0,1,1,.23-5l51.07,2.38a2.5,2.5,0,0,1-.11,5Zm-102.15-4.76h-.12l-51.07-2.38a2.5,2.5,0,0,1,.23-5l51.07,2.38a2.5,2.5,0,0,1-.11,5Zm-102.15-4.76h-.11l-51.08-2.39a2.5,2.5,0,1,1,.23-5l51.08,2.38a2.5,2.5,0,0,1-.12,5Zm-102.14-4.76h-.12l-51.08-2.38a2.5,2.5,0,1,1,.24-5l51.07,2.38a2.5,2.5,0,0,1-.11,5Zm-102.15-4.77h-.12l-51.07-2.38a2.5,2.5,0,1,1,.23-5l51.07,2.38a2.5,2.5,0,0,1-.11,5Zm-102.15-4.76h-.12L948.57,1452a2.5,2.5,0,0,1,.23-5l51.08,2.38a2.5,2.5,0,0,1-.12,5Zm-102.15-4.76h-.11l-51.08-2.39a2.5,2.5,0,1,1,.23-5l51.08,2.38a2.5,2.5,0,0,1-.12,5Zm-102.14-4.76h-.12l-51.08-2.38a2.5,2.5,0,1,1,.24-5l51.07,2.38a2.5,2.5,0,0,1-.11,5Zm-102.15-4.77h-.12l-51.07-2.38a2.5,2.5,0,0,1,.23-5l51.07,2.38a2.5,2.5,0,0,1-.11,5Zm-102.15-4.76h-.12L540,1432.91a2.5,2.5,0,0,1,.23-5l51.08,2.38a2.5,2.5,0,0,1-.12,5ZM489,1430.53h-.11l-51.08-2.38a2.5,2.5,0,0,1,.23-5l51.08,2.38a2.5,2.5,0,0,1-.12,5Z"/><path class="cls-4" d="M1995.13,1500.75H1995l-25-1.17a2.5,2.5,0,0,1-2.38-2.61,2.54,2.54,0,0,1,2.62-2.38l25,1.16a2.5,2.5,0,0,1-.12,5Z"/><path class="cls-4" d="M2916.54,1125.84a2.5,2.5,0,0,1-1.66-.63l-18.68-16.62a2.5,2.5,0,0,1,3.33-3.74l18.67,16.62a2.5,2.5,0,0,1-1.66,4.37Z"/><path class="cls-4" d="M2860.6,1076.06a2.45,2.45,0,0,1-1.66-.63l-37.27-33.16a2.5,2.5,0,1,1,3.32-3.73l37.27,33.16a2.49,2.49,0,0,1-1.66,4.36Zm-74.53-66.31a2.52,2.52,0,0,1-1.67-.63L2747.14,976a2.5,2.5,0,1,1,3.32-3.74l37.27,33.16a2.5,2.5,0,0,1,.2,3.53A2.47,2.47,0,0,1,2786.07,1009.75Zm-74.54-66.32a2.46,2.46,0,0,1-1.66-.63l-37.26-33.16a2.5,2.5,0,1,1,3.32-3.73l37.27,33.16a2.5,2.5,0,0,1-1.67,4.36ZM2637,877.12a2.51,2.51,0,0,1-1.66-.63l-37.26-33.16a2.5,2.5,0,1,1,3.32-3.74l37.27,33.16a2.5,2.5,0,0,1,.2,3.53A2.47,2.47,0,0,1,2637,877.12Zm-74.53-66.31a2.48,2.48,0,0,1-1.66-.64L2523.54,777a2.5,2.5,0,0,1,3.33-3.74l37.26,33.16a2.5,2.5,0,0,1-1.66,4.37Zm-74.53-66.32a2.5,2.5,0,0,1-1.66-.63L2449,710.7a2.5,2.5,0,1,1,3.33-3.73l37.26,33.15a2.5,2.5,0,0,1-1.66,4.37Zm-74.53-66.31a2.46,2.46,0,0,1-1.66-.64l-37.27-33.15a2.5,2.5,0,0,1,3.33-3.74l37.26,33.16a2.5,2.5,0,0,1-1.66,4.37Zm-74.53-66.32a2.5,2.5,0,0,1-1.66-.63L2300,578.07a2.5,2.5,0,1,1,3.32-3.73l37.27,33.15a2.5,2.5,0,0,1-1.66,4.37Z"/><path class="cls-4" d="M2264.35,545.55a2.48,2.48,0,0,1-1.67-.64l-17.29-15.39-19.82,12a2.5,2.5,0,1,1-2.58-4.28l21.39-12.94a2.49,2.49,0,0,1,2.95.27L2266,541.18a2.5,2.5,0,0,1-1.66,4.37Z"/><path class="cls-4" d="M1483.88,989.79a2.5,2.5,0,0,1-1.29-4.64l41.13-24.89a2.5,2.5,0,0,1,2.59,4.28l-41.14,24.89A2.52,2.52,0,0,1,1483.88,989.79ZM1566.15,940a2.5,2.5,0,0,1-1.3-4.64L1606,910.49a2.5,2.5,0,0,1,2.59,4.28l-41.14,24.89A2.52,2.52,0,0,1,1566.15,940Zm82.27-49.77a2.5,2.5,0,0,1-1.3-4.64l41.13-24.88a2.5,2.5,0,1,1,2.59,4.27l-41.13,24.89A2.54,2.54,0,0,1,1648.42,890.25Zm82.26-49.77a2.5,2.5,0,0,1-1.29-4.64L1770.52,811a2.5,2.5,0,0,1,2.59,4.27L1732,840.12A2.52,2.52,0,0,1,1730.68,840.48ZM1813,790.71a2.5,2.5,0,0,1-1.3-4.64l41.14-24.88a2.5,2.5,0,1,1,2.58,4.28l-41.13,24.88A2.42,2.42,0,0,1,1813,790.71Zm82.27-49.77a2.5,2.5,0,0,1-1.3-4.64l41.13-24.88a2.5,2.5,0,1,1,2.59,4.28l-41.13,24.88A2.45,2.45,0,0,1,1895.22,740.94Zm82.26-49.77a2.49,2.49,0,0,1-1.29-4.63l41.13-24.89a2.5,2.5,0,0,1,2.59,4.28l-41.14,24.88A2.42,2.42,0,0,1,1977.48,691.17Zm82.27-49.76a2.5,2.5,0,0,1-1.3-4.64l41.14-24.89a2.5,2.5,0,1,1,2.58,4.28L2061,641A2.44,2.44,0,0,1,2059.75,641.41ZM2142,591.64a2.5,2.5,0,0,1-1.3-4.64l41.13-24.89a2.5,2.5,0,1,1,2.59,4.28l-41.13,24.89A2.54,2.54,0,0,1,2142,591.64Z"/><path class="cls-4" d="M1421.36,1027.61a2.5,2.5,0,0,1-1.3-4.64l21.39-12.94a2.5,2.5,0,1,1,2.59,4.28l-21.39,12.94A2.42,2.42,0,0,1,1421.36,1027.61Z"/><path class="cls-4" d="M2917.93,486.6a2.47,2.47,0,0,1-1.68-.65,2.5,2.5,0,0,1-.17-3.53l16.81-18.5a2.5,2.5,0,1,1,3.7,3.36l-16.81,18.5A2.46,2.46,0,0,1,2917.93,486.6Z"/><path class="cls-4" d="M2158.59,1322.42a2.5,2.5,0,0,1-1.85-4.18l34.51-38a2.5,2.5,0,0,1,3.71,3.36l-34.52,38A2.5,2.5,0,0,1,2158.59,1322.42Zm69-76a2.5,2.5,0,0,1-1.85-4.18l34.52-38a2.5,2.5,0,1,1,3.7,3.36l-34.52,38A2.5,2.5,0,0,1,2227.62,1246.44Zm69-76a2.47,2.47,0,0,1-1.68-.65,2.5,2.5,0,0,1-.17-3.53l34.52-38a2.5,2.5,0,0,1,3.7,3.36l-34.52,38A2.46,2.46,0,0,1,2296.65,1170.45Zm69-76a2.5,2.5,0,0,1-1.85-4.18l34.52-38a2.5,2.5,0,1,1,3.7,3.36l-34.52,38A2.5,2.5,0,0,1,2365.68,1094.47Zm69-76a2.5,2.5,0,0,1-1.85-4.18l34.52-38a2.5,2.5,0,1,1,3.7,3.37l-34.52,38A2.5,2.5,0,0,1,2434.71,1018.49Zm69-76a2.47,2.47,0,0,1-1.68-.65,2.51,2.51,0,0,1-.17-3.53l34.52-38a2.5,2.5,0,1,1,3.7,3.36l-34.52,38A2.46,2.46,0,0,1,2503.74,942.5Zm69-76a2.5,2.5,0,0,1-1.85-4.18l34.52-38a2.5,2.5,0,1,1,3.7,3.36l-34.51,38A2.52,2.52,0,0,1,2572.77,866.52Zm69-76a2.5,2.5,0,0,1-1.84-4.19l34.51-38a2.5,2.5,0,1,1,3.7,3.36l-34.51,38A2.52,2.52,0,0,1,2641.8,790.54Zm69-76a2.45,2.45,0,0,1-1.68-.65,2.49,2.49,0,0,1-.17-3.53l34.51-38a2.5,2.5,0,1,1,3.7,3.36l-34.51,38A2.48,2.48,0,0,1,2710.84,714.55Zm69-76a2.5,2.5,0,0,1-1.85-4.18l34.51-38a2.5,2.5,0,1,1,3.7,3.36l-34.51,38A2.5,2.5,0,0,1,2779.87,638.57Zm69-76a2.5,2.5,0,0,1-1.85-4.19l34.51-38a2.5,2.5,0,1,1,3.7,3.36l-34.51,38A2.5,2.5,0,0,1,2848.9,562.59Z"/><path class="cls-4" d="M2107.26,1378.92a2.5,2.5,0,0,1-1.85-4.19l16.81-18.5a2.5,2.5,0,1,1,3.7,3.36l-16.81,18.51A2.5,2.5,0,0,1,2107.26,1378.92Z"/><g class="cls-5"><circle class="cls-6" cx="1380.97" cy="995.76" r="320.17" transform="translate(-299.63 1268.14) rotate(-45)"/><path class="cls-7" d="M1329.24,737.85c48.64-43.31,84.35-17.48,111,11.4,21.2,23,24.16,28.12,41.68,52,2.6,3.54,4.6,7.47,4.68,11.86.49,26.37,14,137.84-1,176.31-17.47,44.83-233,65.35-233,65.35Z"/><path class="cls-7" d="M1467.29,1015.13a2.44,2.44,0,0,1-.12-4.87c6.33-.32,11.49-3.17,15.76-8.71,24.12-31.25,10.53-135.73-1.3-192.53a2.44,2.44,0,1,1,4.77-1c2.59,12.41,11.24,56.49,13.94,102.4,2.77,47.2-1.79,78.85-13.55,94.1-5.13,6.64-11.64,10.2-19.37,10.59Z"/><path class="cls-7" d="M1347.48,724.93c-93.47,51.68-36.47,226.46-155,288.77-32.85,17.27-133.75,104.87-67.63,220.38,43.24,75.56,172.5,59.27,215.05-7.6S1347.48,724.93,1347.48,724.93Z"/><path class="cls-7" d="M1098.74,1122.53l-.33,0a2.44,2.44,0,0,1-2.09-2.74c.08-.62,2.12-15.36,11.46-34.89a153,153,0,0,1,56-63.1C1218.6,986.9,1255,954,1298,791.94a2.44,2.44,0,1,1,4.71,1.25c-20.81,78.39-41.44,131.38-64.94,166.78-21.83,32.88-44.28,48.68-71.37,65.92-56.9,36.21-65.18,93.95-65.26,94.52A2.43,2.43,0,0,1,1098.74,1122.53Z"/><path class="cls-7" d="M1100.78,1077.27a2.48,2.48,0,0,1-1.3-.38,2.43,2.43,0,0,1-.76-3.36,169.61,169.61,0,0,1,51.38-52.37c77-49.78,89.71-78.41,153.32-242.39a2.43,2.43,0,0,1,4.54,1.76c-31.82,82-50.83,130.09-71.63,164.17-22.36,36.62-47.58,57.26-83.58,80.55a164.53,164.53,0,0,0-49.91,50.88A2.41,2.41,0,0,1,1100.78,1077.27Z"/><path class="cls-8" d="M1344.25,834C1312.07,900.84,1317,961.49,1317,961.49s3.72,23.52,18.57,28.47,35.89-9.9,34.66-29.7,5-68.08,12.37-85.41S1344.25,834,1344.25,834Z"/><path class="cls-9" d="M1174.22,1298.42c2,18.24-2.53,16.72,13.68,19.76s45.09-8.11,45.09-8.11l-32.43-60.28Z"/><path class="cls-8" d="M1320.9,925.6c-9.11,29.63-77.5,6.84-101.44,13.68s-44.45,107.14-47.87,197.19,1.14,161.85,10.26,173.25,159.57,16,173.25,11.4-114-61.55-114-61.55-8-104.87,2.28-158.44S1346,976.89,1346,976.89Z"/><path class="cls-8" d="M1352.82,934.72c23.94,36.47,86.63,31.91,108.28,61.55s67.25,192.63,67.25,192.63l47.88-165.28s38.82-6.52,26.21,20.52c-22.42,48.09-30.78,203.24-55.1,225.28-27,24.5-53.95,4.56-69.14-38.35-14.69-41.5-51.29-131.08-77.51-165.27S1346,976.89,1346,976.89Z"/><path class="cls-10" d="M1249.1,939.28C1297,995.13,1390.43,992.85,1411,986l20.52-6.84s16-5.7,29.63,10.26,46.74,116.26,52.44,139.06,14.81,60.41,14.81,60.41-24.45,29.35-24.45,59,10.38,29.89,10.38,29.89-30.38-6.81-37.22-25-68.39-183.51-68.39-183.51l-169.83,3.42,2.28,186.93s-14.82-13.68-35.34,0-27.35,45.59-23.93,50.15-6.84,4.56-6.84,1.14-19.38-86.63-5.7-223.41S1209.2,935.86,1224,934.72,1249.1,939.28,1249.1,939.28Z"/><path class="cls-9" d="M1507.33,1275.42a2.31,2.31,0,0,0,.51.11Z"/><path class="cls-9" d="M1513.9,1193.05c-9.87,3-26.59,38-26.59,38s-38-82.83-49.4-197.58l-13.56,77.85c18.72,50.27,48.11,129.14,52.71,141.42,6.26,16.68,31.49,23.64,34.94,24.41-.94-.32-3-1.58-4.76-6.59-1-.91-6.71-3.57-7.77-4.55-9.12-8.36-5.32-28.12.76-50.16S1523.78,1190,1513.9,1193.05Z"/><path class="cls-9" d="M1247,1072.47l-18.84-86.12c-20.51,28.87-22.79,127.66-14.43,195.3,6.85,55.46,17.11,69.86,24.15,75.64a21.24,21.24,0,0,1,3.23,2.28l-2.28-186.93Z"/><path class="cls-10" d="M1192.46,985.59c35,94.23,17.48,113.22,63.47,223.83,25.7,61.77,75.23,108.28,75.23,108.28s39.9,10.26,90,6.84,86.87-6.87,86.87-6.87-52.68-31.89-55-53.54-12.17-107.56.75-168.35c10.09-47.48-31.52-94.95-31.52-94.95l-69.53-3.42Z"/><path class="cls-11" d="M1254,1130c-6.08-22,25.84,6.84,78.27,12.16s111-3,82.08,6.08-107.91-4.56-93.48,24.32c17,34,37.06,66.87,66.12,86.63,19,12.92,64.59,25.08,20.52,18.24s-91.19-58.52-111.71-92S1255.37,1134.89,1254,1130Z"/><path class="cls-12" d="M1370.12,951.58c.46-22.75,6-61.57,12.5-76.73,5.32-12.41-16.67-28-29.58-35.85l-10.91-.47q-2.49,5.44-4.68,10.8c-11.52,75.65,23,106.91,39.42,113.21,7.1,2.71,15.05,3,21.85,2.4C1388.57,961.33,1378.67,957.22,1370.12,951.58Z"/><path class="cls-13" d="M1349.24,985.34a51.75,51.75,0,0,1-12.16-1.47c-9.53-2.33-32.28-11.16-37.57-42.89a1.38,1.38,0,0,1,2.73-.46c5,30.11,26.49,38.47,35.49,40.66,14,3.41,28.8.26,34.48-7.31,4.56-6.08,1.81-19,1.79-19.15a1.37,1.37,0,0,1,1-1.64,1.39,1.39,0,0,1,1.65,1.06c.12.58,3,14.31-2.28,21.38C1369.73,981.78,1360.06,985.34,1349.24,985.34Z"/><path class="cls-8" d="M1456.5,863.74c-7.73,40.83-25.59,73.77-55.81,67.56s-62-49.34-53.62-90,39.63-68.67,69.85-62.46S1466.8,809.34,1456.5,863.74Z"/><path class="cls-8" d="M1564.06,1065.38s-55.85,150.08-58.51,165.66,2.66,25.46,4.17,25.46,49-81.31,49-81.31Z"/><path class="cls-8" d="M1566.34,1058.79c4.56-15.2-2.53-34.45-2.53-34.45l20.26,2.54Z"/><path class="cls-14" d="M1588.61,1032.87h-56.55a5.13,5.13,0,0,1-4.91-6.6l35.69-119.68a5.14,5.14,0,0,1,4.92-3.66h56.54a5.13,5.13,0,0,1,4.92,6.59l-35.7,119.68A5.13,5.13,0,0,1,1588.61,1032.87Z"/><path class="cls-15" d="M1595.7,1032.87h-56.55a5.13,5.13,0,0,1-4.91-6.6l35.69-119.68a5.14,5.14,0,0,1,4.92-3.66h56.54a5.12,5.12,0,0,1,4.92,6.59l-35.7,119.68A5.11,5.11,0,0,1,1595.7,1032.87Z"/><path class="cls-16" d="M1554.76,946.12c-6,21.72-10.09,39.56-9.06,39.84s6.74-17.09,12.76-38.81,10.09-39.56,9.07-39.84S1560.79,924.4,1554.76,946.12Z"/><path class="cls-8" d="M1593.19,1068.42c1.67-19.74,18.77-38.24,25.27-44.14a9.32,9.32,0,0,0,3.07-7c-.09-9.84-.53-33.06-2.57-35.78-2.58-3.45-9.06-47.92-12.08-46.19s.86,40.58.86,40.58-7.34-3.45-11.22-5.18-19.86,16-19.86,16-7.49,18.92,13,10.81c24.32-9.62,6.08,17.23-10.13,34.45-13.36,14.19-2,17.33-2,17.33l10.79-.43Z"/><path class="cls-13" d="M1587.05,1084.06a19.93,19.93,0,0,1-5.88-.91c-5.29-1.65-14.52-7-17-24a1.38,1.38,0,0,1,2.74-.39c2,14.29,8.91,19.61,14.31,21.55,4.51,1.62,8.35,1,9.37.44a1.38,1.38,0,0,1,2.64-.27,1.9,1.9,0,0,1-.43,2C1591.94,1083.44,1589.76,1084.06,1587.05,1084.06Z"/><path class="cls-13" d="M1584.91,1079.18a36.06,36.06,0,0,1-5.08-.37c-9.82-1.42-16.41-6.42-18.07-13.69a1.39,1.39,0,0,1,2.7-.62c1.51,6.63,7.45,9.55,12.17,10.84,7,1.91,13.89.88,14.76-.06a1.36,1.36,0,0,1,1.86-.5,1.41,1.41,0,0,1,.51,1.91C1592.8,1078.4,1589.07,1079.18,1584.91,1079.18Z"/><path class="cls-17" d="M1421.82,885.2a13.61,13.61,0,0,1-1.9-.14c-9.7-1.49-15.58-14-13.36-28.41s11.56-24.59,21.25-23.11,15.58,14,13.37,28.41C1439.11,875.45,1430.82,885.2,1421.82,885.2Zm4.15-46.93c-6.43,0-13,8.38-14.6,19.12-1.74,11.35,2.52,21.81,9.29,22.85s14-7.68,15.71-19-2.52-21.82-9.29-22.85A6.92,6.92,0,0,0,1426,838.27Z"/><path class="cls-17" d="M1453.46,885.21a6.42,6.42,0,0,1-1-.07c-6.47-1-9.86-11.48-7.89-24.4s8.36-21.91,14.83-20.92,9.87,11.48,7.89,24.4a38.8,38.8,0,0,1-5.33,15C1459.44,883.13,1456.45,885.21,1453.46,885.21Zm5-41.78c-3.63,0-8.57,7.07-10.23,17.87-1.71,11.21,1.16,19.64,4.81,20.2,1.77.27,3.9-1.28,5.86-4.26a35.18,35.18,0,0,0,4.77-13.58c1.71-11.21-1.16-19.64-4.81-20.2A2.6,2.6,0,0,0,1458.47,843.43Z"/><path class="cls-17" d="M1411.32,847.44a2.18,2.18,0,0,1-.67-.1l-74.48-21.27a2.44,2.44,0,0,1,1.34-4.69L1412,842.66a2.44,2.44,0,0,1-.66,4.78Z"/><path class="cls-7" d="M1464.51,800.93c-115.26,67.88-121.59,22.29-121.59,22.29l6.84-64.85,68.39,3.8Z"/><path class="cls-8" d="M1351.84,838.28c2.68,11.48-1,22.15-8.18,23.83s-15.21-6.26-17.89-17.74,1-22.14,8.18-23.82S1349.16,826.81,1351.84,838.28Z"/><path class="cls-13" d="M1343.94,853.36a4.54,4.54,0,1,1-4.54-4.54A4.54,4.54,0,0,1,1343.94,853.36Z"/><path class="cls-8" d="M1377.12,1286.26s31.16-13.68,40.27-7.6,35.47,33.95,35.47,33.95Z"/><path class="cls-15" d="M1451.14,1315.09c-.59.74-1.48,1.05-2,.68L1385.06,1268c-3.46-2.57-5.1-6.5-3.44-8.58s5.86-1.33,9.13,1.47l60.62,52.08C1451.84,1313.42,1451.73,1314.35,1451.14,1315.09Z"/><path class="cls-8" d="M1282.89,1280.44s51.67,20.51,57.75,20.51,40-22.79,51.42-19.75,67.13,31.15,65.61,33.43-17.48,7.6-64.59,6.08-123.87-8.36-123.87-8.36Z"/></g><path class="cls-18" d="M2110,1642.51s-271-188.21-385.58-79.69c-91.53,86.65,70.93,188.45,278.76,161.08,146.29-19.27,162.87,8.71,188.49,8.11,190.67-14.61,447.59-71.66,322.56-161.28-170.32-122.09-285.53,7.35-344.88,39.56Z"/><path class="cls-19" d="M2460.32,1566.21c-71.21-14.7-342.52,85.92-342.52,85.92s-236.27-71.22-292.79-78-82.53,14.7-82.53,14.7,26.67-30,57.66-32.78,75.74-10.18,75.74-10.18,452.18-21.48,512.09-7.91S2460.32,1566.21,2460.32,1566.21Z"/><path class="cls-20" d="M2076.07,1200c-10.74,1.69-177.77,74.55-179.82,105.07s45.76,278.13,138.22,310.35,195.9,0,195.9,0,108.52-267.91,76.3-318.77-178-96.65-178-96.65Z"/><path class="cls-20" d="M1953.31,1257.63c-159.58,85.5-198.77,239.88-156.56,273.91,29.57,23.85,141.08,76.59,237.72,73.2s187.42,5.7,187.42,5.7,165.8-33.73,198.87-83.42-58.67-211.09-140.93-257.74S1953.31,1257.63,1953.31,1257.63Z"/><path class="cls-8" d="M2105.46,1296.61a40.25,40.25,0,0,1-40.13-40.14V1121.4a40.13,40.13,0,1,1,80.26,0v135.07A40.25,40.25,0,0,1,2105.46,1296.61Z"/><path class="cls-12" d="M2105.46,1081.26a40.25,40.25,0,0,0-40.13,40.14v110.45c23.66,19.77,46.57,9.41,80.26-16.7V1121.4A40.25,40.25,0,0,0,2105.46,1081.26Z"/><path class="cls-8" d="M2193.54,1126.86c-6.59,13.46-17.3,20.93-23.92,16.67s-6.64-18.61,0-32.08,17.3-20.93,23.92-16.67S2200.14,1113.39,2193.54,1126.86Z"/><path class="cls-8" d="M2038.27,1112.46c7.62,12.25,9.09,27,3.27,33.06s-16.72,1-24.35-11.3-9.09-27-3.27-33.06S2030.64,1100.21,2038.27,1112.46Z"/><ellipse class="cls-8" cx="2107.26" cy="1125.99" rx="69.02" ry="88.87"/><path class="cls-21" d="M2257.76,1346c45.22,24.12,84.62,115.5,84.62,115.5s-101.74,15.83-122.84,31.66,3-6,15.07-49.74S2257.76,1346,2257.76,1346Z"/><path class="cls-21" d="M1943,1339.37c10.55,48.23,61,182.89,61,182.89s-46.77-53.27-96.47-56.28-68.14-3.77-67.83,8.29c.06,2.38,8.29-53.51,46.73-88.18S1943,1339.37,1943,1339.37Z"/><path class="cls-22" d="M2246.05,1643H1973a22.52,22.52,0,0,1-22.21-18.8l-32.92-196.49a22.52,22.52,0,0,1,22.21-26.24H2279a22.52,22.52,0,0,1,22.22,26.24l-32.93,196.49A22.52,22.52,0,0,1,2246.05,1643Z"/><path class="cls-4" d="M2246.05,1643H1973c-11,0-20.39-7.66-22.21-18.12l-32.92-189.4c-2.3-13.23,8.29-25.29,22.21-25.29H2279c13.93,0,24.52,12.06,22.22,25.29l-32.93,189.4C2266.45,1635.36,2257.05,1643,2246.05,1643Z"/><path class="cls-19" d="M2145.59,1720.43c-1.63-.28-176.34-44-215.34-11.79s130.56,32.76,161.08,25.71S2145.59,1720.43,2145.59,1720.43Z"/><path class="cls-19" d="M2184.59,1728.27s37.3-28.11,86.48-23,91.56,15.81,49.17,29.1-86.48,15-106.82,13.29S2184.59,1728.27,2184.59,1728.27Z"/><path class="cls-23" d="M2085.24,1000.71c-44.84,13.6-29.23,139.82,22,135.66s53.34-58.73,49.7-94.08S2131.49,986.68,2085.24,1000.71Z"/><path class="cls-23" d="M2069.12,1094.27c-12.47-12-29.62,25.67-22.87,42.2s-2.69,26.15,6.45,44-16.84-11.31-20.48-32.62-5.72-58.21-10.91-74.84.26-45.47,23.42-51.46,28.55-16.63,37.39-17.15,50.93,3.64,71.72,15.08,32.23,28.58,30.67,54.57-8.32,92.51-14.55,103.43-9.47,8.33-7.6,2.08,8.64-43.66,3.44-57.17-2.6-46.78-16.11-49.38-10.4,20.44-26.51,22.18S2069.12,1094.27,2069.12,1094.27Z"/><path class="cls-24" d="M1823.4,813H1577.21a14.1,14.1,0,0,1-14.09-14.27l1.3-102.29a14.53,14.53,0,0,1,14.45-14.27h246.19a14.09,14.09,0,0,1,14.09,14.27l-1.29,102.29A14.55,14.55,0,0,1,1823.4,813Z"/><path class="cls-17" d="M1811.3,802.3H1589.59a12.2,12.2,0,0,1-12.2-12.36l1.07-84.69A12.59,12.59,0,0,1,1591,692.89h221.7a12.22,12.22,0,0,1,12.21,12.36l-1.07,84.69A12.59,12.59,0,0,1,1811.3,802.3Z"/><path class="cls-24" d="M1672.83,807.06c-1.47,53.92-27.06,70.57-27.06,70.57s11.49-30.92,3-46A54.85,54.85,0,0,0,1626,810.23Z"/><path class="cls-24" d="M1801.25,723H1658.34a4.2,4.2,0,0,1-4.21-4.26v-.2a4.34,4.34,0,0,1,4.32-4.26h142.91a4.21,4.21,0,0,1,4.21,4.26v.2A4.33,4.33,0,0,1,1801.25,723Z"/><path class="cls-24" d="M1801,741.25H1658.1a4.21,4.21,0,0,1-4.2-4.26v-.2a4.34,4.34,0,0,1,4.31-4.26h142.92a4.21,4.21,0,0,1,4.21,4.26v.2A4.34,4.34,0,0,1,1801,741.25Z"/><path class="cls-24" d="M1800.76,761.87H1657.84a4.22,4.22,0,0,1-4.21-4.27v-.19a4.34,4.34,0,0,1,4.31-4.27h142.92a4.21,4.21,0,0,1,4.21,4.27v.19A4.34,4.34,0,0,1,1800.76,761.87Z"/><path class="cls-24" d="M1641.2,737.68c-.2,15.55-10.65,28.15-23.35,28.15s-22.83-12.6-22.64-28.15,10.66-28.14,23.35-28.14S1641.4,722.14,1641.2,737.68Z"/><path class="cls-24" d="M2029.15,999.29H1779.8a14.27,14.27,0,0,1-14.27-14.45l1.31-103.6a14.72,14.72,0,0,1,14.64-14.45h249.35a14.27,14.27,0,0,1,14.27,14.45l-1.31,103.6A14.72,14.72,0,0,1,2029.15,999.29Z"/><path class="cls-17" d="M2016.89,988.45H1792.34A12.36,12.36,0,0,1,1780,975.93l1.08-85.78a12.76,12.76,0,0,1,12.68-12.52h224.55a12.36,12.36,0,0,1,12.36,12.52l-1.08,85.78A12.76,12.76,0,0,1,2016.89,988.45Z"/><path class="cls-24" d="M1910.64,993.27c.11,54.6,25.6,71.47,25.6,71.47s-10.85-31.32-1.82-46.58A57.49,57.49,0,0,1,1958,996.48Z"/><path class="cls-24" d="M1930.27,915.37H1808.13a3.93,3.93,0,0,1-3.93-4v-.89a4.05,4.05,0,0,1,4-4h122.14a3.93,3.93,0,0,1,3.93,4v.89A4.05,4.05,0,0,1,1930.27,915.37Z"/><path class="cls-24" d="M1930,933.84H1807.89a3.92,3.92,0,0,1-3.92-4V929a4.05,4.05,0,0,1,4-4h122.14a3.93,3.93,0,0,1,3.93,4l0,.89A4,4,0,0,1,1930,933.84Z"/><path class="cls-24" d="M1929.77,954.72H1807.63a3.92,3.92,0,0,1-3.92-4v-.89a4,4,0,0,1,4-4h122.15a3.92,3.92,0,0,1,3.92,4v.89A4.05,4.05,0,0,1,1929.77,954.72Z"/><path class="cls-24" d="M1989.07,962H1971.4a14.28,14.28,0,0,1-14.27-14.46l.46-36.13a14.73,14.73,0,0,1,14.63-14.46h17.67a14.28,14.28,0,0,1,14.27,14.46l-.45,36.13A14.73,14.73,0,0,1,1989.07,962Z"/><g class="cls-25"><circle class="cls-6" cx="774.33" cy="432.66" r="380"/><path class="cls-26" d="M598.72,372.71C649,409,757,424.84,791.41,426.71s-19.12,96.81-19.12,96.81-92.58,11.17-136.33,0S598.72,372.71,598.72,372.71Z"/><path class="cls-7" d="M512.46,1314.15c.62,24.83,14.77,39.6,37.85,56.79,24.21,18,25.45,20-8.06,24.43s-42.82-10.78-65.17-17.3-8.06-22.34-9.3-37.23-3.36-39.1-3.36-39.1Z"/><path class="cls-7" d="M707.94,1301.74a376,376,0,0,0,34.76,34.38c19.86,17.13,70.12,23,45.92,29.36s-51.31,2.94-76.23,6.53-46.65.11-48.51-6.53,0-53.81,0-53.81Z"/><path class="cls-27" d="M776.53,215.66c31.15-29.57,88.42,8.13,93.82,33.2,13.89,64.49,20,131.17,3.13,157.37S717.37,439.84,707.9,439.61c-12.74-.31-20.17-43.5,4.76-71.81s36-79.34,40.6-105.48C758.75,230.87,771.54,220.4,776.53,215.66Z"/><path class="cls-27" d="M887.16,390.3H887a1.51,1.51,0,0,1-1.28-1.7c7.31-52.7-2.46-113-24.3-150A1.5,1.5,0,0,1,864,237c22.16,37.58,32.08,98.65,24.69,152A1.49,1.49,0,0,1,887.16,390.3Z"/><path class="cls-27" d="M896.16,355.8h-.1a1.51,1.51,0,0,1-1.4-1.59c3-47.73-20.78-107.54-42.45-125.24a1.5,1.5,0,0,1,1.9-2.32c22.2,18.14,46.58,79.17,43.54,127.74A1.5,1.5,0,0,1,896.16,355.8Z"/><path class="cls-28" d="M712.19,404.16c-10.61,75.14-20.85,216.64-51.57,251.08s-47.81,116.58-47.81,116.58,99.27-54.21,139.91-187.51c12.74-41.81-18.36-139.45-25.91-148.76S712.19,404.16,712.19,404.16Z"/><path class="cls-8" d="M927.32,610.56c-6.13,7.45-22.57,43.54-30.91,43.54-28.39,0-30.48,11.14-45.88,19.29-19.79,10.47-15.6,26.53-14.2,27.46s43.49-6.44,57.62-15.65c11.73-7.64,20.07-11.81,25.79-20.19s38.1-32.58,38.1-32.58Z"/><path class="cls-29" d="M898.6,387.63c28.72,17.36,34,33.49,62.24,82.52s33.2,66.71,44.37,84.4,14.89,38.16-8.69,60.51c-22.53,21.34-33,30.05-45.41,26.71-8.32-2.25-14.9-26.51-26.48-22.11s8.9-29.74,19.45-39.36c5.75-5.24,8.07-4.84,6.21-7.23s-37.24-28.76-66.72-66.93S898.6,387.63,898.6,387.63Z"/><path class="cls-28" d="M988.76,571c-14-6.27-31.44-5.38-44.27-3,3.3,2.78,5.38,4.5,5.8,5,1.86,2.39-.46,2-6.21,7.23a63.11,63.11,0,0,0-6.92,7.86c9.78-5.18,20.49-9.84,29.26-11.12,22.34-3.25,23.74,2.8,35.38,10.24S1011.57,581.23,988.76,571Z"/><path class="cls-28" d="M927.48,413.61c-7.69-10.51-15.88-18.13-28.88-26,0,0-44.51,80.35-15,118.51a349.31,349.31,0,0,0,28.6,32.39C912.77,512.81,915.47,455.33,927.48,413.61Z"/><path class="cls-29" d="M789.29,361.08c-38.47,8.69-69.52,20-77.47,42.35C708,414.27,730.29,593,752.63,612.88c43.12,38.33,114.19,2.49,114.19,2.49S899.09,535,911.89,400.09c3.33-12.17-73.62-36.06-86-38.55S789.29,361.08,789.29,361.08Z"/><path class="cls-8" d="M802.25,1309.33s-52.73,73-21.08,70.4,52.32-35.17,52.32-35.17,11,37,42.64,35.23,13.79-21.07,0-43.67a99.13,99.13,0,0,1-13.73-43.74Z"/><path class="cls-8" d="M806.77,396A23.8,23.8,0,0,1,783,372.25V283.81a23.74,23.74,0,0,1,47.47,0v88.44A23.81,23.81,0,0,1,806.77,396Z"/><path class="cls-12" d="M806.77,260.08A23.8,23.8,0,0,0,783,283.81v40a147.63,147.63,0,0,0,47.47,43.8V283.81A23.8,23.8,0,0,0,806.77,260.08Z"/><ellipse class="cls-8" cx="825.56" cy="281.73" rx="42.79" ry="58.83" transform="translate(-42.52 195.99) rotate(-13.2)"/><path class="cls-8" d="M758,602.24S684,658.09,707.7,841s48.87,177.33,50.27,265.29,39.09,209.44,61.43,233.18S896.6,1236,896.6,1123c0-66,0-97.7,15.39-201s12.13-254.11-49.3-319.74S758,602.24,758,602.24Z"/><path class="cls-12" d="M817.9,1011.3C817.84,968,803.52,876,806.77,748.85l-94.38,125.8c22.24,148.92,44.27,149.45,45.58,231.64,1,66.65,23,152.54,43.23,200.57,13.17,4.73,22,10.28,24.36,17.25,3.13,9.33,5.21,14.5,6.45,16,.44-.29.89-.6,1.34-.94,1.09-7.79-4.56-47.55-10.75-105.38C812.14,1136,818,1054.58,817.9,1011.3Z"/><path class="cls-29" d="M724.72,536.91C737,609.22,729.64,619,712.39,679s-17.48,219.21-17.48,219.21,46.77,19.55,137.29,11.17,103.09-18.15,103.09-18.15S925,736.28,912,690.21,878.65,612.62,877.65,583,724.72,536.91,724.72,536.91Z"/><path class="cls-30" d="M781.17,1379.73c31.65-2.59,52.32-35.17,52.32-35.17s11,37,42.64,35.23c27.18-1.47,17.85-16,5.93-34.33-1.08,4.12-4.45,8-13.38,7.64-18.7-.72-36.26-23.43-36.26-23.43s-32.63,25.13-44.73,23.34,5.89-30.89,5.9-30.91C780.12,1342.89,758,1381.62,781.17,1379.73Z"/><path class="cls-27" d="M561.07,313.19c-14.7-20.65-29.47-76.86-16.35-82.6s9.85-14.77,23-31.59,66-23.38,81.64,4.92,22.27,31.18,22.83,46.36-36.78,52.92-36.78,52.92Z"/><path class="cls-8" d="M907.83,642.91c-4.29,6.43-8.39,11.19-11.42,11.19-28.39,0-30.48,11.14-45.88,19.29-19.79,10.47-15.6,26.53-14.2,27.46s43.49-6.44,57.62-15.65c11.73-7.64,20.07-11.81,25.79-20.19a44.05,44.05,0,0,1,5.79-6.25A129.83,129.83,0,0,1,907.83,642.91Z"/><path class="cls-8" d="M570.79,240.53S561.48,355.13,541,367.65s-59.57,59.06-54,159.59,13,143.9,20.48,182.73,147.08,15.16,162,0,31.65-153.87,0-224.15-67-110-70.75-127.38,20.48-87.19,20.48-87.19Z"/><path class="cls-12" d="M598.34,354.68c-.47-21.91,20.86-83.43,20.86-83.43l-48.41-30.72s-2,25-6.27,52.89C570.79,332.22,583.36,347.12,598.34,354.68Z"/><path class="cls-8" d="M659.17,272.72c4.67,33.67-6.93,60-31.17,63.38s-51.94-17.55-56.6-51.22,11.2-63.67,35.44-67S654.51,239.06,659.17,272.72Z"/><path class="cls-8" d="M924.92,401.57c14.26,8.86,25.12,31,18.88,49s-14.88-5.1-24.38-18.31S914.26,395,924.92,401.57Z"/><path class="cls-30" d="M671.4,642.46c-9.78,117.56,23.28,382.85,23.51,442.89s24.21,224.21,24.21,224.21-39.1,11.23-54.46,12.54-59.72-148.79-66.28-228.37S550.3,872.9,550.3,872.9l14.22-242.31Z"/><path class="cls-15" d="M671.4,642.46,564.52,630.59,550.3,872.9s41.51,141.24,48.08,220.83c.08,1,.18,2.09.28,3.15.79-122.66,36.46-175.91,74.14-305.79C669.56,734.05,668.23,680.52,671.4,642.46Z"/><path class="cls-30" d="M667.21,681.83c-50.27,170.34-96.34,330.91-127.06,437s-21.49,215.2-21.49,215.2L467,1338.18s-58.1-174.92-19-269.59,20.5-151.7,27.92-240.16c8.38-99.77,22.47-172.69,22.47-172.69Z"/><path class="cls-31" d="M669.47,485.82c-17-37.75-35.07-66.67-48.73-88.06A189.76,189.76,0,0,0,598.39,396c-14.4-.29-39.49-18.77-54.45-30.91a13.21,13.21,0,0,1-2.94,2.57c-20.47,12.51-59.57,59.06-54,159.59S471.5,662.11,479,700.93s175.62,24.2,190.52,9S701.12,556.1,669.47,485.82Z"/><path class="cls-31" d="M538.52,343.55,523.4,383.42l95.8,38.94,11.06-9.49s-14.78-21.54-11.06-34.57,8.07-16.76,0-19.86-36.76-8.07-54.68-14.89S541.64,335.33,538.52,343.55Z"/><path class="cls-26" d="M687.46,604.8c-1.91-29.93-8-96.69-18-119-3.7-8.21-7.45-16-11.19-23.37L646.2,457.2s-67-53.51-110.78-43.53-45.61,173-20.48,190.84,35.36-29.9,128.31-15.08C658.38,591.85,675.06,606,687.46,604.8Z"/><path class="cls-30" d="M844.12,652.88a4.65,4.65,0,0,0,6.47-1l197.47-268.21a4.63,4.63,0,0,0-7.45-5.49L843.14,646.41A4.64,4.64,0,0,0,844.12,652.88Z"/><path class="cls-15" d="M1059.4,387.63h-32.92a10,10,0,0,1,0-19.94h32.92a10,10,0,0,1,0,19.94Z"/><path class="cls-27" d="M1049.68,289.23l31.71,5.35a9.27,9.27,0,0,1,6.91,12.95l-30.73,68.2a9.28,9.28,0,0,1-11.52,4.94l-27.92-9.76a9.28,9.28,0,0,1-5.48-12.36l26.94-63.79A9.27,9.27,0,0,1,1049.68,289.23Z"/><path class="cls-30" d="M1047.75,294.69,1074,299.4c5,.89,7.78,6.54,5.72,11.42l-25.43,60.08a7.52,7.52,0,0,1-9.53,4.35l-23.1-8.6a8.33,8.33,0,0,1-4.53-10.89l22.29-56.19A7.59,7.59,0,0,1,1047.75,294.69Z"/><path class="cls-32" d="M1027.56,288.55a1.45,1.45,0,0,1-.69-.18l-35.12-18.32a1.5,1.5,0,1,1,1.39-2.66l35.12,18.33a1.5,1.5,0,0,1-.7,2.83Z"/><path class="cls-32" d="M1034.07,281.16a1.51,1.51,0,0,1-1.21-.61l-24.76-33.72a1.5,1.5,0,1,1,2.42-1.78l24.76,33.73a1.49,1.49,0,0,1-1.21,2.38Z"/><path class="cls-32" d="M982.11,325.77a1.49,1.49,0,0,1-1.43-1,1.51,1.51,0,0,1,1-1.89l42.94-13.7a1.5,1.5,0,1,1,.91,2.85L982.56,325.7A1.41,1.41,0,0,1,982.11,325.77Z"/><path class="cls-32" d="M1027.25,301.34H1027c-32.7-4.68-50.6-7.51-53.18-8.42a1.5,1.5,0,1,1,1-2.83c1.35.48,10,2.18,52.61,8.28a1.5,1.5,0,0,1-.21,3Z"/><path class="cls-33" d="M1017.12,355.76a8.33,8.33,0,0,0,4.53,10.89l2.8,1,39.73-20.2,15.53-36.67a8.65,8.65,0,0,0,.48-5.14l-60.87,44.53Z"/><path class="cls-33" d="M1025.53,368.1l19.22,7.15a7.52,7.52,0,0,0,9.53-4.35l6.66-15.74C1049.53,359.09,1034.41,364.74,1025.53,368.1Z"/><path class="cls-8" d="M854.44,528.48l53.06-2.42s27.13-33.73,38.1-26.86,30-5.37,29.85,6.87-15.52,44.06-33.92,47.32-60.52,0-60.52,0Z"/><path class="cls-31" d="M550.84,404.16c31.08,2.18,136.85,95.09,184.95,129.8C801.86,523.2,881,524,881,524s16.45,31,15.4,33.45S789.2,596.78,726.47,594.19s-91.64-22.27-139.51-28c-31.17-3.72-46.32,9.21-63.56-8.74S500.09,447.4,509.51,428.82,537.51,403.22,550.84,404.16Z"/><path class="cls-27" d="M561.07,313.19c16.44-8.12,8.27-23.92,9.71-34.39s-3.14-18.85.79-18.15,3,40.2,8,39.94,3.12-29.8,8.35-30.62,7.27-8.17,3.17-21.11-.82-24.42,10.26-14.17,35.69,34.05,50,30.77,13.54-18,12.31-19.69-38.16-43.08-38.16-43.08l-73,41.85-2,38.15Z"/><path class="cls-8" d="M574.18,268.39c1,9.92,1.31,25,2.18,27.13-6.51,2.65-14.84-2.68-18.6-11.91s-3.42-21.34,3.17-23.79C565,258.3,573,256.84,574.18,268.39Z"/><path class="cls-27" d="M863.21,246.11c-10.36,33.52-68.07,34-70.87,43.29s-3.47,45.47-11.92,68.5c-13.5,36.79-19.55,49-38.34,54.53s-26.7-25.54-26.7-25.54,33.68-44.43,35.54-45.36S770.51,227,770.51,227s45.11-8.27,47.43-9.49,34.91,13.21,34.91,13.21Z"/></g><g class="cls-34"><circle class="cls-6" cx="2219.35" cy="400.85" r="351.03" transform="translate(366.59 1686.72) rotate(-45)"/><path class="cls-35" d="M2161.32,415.38s-12.29,11.44-27.65,4.05-71.46-47-69.76-56.72,27.93-12,27.93-12S2173,414.92,2161.32,415.38Z"/><path class="cls-36" d="M2146.54,413.89c10.52-1.68-24.09-29.21-35.41-40.59s-18.62-16.7-18.62-16.7-19.35,2.36-19.35,6.11,55.49,48.06,55.49,48.06S2141.79,414.65,2146.54,413.89Z"/><path class="cls-8" d="M2214.46,463.41s-20.2-34.15-29.87-43.25-42.34-26.75-47.29-26.86c-8.48-.19,29.08,25.15,29.08,25.15s-5.12,33-.57,45,52.35,27.88,52.35,27.88Z"/><path class="cls-37" d="M2252,499.24s-33-49.5-40.4-46.09-27.32,46.09-27.32,46.09,58,60.32,58,48.94S2252,499.24,2252,499.24Z"/><path class="cls-8" d="M2343.29,234.11s34.14,120.64,56.9,170.71,34.15,143.4,29.59,307.28,27.32,159.33-20.48,179.82-218.51-13.66-241.27-66,15.24-265.49,71.69-343.7c55.74-77.21,80.81-104.7,80.81-122.91s-22-95.6-22-95.6Z"/><path class="cls-38" d="M2168,825.91c-22.77-52.35,15.24-265.49,71.69-343.7,26-36,45.26-61.13,58.48-79.6,27-16.13,56.87-31.16,85.5-39.9,5.73,16.14,11.4,30.9,16.49,42.11,22.77,50.08,34.15,143.4,29.59,307.28s27.32,159.33-20.48,179.82S2190.79,878.26,2168,825.91Z"/><path class="cls-38" d="M2404,341.09c-.57-9.37-122.16,38.69-122.92,47.8s-7.93,43.07-18,61.36S2432.34,570.76,2425.75,521,2405.5,366.13,2404,341.09Z"/><path class="cls-12" d="M2320.42,361.33a20.19,20.19,0,0,0,.11-2c0-18.21-22-95.6-22-95.6l44.79-29.59s7.93,28,18.69,62.63C2348.07,338.3,2335.05,352.47,2320.42,361.33Z"/><path class="cls-8" d="M2217.69,293.17c9.46,42.9,39.09,73.41,73.34,65,25.11-6.15,63.72-41.28,51.34-92.53-10.31-42.7-45-71.51-79.48-63.92S2208.22,250.28,2217.69,293.17Z"/><path class="cls-8" d="M2178.81,572.44c-31.08-53.67-34.55-103.8-56.57-119.46-31-22-56.42-71.28-45.2-73.22s56.63,39.67,56.63,39.67-11.82-16.18-9-17.53,25.7,15.26,29.25,34.87,47.49,109.77,84.35,138.65S2209.89,626.12,2178.81,572.44Z"/><path class="cls-37" d="M2380.15,437.21c55.07,13.71,29.88,180-16.55,278.65s-133.68,13.42-166.3-10.74c-12.39-9.18-20.55-18.47-25.92-26.48,10.47-58.86,28.43-122,50.6-166.43C2274,573.22,2298.67,416.92,2380.15,437.21Z"/><path class="cls-38" d="M2363.6,425.27c69.26,6.94,31.33,179.81-19.3,249.62s-122.72,2.27-145.49-37.94S2130,528.36,2130,483.88c0-8.35,17.07-10.05,37.56-8.54,19.29,1.43,106.43,121.4,106.43,121.4S2303.05,419.2,2363.6,425.27Z"/><path class="cls-23" d="M2196.54,203.72c-42.35,17.83-17,74.22,5.35,76.33s48.14-39.05,61.4-40.44-2.68,23,9.13,28.6,22.81,14.86,26.25,29.51,12.87,46.55-2.54,47.94-32.15-15.35-42.61-16.05a57.07,57.07,0,0,0-19.56,2.33s26.58,36.75,46.1,38.84,40.8-26.44,56-50.55,8.73-40.18,8.73-40.18,15.51,17.47,25.28,16.07-14.65-15.35-15.35-56.51-18.84-62.8-41.17-62.8-19.53-11.36-53.63-10.47C2229.16,167.15,2206.47,199.54,2196.54,203.72Z"/><path class="cls-8" d="M2289.65,287.84c-1,10.62,4.47,19.82,12.19,20.54s14.77-7.32,15.76-17.95-4.47-19.82-12.19-20.54S2290.64,277.21,2289.65,287.84Z"/></g><g class="cls-39"><circle class="cls-6" cx="2879.87" cy="1025.11" r="251.24" transform="translate(118.63 2336.63) rotate(-45)"/><path class="cls-7" d="M2840.31,905.4c-19.15,38.29-3.3,82.38,34.36,98,37.9,15.68,79.35,6.77,98.5-31.52s4.92-84.2-31.76-102.54S2859.45,867.11,2840.31,905.4Z"/><path class="cls-7" d="M2943.5,1008.42a12.39,12.39,0,0,1-3.15-.33,2.44,2.44,0,0,1,1.33-4.69c.06,0,8.87,2.08,22.07-9.63,14.89-13.21,25.31-43.24,9.88-87.87a2.43,2.43,0,1,1,4.6-1.59c20.41,59-3.45,86.19-11.25,93.11C2956.29,1006.9,2947.82,1008.42,2943.5,1008.42Z"/><path class="cls-40" d="M2885,1054.39c-21.79,4.88-49.31,65.44-62.78,104.23-13.59,39.13-36.62,87.67-51.7,102.75s-114.19,50.05-114.19,50.05,244.87.47,239.85,0S2885,1054.39,2885,1054.39Z"/><path class="cls-41" d="M2755,1292c13.41-1.91,61.76,4.31,41.18-4.31s-17.72-19.63-17.72-19.63,29.21,24.42,34.47,3.07c4.54-18.41,6.28-83.41,23.52-148.56,14.24-32.31,32.87-64.63,48.55-68.14,0,0,.55,22.94,1.46,55.1-6,71.18-16.22,175.76-18.81,202.11-32.46.05-86.78,0-132.22-.06l-30.22-1.44S2741.56,1293.88,2755,1292Z"/><path class="cls-40" d="M2965.08,1041s69.32,38.73,85.48,47-45.27,250-58.93,260.37S2857.69,1350.09,2844,1337s10.51-53.12-1.34-133.34,36.14-149.47,42.31-149.31,46.4-13.42,46.4-13.42Z"/><path class="cls-41" d="M2991.63,1348.31c-13.66,10.36-99.73,10.59-136.36-.81-4.14-1.28-22.91-8.77-23.35-15.8,4.42-.83,22,1.28,29.1-.36,24.78-5.69,38.42-36.38,38.42-36.38s13.65-4.91,44.17-17.84,17.95-52.07,18.67-69.3,30.17-73.62,85.47-116.35l5.07,2.27C3056.76,1133,3004.27,1338.72,2991.63,1348.31Z"/><path class="cls-8" d="M2922.54,1288.13c-43.57,8.14-54.28,18.14-78,22-26.92,4.34-23.72,10.29-3.72,10.29s70.24.78,87.49-3.05S2922.54,1288.13,2922.54,1288.13Z"/><path class="cls-40" d="M3056,1092.48c33.4,106.76,80.74,227.91,73.2,227.91s-199.28,7.75-206.83,1.3-5.38-31.23-4.31-34.47,109-22.38,109-22.38-14.21-27.7-19.6-81.83S3049.67,1072.23,3056,1092.48Z"/><path class="cls-8" d="M2939.7,948.2l26.89,98.29s-45.45,71-57.94,64.65,7-57.67,7-64.65-19.48-79-19.48-79Z"/><path class="cls-12" d="M2914.7,1051.5a26,26,0,0,0,.93-5c0-7-19.48-79-19.48-79l43.55-19.3,8.9,32.52C2940.82,1014.33,2926.8,1036.71,2914.7,1051.5Z"/><path class="cls-8" d="M2839.05,946.57c-5.13,28.51-1.75,66.36,23.56,76s55.8-8.79,68.1-41.13,1.75-66.36-23.56-76S2845.17,912.52,2839.05,946.57Z"/><ellipse class="cls-8" cx="2938.01" cy="967.35" rx="19.15" ry="14.12" transform="translate(1041.41 3410.83) rotate(-70.41)"/><path class="cls-7" d="M2838.75,910.76c8.62,66.89,89.88,58.27,89.88,58.27s16.76-22,24.31-10.48-10.47-67.81-57.1-70.31C2880.52,887.42,2838.75,910.76,2838.75,910.76Z"/><ellipse class="cls-7" cx="2965.36" cy="882.48" rx="44.01" ry="41.29"/></g><g class="cls-42"><circle class="cls-6" cx="343.67" cy="1376.42" r="315.09"/><path class="cls-35" d="M496.82,1351s9.87,9.19,22.22,3.25,57.42-37.8,56-45.57-22.43-9.64-22.43-9.64S487.4,1350.67,496.82,1351Z"/><path class="cls-36" d="M508.69,1349.84c-8.45-1.36,19.36-23.48,28.46-32.62a140.35,140.35,0,0,1,15-13.41s15.54,1.89,15.54,4.91-44.58,38.62-44.58,38.62S512.51,1350.45,508.69,1349.84Z"/><path class="cls-8" d="M454.12,1389.63s16.23-27.44,24-34.75,34-21.5,38-21.59c6.81-.15-23.37,20.21-23.37,20.21s4.12,26.52.46,36.13-42.07,22.4-42.07,22.4Z"/><path class="cls-43" d="M423.94,1418.42s26.52-39.78,32.46-37,22,37,22,37-46.64,48.47-46.64,39.32S423.94,1418.42,423.94,1418.42Z"/><path class="cls-8" d="M350.6,1205.38s-27.43,96.94-45.72,137.17-27.43,115.22-23.78,246.91-21.94,128,16.46,144.48,175.58-11,193.87-53-12.25-213.32-57.61-276.17c-44.79-62-64.93-84.13-64.93-98.76s17.7-76.81,17.7-76.81Z"/><path class="cls-44" d="M491.43,1680.9c18.29-42.06-12.25-213.32-57.61-276.17-20.86-28.89-36.37-49.11-47-64-21.71-13-45.69-25-68.7-32-4.6,13-9.15,24.82-13.25,33.83-18.29,40.24-27.43,115.22-23.78,246.91s-21.94,128,16.46,144.48S473.14,1723,491.43,1680.9Z"/><path class="cls-45" d="M301.83,1291.34c.46-7.53,98.15,31.09,98.76,38.41s6.38,34.6,14.47,49.31-136,96.83-130.71,56.84S300.61,1311.46,301.83,1291.34Z"/><path class="cls-12" d="M369,1307.61a15.3,15.3,0,0,1-.09-1.64c0-14.63,17.7-76.81,17.7-76.81l-36-23.78s-6.37,22.51-15,50.33C346.77,1289.1,357.23,1300.48,369,1307.61Z"/><path class="cls-8" d="M441.17,1252.68c-6.65,30.13-27.46,51.56-51.51,45.67-17.64-4.32-44.76-29-36.06-65,7.24-30,31.64-50.23,55.82-44.89S447.82,1222.55,441.17,1252.68Z"/><path class="cls-8" d="M482.76,1477.24c25-43.13,27.77-83.41,45.46-96,24.89-17.7,45.33-57.27,36.32-58.83s-45.5,31.87-45.5,31.87,9.49-13,7.22-14.08-20.64,12.25-23.49,28-38.16,88.2-67.78,111.41S457.79,1520.36,482.76,1477.24Z"/><path class="cls-46" d="M321,1368.57c-44.26,11-24,144.65,13.29,223.9s107.41,10.79,133.63-8.63a87,87,0,0,0,20.82-21.27c-8.41-47.3-22.84-98-40.65-133.73C406.32,1477.86,386.46,1352.27,321,1368.57Z"/><path class="cls-47" d="M334.28,1359c-55.64,5.58-25.17,144.48,15.52,200.57s98.6,1.83,116.89-30.48,55.32-87.25,55.32-123c0-6.7-13.71-8.07-30.17-6.85-15.5,1.14-85.52,97.54-85.52,97.54S382.94,1354.1,334.28,1359Z"/><path class="cls-23" d="M419,1159.15c58.08,4,50.66,94,50.66,94s-47.9,1.38-62.18-2.76-28.83-15.33-28.83-15.33-8.79,34.1-32.8,36l-24,1.9S306,1208.22,318.54,1179C344.51,1118.52,396.36,1148.82,419,1159.15Z"/><path class="cls-8" d="M355.65,1246.31c3.44,8.85,11.57,14,18.17,11.38s9.16-11.81,5.72-20.66-11.58-13.94-18.17-11.38S352.21,1237.47,355.65,1246.31Z"/><path class="cls-23" d="M327,1236a1.73,1.73,0,0,0-3.33-.68c-5.24,12.22-16.24,33.45-29.94,35-19.34,2.11-157.29,13.36-111.38,119.81,29,67.26,50,94.09,21.49,119-26.24,22.91-60.86,1.34-69.5-4.44a1.73,1.73,0,0,0-2.67,1.16c-2.44,14.82-10.51,85.81,58.27,84.79,76.78-1.14,113.44-70.54,82.15-134.21s30.7-80,33.23-115.74c2.45-34.45.62-51.86.12-55.69a1.73,1.73,0,0,1,.48-1.43l20.59-21.09a1.75,1.75,0,0,0,.49-1.21Z"/><path class="cls-23" d="M175,1516.33c-15.63,0-40.21-6.38-41.32-6.67a2.44,2.44,0,0,1,.83-4.79c.33,0,33.37,2.86,46.28-7.32,16.3-12.85,7.19-33.86-7.9-68.66-6.37-14.7-13.6-31.36-20.23-50.63-12.58-36.52.93-61.63,14.48-76.25,28.44-30.71,83.86-43.92,131.77-31.42a2.44,2.44,0,0,1-1.23,4.72c-1.12-.29-2.24-.57-3.37-.83-60.95,1-100.28,15.17-116.88,42-14.53,23.51-11.54,57,8.89,99.56,19.94,41.53,25.29,70.73,15.91,86.82-4.66,8-13,12.59-24.11,13.33C177.16,1516.3,176.12,1516.33,175,1516.33Zm-17.93-6.7c7.36,1.23,15.09,2.11,20.73,1.74,9.55-.64,16.36-4.31,20.22-10.93,5.86-10,7.82-32.45-16.09-82.25C160.76,1374,157.85,1339,173.31,1314c15-24.29,47-38.72,95.21-43-38-1.76-76.1,11-97.78,34.4-18.13,19.57-22.78,44.25-13.45,71.35,6.58,19.09,13.76,35.66,20.1,50.28,15.47,35.68,25.69,59.26,6.44,74.43C177.3,1506.53,166.79,1508.75,157.1,1509.63Z"/></g><g class="cls-48"><circle class="cls-49" cx="1442.21" cy="279.66" r="153"/><path class="cls-50" d="M1394.87,265.55c-.38-1.14-9.89-55.72-11-77S1418,164.34,1418,164.34s28.81-15.54,49.66-7.58,35,21.35,44.51,38-8.34,68.66-8.34,68.66Z"/><path class="cls-17" d="M1329.52,440.92c-.14-.9,2.43-22.38,2.52-23.25,4.8-45.23,60.56-57.95,116.2-57.95,65.37,0,109.72,12,116.79,59,.21,1.38,4,22.92,3.79,24.36C1447.67,444.7,1329.52,440.92,1329.52,440.92Z"/><path class="cls-8" d="M1459.46,394.83c-6.47,9.56-11.22,9.95-18.25,0-5.59-7.92-24.26-26-24.26-35.11l7.66-91a16.65,16.65,0,0,1,16.6-16.6h18.25a16.65,16.65,0,0,1,16.6,16.6l3.56,91C1479.62,368.85,1465.27,386.25,1459.46,394.83Z"/><path class="cls-12" d="M1459.46,252.09h-18.25a16.65,16.65,0,0,0-16.6,16.6L1418,349.44c20.5,6.53,48.18-6.74,60.42-21.35l-2.32-59.4A16.65,16.65,0,0,0,1459.46,252.09Z"/><path class="cls-51" d="M1387.68,366.35l29.27,54.1s15.67-12.89,17.18-10.36-2.78,34.42-2.78,34.42,34.88.47,36.39-1-7.07-34.64-3.54-34.64,14.18,9.6,14.18,9.6l32.68-52.08-7.18-1.75-53.54,28.81-57.27-28.17Z"/><polygon class="cls-26" points="1421.15 391.28 1442.89 405.87 1436.15 444.58 1465.47 442.94 1458.15 407.73 1476.16 391.28 1467.7 383.3 1429.62 383.3 1421.15 391.28"/><path class="cls-17" d="M1418.47,339.84l-26.89,25.58s27.39,48.71,28.91,48.71,23.24-26.85,23.24-26.85l13.91-.25,22,23.06,25.54-45.17-26.05-27.61s-22.23,43-26.28,44-4.07,1.52-7.34-1S1418.47,339.84,1418.47,339.84Z"/><ellipse class="cls-8" cx="1450.34" cy="253.02" rx="55.18" ry="75.19"/><path class="cls-8" d="M1400.8,251.86c5.16,10.86,3.47,22.46-3.77,25.9s-17.3-2.58-22.46-13.44-3.48-22.47,3.77-25.91S1395.64,241,1400.8,251.86Z"/><path class="cls-8" d="M1497.38,251.86c-5.16,10.86-3.47,22.46,3.77,25.9s17.31-2.58,22.47-13.44,3.47-22.47-3.78-25.91S1502.54,241,1497.38,251.86Z"/><path class="cls-17" d="M1474.82,283.87s-11,17.75-24.48,17.75-24.49-17.75-24.49-17.75Z"/><path class="cls-50" d="M1418,201.87c22.74-15.92,33-13.27,50,12.88s37.52,26.62,37.52,26.62l2.65-27.12s-25.4-49.15-59.51-42.71-53.51,37.15-53.51,37.15-1.66,57.55,3.1,59.51,5.31-18.57,8.72-22.74-3.41-23.88,1.14-33S1418,201.87,1418,201.87Z"/><path class="cls-50" d="M1491.12,231.43c7.94,8.7,4.93,43.21,9.09,42.83s5.69-33,4.55-36.38S1491.12,231.43,1491.12,231.43Z"/></g><g class="cls-52"><circle class="cls-49" cx="157" cy="769.5" r="153"/><path class="cls-30" d="M35.89,911.78c18.5-39.82,49.83-52.57,101.26-52.57C198.4,859.21,239,897,248,929.33,138.3,930.83,35.89,911.78,35.89,911.78Z"/><path class="cls-53" d="M115.77,665.57C89.84,672.85,91,687.42,82.34,700.94s-27.42,22.53-29.68,31.55,5.79,27.79-3.75,38.31-12.77,15.78-9,26.29,12,27,12.77,29.3,11.27,18,24,20.28,36.81,6,48.83,11.27,50.67-6.73,72.12-6,36.06-15.05,34.55-25.57S248,794.84,248,776.81c0-19.36-22.54-33.8-28.55-46.58s.75-35.3-21.78-48.65c-14.24-8.44-24-7.69-35.31-11.44S132.29,660.93,115.77,665.57Z"/><path class="cls-8" d="M147.32,891c-5.87,8.66-10.17,9-16.53,0-5.06-7.16-15-23.45-15-31.71V776.81a15.07,15.07,0,0,1,15-15h16.53a15.07,15.07,0,0,1,15,15v82.47C162.34,867.54,152.58,883.23,147.32,891Z"/><path class="cls-12" d="M147.32,761.79H130.79a15.07,15.07,0,0,0-15,15v73.58c18.55,5.91,35.49-5.83,46.57-19.07V776.81A15.07,15.07,0,0,0,147.32,761.79Z"/><ellipse class="cls-8" cx="139.05" cy="762.62" rx="49.96" ry="68.07"/><path class="cls-53" d="M162.34,708.45c-31.55,53.34-78.13,48.08-78.13,48.08s1.13-70.62,38.13-74.37,58.78,11.09,66.29,35.59,0,40.66,0,40.66-12-9.39-18-24.42A174.81,174.81,0,0,1,162.34,708.45Z"/><path class="cls-8" d="M94.21,761.57c4.67,9.84,3.15,20.34-3.41,23.45s-15.67-2.33-20.34-12.17-3.14-20.34,3.42-23.45S89.54,751.73,94.21,761.57Z"/><path class="cls-8" d="M181.64,761.57c-4.67,9.84-3.14,20.34,3.42,23.45s15.66-2.33,20.33-12.17,3.15-20.34-3.41-23.45S186.31,751.73,181.64,761.57Z"/><path class="cls-17" d="M157.83,799.54s-8.4,10.9-18.78,10.9-18.78-10.9-18.78-10.9Z"/></g><g class="cls-54"><circle class="cls-49" cx="2971.66" cy="423.8" r="163.03" transform="translate(570.71 2225.41) rotate(-45)"/><path class="cls-55" d="M2886.81,399.66c0,44.79,27,117.07,90.6,114.75s77.7-71.21,80.17-90.66S2886.81,399.66,2886.81,399.66Z"/><path class="cls-26" d="M2860.3,574.08c21-45.2,56.57-59.68,115-59.68,69.52,0,105.62,25.19,115.85,61.86-40.9.56-79.85,41.23-113.7,40.92C2908.23,616.55,2860.3,574.08,2860.3,574.08Z"/><path class="cls-8" d="M2986.79,550.48c-6.65,9.83-11.53,10.24-18.76,0-5.74-8.13-17.05-26.62-17.05-36V420.86A17.1,17.1,0,0,1,2968,403.81h18.76a17.11,17.11,0,0,1,17.06,17.05v93.62C3003.85,523.86,2992.76,541.67,2986.79,550.48Z"/><path class="cls-12" d="M2986.79,403.81H2968A17.1,17.1,0,0,0,2951,420.86v83.53c21.06,6.71,40.29-6.62,52.87-21.64V420.86A17.11,17.11,0,0,0,2986.79,403.81Z"/><path class="cls-8" d="M3034.12,404.76c0,42.67-25.39,77.27-56.71,77.27s-56.71-34.6-56.71-77.27,25.39-77.28,56.71-77.28S3034.12,362.08,3034.12,404.76Z"/><path class="cls-55" d="M3008.58,346c-6.74,23.77-21.5,23.49-42.1,31.29s-30.43,15.66-37.17,30.86c-8.59,19.39,3.9,75.9,3.9,75.9s-52.13-39-46.1-100.37,42.2-85.13,76.25-85.13,47,20.75,47,20.75,18.14.08,35.29,20.4c23,27.31,16,93.63,0,117.4s-26.6,31.21-26.25,30.15,14.9-55.64,7.1-89.38S3008.58,346,3008.58,346Z"/><path class="cls-17" d="M2998.73,446.66S2989.19,459,2977.41,459s-21.32-12.38-21.32-12.38Z"/></g><path class="cls-56" d="M774.33,816.66A384.1,384.1,0,0,1,624.86,78.84,384.1,384.1,0,0,1,923.8,786.49,381.65,381.65,0,0,1,774.33,816.66Zm0-760c-207.33,0-376,168.68-376,376s168.67,376,376,376,376-168.67,376-376S981.66,56.66,774.33,56.66Z"/><path class="cls-56" d="M2219.35,755.88a355.12,355.12,0,0,1-138.2-682.15A355.12,355.12,0,0,1,2357.54,728,352.88,352.88,0,0,1,2219.35,755.88Zm0-702c-191.35,0-347,155.67-347,347s155.68,347,347,347,347-155.68,347-347S2410.7,53.83,2219.35,53.83Z"/><path class="cls-56" d="M2879.87,1280.35a255.23,255.23,0,1,1,180.49-74.76A253.57,253.57,0,0,1,2879.87,1280.35Zm0-502.48c-136.32,0-247.24,110.91-247.24,247.24s110.92,247.24,247.24,247.24,247.24-110.91,247.24-247.24S3016.2,777.87,2879.87,777.87Z"/><path class="cls-56" d="M343.67,1695.51a319.09,319.09,0,1,1,225.63-93.46A317,317,0,0,1,343.67,1695.51Zm0-630.19c-171.54,0-311.09,139.56-311.09,311.1s139.55,311.09,311.09,311.09S654.76,1548,654.76,1376.42,515.21,1065.32,343.67,1065.32Z"/><path class="cls-56" d="M1442.21,436.66c-86.57,0-157-70.43-157-157s70.43-157,157-157,157,70.43,157,157S1528.78,436.66,1442.21,436.66Zm0-306c-82.16,0-149,66.85-149,149s66.84,149,149,149,149-66.84,149-149S1524.37,130.66,1442.21,130.66Z"/><path class="cls-56" d="M157,926.5c-86.57,0-157-70.43-157-157s70.43-157,157-157,157,70.43,157,157S243.57,926.5,157,926.5Zm0-306c-82.16,0-149,66.84-149,149s66.84,149,149,149,149-66.84,149-149S239.16,620.5,157,620.5Z"/><path class="cls-56" d="M2971.66,590.83c-92.1,0-167-74.93-167-167s74.93-167,167-167,167,74.93,167,167S3063.75,590.83,2971.66,590.83Zm0-326.06c-87.69,0-159,71.34-159,159s71.34,159,159,159,159-71.34,159-159S3059.34,264.77,2971.66,264.77Z"/><circle class="cls-31" cx="2038.25" cy="229.04" r="74.55" transform="translate(1516.17 2212.55) rotate(-81.67)"/><path class="cls-17" d="M2037.52,202.83s-26-23-44.46-.9c-25.29,30.28,44.46,68.79,44.46,68.79s71-39.74,46.16-70.37C2064.9,177.18,2037.52,202.83,2037.52,202.83Z"/><circle class="cls-31" cx="2337.63" cy="1276.35" r="74.55" transform="translate(535.43 3237.39) rotate(-76.05)"/><path class="cls-17" d="M2336.9,1250.15s-26-23-44.45-.9c-25.3,30.27,44.45,68.79,44.45,68.79s71-39.75,46.17-70.38C2364.29,1224.5,2336.9,1250.15,2336.9,1250.15Z"/><circle class="cls-31" cx="584.22" cy="1185.53" r="74.55" transform="translate(-734.8 1269.1) rotate(-67.39)"/><path class="cls-17" d="M583.49,1159.32s-26-23-44.46-.9c-25.29,30.28,44.46,68.8,44.46,68.8s71-39.75,46.17-70.38C610.87,1133.68,583.49,1159.32,583.49,1159.32Z"/><path class="cls-31" d="M554.05,980.91a44.38,44.38,0,1,1-44.38-44.38A44.37,44.37,0,0,1,554.05,980.91Z"/><path class="cls-17" d="M509.24,965.31s-15.5-13.67-26.47-.54c-15,18,26.47,41,26.47,41s42.26-23.67,27.48-41.9C525.54,950,509.24,965.31,509.24,965.31Z"/><path class="cls-31" d="M1958,52.66A52.67,52.67,0,1,1,1905.31,0,52.67,52.67,0,0,1,1958,52.66Z"/><path class="cls-17" d="M1904.8,34.15s-18.39-16.22-31.41-.63c-17.86,21.39,31.41,48.6,31.41,48.6S1955,54,1937.42,32.4C1924.15,16,1904.8,34.15,1904.8,34.15Z"/><path class="cls-31" d="M2495.62,996.23A52.66,52.66,0,1,1,2443,943.56,52.66,52.66,0,0,1,2495.62,996.23Z"/><path class="cls-17" d="M2442.45,977.72s-18.39-16.22-31.41-.64c-17.87,21.39,31.41,48.6,31.41,48.6s50.16-28.08,32.61-49.72C2461.79,959.6,2442.45,977.72,2442.45,977.72Z"/><circle class="cls-30" cx="1322.66" cy="326.31" r="74.55" transform="translate(-39.59 312.61) rotate(-13.28)"/><path class="cls-17" d="M1321,277.2c9.67-1.33,18,22.67,17.33,30.34s18-1,27,5.66,6.34,41.34,0,43.67-31.87,2.67-40.1-1.67-13.78-3.52-13.78-3.52l-4.24-36.27a32.3,32.3,0,0,0,10.79-6.54C1323.66,303.87,1321,277.2,1321,277.2Zm-43,85c2.33,2,28.67,8.34,30-5s-5.33-41.66-5.33-41.66-18.33-.93-24.67,2.31C1275.55,319.1,1275.66,360.2,1278,362.2Z"/><circle class="cls-30" cx="658.76" cy="1460.18" r="74.55" transform="translate(-929.42 1669.37) rotate(-73.22)"/><path class="cls-17" d="M657.1,1411.07c9.66-1.33,18,22.67,17.33,30.33s18-1,27,5.67,6.33,41.33,0,43.67-31.88,2.66-40.11-1.67-13.78-3.52-13.78-3.52l-4.24-36.27a32.28,32.28,0,0,0,10.8-6.54C659.76,1437.74,657.1,1411.07,657.1,1411.07Zm-43,85c2.33,2,28.66,8.33,30-5s-5.34-41.67-5.34-41.67-18.32-.92-24.66,2.33C611.65,1453,611.76,1494.07,614.1,1496.07Z"/><circle class="cls-30" cx="2686.66" cy="877.63" r="68.33"/><path class="cls-17" d="M2685.13,832.62c8.86-1.23,16.5,20.77,15.89,27.8s16.5-.91,24.75,5.2,5.8,37.88,0,40-29.22,2.45-36.77-1.52-12.63-3.23-12.63-3.23l-3.88-33.25a29.57,29.57,0,0,0,9.89-6C2687.57,857.06,2685.13,832.62,2685.13,832.62Zm-39.42,77.91c2.14,1.84,26.28,7.64,27.5-4.58s-4.89-38.19-4.89-38.19-16.79-.85-22.61,2.12C2643.47,871,2643.57,908.7,2645.71,910.53Z"/><circle class="cls-30" cx="1106.66" cy="634.99" r="57.87" transform="translate(-124.87 968.51) rotate(-45)"/><path class="cls-17" d="M1105.36,596.87c7.51-1,14,17.6,13.46,23.55s14-.78,21,4.4,4.91,32.08,0,33.89-24.75,2.07-31.14-1.29-10.69-2.74-10.69-2.74l-3.29-28.15a24.83,24.83,0,0,0,8.37-5.08C1107.43,617.57,1105.36,596.87,1105.36,596.87Zm-33.38,66c1.82,1.56,22.26,6.47,23.29-3.88s-4.14-32.34-4.14-32.34-14.22-.72-19.15,1.8C1070.09,629.4,1070.17,661.3,1072,662.85Z"/><circle class="cls-38" cx="270.45" cy="692.89" r="74.55" transform="translate(-410.73 394.18) rotate(-45)"/><path class="cls-17" d="M234.89,732.39c-11-65.87,39.41-67.49,39.41-67.49V645.38l39.95,40-38.49,38.49V701.49s-19.35.81-26.67,11.38S234.89,732.39,234.89,732.39Z"/><circle class="cls-38" cx="1495.9" cy="1450.96" r="74.55" transform="translate(-359.47 2399.97) rotate(-71.22)"/><path class="cls-17" d="M1460.34,1490.47c-11-65.87,39.41-67.5,39.41-67.5v-19.51l40,40-38.49,38.49v-22.33s-19.35.81-26.66,11.38S1460.34,1490.47,1460.34,1490.47Z"/><circle class="cls-56" cx="1181.77" cy="109.49" r="20"/><circle class="cls-56" cx="1181.77" cy="199.49" r="20"/><circle class="cls-56" cx="1106.77" cy="156.02" r="20" transform="translate(539.09 1118.84) rotate(-67.5)"/><path class="cls-56" d="M1181.77,203.49a3.93,3.93,0,0,1-2-.54l-75-43.47a4,4,0,0,1-.1-6.86l75-46.53a4,4,0,0,1,4.21,6.8l-69.33,43L1183.78,196a4,4,0,0,1-2,7.46Z"/><circle class="cls-56" cx="3111.11" cy="637.18" r="20"/><circle class="cls-56" cx="3111.11" cy="727.18" r="20"/><circle class="cls-56" cx="3036.11" cy="683.71" r="20"/><path class="cls-56" d="M3111.11,731.18a3.93,3.93,0,0,1-2-.54l-75-43.47a4,4,0,0,1-.11-6.86l75-46.53a4,4,0,0,1,4.22,6.8l-69.33,43,69.23,40.13a4,4,0,0,1-2,7.46Z"/><rect class="cls-24" x="2625.79" y="101.59" width="55.73" height="50.16" rx="12.08"/><rect class="cls-24" x="2727.12" y="101.59" width="55.73" height="50.16" rx="12.08"/><rect class="cls-24" x="2828.45" y="101.59" width="55.73" height="50.16" rx="12.08"/></g></g></svg>