<?xml version="1.0" encoding="utf-8"?>
<!-- Generator: Adobe Illustrator 25.4.1, SVG Export Plug-In . SVG Version: 6.00 Build 0)  -->
<svg version="1.1" id="Layer_1" xmlns="http://www.w3.org/2000/svg" xmlns:xlink="http://www.w3.org/1999/xlink" x="0px" y="0px"
	 viewBox="0 0 162.6 76.5" style="enable-background:new 0 0 162.6 76.5;" xml:space="preserve">
<style type="text/css">
	.st0{fill:#E97A1B;}
	.st1{opacity:0.45;}
	.st2{fill:#BD1622;}
	.st3{fill:none;}
	.st4{fill:#F8B133;}
	.st5{fill:#FFFFFF;}
</style>
<g>
	<g>
		<g>
			<g>
				<path class="st0" d="M48.2,1.3H15.1c-3.6,0-6.5,2.9-6.5,6.5V58c0,3.6,2.9,6.5,6.5,6.5l33.1-10.3c3.6,0,6.5-2.9,6.5-6.5V7.9
					C54.7,4.3,51.8,1.3,48.2,1.3z"/>
			</g>
		</g>
		<g class="st1">
			<path class="st2" d="M54.7,47.4c-0.1-2.2-1.4-4.2-3.1-5.2L32.3,27.8l-14.7-11c-1.1-0.6-2.2-0.9-3.2-0.9c-3.1,0.1-5.7,2.6-5.9,6.2
				c0,0.1,0,0.2,0,0.4v46.1c0.1,5.1,4.9,8.2,9.2,5.8l33.9-20.9c1.8-1.1,3.1-3.2,3.1-5.6c0,0,0-0.1,0-0.1
				C54.7,47.7,54.7,47.6,54.7,47.4z M54.7,47.4c-0.1-2.2-1.4-4.2-3.1-5.2l-21-12.9l-12.9-7.9c-1.1-0.6-2.2-0.9-3.2-0.8
				c-3.1,0.1-5.7,2.6-5.9,6.2c0,0.1,0,0.2,0,0.4v41.6c0.1,5.1,4.9,8.2,9.2,5.8l33.9-20.9c1.8-1.1,3.1-3.2,3.1-5.6c0,0,0-0.1,0-0.1
				C54.7,47.7,54.7,47.6,54.7,47.4z M54.7,47.4c-0.1-2.2-1.4-4.2-3.1-5.2l-21-12.9l-12.9-7.9c-1.1-0.6-2.2-0.9-3.2-0.8
				c-3.1,0.1-5.7,2.6-5.9,6.2c0,0.1,0,0.2,0,0.4v41.6c0.1,5.1,4.9,8.2,9.2,5.8l33.9-20.9c1.8-1.1,3.1-3.2,3.1-5.6c0,0,0-0.1,0-0.1
				C54.7,47.7,54.7,47.6,54.7,47.4z M54.7,47.4c-0.1-2.2-1.4-4.2-3.1-5.2l-21-12.9l-12.9-7.9c-1.1-0.6-2.2-0.9-3.2-0.8
				c-3.1,0.1-5.7,2.6-5.9,6.2c0,0.1,0,0.2,0,0.4v41.6c0.1,5.1,4.9,8.2,9.2,5.8l33.9-20.9c1.8-1.1,3.1-3.2,3.1-5.6c0,0,0-0.1,0-0.1
				C54.7,47.7,54.7,47.6,54.7,47.4z M54.7,47.4c-0.1-2.2-1.4-4.2-3.1-5.2l-21-12.9l-12.9-7.9c-1.1-0.6-2.2-0.9-3.2-0.8
				c-3.1,0.1-5.7,2.6-5.9,6.2c0,0.1,0,0.2,0,0.4v41.6c0.1,5.1,4.9,8.2,9.2,5.8l33.9-20.9c1.8-1.1,3.1-3.2,3.1-5.6c0,0,0-0.1,0-0.1
				C54.7,47.7,54.7,47.6,54.7,47.4z M54.7,47.4c-0.1-2.2-1.4-4.2-3.1-5.2l-21-12.9l-12.9-7.9c-1.1-0.6-2.2-0.9-3.2-0.8
				c-3.1,0.1-5.7,2.6-5.9,6.2c0,0.1,0,0.2,0,0.4v41.6c0.1,5.1,4.9,8.2,9.2,5.8l33.9-20.9c1.8-1.1,3.1-3.2,3.1-5.6c0,0,0-0.1,0-0.1
				C54.7,47.7,54.7,47.6,54.7,47.4z"/>
		</g>
		<g>
			<line class="st3" x1="31.6" y1="39.8" x2="31.6" y2="38.6"/>
		</g>
		<g>
			<path class="st4" d="M54.7,48c0-0.1,0-0.2,0-0.3v-0.1c-0.1-2.2-1.4-4.2-3.1-5.2L34.6,32l-4.2-2.6l-12.7-7.8
				c-1.1-0.6-2.2-0.9-3.2-0.9c-3.1,0.1-5.7,2.6-5.9,6.2c0,0.1,0,0.2,0,0.4v41.6c0.1,3.1,1.9,5.4,4.2,6.3c1.5,0.6,3.3,0.5,5-0.5
				l33.9-20.9c1.8-1.1,3.1-3.2,3.1-5.7C54.7,48.1,54.7,48,54.7,48z M54.7,48c0-0.1,0-0.2,0-0.3v-0.1c-0.1-2.2-1.4-4.2-3.1-5.2
				L34.6,32l-4.2-2.6l-12.7-7.8c-1.1-0.6-2.2-0.9-3.2-0.9c-3.1,0.1-5.7,2.6-5.9,6.2c0,0.1,0,0.2,0,0.4v41.6c0.1,3.1,1.9,5.4,4.2,6.3
				c1.5,0.6,3.3,0.5,5-0.5l33.9-20.9c1.8-1.1,3.1-3.2,3.1-5.7C54.7,48.1,54.7,48,54.7,48z M54.7,48c0-0.1,0-0.2,0-0.3v-0.1
				c-0.1-2.2-1.4-4.2-3.1-5.2L34.6,32l-4.2-2.6l-12.7-7.8c-1.1-0.6-2.2-0.9-3.2-0.9c-3.1,0.1-5.7,2.6-5.9,6.2c0,0.1,0,0.2,0,0.4
				v41.6c0.1,3.1,1.9,5.4,4.2,6.3c1.5,0.6,3.3,0.5,5-0.5l33.9-20.9c1.8-1.1,3.1-3.2,3.1-5.7C54.7,48.1,54.7,48,54.7,48z M54.7,48
				c0-0.1,0-0.2,0-0.3v-0.1c-0.1-2.2-1.4-4.2-3.1-5.2L34.6,32l-4.2-2.6l-12.7-7.8c-1.1-0.6-2.2-0.9-3.2-0.9
				c-3.1,0.1-5.7,2.6-5.9,6.2c0,0.1,0,0.2,0,0.4v41.6c0.1,3.1,1.9,5.4,4.2,6.3c1.5,0.6,3.3,0.5,5-0.5l33.9-20.9
				c1.8-1.1,3.1-3.2,3.1-5.7C54.7,48.1,54.7,48,54.7,48z M54.7,48c0-0.1,0-0.2,0-0.3v-0.1c-0.1-2.2-1.4-4.2-3.1-5.2L34.6,32
				l-4.2-2.6l-12.7-7.8c-1.1-0.6-2.2-0.9-3.2-0.9c-3.1,0.1-5.7,2.6-5.9,6.2c0,0.1,0,0.2,0,0.4v41.6c0.1,3.1,1.9,5.4,4.2,6.3
				c1.5,0.6,3.3,0.5,5-0.5l33.9-20.9c1.8-1.1,3.1-3.2,3.1-5.7C54.7,48.1,54.7,48,54.7,48z M54.7,48c0-0.1,0-0.2,0-0.3v-0.1
				c-0.1-2.2-1.4-4.2-3.1-5.2L34.6,32l-4.2-2.6l-12.7-7.8c-1.1-0.6-2.2-0.9-3.2-0.9c-3.1,0.1-5.7,2.6-5.9,6.2c0,0.1,0,0.2,0,0.4
				v41.6c0.1,3.1,1.9,5.4,4.2,6.3c1.5,0.6,3.3,0.5,5-0.5l33.9-20.9c1.8-1.1,3.1-3.2,3.1-5.7C54.7,48.1,54.7,48,54.7,48z"/>
		</g>
	</g>
	<g>
		<g>
			<path class="st5" d="M83.8,3.8c-2.1-1.8-5-2.7-8.8-2.7h-13v30h7.7v-8.7H75c3.8,0,6.7-1,8.8-2.9c2.1-1.9,3.1-4.6,3.1-8.1
				C86.9,8.1,85.8,5.6,83.8,3.8L83.8,3.8z M75,16.3c-0.1,0-0.1,0-0.2,0c-0.1,0-0.2,0-0.2,0h-4.9v-9h4.9c0.1,0,0.2,0,0.2,0
				c0.1,0,0.1,0,0.2,0c2.5,0,4.5,2,4.5,4.5C79.6,14.2,77.5,16.3,75,16.3z"/>
			<path class="st5" d="M113.7,1.1v4.5v11.5c0,1.9-0.5,3.4-1.5,4.5c-1,1.1-2.4,1.7-4,1.7c-1.7,0-3.1-0.6-4.2-1.7
				c-1.1-1.1-1.6-2.6-1.6-4.5V5.6V1.1h-7.7v16.4c0,0.1,0,0.2,0,0.2c0,0.1,0,0.2,0,0.2c0.1,7,5.7,12.7,12.7,13.1c0.2,0,0.5,0,0.7,0
				c0,0,0,0,0,0c7.4,0,13.3-6,13.3-13.4V1.1H113.7z"/>
			<path class="st5" d="M149.9,21.6c-1.4,1.5-3.4,2.4-5.6,2.4c-4.4,0-7.9-3.6-7.9-7.9c0-4.4,3.6-7.9,7.9-7.9c2.1,0,4.1,0.8,5.5,2.2
				l5-5c-2.7-2.7-6.4-4.3-10.5-4.3c-8.3,0-15,6.7-15,15c0,8.3,6.7,15,15,15c4.2,0,7.9-1.7,10.7-4.4L149.9,21.6z"/>
		</g>
	</g>
	<g>
		<path class="st5" d="M62.1,39.4c0-2.4,1.9-4.2,4.4-4.2c1.4,0,2.6,0.5,3.3,1.4l-1.2,1.1c-0.5-0.6-1.2-0.9-2-0.9
			c-1.5,0-2.6,1.1-2.6,2.6c0,1.5,1.1,2.6,2.6,2.6c0.8,0,1.5-0.3,2-1l1.2,1.1c-0.8,0.9-1.9,1.4-3.3,1.4
			C63.9,43.6,62.1,41.8,62.1,39.4z"/>
		<path class="st5" d="M80.2,41.7h-3.7l-0.7,1.7h-1.9l3.6-8.1h1.8l3.6,8.1h-2L80.2,41.7z M79.6,40.3l-1.3-3.1l-1.3,3.1H79.6z"/>
		<path class="st5" d="M95.1,43.4l0-4.8l-2.4,4h-0.8l-2.4-3.9v4.7h-1.8v-8.1h1.5l3,5l3-5h1.5l0,8.1H95.1z"/>
		<path class="st5" d="M109.8,38.3c0,1.8-1.3,2.9-3.5,2.9h-1.6v2.2h-1.9v-8.1h3.5C108.5,35.4,109.8,36.5,109.8,38.3z M107.9,38.3
			c0-0.9-0.6-1.4-1.7-1.4h-1.5v2.8h1.5C107.4,39.7,107.9,39.2,107.9,38.3z"/>
		<path class="st5" d="M115.2,35.4h1.9v8.1h-1.9V35.4z"/>
		<path class="st5" d="M130.4,35.4v8.1h-1.5l-4-4.9v4.9H123v-8.1h1.5l4,4.9v-4.9H130.4z"/>
		<path class="st5" d="M141.7,41.7h-3.7l-0.7,1.7h-1.9l3.6-8.1h1.8l3.6,8.1h-2L141.7,41.7z M141.1,40.3l-1.3-3.1l-1.3,3.1H141.1z"/>
		<path class="st5" d="M148.6,42.6l0.6-1.4c0.7,0.5,1.7,0.8,2.7,0.8c1.1,0,1.6-0.4,1.6-0.9c0-1.5-4.7-0.5-4.7-3.5
			c0-1.4,1.1-2.5,3.4-2.5c1,0,2.1,0.2,2.8,0.7l-0.6,1.4c-0.7-0.4-1.5-0.6-2.2-0.6c-1.1,0-1.5,0.4-1.5,0.9c0,1.5,4.7,0.5,4.7,3.4
			c0,1.3-1.1,2.5-3.4,2.5C150.6,43.6,149.3,43.2,148.6,42.6z"/>
	</g>
	<rect x="62.1" y="47" class="st5" width="93.4" height="1.8"/>
	<g>
		<path class="st0" d="M68.7,59.7v1.6h-5.9V54h5.8v1.6h-3.7v1.2h3.3v1.6h-3.3v1.3H68.7z"/>
		<path class="st0" d="M74,54h3.5c2.4,0,4.1,1.4,4.1,3.7s-1.7,3.7-4.1,3.7H74V54z M77.4,59.7c1.2,0,2.1-0.7,2.1-2s-0.8-2-2.1-2h-1.3
			v4H77.4z"/>
		<path class="st0" d="M86.9,58.1V54h2.1v4c0,1.3,0.5,1.8,1.4,1.8c0.9,0,1.4-0.5,1.4-1.8v-4h2v4.1c0,2.2-1.3,3.4-3.5,3.4
			C88.1,61.5,86.9,60.3,86.9,58.1z"/>
		<path class="st0" d="M99,57.7c0-2.2,1.7-3.8,4-3.8c1.4,0,2.4,0.5,3.2,1.4l-1.3,1.2c-0.5-0.6-1-0.9-1.7-0.9c-1.2,0-2,0.8-2,2.1
			c0,1.3,0.8,2.1,2,2.1c0.7,0,1.3-0.3,1.7-0.9l1.3,1.2c-0.7,0.9-1.8,1.4-3.2,1.4C100.7,61.5,99,59.9,99,57.7z"/>
		<path class="st0" d="M116.1,59.9H113l-0.6,1.4h-2.1l3.2-7.3h2l3.3,7.3h-2.2L116.1,59.9z M115.5,58.4l-0.9-2.4l-0.9,2.4H115.5z"/>
		<path class="st0" d="M129,58.9l1.3,1.2c-0.7,0.9-1.7,1.3-2.9,1.4l-0.1,0.4c0.7,0.1,0.9,0.5,0.9,0.9c0,0.7-0.7,1.1-1.7,1.1
			c-0.4,0-0.8-0.1-1-0.2l0.3-0.8c0.2,0.1,0.4,0.1,0.7,0.1c0.4,0,0.5-0.1,0.5-0.3c0-0.2-0.1-0.3-0.5-0.3h-0.4l0.2-1
			c-1.9-0.3-3.2-1.8-3.2-3.8c0-2.2,1.7-3.8,4-3.8c1.4,0,2.4,0.5,3.2,1.4l-1.3,1.2c-0.5-0.6-1-0.9-1.7-0.9c-1.2,0-2,0.8-2,2.1
			c0,1.3,0.8,2.1,2,2.1C128,59.8,128.6,59.5,129,58.9z"/>
		<path class="st0" d="M140.3,59.9h-3.1l-0.6,1.4h-2.1l3.2-7.3h2l3.3,7.3h-2.2L140.3,59.9z M137.6,53.4h-1c0-1,0.5-1.7,1.3-1.7
			c0.7,0,1.1,0.6,1.5,0.6c0.3,0,0.5-0.2,0.5-0.5h1c0,1-0.5,1.6-1.3,1.6c-0.7,0-1.1-0.7-1.5-0.7C137.8,52.8,137.6,53,137.6,53.4z
			 M139.7,58.4l-0.9-2.4l-0.9,2.4H139.7z"/>
		<path class="st0" d="M147.3,57.7c0-2.2,1.7-3.8,4.1-3.8c2.4,0,4.1,1.6,4.1,3.8s-1.7,3.8-4.1,3.8C149,61.5,147.3,59.9,147.3,57.7z
			 M153.4,57.7c0-1.3-0.9-2.1-2-2.1c-1.1,0-2,0.8-2,2.1s0.9,2.1,2,2.1C152.5,59.8,153.4,58.9,153.4,57.7z"/>
		<path class="st0" d="M62.8,65.6h3.5c2.4,0,4.1,1.4,4.1,3.7s-1.7,3.7-4.1,3.7h-3.5V65.6z M66.2,71.2c1.2,0,2.1-0.7,2.1-2
			s-0.8-2-2.1-2h-1.3v4H66.2z"/>
		<path class="st0" d="M75.7,65.6h2.1v7.3h-2.1V65.6z"/>
		<path class="st0" d="M88.3,69.1h1.8v3c-0.9,0.6-2,0.9-3.1,0.9c-2.3,0-4.1-1.6-4.1-3.8c0-2.2,1.7-3.8,4.1-3.8
			c1.4,0,2.5,0.5,3.2,1.3L89,67.9c-0.5-0.6-1.1-0.8-1.8-0.8c-1.3,0-2.1,0.8-2.1,2.1c0,1.2,0.8,2.1,2.1,2.1c0.4,0,0.8-0.1,1.1-0.2
			V69.1z"/>
		<path class="st0" d="M95.7,65.6h2.1v7.3h-2.1V65.6z"/>
		<path class="st0" d="M105,67.2h-2.3v-1.6h6.6v1.6h-2.2v5.7H105V67.2z"/>
		<path class="st0" d="M118.9,71.5h-3.1l-0.6,1.4h-2.1l3.2-7.3h2l3.3,7.3h-2.2L118.9,71.5z M118.3,69.9l-0.9-2.4l-0.9,2.4H118.3z"/>
		<path class="st0" d="M126.4,65.6h2.1v5.7h3.5v1.6h-5.6V65.6z"/>
	</g>
</g>
</svg>
