<?xml version="1.0" encoding="utf-8"?>
<!-- Generator: Adobe Illustrator 25.4.1, SVG Export Plug-In . SVG Version: 6.00 Build 0)  -->
<svg version="1.1" id="Layer_1" xmlns="http://www.w3.org/2000/svg" xmlns:xlink="http://www.w3.org/1999/xlink" x="0px" y="0px"
	 viewBox="0 0 162.6 76.5" style="enable-background:new 0 0 162.6 76.5;" xml:space="preserve">
<style type="text/css">
	.st0{fill:#E97A1B;}
	.st1{opacity:0.45;}
	.st2{fill:#BD1622;}
	.st3{fill:none;}
	.st4{fill:#F8B133;}
	.st5{fill:#F29100;}
	.st6{fill:#FFFFFF;}
</style>
<g>
	<g>
		<g>
			<path class="st0" d="M28.2,12H4.8c-2.5,0-4.6,2.1-4.6,4.6V52c0,2.5,2.1,4.6,4.6,4.6l23.3-7.3c2.5,0,4.6-2.1,4.6-4.6V16.6
				C32.8,14,30.7,12,28.2,12z"/>
		</g>
	</g>
	<g class="st1">
		<path class="st2" d="M32.8,44.5c-0.1-1.6-1-2.9-2.2-3.7L17,30.7L6.7,22.9c-0.8-0.4-1.5-0.6-2.3-0.6c-2.2,0.1-4,1.8-4.2,4.4
			c0,0.1,0,0.2,0,0.3v32.5c0.1,3.6,3.5,5.8,6.5,4.1l23.9-14.7c1.3-0.8,2.2-2.2,2.2-3.9c0,0,0-0.1,0-0.1
			C32.8,44.7,32.8,44.6,32.8,44.5z M32.8,44.5c-0.1-1.6-1-2.9-2.2-3.7l-14.8-9.1l-9.1-5.6c-0.8-0.4-1.5-0.6-2.3-0.6
			c-2.2,0.1-4,1.8-4.2,4.4c0,0.1,0,0.2,0,0.3v29.4c0.1,3.6,3.5,5.8,6.5,4.1l23.9-14.7c1.3-0.8,2.2-2.2,2.2-3.9c0,0,0-0.1,0-0.1
			C32.8,44.7,32.8,44.6,32.8,44.5z M32.8,44.5c-0.1-1.6-1-2.9-2.2-3.7l-14.8-9.1l-9.1-5.6c-0.8-0.4-1.5-0.6-2.3-0.6
			c-2.2,0.1-4,1.8-4.2,4.4c0,0.1,0,0.2,0,0.3v29.4c0.1,3.6,3.5,5.8,6.5,4.1l23.9-14.7c1.3-0.8,2.2-2.2,2.2-3.9c0,0,0-0.1,0-0.1
			C32.8,44.7,32.8,44.6,32.8,44.5z M32.8,44.5c-0.1-1.6-1-2.9-2.2-3.7l-14.8-9.1l-9.1-5.6c-0.8-0.4-1.5-0.6-2.3-0.6
			c-2.2,0.1-4,1.8-4.2,4.4c0,0.1,0,0.2,0,0.3v29.4c0.1,3.6,3.5,5.8,6.5,4.1l23.9-14.7c1.3-0.8,2.2-2.2,2.2-3.9c0,0,0-0.1,0-0.1
			C32.8,44.7,32.8,44.6,32.8,44.5z M32.8,44.5c-0.1-1.6-1-2.9-2.2-3.7l-14.8-9.1l-9.1-5.6c-0.8-0.4-1.5-0.6-2.3-0.6
			c-2.2,0.1-4,1.8-4.2,4.4c0,0.1,0,0.2,0,0.3v29.4c0.1,3.6,3.5,5.8,6.5,4.1l23.9-14.7c1.3-0.8,2.2-2.2,2.2-3.9c0,0,0-0.1,0-0.1
			C32.8,44.7,32.8,44.6,32.8,44.5z M32.8,44.5c-0.1-1.6-1-2.9-2.2-3.7l-14.8-9.1l-9.1-5.6c-0.8-0.4-1.5-0.6-2.3-0.6
			c-2.2,0.1-4,1.8-4.2,4.4c0,0.1,0,0.2,0,0.3v29.4c0.1,3.6,3.5,5.8,6.5,4.1l23.9-14.7c1.3-0.8,2.2-2.2,2.2-3.9c0,0,0-0.1,0-0.1
			C32.8,44.7,32.8,44.6,32.8,44.5z"/>
	</g>
	<g>
		<line class="st3" x1="14.7" y1="39.1" x2="14.7" y2="38.3"/>
	</g>
	<g>
		<path class="st4" d="M32.8,44.9c0-0.1,0-0.1,0-0.2v-0.1c-0.1-1.6-1-2.9-2.2-3.7l-12-7.4l-2.9-1.8l-9-5.5c-0.8-0.4-1.5-0.6-2.3-0.6
			c-2.2,0.1-4,1.8-4.2,4.4c0,0.1,0,0.2,0,0.3v29.4c0,2.2,1.3,3.8,3,4.4c1.1,0.4,2.3,0.3,3.5-0.4L30.6,49
			C31.9,48.2,32.8,46.7,32.8,44.9C32.8,45,32.8,44.9,32.8,44.9z M32.8,44.9c0-0.1,0-0.1,0-0.2v-0.1c-0.1-1.6-1-2.9-2.2-3.7l-12-7.4
			l-2.9-1.8l-9-5.5c-0.8-0.4-1.5-0.6-2.3-0.6c-2.2,0.1-4,1.8-4.2,4.4c0,0.1,0,0.2,0,0.3v29.4c0,2.2,1.3,3.8,3,4.4
			c1.1,0.4,2.3,0.3,3.5-0.4L30.6,49C31.9,48.2,32.8,46.7,32.8,44.9C32.8,45,32.8,44.9,32.8,44.9z M32.8,44.9c0-0.1,0-0.1,0-0.2v-0.1
			c-0.1-1.6-1-2.9-2.2-3.7l-12-7.4l-2.9-1.8l-9-5.5c-0.8-0.4-1.5-0.6-2.3-0.6c-2.2,0.1-4,1.8-4.2,4.4c0,0.1,0,0.2,0,0.3v29.4
			c0,2.2,1.3,3.8,3,4.4c1.1,0.4,2.3,0.3,3.5-0.4L30.6,49C31.9,48.2,32.8,46.7,32.8,44.9C32.8,45,32.8,44.9,32.8,44.9z M32.8,44.9
			c0-0.1,0-0.1,0-0.2v-0.1c-0.1-1.6-1-2.9-2.2-3.7l-12-7.4l-2.9-1.8l-9-5.5c-0.8-0.4-1.5-0.6-2.3-0.6c-2.2,0.1-4,1.8-4.2,4.4
			c0,0.1,0,0.2,0,0.3v29.4c0,2.2,1.3,3.8,3,4.4c1.1,0.4,2.3,0.3,3.5-0.4L30.6,49C31.9,48.2,32.8,46.7,32.8,44.9
			C32.8,45,32.8,44.9,32.8,44.9z M32.8,44.9c0-0.1,0-0.1,0-0.2v-0.1c-0.1-1.6-1-2.9-2.2-3.7l-12-7.4l-2.9-1.8l-9-5.5
			c-0.8-0.4-1.5-0.6-2.3-0.6c-2.2,0.1-4,1.8-4.2,4.4c0,0.1,0,0.2,0,0.3v29.4c0,2.2,1.3,3.8,3,4.4c1.1,0.4,2.3,0.3,3.5-0.4L30.6,49
			C31.9,48.2,32.8,46.7,32.8,44.9C32.8,45,32.8,44.9,32.8,44.9z M32.8,44.9c0-0.1,0-0.1,0-0.2v-0.1c-0.1-1.6-1-2.9-2.2-3.7l-12-7.4
			l-2.9-1.8l-9-5.5c-0.8-0.4-1.5-0.6-2.3-0.6c-2.2,0.1-4,1.8-4.2,4.4c0,0.1,0,0.2,0,0.3v29.4c0,2.2,1.3,3.8,3,4.4
			c1.1,0.4,2.3,0.3,3.5-0.4L30.6,49C31.9,48.2,32.8,46.7,32.8,44.9C32.8,45,32.8,44.9,32.8,44.9z"/>
	</g>
	<g>
		<path class="st5" d="M44.4,47.8v1.3h-3.7v1.5h3.4v1.2h-3.4v1.7h3.7v1.3h-5.3v-6.9H44.4z"/>
		<path class="st5" d="M54.3,47.8c0.4,0,0.9,0.1,1.2,0.2c0.4,0.1,0.7,0.4,1,0.6c0.3,0.3,0.5,0.6,0.7,1.1c0.2,0.4,0.2,0.9,0.2,1.5
			c0,0.5-0.1,1-0.2,1.4c-0.1,0.4-0.3,0.8-0.6,1.1c-0.3,0.3-0.6,0.6-1,0.7c-0.4,0.2-0.9,0.3-1.4,0.3h-3v-6.9H54.3z M54.2,53.5
			c0.2,0,0.4,0,0.6-0.1c0.2-0.1,0.4-0.2,0.6-0.4c0.2-0.2,0.3-0.4,0.4-0.6c0.1-0.3,0.1-0.6,0.1-1c0-0.3,0-0.7-0.1-0.9
			c-0.1-0.3-0.2-0.5-0.3-0.7c-0.2-0.2-0.4-0.4-0.6-0.5c-0.3-0.1-0.6-0.2-0.9-0.2h-1.1v4.4H54.2z"/>
		<path class="st5" d="M69.4,54.2c-0.5,0.5-1.2,0.7-2.2,0.7c-0.9,0-1.7-0.2-2.2-0.7c-0.5-0.5-0.8-1.2-0.8-2.1v-4.3h1.5v4.3
			c0,0.2,0,0.4,0,0.6c0,0.2,0.1,0.3,0.2,0.5c0.1,0.1,0.2,0.3,0.4,0.3c0.2,0.1,0.4,0.1,0.7,0.1c0.5,0,0.9-0.1,1.1-0.4
			c0.2-0.2,0.3-0.6,0.3-1.1v-4.3h1.5v4.3C70.2,53.1,69.9,53.7,69.4,54.2z"/>
		<path class="st5" d="M81.8,49.7c-0.1-0.1-0.2-0.3-0.3-0.4c-0.1-0.1-0.3-0.2-0.5-0.3c-0.2-0.1-0.4-0.1-0.5-0.1
			c-0.3,0-0.6,0.1-0.9,0.2c-0.2,0.1-0.4,0.3-0.6,0.5c-0.1,0.2-0.3,0.5-0.3,0.8c-0.1,0.3-0.1,0.6-0.1,0.9c0,0.3,0,0.6,0.1,0.8
			c0.1,0.3,0.2,0.5,0.3,0.7c0.1,0.2,0.3,0.4,0.6,0.5c0.2,0.1,0.5,0.2,0.9,0.2c0.5,0,0.8-0.1,1.1-0.4c0.3-0.3,0.4-0.7,0.5-1.1h1.5
			c0,0.4-0.1,0.8-0.3,1.2c-0.2,0.3-0.4,0.6-0.6,0.9c-0.3,0.2-0.6,0.4-0.9,0.6c-0.4,0.1-0.7,0.2-1.2,0.2c-0.5,0-1-0.1-1.4-0.3
			c-0.4-0.2-0.8-0.4-1.1-0.8c-0.3-0.3-0.5-0.7-0.7-1.1c-0.2-0.4-0.2-0.9-0.2-1.4c0-0.5,0.1-1,0.2-1.4c0.2-0.4,0.4-0.8,0.7-1.2
			c0.3-0.3,0.6-0.6,1.1-0.8c0.4-0.2,0.9-0.3,1.4-0.3c0.4,0,0.7,0.1,1.1,0.2c0.3,0.1,0.6,0.3,0.9,0.5c0.3,0.2,0.5,0.5,0.7,0.8
			c0.2,0.3,0.3,0.7,0.3,1.1h-1.5C81.9,50,81.9,49.8,81.8,49.7z"/>
		<path class="st5" d="M93.8,47.8l2.6,6.9h-1.6l-0.5-1.5h-2.6l-0.5,1.5h-1.5l2.6-6.9H93.8z M93.9,52.1L93,49.5h0l-0.9,2.5H93.9z"/>
		<path class="st5" d="M107.2,49.7c-0.1-0.1-0.2-0.3-0.3-0.4c-0.1-0.1-0.3-0.2-0.5-0.3c-0.2-0.1-0.4-0.1-0.5-0.1
			c-0.3,0-0.6,0.1-0.9,0.2c-0.2,0.1-0.4,0.3-0.6,0.5c-0.1,0.2-0.3,0.5-0.3,0.8c-0.1,0.3-0.1,0.6-0.1,0.9c0,0.3,0,0.6,0.1,0.8
			c0.1,0.3,0.2,0.5,0.3,0.7c0.1,0.2,0.3,0.4,0.6,0.5c0.2,0.1,0.5,0.2,0.9,0.2c0.5,0,0.8-0.1,1.1-0.4c0.3-0.3,0.4-0.7,0.5-1.1h1.5
			c0,0.4-0.1,0.8-0.3,1.2c-0.2,0.3-0.4,0.6-0.6,0.9c-0.3,0.2-0.6,0.4-0.9,0.6c-0.4,0.1-0.7,0.2-1.2,0.2l-0.3,0.3h0
			c0.1,0,0.2,0,0.3,0c0.1,0,0.2,0,0.3,0c0.1,0,0.2,0.1,0.3,0.1c0.1,0.1,0.2,0.1,0.2,0.2c0.1,0.1,0.1,0.2,0.1,0.3
			c0,0.2,0,0.3-0.1,0.5c-0.1,0.1-0.2,0.2-0.3,0.3c-0.1,0.1-0.2,0.1-0.4,0.2c-0.1,0-0.3,0-0.4,0c-0.2,0-0.3,0-0.4,0
			c-0.1,0-0.2,0-0.3,0s-0.2,0-0.3-0.1c-0.1,0-0.2-0.1-0.3-0.1l0.2-0.5c0.1,0,0.2,0.1,0.4,0.1c0.1,0,0.3,0.1,0.5,0.1
			c0.1,0,0.2,0,0.3-0.1c0.1-0.1,0.1-0.1,0.1-0.3c0-0.1,0-0.2-0.1-0.2c-0.1,0-0.2-0.1-0.3-0.1c-0.1,0-0.3,0-0.4,0.1l-0.2-0.2l0.5-0.7
			c-0.5,0-0.9-0.2-1.3-0.4c-0.4-0.2-0.7-0.5-0.9-0.8c-0.3-0.3-0.4-0.7-0.6-1.1c-0.1-0.4-0.2-0.8-0.2-1.3c0-0.5,0.1-1,0.2-1.4
			c0.2-0.4,0.4-0.8,0.7-1.2c0.3-0.3,0.6-0.6,1.1-0.8c0.4-0.2,0.9-0.3,1.4-0.3c0.4,0,0.7,0.1,1.1,0.2s0.6,0.3,0.9,0.5
			c0.3,0.2,0.5,0.5,0.7,0.8c0.2,0.3,0.3,0.7,0.3,1.1h-1.5C107.4,50,107.3,49.8,107.2,49.7z"/>
		<path class="st5" d="M119.3,47.8l2.6,6.9h-1.6l-0.5-1.5h-2.6l-0.5,1.5h-1.5l2.6-6.9H119.3z M119.6,46.9c0.1-0.1,0.2-0.2,0.3-0.3
			c0.1-0.1,0.2-0.2,0.2-0.4c0-0.1,0.1-0.3,0.1-0.5h-0.6c0,0.1-0.1,0.3-0.1,0.3c-0.1,0.1-0.2,0.1-0.3,0.1c-0.1,0-0.2,0-0.3-0.1
			c-0.1,0-0.2-0.1-0.3-0.1c-0.1-0.1-0.2-0.1-0.4-0.1c-0.1,0-0.2-0.1-0.4-0.1c-0.2,0-0.3,0-0.5,0.1c-0.1,0.1-0.2,0.2-0.3,0.3
			c-0.1,0.1-0.2,0.3-0.2,0.4c-0.1,0.1-0.1,0.3-0.1,0.4h0.6c0-0.1,0.1-0.3,0.2-0.3c0.1-0.1,0.2-0.1,0.3-0.1c0.1,0,0.2,0,0.3,0.1
			c0.1,0,0.2,0.1,0.3,0.2c0.1,0.1,0.2,0.1,0.4,0.2c0.1,0,0.3,0.1,0.4,0.1C119.3,47,119.5,46.9,119.6,46.9z M119.4,52.1l-0.9-2.5h0
			l-0.9,2.5H119.4z"/>
		<path class="st5" d="M128.2,49.9c0.2-0.4,0.4-0.8,0.7-1.2c0.3-0.3,0.6-0.6,1.1-0.8c0.4-0.2,0.9-0.3,1.4-0.3c0.5,0,1,0.1,1.4,0.3
			c0.4,0.2,0.8,0.4,1.1,0.8c0.3,0.3,0.5,0.7,0.7,1.2c0.2,0.4,0.2,0.9,0.2,1.4c0,0.5-0.1,1-0.2,1.4c-0.2,0.4-0.4,0.8-0.7,1.1
			c-0.3,0.3-0.6,0.6-1.1,0.8c-0.4,0.2-0.9,0.3-1.4,0.3c-0.5,0-1-0.1-1.4-0.3c-0.4-0.2-0.8-0.4-1.1-0.8c-0.3-0.3-0.5-0.7-0.7-1.1
			c-0.2-0.4-0.2-0.9-0.2-1.4C128,50.8,128.1,50.3,128.2,49.9z M129.6,52.1c0.1,0.3,0.2,0.5,0.3,0.7c0.1,0.2,0.3,0.4,0.6,0.5
			c0.2,0.1,0.5,0.2,0.9,0.2c0.3,0,0.6-0.1,0.9-0.2c0.2-0.1,0.4-0.3,0.6-0.5c0.1-0.2,0.3-0.5,0.3-0.7c0.1-0.3,0.1-0.6,0.1-0.8
			c0-0.3,0-0.6-0.1-0.9c-0.1-0.3-0.2-0.5-0.3-0.8c-0.1-0.2-0.3-0.4-0.6-0.5c-0.2-0.1-0.5-0.2-0.9-0.2c-0.3,0-0.6,0.1-0.9,0.2
			c-0.2,0.1-0.4,0.3-0.6,0.5c-0.1,0.2-0.3,0.5-0.3,0.8c-0.1,0.3-0.1,0.6-0.1,0.9C129.5,51.6,129.5,51.9,129.6,52.1z"/>
		<path class="st5" d="M42.2,57.6c0.4,0,0.9,0.1,1.2,0.2c0.4,0.1,0.7,0.4,1,0.6c0.3,0.3,0.5,0.6,0.7,1.1c0.2,0.4,0.2,0.9,0.2,1.5
			c0,0.5-0.1,1-0.2,1.4c-0.1,0.4-0.3,0.8-0.6,1.1c-0.3,0.3-0.6,0.6-1,0.7c-0.4,0.2-0.9,0.3-1.4,0.3h-3v-6.9H42.2z M42.1,63.3
			c0.2,0,0.4,0,0.6-0.1c0.2-0.1,0.4-0.2,0.6-0.4c0.2-0.2,0.3-0.4,0.4-0.6c0.1-0.3,0.1-0.6,0.1-1c0-0.3,0-0.7-0.1-0.9
			c-0.1-0.3-0.2-0.5-0.3-0.7c-0.2-0.2-0.4-0.4-0.6-0.5c-0.3-0.1-0.6-0.2-0.9-0.2h-1.1v4.4H42.1z"/>
		<path class="st5" d="M53.7,57.6v6.9h-1.5v-6.9H53.7z"/>
		<path class="st5" d="M65,64.5c-0.3,0.1-0.7,0.2-1,0.2c-0.5,0-1-0.1-1.4-0.3c-0.4-0.2-0.8-0.4-1.1-0.8c-0.3-0.3-0.5-0.7-0.7-1.1
			c-0.2-0.4-0.2-0.9-0.2-1.4c0-0.5,0.1-1,0.2-1.4c0.2-0.4,0.4-0.8,0.7-1.2c0.3-0.3,0.6-0.6,1.1-0.8c0.4-0.2,0.9-0.3,1.4-0.3
			c0.4,0,0.7,0.1,1,0.2c0.3,0.1,0.6,0.3,0.9,0.5c0.3,0.2,0.5,0.5,0.7,0.8c0.2,0.3,0.3,0.7,0.3,1h-1.5c-0.1-0.4-0.3-0.7-0.5-0.9
			c-0.3-0.2-0.6-0.3-0.9-0.3c-0.3,0-0.6,0.1-0.9,0.2c-0.2,0.1-0.4,0.3-0.6,0.5c-0.1,0.2-0.3,0.5-0.3,0.8c-0.1,0.3-0.1,0.6-0.1,0.9
			c0,0.3,0,0.6,0.1,0.8c0.1,0.3,0.2,0.5,0.3,0.7c0.1,0.2,0.3,0.4,0.6,0.5c0.2,0.1,0.5,0.2,0.9,0.2c0.5,0,0.9-0.1,1.2-0.4
			c0.3-0.3,0.4-0.6,0.5-1.1h-1.5v-1.1H67v3.7h-1l-0.2-0.8C65.6,64.1,65.3,64.4,65,64.5z"/>
		<path class="st5" d="M75.6,57.6v6.9h-1.5v-6.9H75.6z"/>
		<path class="st5" d="M82.2,58.9v-1.3h5.7v1.3h-2.1v5.6h-1.5v-5.6H82.2z"/>
		<path class="st5" d="M97.1,57.6l2.6,6.9h-1.6L97.6,63H95l-0.5,1.5h-1.5l2.6-6.9H97.1z M97.2,61.9l-0.9-2.5h0l-0.9,2.5H97.2z"/>
		<path class="st5" d="M107.6,57.6v5.6h3.4v1.3h-4.9v-6.9H107.6z"/>
	</g>
	<g>
		<g>
			<g>
				<path class="st6" d="M61.9,14.8c-2.2-1.9-5.3-2.9-9.2-2.9H39v31.7h8.1v-9.2h5.6c4,0,7-1,9.2-3c2.2-2,3.3-4.9,3.3-8.6
					C65.2,19.4,64.1,16.7,61.9,14.8L61.9,14.8z M52.7,28c-0.1,0-0.1,0-0.2,0c-0.1,0-0.2,0-0.3,0h-5.2v-9.6h5.2c0.1,0,0.2,0,0.3,0
					c0.1,0,0.1,0,0.2,0c2.6,0,4.8,2.1,4.8,4.8C57.5,25.9,55.3,28,52.7,28z"/>
			</g>
			<g>
				<path class="st6" d="M93.5,12v4.8v12.2c0,2-0.5,3.6-1.6,4.7c-1.1,1.2-2.5,1.8-4.2,1.8c-1.8,0-3.2-0.6-4.4-1.8
					c-1.2-1.2-1.7-2.8-1.7-4.7V16.8V12h-8.1v17.3c0,0.1,0,0.2,0,0.3c0,0.1,0,0.2,0,0.3c0.1,7.4,6,13.5,13.4,13.9c0.3,0,0.5,0,0.8,0
					c0,0,0,0,0,0c7.8,0,14.1-6.3,14.1-14.1V12H93.5z"/>
			</g>
			<g>
				<path class="st6" d="M131.7,33.7c-1.5,1.5-3.6,2.5-6,2.5c-4.6,0-8.4-3.8-8.4-8.4c0-4.6,3.8-8.4,8.4-8.4c2.3,0,4.3,0.9,5.8,2.3
					l5.3-5.3c-2.9-2.8-6.8-4.5-11.1-4.5c-8.8,0-15.9,7.1-15.9,15.9c0,8.8,7.1,15.9,15.9,15.9c4.4,0,8.4-1.8,11.3-4.7L131.7,33.7z"/>
			</g>
		</g>
		<g>
			<path class="st6" d="M126.8,26.6c0-0.1-0.1-0.1-0.2-0.2c-0.1-0.1-0.2-0.1-0.2-0.1c-0.1,0-0.2,0-0.3,0c-0.2,0-0.3,0-0.5,0.1
				c-0.1,0.1-0.2,0.2-0.3,0.3c-0.1,0.1-0.1,0.3-0.2,0.4c0,0.2-0.1,0.3-0.1,0.5c0,0.2,0,0.3,0.1,0.5c0,0.1,0.1,0.3,0.2,0.4
				c0.1,0.1,0.2,0.2,0.3,0.3c0.1,0.1,0.3,0.1,0.5,0.1c0.2,0,0.4-0.1,0.6-0.2c0.1-0.2,0.2-0.4,0.3-0.6h0.8c0,0.2-0.1,0.4-0.2,0.6
				c-0.1,0.2-0.2,0.3-0.3,0.5c-0.1,0.1-0.3,0.2-0.5,0.3c-0.2,0.1-0.4,0.1-0.6,0.1c-0.3,0-0.5,0-0.8-0.1c-0.2-0.1-0.4-0.2-0.6-0.4
				c-0.2-0.2-0.3-0.4-0.4-0.6c-0.1-0.2-0.1-0.5-0.1-0.8c0-0.3,0-0.5,0.1-0.8c0.1-0.2,0.2-0.4,0.4-0.6c0.2-0.2,0.3-0.3,0.6-0.4
				c0.2-0.1,0.5-0.2,0.8-0.2c0.2,0,0.4,0,0.6,0.1c0.2,0.1,0.3,0.1,0.5,0.3c0.1,0.1,0.3,0.3,0.4,0.4c0.1,0.2,0.2,0.4,0.2,0.6h-0.8
				C126.9,26.8,126.8,26.7,126.8,26.6z"/>
			<path class="st6" d="M131.7,25.6l1.4,3.7h-0.8l-0.3-0.8h-1.4l-0.3,0.8h-0.8l1.4-3.7H131.7z M131.7,27.9l-0.5-1.4h0l-0.5,1.4
				H131.7z"/>
			<path class="st6" d="M136.1,25.6l0.9,2.5h0l0.8-2.5h1.1v3.7h-0.8v-2.6h0l-0.9,2.6h-0.6l-0.9-2.6h0v2.6h-0.8v-3.7H136.1z"/>
			<path class="st6" d="M142.8,25.6c0.2,0,0.4,0,0.6,0.1c0.2,0.1,0.3,0.2,0.4,0.3c0.1,0.1,0.2,0.2,0.2,0.4c0,0.1,0.1,0.3,0.1,0.4
				c0,0.1,0,0.3-0.1,0.4c0,0.1-0.1,0.3-0.2,0.4c-0.1,0.1-0.2,0.2-0.4,0.3c-0.2,0.1-0.4,0.1-0.6,0.1H142v1.3h-0.8v-3.7H142.8z
				 M142.6,27.4c0.1,0,0.2,0,0.3,0c0.1,0,0.2,0,0.2-0.1c0.1,0,0.1-0.1,0.2-0.2c0-0.1,0.1-0.2,0.1-0.3c0-0.1,0-0.2-0.1-0.3
				c0-0.1-0.1-0.1-0.2-0.2c-0.1,0-0.1-0.1-0.2-0.1c-0.1,0-0.2,0-0.3,0H142v1.1H142.6z"/>
			<path class="st6" d="M147,25.6v3.7h-0.8v-3.7H147z"/>
			<path class="st6" d="M150.1,25.6l1.5,2.5h0v-2.5h0.8v3.7h-0.8l-1.5-2.5h0v2.5h-0.8v-3.7H150.1z"/>
			<path class="st6" d="M156.5,25.6l1.4,3.7H157l-0.3-0.8h-1.4l-0.3,0.8h-0.8l1.4-3.7H156.5z M156.6,27.9l-0.5-1.4h0l-0.5,1.4H156.6
				z"/>
			<path class="st6" d="M160.4,28.4c0,0.1,0.1,0.2,0.2,0.2c0.1,0.1,0.2,0.1,0.3,0.1c0.1,0,0.2,0,0.3,0c0.1,0,0.2,0,0.2,0
				c0.1,0,0.2,0,0.2-0.1c0.1,0,0.1-0.1,0.2-0.1c0-0.1,0.1-0.1,0.1-0.2c0-0.1,0-0.2-0.1-0.2c-0.1-0.1-0.1-0.1-0.3-0.2
				c-0.1,0-0.2-0.1-0.4-0.1c-0.1,0-0.3-0.1-0.4-0.1c-0.1,0-0.3-0.1-0.4-0.1s-0.2-0.1-0.4-0.2c-0.1-0.1-0.2-0.2-0.3-0.3
				c-0.1-0.1-0.1-0.3-0.1-0.4c0-0.2,0-0.4,0.1-0.5c0.1-0.1,0.2-0.3,0.3-0.3c0.1-0.1,0.3-0.2,0.4-0.2c0.2,0,0.3-0.1,0.5-0.1
				c0.2,0,0.4,0,0.6,0.1c0.2,0,0.3,0.1,0.5,0.2c0.1,0.1,0.2,0.2,0.3,0.4s0.1,0.3,0.1,0.5h-0.8c0-0.1,0-0.2-0.1-0.3
				c0-0.1-0.1-0.1-0.2-0.2c-0.1,0-0.1-0.1-0.2-0.1c-0.1,0-0.2,0-0.3,0c-0.1,0-0.1,0-0.2,0c-0.1,0-0.1,0-0.2,0.1
				c-0.1,0-0.1,0.1-0.1,0.1c0,0.1-0.1,0.1-0.1,0.2c0,0.1,0,0.1,0,0.2c0,0,0.1,0.1,0.2,0.1c0.1,0,0.2,0.1,0.3,0.1
				c0.1,0,0.3,0.1,0.6,0.1c0.1,0,0.2,0,0.3,0.1c0.1,0,0.2,0.1,0.4,0.2c0.1,0.1,0.2,0.2,0.3,0.3s0.1,0.3,0.1,0.5c0,0.2,0,0.3-0.1,0.5
				c-0.1,0.1-0.2,0.3-0.3,0.4c-0.1,0.1-0.3,0.2-0.5,0.2c-0.2,0.1-0.4,0.1-0.7,0.1c-0.2,0-0.4,0-0.6-0.1c-0.2-0.1-0.4-0.1-0.5-0.2
				s-0.3-0.2-0.3-0.4c-0.1-0.2-0.1-0.4-0.1-0.6h0.8C160.3,28.2,160.3,28.3,160.4,28.4z"/>
		</g>
	</g>
</g>
</svg>
