<?xml version="1.0" encoding="utf-8"?>
<!-- Generator: Adobe Illustrator 24.1.1, SVG Export Plug-In . SVG Version: 6.00 Build 0)  -->
<svg version="1.1" id="Layer_1" xmlns="http://www.w3.org/2000/svg" xmlns:xlink="http://www.w3.org/1999/xlink" x="0px" y="0px"
	 viewBox="0 0 331.6 340.1" style="enable-background:new 0 0 331.6 340.1;" xml:space="preserve">
<style type="text/css">
	.st0{fill:#2C007E;}
</style>
<g id="Layer_2_1_">
	<g id="Capa_1">
		<path class="st0" d="M170.7,340.1c72.6,0,137.1-46.9,160.4-115.8c1.7-5.3-1.2-10.9-6.4-12.6c-3.2-1-6.7-0.4-9.3,1.7
			c-21.2,17.2-47.6,26.6-74.9,26.5c-65.9,0-120.2-53.6-120.2-119.6c0-41.2,21.6-79.7,56.7-101.8c3.8-2.4,5.1-6.9,3.8-11.2
			c-1.4-4.3-5.5-7.2-10-7.2C77.3,0,0,76.6,0,170S77.3,340,170.7,340.1L170.7,340.1z"/>
	</g>
</g>
</svg>
