<svg xmlns="http://www.w3.org/2000/svg" viewBox="0 0 503.75 123.65"><defs><style>.cls-1,.cls-2{fill:none;stroke:#e03a80;stroke-miterlimit:10;}.cls-1{stroke-width:2px;opacity:0.8;}.cls-2{opacity:0.35;}.cls-3{fill:#ffce00;}</style></defs><g id="Layer_2" data-name="Layer 2"><g id="Layer_1-2" data-name="Layer 1"><polygon class="cls-1" points="502.71 95.1 37.12 122.61 10.96 45.38 499.68 1.09 502.71 95.1"/><polygon class="cls-2" points="488.67 107.57 22.16 110.49 0.65 32 491.24 13.56 488.67 107.57"/><path class="cls-3" d="M71.07,62.4a16.46,16.46,0,0,1,6.83,6.07,19.21,19.21,0,0,1,2.91,9.36,19.47,19.47,0,0,1-1.73,9.71,16.51,16.51,0,0,1-6,6.86,18.43,18.43,0,0,1-9,2.85,17.07,17.07,0,0,1-8-1.32A15,15,0,0,1,49.92,91l1.24,20-4.86.3-3-49.22,4.65-.29.44,7.11a14.88,14.88,0,0,1,5.44-5.82,16.93,16.93,0,0,1,8-2.42A18.57,18.57,0,0,1,71.07,62.4Zm-.92,28.4a12.34,12.34,0,0,0,4.51-5.25,16.21,16.21,0,0,0-.9-14.6,12.65,12.65,0,0,0-5.13-4.66,13.56,13.56,0,0,0-6.94-1.35,13.4,13.4,0,0,0-6.76,2.2,12.66,12.66,0,0,0-4.48,5.25,15,15,0,0,0-1.29,7.39A15.17,15.17,0,0,0,51.35,87a12.45,12.45,0,0,0,5.09,4.66,13.55,13.55,0,0,0,7,1.32A13.69,13.69,0,0,0,70.15,90.8Z"/><path class="cls-3" d="M96,60.42a17.38,17.38,0,0,1,8.26-2.37l.29,4.72h-1.17q-5.67.36-8.67,4t-2.61,10L93.27,95.1l-4.86.3L86.19,59.45l4.65-.29.43,7A11.77,11.77,0,0,1,96,60.42Z"/><path class="cls-3" d="M116.73,91.63a17.24,17.24,0,0,1-7-6.12,19.82,19.82,0,0,1-1.17-18.87,17,17,0,0,1,6.17-6.9,20,20,0,0,1,18.73-1.16,16.86,16.86,0,0,1,6.93,6.09,20.08,20.08,0,0,1,1.16,18.87,16.94,16.94,0,0,1-6.12,6.93,19.8,19.8,0,0,1-18.73,1.16Zm16-4.7a12.1,12.1,0,0,0,4.45-5.25,16.49,16.49,0,0,0-.91-14.63,12.17,12.17,0,0,0-5.05-4.66,14.42,14.42,0,0,0-13.74.85A12.41,12.41,0,0,0,113,68.49a16.27,16.27,0,0,0,.9,14.63A12.39,12.39,0,0,0,119,87.78a14.42,14.42,0,0,0,13.74-.85Z"/><path class="cls-3" d="M180.64,38.78l3.14,50.73-4.65.28-.44-7.11a14.77,14.77,0,0,1-5.44,5.9,16.92,16.92,0,0,1-8,2.41,18.26,18.26,0,0,1-9.3-1.75,16.68,16.68,0,0,1-6.83-6.1,20.61,20.61,0,0,1-1.17-19,16.29,16.29,0,0,1,6-6.86,18.49,18.49,0,0,1,9-2.86,17.07,17.07,0,0,1,8,1.32,15,15,0,0,1,6.1,4.95l-1.33-21.61ZM172.11,84.5a12.41,12.41,0,0,0,4.48-5.25,16.23,16.23,0,0,0-.91-14.63A12.33,12.33,0,0,0,170.59,60a14.26,14.26,0,0,0-13.67.84,12.41,12.41,0,0,0-4.48,5.25,16.23,16.23,0,0,0,.91,14.63,12.33,12.33,0,0,0,5.09,4.66,14.3,14.3,0,0,0,13.67-.84Z"/><path class="cls-3" d="M224.07,50.92l2.23,36-4.65.29-.41-6.57a13.27,13.27,0,0,1-5,5.42,15.84,15.84,0,0,1-7.54,2.29q-7,.43-11.35-3.25t-4.78-11.27L191.33,53l4.85-.31L197.44,73q.36,5.67,3.34,8.44c2,1.84,4.71,2.66,8.18,2.44a11.8,11.8,0,0,0,8.74-4q3.06-3.66,2.69-9.81l-1.17-18.87Z"/><path class="cls-3" d="M261.59,80.65l.25,4-29.26,1.81-.19-3.21,20.85-30.05L231,54.61l-.25-4.1,28.44-1.76.2,3.21L238.56,82.07Z"/><path class="cls-3" d="M265.15,39.46a3.38,3.38,0,0,1-1.17-2.4,3.25,3.25,0,0,1,.87-2.45,3.67,3.67,0,0,1,5.06-.35,3.16,3.16,0,0,1,1.17,2.29,3.58,3.58,0,0,1-5.93,2.91Zm.62,8.88,4.85-.3,2.23,36-4.86.3Z"/><path class="cls-3" d="M312.64,30.62l3.14,50.73-4.65.28-.44-7.11a14.88,14.88,0,0,1-5.43,5.9,17,17,0,0,1-8,2.41,18.26,18.26,0,0,1-9.3-1.75,16.68,16.68,0,0,1-6.83-6.1,19.28,19.28,0,0,1-2.91-9.36A19.21,19.21,0,0,1,280,56a16.32,16.32,0,0,1,6-6.85,18.49,18.49,0,0,1,9-2.86,17.07,17.07,0,0,1,8,1.32,15,15,0,0,1,6.1,4.94l-1.33-21.6Zm-8.53,45.72a12.41,12.41,0,0,0,4.48-5.25,16.27,16.27,0,0,0-.9-14.63,12.41,12.41,0,0,0-5.1-4.66,13.46,13.46,0,0,0-6.9-1.33,13.61,13.61,0,0,0-6.77,2.17,12.48,12.48,0,0,0-4.48,5.25,16.24,16.24,0,0,0,.91,14.63,12.33,12.33,0,0,0,5.09,4.66,14.3,14.3,0,0,0,13.67-.84Z"/><path class="cls-3" d="M331.1,78.37a17.22,17.22,0,0,1-7-6.12A19.82,19.82,0,0,1,323,53.38a17.1,17.1,0,0,1,6.16-6.9,20.06,20.06,0,0,1,18.73-1.15,16.59,16.59,0,0,1,6.93,6.09,18.72,18.72,0,0,1,2.94,9.28A18.82,18.82,0,0,1,356,70.28a17,17,0,0,1-6.13,6.94,19.84,19.84,0,0,1-18.73,1.15Zm16-4.69a12.12,12.12,0,0,0,4.44-5.25,16.53,16.53,0,0,0-.9-14.63,12.13,12.13,0,0,0-5.06-4.66,14.43,14.43,0,0,0-13.74.85,12.36,12.36,0,0,0-4.48,5.25,16.24,16.24,0,0,0,.91,14.63,12.39,12.39,0,0,0,5.09,4.66,14.42,14.42,0,0,0,13.74-.85Z"/><path class="cls-3" d="M405.42,41.73a16.37,16.37,0,0,1,6.82,6.07,19.21,19.21,0,0,1,2.92,9.35,19.4,19.4,0,0,1-1.74,9.72,16.39,16.39,0,0,1-6,6.85,18.37,18.37,0,0,1-9.05,2.86,17.07,17.07,0,0,1-8-1.32,14.93,14.93,0,0,1-6.1-4.94l1.24,20-4.86.3-3-49.22,4.65-.29.44,7.11a15,15,0,0,1,5.43-5.83,17,17,0,0,1,8-2.41A18.57,18.57,0,0,1,405.42,41.73Zm-.92,28.4A12.34,12.34,0,0,0,409,64.88a15.14,15.14,0,0,0,1.29-7.43,15,15,0,0,0-2.19-7.17A12.58,12.58,0,0,0,403,45.62a14.14,14.14,0,0,0-13.7.85,12.66,12.66,0,0,0-4.48,5.25,16.22,16.22,0,0,0,.9,14.6A12.45,12.45,0,0,0,390.79,71a14.36,14.36,0,0,0,13.71-.85Z"/><path class="cls-3" d="M428,72.38a17.24,17.24,0,0,1-7-6.12A18.61,18.61,0,0,1,418,57a18.58,18.58,0,0,1,1.81-9.59,17,17,0,0,1,6.16-6.9,20.06,20.06,0,0,1,18.73-1.15,16.72,16.72,0,0,1,6.93,6.09,18.92,18.92,0,0,1,2.94,9.28,18.82,18.82,0,0,1-1.77,9.58,17.13,17.13,0,0,1-6.13,6.94A19.84,19.84,0,0,1,428,72.38Zm16-4.69a12.26,12.26,0,0,0,4.44-5.25,16.53,16.53,0,0,0-.9-14.63,12.19,12.19,0,0,0-5.06-4.66,14.42,14.42,0,0,0-13.74.85,12.41,12.41,0,0,0-4.48,5.25,16.28,16.28,0,0,0,.9,14.63,12.48,12.48,0,0,0,5.1,4.66A14.43,14.43,0,0,0,444,67.69Z"/><path class="cls-3" d="M469.82,37.3a17.38,17.38,0,0,1,8.26-2.36l.29,4.72h-1.16q-5.68.36-8.67,4t-2.61,10L467.06,72l-4.85.3-2.23-36,4.65-.28.44,7A11.77,11.77,0,0,1,469.82,37.3Z"/></g></g></svg>