<svg xmlns="http://www.w3.org/2000/svg" viewBox="0 0 459.69 117.37"><defs><style>.cls-1{fill:#fff;}.cls-2{fill:#3263a3;}.cls-3{fill:#9aac42;}.cls-4{fill:#e1432e;}.cls-5{fill:#fa7b0d;}.cls-6{fill:#febb04;}.cls-7{fill:#f55641;}.cls-8{fill:#bbd23a;}.cls-9{fill:#33b7b7;}</style></defs><g id="Layer_2" data-name="Layer 2"><g id="Layer_1-2" data-name="Layer 1"><path class="cls-1" d="M203.31,50.78c5.13-7,16.84-7.53,20.64.76,3.16-4.82,7.55-6.91,13.25-5.86,4.9.91,8.05,4.67,9,10.34.6,3.65.36,7.33.39,11,0,4.89,0,9.79,0,14.69,0,1.19-.2,1.71-1.55,1.64a67.32,67.32,0,0,0-7,0c-1.32.06-1.57-.43-1.56-1.64,0-6.77,0-13.54,0-20.31a16.61,16.61,0,0,0-.35-4c-.76-3-2.88-4.54-6-4.11-3.39.48-5.23,2.45-5.22,5.48,0,7.73,0,15.47,0,23.21,0,1.09-.3,1.43-1.4,1.39-2.32-.08-4.65-.13-7,0-1.5.09-1.63-.55-1.62-1.78,0-6.58,0-13.15,0-19.73a16.67,16.67,0,0,0-.54-5,4.55,4.55,0,0,0-4.44-3.63,7,7,0,0,0-6.31,2.67c-.42.55-.21,1.25-.21,1.88,0,7.86-.06,15.73,0,23.59,0,1.67-.47,2.07-2,2-2.19-.14-4.39-.08-6.58,0-1,0-1.46-.13-1.46-1.32q.08-17.31,0-34.61c0-1,.32-1.31,1.31-1.28,2.19.07,4.39.06,6.58,0,1,0,1.54.15,1.53,1.31A27.12,27.12,0,0,0,203.31,50.78Z"/><path class="cls-1" d="M263.87,79.82V94c0,2.25,0,4.51,0,6.76,0,1-.17,1.54-1.36,1.5-2.45-.08-4.9-.07-7.34,0-1.06,0-1.29-.37-1.28-1.34q0-26.67,0-53.35c0-1.07.39-1.3,1.35-1.27a53.43,53.43,0,0,0,5.8,0c1.52-.12,2.1.45,2.11,1.89a16.11,16.11,0,0,0,.22,1.8c.54.25.7-.12.87-.34,4.43-5.9,14.82-5,19.06,1.32,3.61,5.39,4.14,11.38,3.7,17.59a23.22,23.22,0,0,1-1.58,6.74C281.56,85.13,269.51,86.11,263.87,79.82Zm0-14.89c0,2.32,0,4.64,0,6.95A3.13,3.13,0,0,0,265,74.42c3.52,3.24,9.62,2,11.17-2.47a20.1,20.1,0,0,0-.49-14.88A6.51,6.51,0,0,0,265.31,55a3.78,3.78,0,0,0-1.47,3.18C263.94,60.43,263.87,62.68,263.87,64.93Z"/><path class="cls-1" d="M135.93,67.83h1.16c1.1,0,2.31-.27,3.26.11,1.15.47.43,1.94.82,2.93a7.87,7.87,0,0,0,2.29,3.5c3,2.38,9.21,2.8,12.49.84a6,6,0,0,0,.31-9.94A20.51,20.51,0,0,0,150,62.44a59.55,59.55,0,0,1-10-4c-5.33-2.8-8.48-6.92-7.84-13.18.61-6,4.45-9.45,9.76-11.31a23.46,23.46,0,0,1,18.07.69,13.45,13.45,0,0,1,8.35,11.64c.12,1.36-.24,1.83-1.64,1.76-2.32-.1-4.64,0-7,0-.88,0-1.24-.24-1.32-1.18a6.33,6.33,0,0,0-5-6.1c-3.4-.86-6.83-1-9.61,1.68a5.39,5.39,0,0,0,.86,8.5,28.6,28.6,0,0,0,7.75,3.38,39.44,39.44,0,0,1,10.36,4.61,12.91,12.91,0,0,1,6,12.74c-.51,5.29-3.63,8.77-8.43,10.57-8,3-15.93,2.6-23.34-2-4.06-2.53-5.72-6.45-6-11.09-.07-1,.27-1.38,1.29-1.32C133.48,67.89,134.71,67.83,135.93,67.83Z"/><path class="cls-1" d="M440.78,83.31c-3.2,0-6.09,0-9,0a1.29,1.29,0,0,1-1.52-1.08c-.33-1.31-.75-2.59-1.13-3.87-.33-.09-.45.17-.58.36-3.42,4.94-8.16,6.16-13.76,4.85a10.11,10.11,0,0,1-8-9.07c-.61-4.86,1.33-8.74,5.49-11a21.92,21.92,0,0,1,9.51-2.2,31.16,31.16,0,0,1,5,0c2,.23,2.3-.59,2.23-2.36-.16-4.64-2.39-6.78-6.78-6.19-1.94.26-3.46,1.19-3.85,3.22-.18.9-.48,1.16-1.35,1.14-2.45,0-4.9-.07-7.34,0-1.26,0-1.34-.54-1.23-1.54a9.62,9.62,0,0,1,3.74-6.52c5.54-4.63,16-5,22-.9,3.55,2.47,4.86,6,4.92,10.17s0,8.5,0,12.75C439.1,75.19,439.15,79.24,440.78,83.31ZM425.14,67c-1.66,0-3.35-.15-4.95.49a5.33,5.33,0,0,0-3.31,5.71c.38,2.15,2.12,3.44,4.68,3.39a8.79,8.79,0,0,0,6.23-2.6,4,4,0,0,0,1.26-3.09C429,67,429.08,67,425.14,67Z"/><path class="cls-1" d="M398.47,59.81c-.32,0-.65,0-1,0-2.14.21-3.78.2-4.08-2.8-.22-2.2-2.11-3.63-4.5-3.85-2.57-.24-4.91.46-6,2.92a20.59,20.59,0,0,0-.06,17.22c1,2.33,3.62,3.35,6.38,3a5.12,5.12,0,0,0,4.64-4.48c.16-.93.37-1.3,1.38-1.26,2.18.08,4.38.1,6.57,0,1.35-.06,1.45.55,1.35,1.63-.54,5.68-5.23,10.48-11.34,11.55-11.27,2-19.76-4.71-20.61-16.3A25.35,25.35,0,0,1,373,54.91,16.87,16.87,0,0,1,397,47.68c3.9,2.45,5.76,6.09,6.14,10.6.1,1.16-.17,1.67-1.43,1.56A32.6,32.6,0,0,0,398.47,59.81Z"/><path class="cls-1" d="M347.5,29.55a7.79,7.79,0,0,0-1,6.81c.18.54.16.77-.45,1-2.55.79-3.1,2.84-3.14,5.17-.07,3.77-.07,3.77,3.66,3.77,3.45,0,3.45,0,3.45,3.41,0,3.57,0,3.57-3.65,3.57-3.46,0-3.46,0-3.46,3.4,0,8.25,0,16.5,0,24.75,0,1.35-.34,1.78-1.7,1.71a62.6,62.6,0,0,0-6.57,0c-1.41.08-1.7-.44-1.69-1.75.06-8.63,0-17.27.07-25.9,0-1.76-.42-2.33-2.23-2.25-3.32.15-3.32,0-3.32-3.28,0-3.65,0-3.75,3.59-3.62,1.72.07,2.05-.56,1.95-2.08a19.65,19.65,0,0,1,.36-5.77A12,12,0,0,1,347.5,29.55Z"/><path class="cls-1" d="M293.39,56.43c0-8.25,0-16.5,0-24.75,0-1.47.38-1.86,1.81-1.79,2.45.13,4.9.08,7.35,0,1,0,1.31.25,1.31,1.29q0,25.43,0,50.85c0,1-.31,1.31-1.31,1.28-2.51-.06-5-.08-7.54,0-1.25,0-1.62-.3-1.61-1.58C293.42,73.31,293.39,64.87,293.39,56.43Z"/><path class="cls-1" d="M362.17,65c0,5.54,0,11.08,0,16.61,0,1.17-.29,1.58-1.5,1.54-2.44-.09-4.89-.07-7.34,0-.93,0-1.19-.29-1.19-1.21q0-17.19,0-34.39c0-1.08.42-1.27,1.37-1.25,2.38,0,4.76.08,7.14,0,1.2,0,1.53.35,1.52,1.53C362.14,53.49,362.17,59.22,362.17,65Z"/><path class="cls-1" d="M322.38,64.86c0,5.67,0,11.33,0,17,0,1.21-.31,1.54-1.5,1.49-2.44-.09-4.89-.08-7.33,0-1.05,0-1.27-.34-1.27-1.32q0-17.17,0-34.36c0-1.07.27-1.46,1.39-1.43q3.66.12,7.34,0c1.15,0,1.37.41,1.36,1.45C322.36,53.41,322.38,59.14,322.38,64.86Z"/><path class="cls-1" d="M185.5,64.62c0,5.54-.07,11.08,0,16.61,0,1.6-.49,1.94-1.95,1.87-2.18-.11-4.37-.08-6.56,0-1.05,0-1.46-.22-1.45-1.37q.06-17,0-34c0-1.22.39-1.54,1.56-1.49,2.18.09,4.38.11,6.56,0,1.42-.08,1.87.29,1.85,1.78C185.44,53.55,185.5,59.09,185.5,64.62Z"/><path class="cls-1" d="M459.69,76.25a7.4,7.4,0,1,1-7.22-7.55A7.49,7.49,0,0,1,459.69,76.25Z"/><path class="cls-1" d="M364.18,34a7.37,7.37,0,1,1-7.32-7.43A7.43,7.43,0,0,1,364.18,34Z"/><path class="cls-1" d="M173,34a7.37,7.37,0,1,1,7.28,7.46A7.43,7.43,0,0,1,173,34Z"/><path class="cls-1" d="M317.34,37.29c-1.6,0-3.75.63-4.65-.16-1.07-.94-.15-3.16-.38-4.79-.29-2,.48-2.62,2.46-2.45a51.9,51.9,0,0,0,6.36,0c1.05,0,1.39.32,1.26,1.31a11,11,0,0,0,0,1.15c0,1.6.52,3.69-.28,4.66C321.15,38.18,319,37.15,317.34,37.29Z"/><path class="cls-2" d="M115.26,58.65a54.72,54.72,0,0,1-5.08,23.69c-.27.59-.55,1.18-.83,1.77a21.56,21.56,0,0,0-10.79-2.79A18.08,18.08,0,0,0,81.27,98.64a22.4,22.4,0,0,0,2.79,10.6,54,54,0,0,1-24.7,6,3,3,0,0,1-.74-.18q0-10.5,0-21c.39,0,.78-.1,1.17-.12a35.47,35.47,0,0,0,34.28-35.3Z"/><path class="cls-3" d="M58.61,94.07q0,10.5,0,21C51.1,115.52,44,113.76,37.1,111c-1.27-.5-2.46-1.18-3.68-1.77.27-.66.5-1.34.82-2A17.92,17.92,0,0,0,22.3,81.78,18.87,18.87,0,0,0,8,84.13,58.45,58.45,0,0,1,2.12,61.57c-.06-1,0-2,0-2.93l21.29,0c.17,12.06,5.17,21.67,14.84,28.81C44.29,91.88,51.21,93.77,58.61,94.07Z"/><path class="cls-4" d="M23.43,58.62l-21.29,0A53.5,53.5,0,0,1,8,33.54,3,3,0,0,1,9.67,34c6.83,3.25,13.5,2.83,19.48-1.75,5.37-4.11,7.61-9.78,6.78-16.65-.33-2.74-1.64-5-2.49-7.54A51.43,51.43,0,0,1,58.54,2.2V23.26c-.46,0-.91.09-1.36.11A35.36,35.36,0,0,0,25.39,47,30.47,30.47,0,0,0,23.43,58.62Z"/><path class="cls-5" d="M115.26,58.65H94.06c0-.46-.1-.91-.12-1.36A34.6,34.6,0,0,0,80.5,30.92c-6.29-5.07-13.62-7.29-21.59-7.66V2.2A52.06,52.06,0,0,1,84.07,8.07c-.34.78-.65,1.56-1,2.31A18,18,0,0,0,90.83,34c6.31,3.2,12.49,2.71,18.53-.81a58.18,58.18,0,0,1,5.86,22C115.28,56.3,115.25,57.48,115.26,58.65Z"/><path class="cls-6" d="M109.36,33.16c-6,3.52-12.22,4-18.53.81A18,18,0,0,1,83,10.38c.38-.75.69-1.53,1-2.31C86.94,4.5,90.31,1.66,94.91.54A18.06,18.06,0,0,1,110.42,32.3C110.06,32.58,109.71,32.87,109.36,33.16Z"/><path class="cls-7" d="M33.44,8.06c.85,2.5,2.16,4.8,2.49,7.54.83,6.87-1.41,12.54-6.78,16.65-6,4.58-12.65,5-19.48,1.75A3,3,0,0,0,8,33.54c0-.8-.76-1-1.24-1.41A18,18,0,0,1,17.73,0,17.63,17.63,0,0,1,32.11,6.68C32.52,7.17,32.76,7.83,33.44,8.06Z"/><path class="cls-8" d="M8,84.13A18.87,18.87,0,0,1,22.3,81.78a17.92,17.92,0,0,1,11.94,25.5c-.32.63-.55,1.31-.82,2-.88,1-1.73,1.94-2.65,2.85A18,18,0,1,1,6.7,85.26Z"/><path class="cls-9" d="M84.06,109.24a22.4,22.4,0,0,1-2.79-10.6A18.08,18.08,0,0,1,98.56,81.32a21.56,21.56,0,0,1,10.79,2.79c4,3,6.8,6.8,7.7,11.84a18,18,0,0,1-32,14.45C84.77,110,84.41,109.63,84.06,109.24Z"/><path class="cls-7" d="M58.91,2.2V23.26a.48.48,0,0,1-.37,0V2.2A.4.4,0,0,1,58.91,2.2Z"/></g></g></svg>