<svg xmlns="http://www.w3.org/2000/svg" viewBox="0 0 922.83 732.07"><defs><style>.cls-1{fill:#fff;opacity:0.32;}</style></defs><g id="Layer_2" data-name="Layer 2"><g id="Layer_1-2" data-name="Layer 1"><path class="cls-1" d="M80.53,118.91l1.92,6.42a3.3,3.3,0,0,0,2.22,2.22l6.42,1.92a.24.24,0,0,1,0,.45l-6.42,1.91a3.3,3.3,0,0,0-2.22,2.22l-1.92,6.42a.24.24,0,0,1-.45,0l-1.91-6.42A3.3,3.3,0,0,0,76,131.83l-6.42-1.91a.24.24,0,0,1,0-.45L76,127.55a3.3,3.3,0,0,0,2.22-2.22l1.91-6.42A.24.24,0,0,1,80.53,118.91Z"/><path class="cls-1" d="M916.34,29.43l1.16,3.89a2,2,0,0,0,1.34,1.34l3.89,1.16a.14.14,0,0,1,0,.27l-3.89,1.16a2,2,0,0,0-1.34,1.34l-1.16,3.89a.14.14,0,0,1-.27,0l-1.16-3.89a2,2,0,0,0-1.34-1.34l-3.89-1.16a.14.14,0,0,1,0-.27l3.89-1.16a2,2,0,0,0,1.34-1.34l1.16-3.89A.14.14,0,0,1,916.34,29.43Z"/><path class="cls-1" d="M808.32,140l1.16,3.89a2,2,0,0,0,1.34,1.34l3.89,1.16a.14.14,0,0,1,0,.27l-3.89,1.16a2,2,0,0,0-1.34,1.34L808.32,153a.14.14,0,0,1-.27,0l-1.16-3.89a2,2,0,0,0-1.34-1.34l-3.89-1.16a.14.14,0,0,1,0-.27l3.89-1.16a2,2,0,0,0,1.34-1.34l1.16-3.89A.14.14,0,0,1,808.32,140Z"/><path class="cls-1" d="M798.12,441.84l.72,2.43a1.25,1.25,0,0,0,.84.83l2.43.73a.09.09,0,0,1,0,.17l-2.43.72a1.26,1.26,0,0,0-.84.84l-.72,2.43a.09.09,0,0,1-.17,0l-.73-2.43a1.24,1.24,0,0,0-.84-.84L794,446a.09.09,0,0,1,0-.17l2.43-.73a1.23,1.23,0,0,0,.84-.83l.73-2.43A.09.09,0,0,1,798.12,441.84Z"/><path class="cls-1" d="M912.09,640.56l.72,2.43a1.24,1.24,0,0,0,.84.84l2.43.73a.09.09,0,0,1,0,.17l-2.43.72a1.26,1.26,0,0,0-.84.84l-.72,2.43a.1.1,0,0,1-.18,0l-.72-2.43a1.26,1.26,0,0,0-.84-.84l-2.43-.72a.09.09,0,0,1,0-.17l2.43-.73a1.24,1.24,0,0,0,.84-.84l.72-2.43A.1.1,0,0,1,912.09,640.56Z"/><path class="cls-1" d="M4.23,299.76,5,302.19a1.26,1.26,0,0,0,.84.84l2.43.72a.1.1,0,0,1,0,.18l-2.43.72a1.26,1.26,0,0,0-.84.84l-.72,2.43a.09.09,0,0,1-.17,0l-.73-2.43a1.24,1.24,0,0,0-.84-.84l-2.43-.72a.1.1,0,0,1,0-.18L2.49,303a1.24,1.24,0,0,0,.84-.84l.73-2.43A.09.09,0,0,1,4.23,299.76Z"/><path class="cls-1" d="M13,8.53,13.68,11a1.25,1.25,0,0,0,.84.83l2.43.73a.09.09,0,0,1,0,.17l-2.43.73a1.25,1.25,0,0,0-.84.83L13,16.68a.09.09,0,0,1-.17,0l-.73-2.43a1.23,1.23,0,0,0-.84-.83l-2.43-.73a.09.09,0,0,1,0-.17l2.43-.73a1.23,1.23,0,0,0,.84-.83l.73-2.43A.09.09,0,0,1,13,8.53Z"/><path class="cls-1" d="M168.14,687.72l.73,2.43a1.22,1.22,0,0,0,.84.84l2.43.73a.09.09,0,0,1,0,.17l-2.43.72a1.24,1.24,0,0,0-.84.84l-.73,2.43a.09.09,0,0,1-.17,0l-.72-2.43a1.26,1.26,0,0,0-.84-.84l-2.43-.72a.09.09,0,0,1,0-.17l2.43-.73a1.24,1.24,0,0,0,.84-.84l.72-2.43A.09.09,0,0,1,168.14,687.72Z"/><path class="cls-1" d="M372.92,293.1l.73,2.43a1.22,1.22,0,0,0,.84.84l2.43.73a.09.09,0,0,1,0,.17l-2.43.72a1.24,1.24,0,0,0-.84.84l-.73,2.43a.09.09,0,0,1-.17,0l-.72-2.43a1.26,1.26,0,0,0-.84-.84l-2.43-.72a.09.09,0,0,1,0-.17l2.43-.73a1.24,1.24,0,0,0,.84-.84l.72-2.43A.09.09,0,0,1,372.92,293.1Z"/><path class="cls-1" d="M34.47,719.88l.72,2.43a1.26,1.26,0,0,0,.84.84l2.43.72a.1.1,0,0,1,0,.18l-2.43.72a1.26,1.26,0,0,0-.84.84L34.47,728a.09.09,0,0,1-.17,0l-.73-2.43a1.24,1.24,0,0,0-.84-.84l-2.43-.72a.1.1,0,0,1,0-.18l2.43-.72a1.24,1.24,0,0,0,.84-.84l.73-2.43A.09.09,0,0,1,34.47,719.88Z"/><path class="cls-1" d="M272.07,27.6l.72,2.43a1.26,1.26,0,0,0,.84.84l2.43.72a.1.1,0,0,1,0,.18l-2.43.72a1.26,1.26,0,0,0-.84.84l-.72,2.43a.09.09,0,0,1-.17,0l-.73-2.43a1.24,1.24,0,0,0-.84-.84l-2.43-.72a.1.1,0,0,1,0-.18l2.43-.72a1.24,1.24,0,0,0,.84-.84l.73-2.43A.09.09,0,0,1,272.07,27.6Z"/><path class="cls-1" d="M718.16,628.08l.73,2.43a1.24,1.24,0,0,0,.84.84l2.43.72a.1.1,0,0,1,0,.18l-2.43.72a1.24,1.24,0,0,0-.84.84l-.73,2.43a.09.09,0,0,1-.17,0l-.72-2.43a1.26,1.26,0,0,0-.84-.84l-2.43-.72a.1.1,0,0,1,0-.18l2.43-.72a1.26,1.26,0,0,0,.84-.84l.72-2.43A.09.09,0,0,1,718.16,628.08Z"/><path class="cls-1" d="M231.33,558.12l.72,2.43a1.24,1.24,0,0,0,.84.84l2.43.73a.09.09,0,0,1,0,.17l-2.43.72a1.26,1.26,0,0,0-.84.84l-.72,2.43a.1.1,0,0,1-.18,0l-.72-2.43a1.26,1.26,0,0,0-.84-.84l-2.43-.72a.09.09,0,0,1,0-.17l2.43-.73a1.24,1.24,0,0,0,.84-.84l.72-2.43A.1.1,0,0,1,231.33,558.12Z"/><path class="cls-1" d="M677.12.06l.73,2.43a1.22,1.22,0,0,0,.84.84l2.43.73a.09.09,0,0,1,0,.17L678.69,5a1.24,1.24,0,0,0-.84.84l-.73,2.43a.09.09,0,0,1-.17,0l-.72-2.43a1.26,1.26,0,0,0-.84-.84L673,4.23a.09.09,0,0,1,0-.17l2.43-.73a1.24,1.24,0,0,0,.84-.84L677,.06A.09.09,0,0,1,677.12.06Z"/><path class="cls-1" d="M649.82,200.7l.73,2.43a1.24,1.24,0,0,0,.84.84l2.43.72a.09.09,0,0,1,0,.17l-2.43.73a1.22,1.22,0,0,0-.84.84l-.73,2.43a.09.09,0,0,1-.17,0l-.72-2.43a1.24,1.24,0,0,0-.84-.84l-2.43-.73a.09.09,0,0,1,0-.17l2.43-.72a1.26,1.26,0,0,0,.84-.84l.72-2.43A.09.09,0,0,1,649.82,200.7Z"/><path class="cls-1" d="M834.48,723.85l.72,2.43a1.25,1.25,0,0,0,.84.83l2.43.73a.09.09,0,0,1,0,.17l-2.43.73a1.25,1.25,0,0,0-.84.83l-.72,2.43a.09.09,0,0,1-.17,0l-.73-2.43a1.23,1.23,0,0,0-.84-.83l-2.43-.73a.09.09,0,0,1,0-.17l2.43-.73a1.23,1.23,0,0,0,.84-.83l.73-2.43A.09.09,0,0,1,834.48,723.85Z"/></g></g></svg>